<?xml version="1.0" encoding="utf-8"?>
<svg version="1.1" opacity="0.3" xmlns="http://www.w3.org/2000/svg" xmlns:xlink="http://www.w3.org/1999/xlink" x="0px" y="0px" width="85px" height="85px" viewBox="0 0 85 85" style="enable-background:new 0 0 85 85;" xml:space="preserve">
<path fill="#204F74" d="M36.6,67.5c2.6,5.3,4.2,11.2,4.4,17.5c-6.2-0.2-12.1-1.8-17.4-4.4c3-2,5.9-4.4,8.4-7.1C33.7,71.6,35.2,69.6,36.6,67.5z M11.6,53.2c1.9-1.8,4-3.3,6.1-4.7C12.3,45.8,6.4,44.2,0,43.9c0.2,6.3,1.8,12.2,4.5,17.5C6.5,58.5,8.9,55.7,11.6,53.2z M53.3,73.4c-1.7-1.9-3.3-3.9-4.7-6.1C45.9,72.6,44.2,78.6,44,85c6.3-0.2,12.3-1.8,17.6-4.5C58.6,78.5,55.8,76.1,53.3,73.4z M67.5,36.5c5.3,2.7,11.2,4.2,17.5,4.5c-0.2-6.3-1.8-12.2-4.5-17.6C77.2,28.6,72.7,33.1,67.5,36.5zM48.6,17.7c3.4-5.3,7.9-9.8,13.2-13.2C56.8,1.9,51.1,0.3,45.2,0H44C44.3,6.3,45.9,12.4,48.6,17.7z M80.4,61.8c2.8-5.4,4.4-11.4,4.6-17.9c-6.4,0.2-12.5,1.9-17.9,4.6C72.5,52,77,56.6,80.4,61.8z M23.3,4.5c5.2,3.4,9.7,7.9,13.2,13.1C39.2,12.3,40.8,6.3,41,0h-1.1C34,0.3,28.4,1.9,23.3,4.5z M11.8,32c-2.8-2.6-5.2-5.5-7.3-8.6C1.8,28.7,0.3,34.7,0,41c6.3-0.2,12.2-1.8,17.5-4.5C15.5,35.2,13.6,33.7,11.8,32z"/>
<path fill="#2E7097" d="M80.4,67.6c2.6,5.2,4.2,11.1,4.5,17.3h-2c-5.4-0.5-10.6-2-15.4-4.4C72.6,77.1,77,72.7,80.4,67.6z M26.8,47c1.6,5.4,5.9,9.6,11.3,11.2c1.8-4.5,2.7-9.2,2.9-14.1C36.1,44.3,31.3,45.3,26.8,47z M34.9,20.5c-3.6-5.9-8.6-10.9-14.5-14.4C14.6,9.7,9.7,14.6,6.1,20.5c2.1,3.4,4.6,6.6,7.6,9.3c2.1,1.9,4.3,3.6,6.7,5.1C26.3,31.3,31.3,26.4,34.9,20.5z M4.5,67.3c-2.4,4.8-4,10-4.5,15.5V85h2.4c5.4-0.5,10.6-2,15.4-4.4C12.5,77.1,7.9,72.6,4.5,67.3z M80.6,17.6c2.7-5.3,4.3-11.3,4.5-17.5c-6.2,0.2-12.1,1.8-17.4,4.5C72.8,7.9,77.2,12.4,80.6,17.6z M20.6,50.1c-2.5,1.5-4.9,3.2-7,5.2c-2.9,2.7-5.4,5.7-7.5,9.1c3.6,6,8.6,11,14.6,14.6c3.3-2,6.4-4.6,9.1-7.5c2-2.1,3.7-4.4,5.1-6.9C31.4,58.7,26.5,53.7,20.6,50.1z M47.2,58.3c5.4-1.5,9.7-5.7,11.3-11c-4.4-1.8-9.3-2.9-14.3-3.2C44.4,49,45.4,53.8,47.2,58.3z M50.3,20.6c1.6,2.6,3.4,5,5.5,7.1c0.5,0.5,1,0.9,1.5,1.5c2.2,2.1,4.7,4,7.4,5.7c5.9-3.6,10.8-8.5,14.4-14.4c-3.5-5.8-8.4-10.8-14.2-14.3C58.8,9.7,53.8,14.7,50.3,20.6z M50.2,64.4c1.5,2.5,3.2,4.8,5.2,7c2.7,2.9,5.8,5.5,9.1,7.5c5.8-3.5,10.7-8.4,14.2-14.2c-3.6-5.9-8.6-10.9-14.5-14.5C58.6,53.8,53.7,58.6,50.2,64.4z M37.9,26.4c-5.4,1.7-9.7,6.1-11.2,11.6c4.5,1.8,9.4,2.9,14.3,3C40.8,35.9,39.7,31,37.9,26.4z M17.5,4.5C12.2,1.9,6.4,0.3,0.2,0.1v2.3c0.5,5.3,2,10.5,4.3,15.2C7.9,12.4,12.3,7.9,17.5,4.5zM52.7,29.9c-1.8-1.6-4-2.8-6.4-3.5c-1.9,4.6-3,9.5-3.2,14.7c5.1-0.2,10-1.3,14.5-3.1c-0.7-2.5-1.9-4.8-3.6-6.6C53.6,30.8,53.2,30.4,52.7,29.9z"/>
</svg>
