<?xml version="1.0" encoding="utf-8"?>
<svg version="1.1" xmlns="http://www.w3.org/2000/svg" xmlns:xlink="http://www.w3.org/1999/xlink" x="0px" y="0px" width="40" viewBox="0 0 40 40" style="enable-background:new 0 0 40 40;" xml:space="preserve">
	<path fill="#902E1B" d="M34.2,26.1l0.2-0.5l-3.5-1.4l-6.2-15l1.4-3.4l-0.5-0.2L24.2,9L9.3,15.2l-3.5-1.4l-0.2,0.5l3.5,1.4l0,0
		l6.2,14.9l0,0l-1.6,3.5l0.5,0.2l1.5-3.5l15-6.2L34.2,26.1z M15.7,30.3L9.6,15.6l14.6-6.1l6.1,14.6L15.7,30.3z M25.7,34.4L24.3,31
		l0.5-0.2l1.4,3.4L25.7,34.4z M15.2,9.2l-1.4-3.4l0.5-0.2L15.7,9L15.2,9.2z M31,15.8l-0.2-0.5l3.4-1.4l0.2,0.5L31,15.8z M5.8,26.2
		l-0.2-0.5L9,24.3l0.2,0.5L5.8,26.2z"/>
	<path fill="#E37B3A" d="M24.6,31.2L8.8,24.6l6.5-15.8l15.8,6.5L24.6,31.2z M9.5,24.3l14.8,6.1l6.1-14.8L15.7,9.5L9.5,24.3z"/>
	<path fill="#E37B3A" d="M20,35.9l-4.6-4.7l-6.6,0.1l0.1-6.6L4.1,20l4.7-4.6L8.8,8.8l6.6,0.1L20,4.1l4.6,4.7l6.6-0.1l-0.1,6.6l4.7,4.6
		l-4.7,4.6l0.1,6.6l-6.6-0.1L20,35.9z M15.6,30.6l4.4,4.5l4.4-4.5l6.3,0.1l-0.1-6.3l4.5-4.4l-4.5-4.4l0.1-6.3l-6.3,0.1L20,4.9
		l-4.4,4.5L9.3,9.3l0.1,6.3L4.9,20l4.5,4.4l-0.1,6.3L15.6,30.6z"/>
	<path fill="#902E1B" d="M20,36c-8.8,0-16-7.2-16-16S11.2,4,20,4s16,7.2,16,16S28.8,36,20,36z M20,4.5C11.5,4.5,4.5,11.5,4.5,20
		c0,8.5,6.9,15.5,15.5,15.5c8.5,0,15.5-6.9,15.5-15.5C35.5,11.5,28.5,4.5,20,4.5z"/>
</svg>
