<?xml version="1.0" encoding="utf-8"?>
<svg version="1.1" xmlns="http://www.w3.org/2000/svg" xmlns:xlink="http://www.w3.org/1999/xlink" x="0px" y="0px" width="24" viewBox="0 0 30 30" style="enable-background:new 0 0 30 30;" xml:space="preserve">
<path fill="#DAC68B" d="M11.1,0.3c2.2,4.4,3.6,9.4,3.8,14.7h-1.7C8.5,14.7,4,13.4,0,11.3C4.4,8.4,8.1,4.7,11.1,0.3z M18.6,0
	c-2.1,4-3.4,8.6-3.8,13.2v1.9h2c4.6-0.4,9.1-1.7,13.1-3.8C25.4,8.3,21.5,4.5,18.6,0z M11,30c2.3-4.5,3.7-9.5,3.9-14.9
	C9.5,15.3,4.5,16.6,0,19C4.4,21.9,8.2,25.7,11,30z M29.5,18.9c-4.4-2.2-9.4-3.6-14.7-3.8V17c0.4,4.5,1.6,9,3.7,12.9
	C21.3,25.5,25.1,21.7,29.5,18.9z"/>
</svg>