<?xml version="1.0" encoding="utf-8"?>
<svg version="1.1" class="cover__ic__pot" xmlns="http://www.w3.org/2000/svg" xmlns:xlink="http://www.w3.org/1999/xlink" x="0px" y="0px" width="660" height="755" viewBox="0 0 660 755" style="enable-background:new 0 0 660 755;" xml:space="preserve">
  <defs>
		<filter id="dropshadow">
			<feGaussianBlur in="SourceAlpha" stdDeviation="10"/> 
			<feOffset dx="0" dy="2"/>
			<feComponentTransfer>
				<feFuncA type="linear" slope="0.2"/>
			</feComponentTransfer>
			<feMerge> 
				<feMergeNode/>
				<feMergeNode in="SourceGraphic"/> 
			</feMerge>
		</filter>

		<filter id="glow">
			<feGaussianBlur stdDeviation="2.5" result="coloredBlur"/>
			<feMerge>
				<feMergeNode in="coloredBlur"/>
				<feMergeNode in="SourceGraphic"/>
			</feMerge>
		</filter>
	</defs>
	<g id="smoke__left--bottom" opacity="0.85">
		<path fill="#EBE2C4" d="M151.2,352.1c-0.3-8.1,2.5-16.4,2.5-24.5c0-12.4-7.1-24-18.2-29.8c-11.1-5.8-25.9-5.5-38,0.6
			c-9.4-4.5-22.1-2.9-30.9,4c-4.5,3.4-7.9,8-10.4,12.8c-3.9,7.5-5.8,15.9-5.3,23.9c0.8,13.9,11.6,27.9,26.5,26.6
			c0.4,1.3,0.9,2.6,1.6,3.8c3.4,6.2,10.4,10.4,18.1,10.8c11.5,0.6,22.4-6.6,33.6-10.4c9.6-3.2,19.8-3.9,29.3-2.1
			C154.6,365,151.5,358.4,151.2,352.1z"/>
		<path fill="#FFF" filter="url(#glow)" d="M165.7,367.5c-1.6-0.5-3.3-0.8-4.9-1.2c-7.3-3.4-8.6-13.6-7.7-21.2c1.1-9,3.4-17.7,0.9-26.7
			c-4.2-15.4-18.1-25.3-33.8-26.3c-4-0.2-8,0.1-11.9,0.9c-3.6,0.7-8.1,3.6-11.6,3.3c-3.4-0.3-6.7-1.9-10.3-2
			c-4.1-0.1-8.3,0.7-12.2,2.1c-15.9,5.9-24.9,23.8-24.9,40c0,15.4,10.7,31,27.1,30.7c3.9,10.4,15.4,15.9,26.8,14.2
			c9.9-1.5,18.6-7,27.9-10.1c9.3-3.1,19.1-3.8,28.7-2c1.6,0.7,3.4,1.1,5.4,1.2C167,370.6,167.3,368,165.7,367.5z M127.2,369.5
			c-12.3,4.7-26.8,14.1-39.9,6.2c-14.3-8.6-10.7-31.6,5-36.6c7.4-2.3,19.4,3,14,12.1c-2,3.4-6.8,6.4-10.6,4.2
			c-3.7-2.2-3.8-7.6-0.3-10.1c1.5-1.1,0.1-3.7-1.5-2.6c-8.3,6-2.1,19.4,8,15.9c5.1-1.8,9.3-7.4,8.6-12.9c-0.7-5.6-5.9-9.3-11.1-10.1
			c-13.7-2.2-24.8,12.5-24.2,25c0.1,1.2,0.2,2.4,0.5,3.5c-15.8-0.4-24.3-16.7-23.1-31.2c1.5-17.9,14.5-36,33.9-35.7
			c2.1,0,4.1,0.3,6.1,0.8c1.4,0.3,3.3,1.7,4.7,1.7c3,0,6.5-2.5,9.5-3.3c8.7-2.3,18.5-2,26.7,1.8c6.9,3.2,12.6,8.8,15.8,15.8
			c4,8.5,2.9,17.2,1.5,26.2c-1.3,8.2-1.3,19,4,25.2C145.4,364.7,136,366.1,127.2,369.5z"/>
	</g>
	<g id="smoke__left--top" opacity="0.8">
		<path fill="#EBE2C4" d="M75,29.1C67.7,20.2,59.8,11.4,49.6,6c-10.2-5.4-23.3-6.7-33-0.6c-9.7,6.2-13.7,21.1-6.1,29.8
			c-9.4,12-11.8,29-6.3,43.1s19,24.9,34,27.3c8.8,1.4,18.4-0.1,25.2-5.8c6.8-5.7,9.9-16.2,5.6-24c-0.3-0.6-0.7-1.1-1.1-1.6
			c33.6,21,56.5,55.1,78.3,88.1c9.9,14.9,19.7,29.8,29.6,44.7l2.5,4.1C155.1,145.1,119.9,83.1,75,29.1z"/>
		<path fill="#FFF" filter="url(#glow)" d="M179.7,210.9c-15.5-43.7-35.9-85.5-61-124.5c-12.1-18.8-25.2-36.9-39.4-54.2C66.9,16.9,51.6-1.1,29.8,0.1
			C20.7,0.5,12.1,5,7.9,13.3c-3.6,7.1-3.6,15.4,1,21.9c-9.3,12.9-11.7,30.3-5.3,45c6.2,14.3,20.3,25,35.8,27
			c14.2,1.8,30.6-4.9,32.7-20.6c0.4-3,0-6-1-8.7c23.3,15.8,41.4,37.7,57.5,60.6c16.8,24,33.3,48.5,48.7,73.4
			C178,213.1,180.2,212.4,179.7,210.9z M68,72.7c-4.3-5.1-11.2-7.7-18.4-4.7c-11.6,4.9-8.2,24.2,4.5,24.4c1.7,0,1.7-2.7,0-2.7
			c-6.7-0.1-10.8-8.1-8.6-14.1c2.9-8,14-7.3,19.4-2.6c0.3,0.3,0.7,0.6,1,0.9c0,0.4,0.2,0.7,0.6,1c0.1,0.1,0.3,0.2,0.4,0.3
			c4.1,5.7,2.9,14.1-1,19.7c-5.1,7.4-14.5,10.1-23.1,9.8c-15.4-0.6-29.8-10.7-36.4-24.4c-6.9-14.4-4.4-31.8,5.1-44.4
			c0.4-0.5,0.1-1.2-0.2-1.6C5.6,27,7.5,16.2,13.6,9.7c7.3-7.9,19.5-8.3,29.1-5.1c18.9,6.1,31.9,25.6,43.5,40.6
			c24.7,31.8,46.1,66.1,63.9,102.2c8.4,17.1,15.9,34.5,22.7,52.3c-14-22.1-28.6-43.9-43.8-65.2C112.1,110.8,92.9,88.3,68,72.7z"/>
	</g>
	<g id="smoke__left--middle" opacity="0.75">
		<path fill="#EBE2C4" d="M203.4,181.2c-3.2-35.2-13.7-69.8-30.5-100.9c-2.3-4.3-6.3-9.3-11.1-8.1c-3.4,0.9-5.3,4.9-5,8.4
			c0.3,3.5,2.2,6.7,4,9.8c17.3,29.2,31.7,60,42.9,92L203.4,181.2z"/>
		<path fill="#FFF" filter="url(#glow)" d="M205.2,182c-0.1-0.3-0.2-0.6-0.3-0.8c-3.3-34.6-13.2-68.4-29.4-99.2c-2.4-4.6-5.8-11-11.7-11.3
			c-5.2-0.3-8.4,4.6-8.4,9.4c0,6.9,5.6,13.5,8.8,19.2c4.6,8,8.9,16.2,13.1,24.5c9.6,19.2,17.9,39,25,59.2
			C202.9,184.6,205.8,183.8,205.2,182z M169.5,102.5c-2.4-4.3-4.9-8.6-7.4-12.8c-2.4-4.2-6.5-10.9-1.4-14.7
			c7.9-6,15.7,15.4,18.1,20.6c4.2,9.1,7.9,18.5,11,28.1c4.9,14.8,8.3,30,10.5,45.4c-5.2-13.7-11-27.1-17.3-40.3
			C178.8,119.9,174.3,111.1,169.5,102.5z"/>
	</g>
	<g id="smoke__right--bottom" opacity="0.8">
		<path fill="#EBE2C4" d="M586.5,359.8c-8.5-8.8-22.2-13.8-33.3-8.6c-10.9,5.2-15.6,17.9-19.2,29.5c-1.4-9.5-11.9-16.1-21.5-14.7
			c-9.5,1.5-17.2,9.6-19.8,18.9c-2.5,9.3-0.6,19.4,3.7,28c2.9,6,7,11.8,7.1,18.4c0.1,6.6-6.3,13.9-12.5,11.3c1.1,5.6,8.6,7.5,14,5.6
			c5.4-2,9.4-6.4,14.2-9.5c7.6-5,17.4-6.6,26.2-4.3l1.1-1.1c18.2,3.4,38-6,46.8-22.2C602.3,394.8,599.3,373.1,586.5,359.8z"/>
		<path fill="#FFF" filter="url(#glow)" d="M589.5,360.9c-7.8-9.3-21-15.8-33.3-12.4c-12.5,3.5-18.3,15.8-22.2,27.4c-2.9-6.2-9.1-10.4-16-11.4
			c-9.3-1.3-17.9,4.2-22.9,11.8c-6,9.1-6,20.7-2.7,30.8c1.8,5.5,5,10.4,7.3,15.6c1.7,3.8,3.1,8.2,1.7,12.3c-1.4,4.2-5.4,7.7-10,6.3
			c-1.1-0.3-2.2,0.8-1.8,1.8c2.3,7.9,11.9,8.8,18.3,5.5c5.4-2.7,9.5-7.4,14.8-10.2c6.9-3.6,14.8-4.3,22.3-2.6c0.9,0.2,1.5-0.3,1.8-1
			c24.9,3.8,49.9-13.4,52.8-38.9C601.1,383.5,597.5,370.5,589.5,360.9z M586.7,418.1c-9.8,10.9-25.2,16.3-39.6,13.8
			c-0.8-0.1-1.5,0.3-1.7,1c-8.9-1.9-18.2-0.6-26,4.2c-4.2,2.6-7.7,6.3-12.1,8.6c-4,2.2-10.5,2.8-13.5-1.1c5.9,0,10.7-5.7,11.3-11.6
			c1.1-10.6-8.2-20.1-10.6-30c-3-11.9-0.2-26,10.9-32.7c10.2-6.2,24.9-1.6,27.3,10.8c0,0,0,0.1,0,0.1c-2,10.5,2,21.9,13.6,24.4
			c9.4,2,19.3-5.3,19.4-15.1c0-8.4-11-17.1-17.2-8.2c-5.1,7.3,5.3,15.4,10.8,8.1c1.2-1.5-1.4-3-2.6-1.5c-2.1-0.4-4.2-0.8-6.4-1.2
			c0.7-1.7,1.4-3.4,2.1-5.1c1.4-1.3,4.5-0.8,6-0.1c3.1,1.6,4.4,5.5,4.2,8.8c-0.3,5.4-5,10.1-10.1,11.3c-5.3,1.3-10.9-1.2-14.2-5.4
			c-3.8-4.7-3.8-10.8-2.5-16.4c0.1-0.2,0.1-0.4,0-0.6c4.3-13.2,10.9-29.5,27.2-29.6c15.5-0.1,27.9,13,32.1,27
			C599.3,391.6,596.5,407.1,586.7,418.1z"/>
	</g>
	<g id="smoke__right--top" opacity="0.75">
		<path fill="#EBE2C4" d="M477.7,268.2c1.7-18.7,7.2-37,16.1-53.5c1.2-2.3,3.6-4.2,6.1-3.6c1.8,0.5,2.6,1.9,2.4,3.8
			c-0.2,1.9-1.2,3.6-2.1,5.2c-9.2,15.4-16.8,31.8-22.7,48.7"/>
		<path fill="#EBE2C4" d="M591,179.8c4.5-5.2,2.2-14-3.6-17.7c-5.8-3.7-13.6-2.9-19.6,0.3c-6.1,3.2-10.7,8.5-15.1,13.7
			c-26.6,32.1-47.5,68.9-61.4,108.2l1.5-2.4c5.8-8.9,11.7-17.7,17.5-26.6c13-19.6,26.6-39.8,46.5-52.3c-0.2,0.3-0.4,0.6-0.6,0.9
			c-2.5,4.6-0.7,10.8,3.3,14.2s9.8,4.3,15,3.5c8.9-1.4,16.9-7.8,20.2-16.2C598.1,197,596.6,186.9,591,179.8z"/>
		<path fill="#FFF" filter="url(#glow)" d="M597.2,193.6c-0.2-2.6-0.8-5.1-1.7-7.5c-1.1-2.9-3.3-4.9-2.4-8c2.2-7.5-0.4-15.3-8.3-18.2
			c-10.9-4-21.5,3.2-28.6,10.9c-8.9,9.6-16.8,20.5-24.1,31.3c-17.4,25.4-31.3,53-41.6,82c-0.3,0.9,1.1,1.4,1.5,0.6
			c9-14.6,18.7-29,28.6-43.1c9.6-13.7,20.3-26.7,34.2-36.3c-0.2,0.7-0.4,1.4-0.5,2.1c-1.1,9.7,8.4,15.5,17.1,15.3
			c10-0.2,19.4-6.7,23.5-15.6C596.9,203,597.6,198.2,597.2,193.6z M577.8,220c-8.5,2.7-21.6-0.1-21.9-11.1c0-2.1,0.7-4.1,2-5.7
			c0,0,0.1-0.1,0.1-0.1c2-2.4,5.1-3.7,8.5-2.6c5.9,1.9,4.9,11.3-1.4,11.6c-1.1,0.1-1.1,1.7,0,1.7c6.1-0.3,9.4-8.4,5.2-12.9
			c-3.9-4.2-9.9-2.7-13.4,1.1c0,0,0,0-0.1,0c-14.6,9.2-25.9,22.2-35.8,36.1c-9,12.6-17.8,25.7-26.1,38.9
			c9.6-25.3,22.1-49.4,37.2-71.9c8.1-12.1,16.7-24.5,27-34.8c5.5-5.6,12.7-10.3,21-9.7c9,0.7,16.4,10.7,10.2,18.8
			c-0.2,0.2-0.2,0.6,0,0.8C600.6,194.3,594.8,214.7,577.8,220z"/>
		<path fill="#FFF" filter="url(#glow)" d="M499.8,209.6c-3.5-0.8-5.7,3-7.1,5.4c-2.8,5.2-5.2,10.7-7.3,16.2c-4.5,11.9-7.3,24.3-8.5,36.9
			c-0.1,0.1-0.1,0.3-0.2,0.4c-0.4,1,1.3,1.5,1.6,0.4c4.7-13.4,10.4-26.4,17.1-38.8C497.1,227.1,508.9,211.8,499.8,209.6z
			 M497.6,222.9c-1.2,2.1-2.4,4.3-3.6,6.5c-2.4,4.4-4.6,8.8-6.7,13.3c-2.9,6.1-5.5,12.4-8,18.7c1.1-7.5,2.7-14.9,5-22.2
			c1.6-5,3.4-9.8,5.5-14.6c1-2.1,2-4.3,3-6.3c0.5-1,1.1-2.1,1.6-3.1c2.4-3.9,6.9-5.5,6.7,0.9C501.2,218,498.6,221.2,497.6,222.9z"/>
	</g>
	<g class="cover__ic__pot__body">
		<path class="pot_handle" fill="#38221A" d="M178.2,544.6c2.3,15.6,4.3,29.6,6.6,45.3c-2,0.3-4.1,0.5-6.1,0.8c-1.7-7.8-3.5-15.6-5.2-23.4
			c-0.4-1.7-0.8-3.5-2.1-4.6c-1-0.8-2.3-1.1-3.6-1.4c-3.8-0.8-7.5-1.7-11.3-2.5c-4.2-0.9-8.9-1.8-12.5,0.5
			c-1.6-2.1-3.3-4.3-4.9-6.4c6.8-5.9,14.4-10.9,22.5-15c5.3,1.9,10.4,3.8,15.6,5.7L178.2,544.6z M480.3,544.6
			c-2.3,15.6-4.3,29.6-6.6,45.3c2,0.3,4.1,0.5,6.1,0.8c1.7-7.8,3.5-15.6,5.2-23.4c0.4-1.7,0.8-3.5,2.1-4.6c1-0.8,2.3-1.1,3.6-1.4
			c3.8-0.8,7.5-1.7,11.3-2.5c4.2-0.9,8.9-1.8,12.5,0.5c1.6-2.1,3.3-4.3,4.9-6.4c-6.8-5.9-14.4-10.9-22.5-15
			c-5.3,1.9-10.4,3.8-15.6,5.7L480.3,544.6z M239.2,741.6c0.8,2.8,1.6,5.6,2.3,8.4c0.3,1,0.6,2,1.3,2.6c0.8,0.8,1.9,1,3,1.2
			c1.5,0.3,3.1,0.6,4.6,0.9c1,0.2,2,0.4,2.9,0.1c1-0.4,1.8-1.3,2.4-2.1c1.4-1.8,2.8-3.7,4.2-5.5c-6.8-2.1-13.5-4.1-20.3-6.2
			c0,0.1,0,0.1,0,0.2L239.2,741.6z M420.1,741.2c0-0.1,0-0.1,0-0.2c-6.8,2.1-13.5,4.1-20.3,6.2c1.4,1.8,2.8,3.7,4.2,5.5
			c0.7,0.9,1.4,1.8,2.4,2.1c0.9,0.3,1.9,0.1,2.9-0.1c1.5-0.3,3.1-0.6,4.6-0.9c1.1-0.2,2.2-0.4,3-1.2c0.7-0.7,1-1.7,1.3-2.6
			c0.8-2.8,1.6-5.6,2.3-8.4L420.1,741.2z"/>
		<path class="pot_inner" fill="#DAC68B" d="M331.7,559.9c-52.7,1.6-102.5-3-153.9-15l-0.6-1.8c49.4-13.6,100.3-16.4,152-17.8
			c51.8,1.4,102.7,4.2,152,17.8l-0.7,1.8c-51.4,12-101.1,16.5-153.9,15"/>

		<g id="main__ruby">
			<polygon fill="#A80511" filter="url(#dropshadow)" points="396.7,253 261.9,253 226.7,306.4 329.3,419.9 431.9,306.4"/>
			<path fill="#F7E279" filter="url(#glow)" d="M433.4,306.3c0-0.4-0.2-0.8-0.5-1.1l-34.9-53c-0.3-0.4-0.8-0.7-1.3-0.7H261.9c-0.5,0-1,0.3-1.3,0.7l-34.9,53
				c-0.3,0.3-0.5,0.7-0.5,1.1c0,0,0,0.1,0,0.1c0,0.4,0.1,0.7,0.4,1l102.6,113.5c0.3,0.3,0.7,0.5,1.1,0.5s0.8-0.2,1.1-0.5L433,307.4
				c0.3-0.3,0.4-0.6,0.4-1C433.4,306.3,433.4,306.3,433.4,306.3z M361.4,307.8L329.2,414l-32.1-106.2H361.4z M297.8,304.7l31.4-49.5
				l31.9,49.5H297.8z M332.4,254.5h61.8l-30.8,48.2L332.4,254.5z M295,303.4l-30.8-48.9h61.8L295,303.4z M292.3,304.7h-62.7l32-48.7
				L292.3,304.7z M293.9,307.8L326,414l-96-106.2H293.9z M364.5,307.8h64l-96.2,106.4L364.5,307.8z M365.7,304.7l31.2-48.8l32.1,48.8
				H365.7z"/>
		</g>

		<path fill="#902E1B" filter="url(#dropshadow)" d="M177.2,543.6l0.6,3.7c6.6,56.6,16.1,112.9,28.5,168.5c1.8,8.1,3.6,20.7,13.7,23.7
			c28.9,8.6,68,13.7,109.2,13.5c41.3,0.2,80.4-4.9,109.2-13.5c10.1-3,11.9-15.6,13.7-23.7c12.4-55.6,21.9-111.9,28.5-168.5l0.6-3.7
			C430.4,562.4,227.8,562.4,177.2,543.6z"/>
		<path fill="#38221A" d="M365.3,717.7c-1.8-25.2-13-44.8-13-44.8h-46.2c0,0-11.1,19.6-13,44.8c-1.8,25.2,9.3,31.9,9.3,31.9h53.6
			C356.1,749.5,367.2,742.9,365.3,717.7z"/>
		<path fill="#EBE2C4" d="M359.6,739.1c-0.5-19.1-4.1-37.7-10.2-55.8c-1.2-3.4-3.2-4.8-6.7-4.8c-4.5,0-22.4,0-26.8,0
			c-3.5,0-5.5,1.4-6.7,4.8c-6.1,18.1-9.7,36.7-10.2,55.8c-0.2,5.5,0.9,6.6,6.5,6.6c7.9,0,39.7,0,47.6,0
			C358.6,745.7,359.7,744.6,359.6,739.1z"/>
	</g>
	<g class="cover__ic__pot__cap">
		<path fill="#DAC68B" d="M177.3,543.4c20.7,14.7,152,14.8,152,14.8s47.9,0,90.4-3.3c27.9-2.1,53.4-5.7,61.6-11.5
			c-0.6-1.2-1.3-2.4-1.9-3.7c-3.5-6.7-7-13.3-10.5-20c-18.4,0-36.9,0-55.3,0c-74.6,0-149.3,0-223.9,0c-3.5,6.7-7,13.3-10.5,20
			C178.6,540.9,177.9,542.1,177.3,543.4z"/>
		<path fill="#EBE2C4" d="M468.9,519.7c-2.4-2.4-7.6-6.8-7.6-6.8c-43.7-6.5-87.9-9.7-132-9.8c-44.1,0-88.3,3.3-132,9.8
			c0,0-5.2,4.4-7.6,6.8l-1.5,2.9c45,2.1,141.1,6.4,141.1,6.4s96.1-4.4,141.1-6.4L468.9,519.7z"/>
		<path fill="#38221A" d="M356.2,472.9c-1-0.5-2.2-0.6-3.3-0.7c-7.9-0.6-15.7-0.9-23.6-0.9v0v0c-7.9,0-15.8,0.3-23.6,0.9
			c-1.1,0.1-2.3,0.2-3.3,0.7c-1,0.5-1.9,1.4-2.1,2.5c0,0,4.3,23.2,6.6,35l0,0.1c7.4,0.8,14.9,1.2,22.4,1.1v0v0
			c7.5,0,14.9-0.3,22.4-1.1l0-0.1c2.3-11.8,6.6-35,6.6-35C358.1,474.2,357.2,473.3,356.2,472.9z"/>
	</g>
</svg>
