<?xml version="1.0" encoding="utf-8"?>
<svg version="1.1" class="cover__ic__pot" xmlns="http://www.w3.org/2000/svg" xmlns:xlink="http://www.w3.org/1999/xlink" x="0px" y="0px" width="800" viewBox="0 0 800 900" style="enable-background:new 0 0 800 900;" xml:space="preserve">

  <defs>
		<filter id="dropshadow">
			<feGaussianBlur in="SourceAlpha" stdDeviation="10"/> 
			<feOffset dx="0" dy="2"/>
			<feComponentTransfer>
				<feFuncA type="linear" slope="0.2"/>
			</feComponentTransfer>
			<feMerge> 
				<feMergeNode/>
				<feMergeNode in="SourceGraphic"/> 
			</feMerge>
		</filter>

		<filter id="glow">
			<feGaussianBlur stdDeviation="2.5" result="coloredBlur"/>
			<feMerge>
				<feMergeNode in="coloredBlur"/>
				<feMergeNode in="SourceGraphic"/>
			</feMerge>
		</filter>
	</defs>

	<g class="cover__ic__pot__smoke">
		<g id="smoke__left--bottom">
			<path id="smoke__left--bottom__wrap" fill="#FFFFFF" opacity="0.85" filter="url(#glow)" d="M216.1,560.5c-2.1-15.5-4.7-30.3-15.5-42.4c-8.8-9.8-20.8-16.3-33.9-18.1
				c-15.5-2.2-31.7,2.1-44.9,10.2c-4.5,2.8-8.9,8.7-13.9,10.1c-2.3,0.6-6.1-0.5-8.5-0.4c-3.5,0.2-7,0.8-10.4,1.7
				c-32.1,9-44.4,45.3-38,75.5c5.2,24.5,27.3,47.1,53.4,39.9c-1-1.7-1.8-3.6-2.5-5.6c-7.3-20.4,3.6-50.1,27.3-53.2
				c9.1-1.2,19.3,2.3,23.3,11.1c3.9,8.7-0.2,20-7.7,25.5c-10.2,7.5-21.3,1-23.9-8.4c-1.2-4.3-0.6-9.3,2.8-13.7c2-2.6,5.8,0.9,3.8,3.5
				c-4.4,5.8-1.6,14.7,5.5,16.5c7.4,1.8,13.7-5.5,15.3-12.1c4.4-17.8-18-20.5-29-13c-15.7,10.8-18.3,32.4-9.7,47.5
				c4.1,7.2,10.7,12.9,19.7,15.2c25.4,6.5,44.6-16.1,62.5-30c12.9-10,27.6-17,43.4-20.3C223.4,592.4,218,574.5,216.1,560.5z"/>
		</g>
		<g id="smoke__left--top">
			<path id="smoke__left--top__wrap" fill="#FFFFFF" opacity="0.7" filter="url(#glow)" d="M225.6,221.7c-27.2-55.3-60-108-97.8-156.7C110.1,42.1,90.2,12.1,61.3,2.8
				C46.6-2,28-1.4,16.8,10.7C7.5,20.7,4.5,37.2,13.5,48.5c0.5,0.7,0.9,1.7,0.3,2.5C-0.7,70.3-4.5,96.9,6,119.1
				c10,21.1,32.1,36.6,55.7,37.5c13.2,0.5,27.6-3.8,35.4-15c6-8.7,7.9-21.5,1.6-30.2c-0.1,0-2.5-2.9-3.1-3.3c-8.3-7.2-25.3-8.3-29.8,4
				c-3.3,9.1,2.8,21.4,13.1,21.6c0.5,0,0.9,0.2,1.2,0.4c1.3,1,0.9,3.7-1.2,3.7c-19.5-0.2-24.7-29.8-7-37.4c10.9-4.7,21.5-0.7,28.1,7.2
				c38.1,23.9,67.5,58.3,93.3,94.7c23.1,32.6,45.6,66.1,67,99.9C250,274.7,238.5,247.9,225.6,221.7z"/>
		</g>
		<g id="smoke__left--middle">
			<path id="smoke__left--middle__wrap" fill="#FFFFFF" opacity="0.65" filter="url(#glow)" d="M244.5,134.5c26.5,44.7,48.5,92.1,65.6,141.1l-0.5-1.8c-4.9-54-20.9-107-46.6-154.8
				c-3.6-6.7-9.6-14.2-16.9-12.4c-5.3,1.4-8.1,7.5-7.7,12.9C238.8,125,241.7,129.8,244.5,134.5z"/>
		</g>
		<g id="smoke__right--bottom">
			<path id="smoke__right--bottom__wrap" fill="#FFFFFF" opacity="0.85" filter="url(#glow)" d="M746.3,474.3c-7.4-26.1-30.1-50.9-59-50.7c-28.8,0.1-41,27.7-48.8,51.4
				c0,0.4,0,0.9-0.2,1.4c-9.7,22.4,13.8,51.3,37.3,37c12.5-7.6,11-26.2-0.7-34c-5.9-3.9-14.5-4.1-19.3,1.6c-5.9,7.1-3.1,18.5,7.9,17.6
				c3.5-0.3,3.5,5.2,0,5.5c-18.2,1.5-22.4-22.7-7.3-30.7c17.4-9.3,35.1,9.6,33.8,26.7c-1.4,18.5-22.9,26.2-38.5,20
				c-17-6.7-24.1-24.4-19.7-41c0,0,0,0,0,0c-4.5-22.5-31.1-30.6-49.6-19.4c-20.4,12.3-25.4,38.1-20,59.8c4.5,18,21.5,35.5,19.4,54.8
				c-1.1,10.8-9.8,21.2-20.6,21.3c5.3,7.1,17.2,6,24.6,2c8-4.3,14.3-11,22-15.7c14.8-9.1,32.7-11.2,49.5-7.4
				c26.4,4.5,53.8-6.4,72-25.6C747.8,528.9,753.7,500.4,746.3,474.3z"/>
		</g>
		<g id="smoke__right--top">
			<path id="smoke__right--top__wrap" fill="#FFFFFF" opacity="0.65" filter="url(#glow)" d="M527.7,237c-18.9,29.9-34.6,61.5-46.9,94.2l0.4-1.2c3.5-36.1,14.9-71.5,33.3-103.4c2.6-4.4,6.9-9.5,12.1-8.3
				c3.8,0.9,5.8,5,5.5,8.6C531.7,230.6,529.7,233.8,527.7,237z M648.1,207c-0.5-0.7-0.5-2,0-2.6c8.9-11.8-0.6-26.7-13.7-29
				c-13.6-2.4-26,5.3-35.2,14.4c-17.3,17.1-31.6,38-45.1,58.1c-22.8,34-42,70.2-57.3,108.2c11.6-18,23.6-35.8,36-53.2
				c16.7-23.5,35.6-45.5,60.1-61.1c5.8-6.4,16.2-8.9,23.3-2.5c8.9,8,2.8,23.4-8.7,24.1c-2.7,0.2-3.2-3.2-1.5-4.6
				c0.4-0.3,0.9-0.5,1.5-0.6c11-0.6,9.3-16.9-1.2-17.3c-4-0.2-7.3,1.6-9.5,4.3c-0.1,0.2-0.2,0.4-0.4,0.5c-0.1,0.1-0.1,0.1-0.2,0.2
				c-1.8,2.5-2.7,5.7-2.6,9c0.8,17.2,22,20.5,35,16.3C655.8,262.2,664.6,229.5,648.1,207z"/>
		</g>
	</g>

	<g class="cover__ic__pot__body">

		<path class="pot_handle" fill="#38221A" d="M248.2,689.6c2.3,15.6,4.3,29.6,6.6,45.3c-2,0.3-4.1,0.5-6.1,0.8c-1.7-7.8-3.5-15.6-5.2-23.4
			c-0.4-1.7-0.8-3.5-2.1-4.6c-1-0.8-2.3-1.1-3.6-1.4c-3.8-0.8-7.5-1.7-11.3-2.5c-4.2-0.9-8.9-1.8-12.5,0.5
			c-1.6-2.1-3.3-4.3-4.9-6.4c6.8-5.9,14.4-10.9,22.5-15c5.3,1.9,10.4,3.8,15.6,5.7L248.2,689.6z M550.3,689.6
			c-2.3,15.6-4.3,29.6-6.6,45.3c2,0.3,4.1,0.5,6.1,0.8c1.7-7.8,3.5-15.6,5.2-23.4c0.4-1.7,0.8-3.5,2.1-4.6c1-0.8,2.3-1.1,3.6-1.4
			c3.8-0.8,7.5-1.7,11.3-2.5c4.2-0.9,8.9-1.8,12.5,0.5c1.6-2.1,3.3-4.3,4.9-6.4c-6.8-5.9-14.4-10.9-22.5-15
			c-5.3,1.9-10.4,3.8-15.6,5.7L550.3,689.6z M309.2,886.6c0.8,2.8,1.6,5.6,2.3,8.4c0.3,1,0.6,2,1.3,2.6c0.8,0.8,1.9,1,3,1.2
			c1.5,0.3,3.1,0.6,4.6,0.9c1,0.2,2,0.4,2.9,0.1c1-0.4,1.8-1.3,2.4-2.1c1.4-1.8,2.8-3.7,4.2-5.5c-6.8-2.1-13.5-4.1-20.3-6.2
			c0,0.1,0,0.1,0,0.2L309.2,886.6z M490.1,886.2c0-0.1,0-0.1,0-0.2c-6.8,2.1-13.5,4.1-20.3,6.2c1.4,1.8,2.8,3.7,4.2,5.5
			c0.7,0.9,1.4,1.8,2.4,2.1c0.9,0.3,1.9,0.1,2.9-0.1c1.5-0.3,3.1-0.6,4.6-0.9c1.1-0.2,2.2-0.4,3-1.2c0.7-0.7,1-1.7,1.3-2.6
			c0.8-2.8,1.6-5.6,2.3-8.4L490.1,886.2z"/>

		<path class="pot_inner" fill="#DAC68B" d="M401.7,704.9c-52.7,1.6-102.5-3-153.9-15l-0.6-1.8c49.4-13.6,100.3-16.4,152-17.8 c51.8,1.4,102.7,4.2,152,17.8l-0.7,1.8c-51.4,12-101.1,16.5-153.9,15"/>

		<g id="main__ruby">
			<g id="main__ruby__wrap">
				<polygon fill="#A80511" points="400.1,626.5 273.7,501.3 341.3,429.7 455.7,429.7 522.8,505.1"/>
				<polygon fill="#E1423D" points="454.8,430.6 520.2,502.9 457.5,524.6"/>
				<polygon fill="#E1423D" points="341.3,430.6 276.8,502.9 339.5,524.6"/>
				<polygon fill="#E56562" points="450.4,526.5 345.2,526.6 401.8,430.6"/>
				<polygon fill="#BF1B20" points="453.8,530.4 400.1,626.5 343.2,528.5"/>
			</g>
		</g>

		<g id="pot_body">
			<path fill="#902E1B" filter="url(#dropshadow)" d="M247.2,688.6l0.6,3.7c6.6,56.6,16.1,112.9,28.5,168.5c1.8,8.1,3.6,20.7,13.7,23.7
				c28.9,8.6,68,13.7,109.2,13.5c41.3,0.2,80.4-4.9,109.2-13.5c10.1-3,11.9-15.6,13.7-23.7c12.4-55.6,21.9-111.9,28.5-168.5
				l0.6-3.7C500.4,707.4,297.8,707.4,247.2,688.6z"/>
			<path fill="#38221A" d="M435.3,862.7c-1.8-25.2-13-44.8-13-44.8h-46.2c0,0-11.1,19.6-13,44.8c-1.8,25.2,9.3,31.9,9.3,31.9h53.6
				C426.1,894.5,437.2,887.9,435.3,862.7z"/>
			<path fill="#EBE2C4" d="M429.6,884.1c-0.5-19.1-4.1-37.7-10.2-55.8c-1.2-3.4-3.2-4.8-6.7-4.8c-4.5,0-22.4,0-26.8,0
				c-3.5,0-5.5,1.4-6.7,4.8c-6.1,18.1-9.7,36.7-10.2,55.8c-0.2,5.5,0.9,6.6,6.5,6.6c7.9,0,39.7,0,47.6,0
				C428.6,890.7,429.7,889.6,429.6,884.1z"/>
			<polygon fill="#38221A" points="412.6,833.8 386,833.8 386,842.3 395.5,842.3 395.5,880.3 403.1,880.3 403.1,842.3 412.6,842.3"/>
		</g>

		<g class="cover__ic__pot__cap">
			<path fill="#DAC68B" d="M399.3,703.2c-0.3,0-33,0-68.2-1.9c-58.5-3.1-77.9-8.7-83.8-12.9l0,0l12.4-23.7h279.2l12.4,23.7
				c-7.1,5-27.8,8.9-61.6,11.5C447.4,703.1,399.8,703.2,399.3,703.2L399.3,703.2z"/>
			<path fill="#EBE2C4" d="M538.9,664.7c-2.4-2.4-7.6-6.8-7.6-6.8c-43.7-6.5-87.9-9.7-132-9.8c-44.1,0-88.3,3.3-132,9.8
				c0,0-5.2,4.4-7.6,6.8l-1.5,2.9c45,2.1,141.1,6.4,141.1,6.4s96.1-4.4,141.1-6.4L538.9,664.7z"/>
			<path fill="#38221A" d="M426.2,617.9c-1-0.5-2.2-0.6-3.3-0.7c-7.9-0.6-15.7-0.9-23.6-0.9v0v0c-7.9,0-15.8,0.3-23.6,0.9
				c-1.1,0.1-2.3,0.2-3.3,0.7c-1,0.5-1.9,1.4-2.1,2.5c0,0,4.3,23.2,6.6,35l0,0.1c7.4,0.8,14.9,1.2,22.4,1.1v0v0
				c7.5,0,14.9-0.3,22.4-1.1l0-0.1c2.3-11.8,6.6-35,6.6-35C428.1,619.2,427.2,618.3,426.2,617.9z"/>
		</g>
	</g>
</svg>