<svg xmlns="http://www.w3.org/2000/svg" wdith="145px" height="140px" viewBox="0 0 145 140"><path fill="#DAC68B" d="M73.3 55.1C48.2 55.9 24.5 52.7 0 47l-.3-.8c23.5-6.5 47.8-7.8 72.5-8.5 24.7.7 49 2 72.5 8.5l-.3.8c-24.5 5.7-48.2 8.9-73.4 8.1m28 82.2c-1.1-2.1-2.1-4.2-3.2-6.4l-.4-.1c-15.6 2.5-32 2.4-47.5-.2l-.1.3c-1 2.1-1.9 4.2-2.9 6.3 17.4 2.8 35.8 2.9 53.3.2"/><path fill="#FFF" d="M144.1 46.9c-.2-.3-.4-.6-.5-.9-3.1-5.1-8.4-8.8-14.3-10.1 1-8.3-5.1-16.9-13.3-18.7-.3-4.6-3.4-9-7.6-10.9-4.2-1.9-9.5-1.4-13.2 1.4-2.9-3.6-3.6-5-7.9-3.5l-.1-.3C86.5 1.8 84.5.2 82.3 0c-2.2-.2-4.4 1-5.5 3C75 .6 71.9-.9 68.9-.6c-3 .2-5.8 2.1-7.2 4.9-4.3-1.6-9.5-.1-12.4 3.4-3.7-2.8-9-3.3-13.2-1.4-4.2 1.9-7.3 6.3-7.6 10.9-8.2 1.8-14.3 10.4-13.3 18.7C9.3 37.1 4 40.9.9 46c-.2.4-.4.7-.6 1.1 23.4 7 47.2 7.5 71.6 7.9 24.6-.4 48.6-.9 72.2-8.1z"/><path fill="#EBE2C4" d="M70.5 54.4c25.3-.4 49.9-.7 74.1-8.1 0 0-4 15-6.1 22.7-3.4 12.8-6.9 25.8-12.7 37-5.7 11.3-14.1 20.9-24.1 23.9l-.9.5c-18.8 5.6-38.6 5.4-57.4-.5h-.7c-10-3-18.4-12.6-24.1-23.9S9.4 81.7 6 68.9C3.9 61.2-.2 46.2-.2 46.2 24 53.6 48.5 54 73.9 54.4"/><path fill="#204F74" d="M1.8 54.5c.9 3.5 1.9 7 2.8 10.5 44.4 12 90.9 12 135.1.1.9-3.5 1.9-7 2.8-10.5-46 13-94.5 13-140.7-.1z"/></svg>