<?xml version="1.0" encoding="utf-8"?>
<svg version="1.1" class="main__logo" xmlns="http://www.w3.org/2000/svg" xmlns:xlink="http://www.w3.org/1999/xlink" x="0px" y="0px" width="500" height="180" viewBox="0 0 500 180" style="enable-background:new 0 0 500 180;" xml:space="preserve">
  <g class="main__logo__icon">
    <g>
      <path fill="#E37B3A" d="M44.8,74.5c2.3,4.7,3.7,9.9,3.9,15.4C43.2,89.7,38,88.3,33.3,86c2.7-1.8,5.2-3.9,7.4-6.3
        C42.2,78.1,43.6,76.4,44.8,74.5z M59.5,79.7c-1.5-1.7-2.9-3.5-4.1-5.3c-2.4,4.7-3.8,10-4,15.6c5.6-0.2,10.8-1.6,15.5-4
        C64.2,84.2,61.7,82.1,59.5,79.7z M72,47.2c4.7,2.4,9.9,3.7,15.5,3.9c-0.2-5.5-1.6-10.8-3.9-15.5C80.5,40.2,76.6,44.2,72,47.2z
        M83.4,69.5c2.4-4.8,3.9-10.1,4.1-15.8c-5.7,0.2-11,1.7-15.7,4.1C76.4,60.9,80.4,64.9,83.4,69.5z M119.8,74.5
        c2.3,4.7,3.7,9.9,3.9,15.4c-5.5-0.2-10.7-1.6-15.4-3.9c2.7-1.8,5.2-3.9,7.4-6.3C117.2,78.1,118.6,76.4,119.8,74.5z M97.7,61.9
        c1.7-1.6,3.5-2.9,5.4-4.2c-4.7-2.4-10-3.8-15.6-4c0.2,5.5,1.6,10.8,3.9,15.5C93.2,66.6,95.3,64.1,97.7,61.9z M134.5,79.7
        c-1.5-1.7-2.9-3.5-4.1-5.3c-2.4,4.7-3.8,10-4,15.6c5.6-0.2,10.8-1.6,15.5-4C139.2,84.2,136.7,82.1,134.5,79.7z M97.9,43.2
        c-2.5-2.3-4.6-4.8-6.4-7.6c-2.3,4.7-3.7,9.9-3.9,15.5c5.5-0.2,10.8-1.6,15.4-3.9C101.2,46,99.5,44.7,97.9,43.2z M72,122.2
        c4.7,2.4,9.9,3.7,15.5,3.9c-0.2-5.5-1.6-10.8-3.9-15.5C80.5,115.2,76.6,119.2,72,122.2z M55.4,105.6c3-4.6,7-8.6,11.6-11.7
        c-4.5-2.3-9.4-3.7-14.7-4h-1C51.5,95.6,53,100.9,55.4,105.6z M83.4,144.5c2.4-4.8,3.9-10.1,4.1-15.8c-5.7,0.2-11,1.7-15.7,4.1
        C76.4,135.9,80.4,139.9,83.4,144.5z M33.1,94c4.6,3,8.6,7,11.6,11.6c2.4-4.7,3.8-10,4-15.6h-1C42.5,90.3,37.5,91.7,33.1,94z
        M97.7,136.9c1.7-1.6,3.5-2.9,5.4-4.2c-4.7-2.4-10-3.8-15.6-4c0.2,5.5,1.6,10.8,3.9,15.5C93.2,141.6,95.3,139.1,97.7,136.9z
        M130.4,105.6c3-4.6,7-8.6,11.6-11.7c-4.5-2.3-9.4-3.7-14.7-4h-1C126.5,95.6,128,100.9,130.4,105.6z M108.1,94
        c4.6,3,8.6,7,11.6,11.6c2.4-4.7,3.8-10,4-15.6h-1C117.5,90.3,112.5,91.7,108.1,94z M97.9,118.2c-2.5-2.3-4.6-4.8-6.4-7.6
        c-2.3,4.7-3.7,9.9-3.9,15.5c5.5-0.2,10.8-1.6,15.4-3.9C101.2,121,99.5,119.7,97.9,118.2z"/>
      <path fill="#F4DA40" d="M83.6,74.7c2.3,4.6,3.7,9.8,3.9,15.3h-1.8c-4.8-0.4-9.4-1.8-13.6-3.9C76.7,83.1,80.5,79.2,83.6,74.7z
        M36.2,56.5c1.4,4.8,5.2,8.5,10,9.9c1.5-3.9,2.4-8.1,2.6-12.4C44.4,54.1,40.1,54.9,36.2,56.5z M54.1,66.4c4.7-1.3,8.5-5,10-9.7
        c-3.9-1.6-8.2-2.6-12.6-2.8C51.7,58.2,52.5,62.4,54.1,66.4z M59.9,41.4c-1.6-1.4-3.5-2.5-5.6-3.1c-1.7,4-2.6,8.4-2.8,12.9
        C56,51,60.3,50,64.3,48.4c-0.6-2.2-1.7-4.2-3.2-5.8C60.7,42.2,60.3,41.8,59.9,41.4z M111.2,56.5c1.4,4.8,5.2,8.5,10,9.9
        c1.5-3.9,2.4-8.1,2.6-12.4C119.4,54.1,115.1,54.9,111.2,56.5z M91.5,74.3c-2.2,4.2-3.5,8.9-3.9,13.7v2h2.1
        c4.8-0.4,9.4-1.8,13.6-3.9C98.5,83,94.5,79,91.5,74.3z M129.1,66.4c4.7-1.3,8.5-5,10-9.7c-3.9-1.6-8.2-2.6-12.6-2.8
        C126.7,58.2,127.5,62.4,129.1,66.4z M120.9,38.3c-4.8,1.5-8.6,5.4-9.8,10.2c4,1.6,8.3,2.5,12.6,2.7
        C123.5,46.6,122.5,42.3,120.9,38.3z M83.5,105.4c2.4-4.7,3.8-9.9,4-15.5c-5.5,0.2-10.7,1.6-15.4,4C76.7,97,80.6,100.9,83.5,105.4z
        M54.1,141.4c4.7-1.3,8.5-5,10-9.7c-3.9-1.6-8.2-2.6-12.6-2.8C51.7,133.2,52.5,137.4,54.1,141.4z M45.9,113.3
        c-4.8,1.5-8.6,5.4-9.8,10.2c4,1.6,8.3,2.5,12.6,2.7C48.5,121.6,47.5,117.3,45.9,113.3z M59.9,116.4c-1.6-1.4-3.5-2.5-5.6-3.1
        c-1.7,4-2.6,8.4-2.8,12.9c4.5-0.2,8.8-1.1,12.8-2.8c-0.6-2.2-1.7-4.2-3.2-5.8C60.7,117.2,60.3,116.8,59.9,116.4z M111.2,131.5
        c1.4,4.8,5.2,8.5,10,9.9c1.5-3.9,2.4-8.1,2.6-12.4C119.4,129.1,115.1,129.9,111.2,131.5z M120.9,113.3c-4.8,1.5-8.6,5.4-9.8,10.2
        c4,1.6,8.3,2.5,12.6,2.7C123.5,121.6,122.5,117.3,120.9,113.3z M102.8,93.9c-4.6-2.3-9.8-3.7-15.2-3.9v2c0.4,4.7,1.7,9.3,3.8,13.4
        C94.3,100.8,98.2,96.9,102.8,93.9z M134.9,116.4c-1.6-1.4-3.5-2.5-5.6-3.1c-1.7,4-2.6,8.4-2.8,12.9c4.5-0.2,8.8-1.1,12.8-2.8
        c-0.6-2.2-1.7-4.2-3.2-5.8C135.7,117.2,135.3,116.8,134.9,116.4z M36.1,48.6c4,1.6,8.2,2.5,12.5,2.6c-0.2-4.4-1.1-8.6-2.7-12.5
        C42.4,41.6,39.1,44.9,36.1,48.6z M28.2,86.1C26,84.7,24,83,22.1,81.2c-0.3,2.5-0.5,5-0.6,7.5C23.8,88,26.1,87.2,28.2,86.1z
        M27.8,93.9c-2-1-4.1-1.8-6.2-2.4c0.1,2.4,0.2,4.7,0.5,7C23.8,96.8,25.7,95.2,27.8,93.9z M129.1,38.8c-1.5,3.9-2.4,8.1-2.6,12.4
        c4.4-0.2,8.5-1.1,12.4-2.6C136,45,132.7,41.7,129.1,38.8z M152.9,81.2c-1.8,1.8-3.8,3.4-5.9,4.8c2.1,1.1,4.2,1.9,6.5,2.6
        C153.4,86.1,153.2,83.6,152.9,81.2z M48.7,128.9c-4.3,0.1-8.6,1-12.5,2.6c2.9,3.6,6.2,6.9,9.8,9.8h0.1
        C47.7,137.4,48.5,133.2,48.7,128.9z M138.7,131.6c-3.8-1.5-7.9-2.5-12.3-2.6c0.2,4.3,1,8.4,2.6,12.3
        C132.6,138.4,135.9,135.1,138.7,131.6z M83.4,149.7c-1.4,2.1-2.9,4-4.7,5.7c2.3,0.3,4.7,0.5,7.1,0.6
        C85.2,153.8,84.4,151.7,83.4,149.7z M88.9,24c0.6,2.2,1.5,4.3,2.5,6.4c1.4-2.1,2.9-4,4.7-5.8C93.7,24.3,91.3,24.1,88.9,24z
        M147.1,94c2.1,1.4,4,3,5.8,4.7c0.3-2.4,0.5-4.7,0.5-7.2C151.3,92.1,149.1,93,147.1,94z M91.4,149.4c-1.1,2.1-2,4.3-2.6,6.6
        c2.5-0.1,5-0.2,7.5-0.6C94.5,153.6,92.9,151.5,91.4,149.4z M86.1,24c-2.4,0.1-4.9,0.2-7.2,0.5c1.7,1.8,3.3,3.8,4.7,5.9
        C84.6,28.4,85.4,26.3,86.1,24z"/>
      <path fill="#F7E279" d="M56.8,71.8c1.3,2.2,2.8,4.3,4.6,6.2c2.4,2.6,5.1,4.8,8.1,6.6c5.1-3.1,9.4-7.4,12.6-12.5
        c-3.2-5.2-7.6-9.6-12.8-12.8C64.1,62.4,59.9,66.7,56.8,71.8z M105.7,59.2c-2.2,1.3-4.3,2.9-6.2,4.6c-2.6,2.4-4.8,5.1-6.6,8
        c3.2,5.3,7.6,9.7,12.9,12.9c3-1.8,5.7-4,8.1-6.6c1.7-1.9,3.2-3.9,4.5-6.1C115.2,66.7,110.9,62.3,105.7,59.2z M56.8,108.2
        c1.4,2.3,3,4.4,4.8,6.3c0.4,0.4,0.9,0.8,1.3,1.3c2,1.9,4.2,3.6,6.5,5c5.2-3.2,9.5-7.5,12.7-12.7c-3.1-5.1-7.4-9.5-12.5-12.6
        C64.4,98.6,60,103,56.8,108.2z M105.5,120.8c-2.1-1.3-4.1-2.8-5.9-4.5c-2.7-2.4-4.9-5.2-6.7-8.2c3.1-5.2,7.4-9.5,12.6-12.7
        c5.2,3.1,9.6,7.5,12.8,12.7C115.1,113.3,110.7,117.6,105.5,120.8z M131.8,71.8c3.1-5.1,7.4-9.4,12.4-12.5c0.9,0.6,1.8,1.2,2.6,1.8
        c2.6,5.3,4.5,11,5.6,17c-2.3,2.5-5,4.7-8,6.5c-2.9-1.8-5.7-4-8.1-6.6C134.6,76,133.1,74,131.8,71.8z M117,149
        c-5.5,2.7-11.3,4.7-17.5,5.8c-2.5-2.4-4.8-5.1-6.6-8.1c1.8-2.9,4-5.6,6.6-8c1.9-1.8,4-3.3,6.2-4.6c5.2,3.2,9.5,7.6,12.7,12.8
        C117.9,147.7,117.5,148.4,117,149z M152.4,101.9c-1.1,6.2-3.1,12-5.8,17.5c-0.7,0.5-1.4,1-2.2,1.4c-2.4-1.4-4.5-3.1-6.5-5
        c-0.4-0.5-0.8-0.9-1.3-1.3c-1.8-1.9-3.4-4-4.8-6.3c3.1-5.2,7.5-9.6,12.7-12.8C147.5,97.2,150.1,99.4,152.4,101.9z M99.4,25.1
        c6.1,1.1,11.9,3.1,17.4,5.7c0.5,0.7,1.1,1.5,1.5,2.3c-3.2,5.2-7.5,9.5-12.7,12.7c-2.1-1.3-4.1-2.8-5.9-4.5
        c-2.7-2.4-4.9-5.2-6.7-8.2C94.7,30.1,96.9,27.4,99.4,25.1z M75.6,154.9c-6.1-1.1-11.8-3-17.2-5.7c-0.6-0.8-1.1-1.6-1.6-2.5
        c3.1-5.1,7.4-9.4,12.4-12.5c5.2,3.2,9.6,7.6,12.8,12.8C80.2,150,78,152.6,75.6,154.9z M22.6,78c1.1-6.1,3.1-11.9,5.8-17.3
        c0.8-0.5,1.5-1,2.3-1.5c5.2,3.2,9.5,7.6,12.7,12.8c-1.3,2.2-2.8,4.2-4.5,6.1c-2.4,2.6-5.1,4.8-8.1,6.6C27.7,82.8,25,80.6,22.6,78z
        M43.3,108.1c-3.2,5.2-7.5,9.5-12.7,12.7c-0.7-0.4-1.5-0.9-2.2-1.4c-2.7-5.4-4.7-11.3-5.8-17.5c2.3-2.5,5-4.7,7.9-6.5
        C35.7,98.5,40.1,102.9,43.3,108.1z M58.5,30.7c5.4-2.6,11.1-4.5,17.2-5.6c2.5,2.3,4.7,5,6.5,8c-3.1,5.2-7.5,9.6-12.7,12.7
        c-2.4-1.4-4.5-3.1-6.5-5c-0.4-0.5-0.8-0.9-1.3-1.3c-1.8-1.9-3.4-4-4.8-6.3C57.4,32.3,57.9,31.5,58.5,30.7z"/>
    </g>
    <path fill="#902E1B" d="M147.5,115.7l0.9-2.1l-14.8-6.1l-26.1-63.1l5.9-14.4l-2.1-0.9l-5.9,14.4l-63,26.1l-14.6-6l-0.9,2.1l14.6,6l0,0
      l26.1,63l0,0L61,149.5l2.1,0.9l6.5-14.8l63.1-26.1L147.5,115.7z M69.4,133.3L43.8,71.5l61.8-25.6l25.6,61.8L69.4,133.3z
      M111.5,150.7l-6-14.4l2.1-0.9l6,14.4L111.5,150.7z M67.3,44.4l-6-14.4l2.1-0.9l6,14.4L67.3,44.4z M134,72.1l-0.9-2.1l14.4-6
      l0.9,2.1L134,72.1z M27.6,116.2l-0.9-2.1l14.4-6l0.9,2.1L27.6,116.2z"/>
    <path fill="#E37B3A" d="M107,137.1l-66.6-27.6L68,42.9l66.6,27.6L107,137.1z M43.4,108.3l62.4,25.8l25.8-62.4L69.2,45.9L43.4,108.3z"/>
    <path fill="#E37B3A" d="M87.5,157L68,137l-27.9,0.3l0.3-27.9L20.5,90l20-19.5l-0.3-27.9L68,43l19.5-20L107,43l27.9-0.3l-0.3,27.9
      l20,19.5l-20,19.5l0.3,27.9L107,137L87.5,157z M69,134.7l18.5,19l18.5-19l26.5,0.3l-0.3-26.5l19-18.5l-19-18.5l0.3-26.5L106,45.3
      l-18.5-19L69,45.3L42.5,45l0.3,26.5L23.8,90l19,18.5L42.5,135L69,134.7z"/>
    <path fill="#902E1B" d="M87.5,157.5C50.3,157.5,20,127.2,20,90s30.3-67.5,67.5-67.5S155,52.8,155,90S124.7,157.5,87.5,157.5z
      M87.5,24.8C51.6,24.8,22.3,54,22.3,90c0,35.9,29.2,65.2,65.2,65.2c35.9,0,65.2-29.2,65.2-65.2C152.7,54.1,123.4,24.8,87.5,24.8z"/>
  </g>
  <g class="main__logo__type">
    <path fill="#902E1B" class="main__logo__type--rubyconf" d="M206,57.8c1.5-2,2.3-4.2,2.3-6.4v-2.7c0-2.7-1-5-2.9-7c-1.9-1.9-4.3-2.9-7-2.9h-19.8v44.5h9.9V63.5l0,0
      c0,0,5.2,0,5.3,0c1.2,0.1,2.2,0.6,3.1,1.4c1,1,1.5,2.1,1.5,3.5v14.8h9.9V65.8c0-0.8-0.2-1.6-0.5-2.3c-0.2-0.4-0.5-0.9-0.9-1.2
      c-1-1-2.1-1.5-3.5-1.5h-4.9C202,60.8,204.5,59.8,206,57.8z M198.4,53.7c0,1.3-0.5,2.5-1.5,3.5s-2.1,1.5-3.5,1.5h-5V43.8h5
      c1.3,0,2.5,0.5,3.5,1.4c1,1,1.5,2.1,1.5,3.5V53.7z M247.8,48.7v34.6h-9.9v-5c-0.4,3.3-2,5-5,5h-5c-2.7,0-5-1-7-2.9
      c-1.9-1.9-2.9-4.3-2.9-7V48.7h9.9v24.7c0,1.3,0.5,2.5,1.4,3.5c1,1,2.1,1.5,3.5,1.5s2.5-0.5,3.5-1.5s1.4-2.1,1.4-3.5V48.7H247.8z
      M284.4,51.6c-1.9-2-4.3-2.9-7-2.9h-5c-1.5,0-2.6,0.4-3.4,1.2s-1.3,2.1-1.5,3.7V38.8h-9.9v44.5h19.8c2.7,0,5-1,7-2.9
      c1.9-2,2.9-4.3,2.9-6.9V58.6C287.3,55.9,286.4,53.6,284.4,51.6z M277.5,73.4c0,1.3-0.5,2.5-1.4,3.5c-1,1-2.1,1.5-3.5,1.5h-5V58.6
      c0-1.4,0.5-2.5,1.5-3.5s2.1-1.5,3.5-1.5c1.3,0,2.5,0.5,3.5,1.5s1.5,2.1,1.5,3.5v14.8H277.5z M325.9,48.7v39.6c0,2.7-1,5-2.9,7
      c-2,1.9-4.3,2.9-6.9,2.9h-9.9c-5.8,0-9.1-3.3-9.9-9.9h5c0.2,3.3,1.9,4.9,4.9,4.9h5c1.3,0,2.5-0.5,3.5-1.4c1-1,1.5-2.1,1.5-3.5v-9.9
      c-0.4,3.3-2,5-5,5h-5c-2.7,0-5-1-7-2.9c-1.9-1.9-2.9-4.3-2.9-7V48.7h9.9v24.7c0,1.3,0.5,2.5,1.4,3.5c1,1,2.1,1.5,3.5,1.5
      s2.5-0.5,3.5-1.5s1.4-2.1,1.4-3.5V48.7H325.9z M365.4,73.4h5c-0.4,6.6-3.7,9.9-9.9,9.9h-9.9c-2.7,0-5-1-7-2.9
      c-1.9-1.9-2.9-4.3-2.9-7V48.7c0-2.7,1-5,2.9-6.9c1.9-2,4.2-2.9,7-2.9h9.9c6.2,0,9.5,3.3,9.9,9.9h-5c-0.4-3.3-2-4.9-4.9-4.9h-5
      c-1.4,0-2.5,0.5-3.5,1.4c-1,1-1.5,2.1-1.5,3.5v24.7c0,1.3,0.5,2.5,1.4,3.5c1,1,2.1,1.5,3.5,1.5h5C363.4,78.3,365.1,76.7,365.4,73.4z
      M406,51.6c-1.9-2-4.3-2.9-7-2.9h-9.9c-2.7,0-5,1-7,2.9c-1.9,1.9-2.9,4.3-2.9,7v14.8c0,2.7,1,5,2.9,7c1.9,1.9,4.3,2.9,7,2.9h9.9
      c2.7,0,5-1,7-2.9c1.9-2,2.9-4.3,2.9-6.9V58.6C408.9,55.9,407.9,53.6,406,51.6z M399,73.4c0,1.3-0.5,2.5-1.4,3.5
      c-1,1-2.1,1.5-3.5,1.5s-2.5-0.5-3.5-1.5s-1.4-2.1-1.4-3.5V58.6c0-1.4,0.5-2.5,1.5-3.5s2.1-1.5,3.5-1.5c1.3,0,2.5,0.5,3.5,1.5
      s1.5,2.1,1.5,3.5v14.8H399z M447.4,58.6v24.7h-9.9V58.6c0-1.4-0.5-2.5-1.5-3.5s-2.1-1.5-3.5-1.5s-2.5,0.5-3.5,1.5s-1.5,2.1-1.5,3.5
      v24.7h-9.9V48.7h9.9v5c0.2-1.7,0.7-2.9,1.5-3.7s2-1.2,3.4-1.2h5c2.7,0,5,1,7,2.9C446.5,53.6,447.4,55.9,447.4,58.6z M470.1,48.3v0.4
      h5v5h-5v29.7h-9.9V53.7h-5v-5h5v-0.4c0-2.6,0.9-4.8,2.8-6.6c1.9-1.9,4.1-2.8,6.6-2.8H480v5h-5.4c-1.2,0-2.3,0.4-3.2,1.3
      C470.6,46,470.1,47,470.1,48.3z"/>
    <path fill="#E37B3A" class="main__logo__type--taiwan" d="M243.5,105.9h-7.7v3.9h7.7V105.9z M201,105.9v3.9h-7.7v31h-7.8v-31h-7.7v-3.9H201z M225.8,116
      c-1.5-1.5-3.4-2.3-5.4-2.3h-7.8c-4.5,0-7.2,2.6-7.7,7.8h3.9c0.3-2.6,1.5-3.9,3.9-3.9h3.9c1,0,1.9,0.4,2.8,1.1
      c0.7,0.7,1.1,1.6,1.1,2.8v3.8h-7.8c-2.2,0-3.9,0.7-5.4,2.3c-1.5,1.5-2.3,3.4-2.3,5.4l0,0c0,2.2,0.7,3.9,2.3,5.4
      c1.5,1.5,3.4,2.3,5.4,2.3h3.9c2.3,0,3.6-1.3,3.9-3.9v3.9h7.7v-19.4C228.2,119.4,227.3,117.5,225.8,116z M220.4,133.1
      c0,1-0.4,1.9-1.1,2.7c-0.7,0.7-1.6,1.1-2.8,1.1c-1.1,0-1.9-0.4-2.8-1.1c-0.7-0.7-1.1-1.6-1.1-2.7l0,0c0-1,0.4-1.9,1.1-2.7
      c0.7-0.7,1.6-1.1,2.8-1.1h3.9V133.1z M243.5,113.7v27.1h-7.7v-27.1H243.5z M290.1,113.7v13.8c0,3.6-1.3,6.7-3.9,9.3
      c-2.6,2.6-5.7,3.9-9.3,3.9h-10v-1.2c-1.5,0.8-3.3,1.2-5.5,1.2h-10v-27.1h7.7v23.2h3.9c1.1,0,1.9-0.4,2.8-1.1
      c0.7-0.7,1.1-1.6,1.1-2.7v-19.4h7.7v23.2h3.9c1,0,1.9-0.4,2.7-1.1c0.7-0.7,1.1-1.6,1.1-2.7v-19.4L290.1,113.7L290.1,113.7z
      M317.8,116c-1.5-1.5-3.4-2.3-5.4-2.3h-7.8c-4.5,0-7.2,2.6-7.7,7.8h3.9c0.3-2.6,1.5-3.9,3.9-3.9h3.9c1,0,1.9,0.4,2.8,1.1
      c0.7,0.7,1.1,1.6,1.1,2.8v3.8h-7.8c-2.2,0-3.9,0.7-5.4,2.3c-1.5,1.5-2.3,3.4-2.3,5.4l0,0c0,2.2,0.7,3.9,2.3,5.4
      c1.5,1.5,3.4,2.3,5.4,2.3h3.9c2.3,0,3.6-1.3,3.9-3.9v3.9h7.7v-19.4C320,119.4,319.2,117.5,317.8,116z M312.2,133.1
      c0,1-0.4,1.9-1.1,2.7c-0.7,0.7-1.6,1.1-2.8,1.1s-1.9-0.4-2.8-1.1c-0.7-0.7-1.1-1.6-1.1-2.7l0,0c0-1,0.4-1.9,1.1-2.7
      c0.7-0.7,1.6-1.1,2.8-1.1h3.9L312.2,133.1L312.2,133.1z M351,121.4v19.4h-7.7v-19.4c0-1-0.4-1.9-1.1-2.8c-0.8-0.7-1.6-1.1-2.8-1.1
      c-1,0-1.9,0.4-2.8,1.1c-0.7,0.7-1.1,1.6-1.1,2.8v19.4h-7.8v-27.1h7.7v3.9c0.2-1.3,0.5-2.3,1.2-2.9c0.6-0.6,1.5-0.9,2.7-0.9h3.9
      c2.2,0,3.9,0.7,5.4,2.3C350.2,117.5,351,119.4,351,121.4z"/>
    <path fill="#E2923B" class="main__logo__type--year" d="M377.3,137.1v0.3h15.1v3.8h-22.7v-3.8c0-2.6,2.4-6,7.3-10.2l0.5-0.4c0.5-0.4,0.9-0.8,1.3-1.1c4-3.6,6-6.6,6-9
      v-1.9c0-1-0.4-1.9-1.1-2.6c-0.8-0.7-1.6-1.1-2.7-1.1h-3.8c-2.3,0-3.6,1.3-3.8,3.8h-3.8c0.6-5,3.1-7.5,7.5-7.5h7.6
      c2.1,0,3.8,0.7,5.3,2.2s2.2,3.3,2.2,5.3v1.9c0,2.4-2,5.4-6,9c-0.4,0.4-0.8,0.8-1.3,1.1l-0.5,0.4
      C379.7,131.4,377.3,134.7,377.3,137.1z M423.6,114.7v18.9c0,2-0.7,3.8-2.2,5.3s-3.3,2.2-5.3,2.2h-7.6c-2.1,0-3.8-0.7-5.3-2.2
      s-2.2-3.3-2.2-5.3v-18.9c0-2.1,0.7-3.8,2.2-5.3s3.3-2.2,5.3-2.2h7.6c2.1,0,3.8,0.7,5.3,2.2C422.9,110.9,423.6,112.7,423.6,114.7z
      M408.5,127.6l7.5-13.5c-0.5-2.1-1.8-3.1-3.7-3.1c-1,0-1.9,0.4-2.7,1.1s-1.1,1.6-1.1,2.6L408.5,127.6L408.5,127.6z M416.1,120.8
      l-7.5,13.4c0.2,1.1,0.6,1.8,1.2,2.4c0.6,0.5,1.4,0.8,2.5,0.8s1.9-0.4,2.7-1.1c0.7-0.7,1.1-1.6,1.1-2.6L416.1,120.8L416.1,120.8z
      M440.5,107.2l-7.6,3.8v3.8h3.8v26.4h7.5v-34H440.5z M477,114.7V128c0,3.6-1.3,6.7-3.9,9.3s-5.7,3.9-9.3,3.9h-5.6v-3.8h3.8
      c2.1,0,3.9-0.7,5.3-2.2c1.5-1.5,2.2-3.3,2.2-5.3v-3.8c-0.3,2.5-1.5,3.8-3.8,3.8h-3.8c-2.1,0-3.8-0.7-5.3-2.2c-0.6-0.6-1.1-1.3-1.5-2
      c-0.5-1-0.8-2.1-0.8-3.3v-7.6c0-2.1,0.7-3.8,2.2-5.3s3.3-2.2,5.3-2.2h7.6c2.1,0,3.8,0.7,5.3,2.2C476.2,110.9,477,112.7,477,114.7z
      M467.4,125.6c0.3-0.2,0.7-0.4,1-0.7c0.7-0.7,1.1-1.6,1.1-2.6v-7.6c0-1-0.4-1.9-1.1-2.6c-0.8-0.7-1.6-1.1-2.7-1.1
      c-1,0-1.9,0.4-2.7,1.1c-0.7,0.7-1.1,1.6-1.1,2.6v7.6c0,1,0.4,1.9,1.1,2.6c0.3,0.3,0.6,0.5,1,0.7c0.5,0.3,1.1,0.4,1.7,0.4
      C466.3,126.1,466.8,125.9,467.4,125.6z"/>
    <path opacity="0.1" fill="#FFFFFF" d="M389.1,63.5v9.9c0,1.3,0.5,2.5,1.4,3.5c1,1,2.1,1.5,3.5,1.5s2.5-0.5,3.5-1.5s1.4-2.1,1.4-3.5v-9.9h9.9v9.9
      c0,2.7-1,5-2.9,6.9c-1.9,2-4.3,2.9-7,2.9H389c-2.7,0-5-1-7-2.9c-1.9-1.9-2.9-4.3-2.9-7v-9.9L389.1,63.5L389.1,63.5z M296.2,63.5v9.9
      c0,2.7,1,5,2.9,7c1.9,1.9,4.3,2.9,7,2.9h5c2.9,0,4.6-1.7,5-5v9.9c0,1.3-0.5,2.5-1.5,3.5s-2.1,1.4-3.5,1.4h-5c-3,0-4.7-1.6-4.9-4.9
      h-5c0.8,6.6,4,9.9,9.9,9.9h9.9c2.7,0,5-1,6.9-2.9c2-1.9,2.9-4.3,2.9-7V63.5H316v9.9c0,1.3-0.5,2.5-1.4,3.5c-1,1-2.1,1.5-3.5,1.5
      s-2.5-0.5-3.5-1.5s-1.4-2.1-1.4-3.5v-9.9H296.2z M218.2,63.5v9.9c0,2.7,1,5,2.9,7c1.9,1.9,4.3,2.9,7,2.9h5c2.9,0,4.6-1.7,5-5v5h9.9
      V63.5h-9.9v9.9c0,1.3-0.5,2.5-1.4,3.5c-1,1-2.1,1.5-3.5,1.5s-2.5-0.5-3.5-1.5s-1.4-2.1-1.4-3.5v-9.9H218.2z M188.5,63.5h-9.9v19.8
      h9.9V63.5z M257.7,63.5v19.8h19.8c2.7,0,5-1,7-2.9c1.9-2,2.9-4.3,2.9-6.9v-9.9h-9.9v9.9c0,1.3-0.5,2.5-1.4,3.5c-1,1-2.1,1.5-3.5,1.5
      h-5v-15H257.7z M196.9,65c1,1,1.5,2.1,1.5,3.5v14.8h9.9V65.8c0-0.8-0.2-1.6-0.5-2.3h-13.9C195,63.6,196.1,64.1,196.9,65z
      M460.3,63.5v19.8h9.9V63.5H460.3z M447.4,63.5h-9.9v19.8h9.9V63.5z M427.6,63.5h-9.9v19.8h9.9V63.5z M340.7,63.5v9.9
      c0,2.7,1,5,2.9,7c1.9,1.9,4.3,2.9,7,2.9h9.9c6.1,0,9.4-3.3,9.9-9.9h-5c-0.4,3.3-2,4.9-4.9,4.9h-5c-1.4,0-2.5-0.5-3.5-1.5
      s-1.4-2.1-1.4-3.5v-9.9L340.7,63.5L340.7,63.5z M207.1,127.6c-1.5,1.5-2.3,3.4-2.3,5.4l0,0c0,2.2,0.7,3.9,2.3,5.4
      c1.5,1.5,3.4,2.3,5.4,2.3h3.9c2.3,0,3.6-1.3,3.9-3.9v3.9h7.7v-15.6h-7.7h-7.8C210.5,125.3,208.7,126,207.1,127.6z M216.5,129.2h3.9
      v3.9c0,1-0.4,1.9-1.1,2.7c-0.7,0.7-1.6,1.1-2.8,1.1c-1.1,0-1.9-0.4-2.8-1.1c-0.7-0.7-1.1-1.6-1.1-2.7l0,0c0-1,0.4-1.9,1.1-2.7
      C214.5,129.6,215.4,129.2,216.5,129.2z M259.1,125.2v11.7h3.9c1.1,0,1.9-0.4,2.8-1.1c0.7-0.7,1.1-1.6,1.1-2.7v-7.8h7.7v11.6h3.9
      c1,0,1.9-0.4,2.7-1.1c0.7-0.7,1.1-1.6,1.1-2.7v-7.8h7.8v2.4c0,3.6-1.3,6.7-3.9,9.3c-2.6,2.6-5.7,3.9-9.3,3.9h-10v-1.2
      c-1.5,0.8-3.3,1.2-5.5,1.2h-10v-15.6h7.9V125.2z M193.3,140.8h-7.8v-15.6h7.8V140.8z M351,125.2v15.6h-7.7v-15.6
      C343.3,125.2,351,125.2,351,125.2z M243.5,140.8h-7.7v-15.6h7.7V140.8z M335.5,140.8h-7.8v-15.6h7.7v15.6H335.5z M299.1,127.6
      c-1.5,1.5-2.3,3.4-2.3,5.4l0,0c0,2.2,0.7,3.9,2.3,5.4c1.5,1.5,3.4,2.3,5.4,2.3h3.9c2.3,0,3.6-1.3,3.9-3.9v3.9h7.7v-15.6h-7.7h-7.8
      C302.4,125.3,300.5,126,299.1,127.6z M308.3,129.2h3.9v3.9c0,1-0.4,1.9-1.1,2.7c-0.7,0.7-1.6,1.1-2.8,1.1s-1.9-0.4-2.8-1.1
      c-0.7-0.7-1.1-1.6-1.1-2.7l0,0c0-1,0.4-1.9,1.1-2.7C306.4,129.6,307.3,129.2,308.3,129.2z M408.5,125.6v1.9l1.1-1.9h3.8l-4.8,8.6
      c0.2,1.1,0.6,1.8,1.2,2.4c0.6,0.5,1.4,0.8,2.5,0.8s1.9-0.4,2.7-1.1c0.7-0.7,1.1-1.6,1.1-2.6v-8h7.5v8c0,2-0.7,3.8-2.2,5.3
      s-3.3,2.2-5.3,2.2h-7.6c-2.1,0-3.8-0.7-5.3-2.2s-2.2-3.3-2.2-5.3v-8L408.5,125.6L408.5,125.6z M392.4,137.4h-15.1v-0.3
      c0-2.4,2.4-5.7,7.3-9.8l0.5-0.4c0.5-0.4,0.9-0.8,1.3-1.1h-7.5c-0.4,0.4-0.8,0.8-1.3,1.1l-0.5,0.4c-4.9,4.2-7.3,7.6-7.3,10.2v3.8
      h22.7v-3.9H392.4z M444.2,141.2v-15.5h-7.5v15.5H444.2z M467.4,125.6c-0.5,0.3-1.1,0.4-1.7,0.4s-1.2-0.2-1.7-0.4h-8.8
      c0.4,0.7,0.8,1.4,1.5,2c1.5,1.5,3.3,2.2,5.3,2.2h3.8c2.2,0,3.5-1.3,3.8-3.8v3.8c0,2.1-0.7,3.8-2.2,5.3s-3.3,2.2-5.3,2.2h-3.8v3.8
      h5.6c3.6,0,6.7-1.3,9.3-3.9c2.6-2.6,3.9-5.7,3.9-9.3v-2.3C477.1,125.6,467.4,125.6,467.4,125.6z"/>
    </g>
</svg>
