<?xml version="1.0" encoding="utf-8"?>
<svg version="1.1" xmlns="http://www.w3.org/2000/svg" xmlns:xlink="http://www.w3.org/1999/xlink" x="0px" y="0px" viewBox="0 0 480 320" style="enable-background:new 0 0 480 320;" xml:space="preserve">
	<g>
		<circle fill="#EBE2C4" cx="240" cy="160" r="160"/>
		<g>
			<path fill="#E8D875" d="M106.4,223.7c0-0.1-0.1-0.1-0.1-0.2c0.2-0.5,0.1-1.1-0.1-1.6c0.4-0.2,0.6-0.6,0.8-1.2
				c3.6-16.6,7.6-33.2,11.9-49.6c3.9-14.7,8-29.2,12.5-43.7c1.5-4.7,2.9-9.5,4.5-14.2c1.7,2.7,3.7,5.2,6.4,7.1
				c3.7,2.5,9,3.7,13.3,2.3c2.1-0.7,3.5-1.9,4.7-3.6s3.6-0.9,5.1,0.1c2.1,1.4,3.3,3.8,4.9,5.8c1.3,1.5,2.9,2.8,4.6,3.9
				c3.4,2.1,7.7,3.4,11.7,2.8c1.9-0.3,3.6-0.9,5.1-2.1c1.2-1,2.7-3.2,4.5-3.2c2.1,0,2.9,3.2,3.8,4.6c1.1,1.8,2.7,3.2,4.4,4.4
				c3.7,2.6,8.2,4.1,12.7,4.3c5.1,0.3,10.2-1.4,14-4.5c-0.5,2.6-1.1,5.2-1.6,7.8c-7.6,35.7-19.1,70.6-34.2,104
				c-0.1,0.2-0.2,0.4-0.2,0.6c-7.2,0.4-14.4-1.4-21.4-2.8c-8-1.6-16-3.5-23.8-5.6c-7.9-2.1-15.7-4.6-23.4-7.3
				c-3.7-1.3-7.4-2.7-11.1-4.1c-2-0.8-4.1-1.6-6.1-2.4c-0.7-0.3-1.5-0.6-2.1-1C106.9,224.2,106.6,224,106.4,223.7z M329.4,183.2
				L329.4,183.2C329.5,183.2,329.5,183.2,329.4,183.2C329.5,183.2,329.5,183.2,329.4,183.2z M340.5,235.9c-3.7,1.1-7.5,2.2-11.2,3.3
				c-7.9,2.2-15.8,4-23.8,5.6c-7,1.4-14.2,3.1-21.4,2.8c0-0.2-0.1-0.4-0.2-0.6c-15.1-33.3-26.5-68.2-34.2-104
				c-0.6-2.6-1.1-5.2-1.6-7.8c3.8,3.1,8.9,4.8,14,4.5c0.6,0,1.3-0.1,1.9-0.2c11.1,26.2,20,53.2,29,80.2c2.7,8,5.3,16,8,24.1
				c0.4,1.2,2.4,0.7,2-0.5c-9.4-28.5-18.5-57.1-29.2-85.2c-2.4-6.3-5-12.6-7.6-18.9c3.1-0.7,6.2-1.9,8.8-3.8c1.7-1.2,3.2-2.7,4.4-4.4
				c0.7-1.1,1.4-3.2,2.6-4.2c9.7,29.5,19.5,59.1,29.2,88.6c0.6,1.7,1.1,3.3,1.6,5c-0.5,0.3-1,0.7-1.3,1.2c-0.6,1-0.1,2.1,0.8,2.7
				c0.2,0.1,0.4,0.3,0.6,0.3c0,1.4,1,2.5,2.2,2.9c0,0.1,0.1,0.2,0.1,0.3c0.7,2,1.4,3.9,2.2,5.9c0.4,1.1,0.9,2.2,1.3,3.3
				c0.1,0.2,0.2,0.4,0.3,0.6c0,0,0.3,0.5,0.6,1.1c-0.1,0-0.1,0-0.2,0c-0.3,0.1-0.6,0.4-0.7,0.7c-0.4,1.8,2.1,3,3,1.1
				c0.5-1.1-0.1-2.3-0.6-3.3c-1-2.3-1.9-4.7-2.8-7c-0.3-0.9-0.7-1.8-1-2.8c0.6-0.5,0.3-1.7-0.6-1.8c-0.1-0.4-0.3-0.7-0.4-1.1
				c0.5-0.3,1-0.8,1.3-1.4c0.2-0.5,0.1-1.1-0.3-1.4c0-0.1,0-0.2,0-0.3c-0.2-1.1-1.5-1.5-2.5-1.5c-1.7-5-3.3-10.1-4.9-15.1
				c-5.7-17.4-11.5-34.9-17.2-52.3c-2.9-8.7-5.7-17.3-8.6-26c1.4,0.5,2.6,2.2,3.6,3.1c1.5,1.2,3.2,1.9,5.1,2.1
				c3.4,0.5,7-0.4,10.1-1.9c3.2,7.3,6.2,14.6,9.2,21.9c-0.2,1.4-0.2,2.7-0.2,4.1c0,2.1-0.1,4.2-0.2,6.2c-0.2,3.3-0.9,6.6,2.1,8.8
				c0.8,0.6,2.4,0.2,2.8-0.7c0.6-1.4,0.8-2.9,1.1-4.4c6,15.5,11.6,31.1,16.8,46.8c2,6.2,4,12.4,5.9,18.6c-0.3,0.2-0.4,0.4-0.5,0.8
				C339.6,233.3,339.9,234.7,340.5,235.9z M306.3,149.2C306.3,149.2,306.3,149.1,306.3,149.2c0.8-1,0.6-2.7-0.5-3.4
				c-0.4-0.2-0.9-0.1-1.3,0.2c-0.1,0-0.1-0.1-0.2-0.1c-0.3-0.1-0.8,0-1,0.3c-0.1,0.1-0.1,0.2-0.2,0.2c-0.4-0.1-0.9,0.1-1.1,0.5
				c-0.4,0.8-0.3,1.7,0.4,2.3c0.5,0.5,1.2,0.8,1.9,0.6c0.1,0.1,0.2,0.3,0.3,0.4c0.3,0.4,0.9,0.7,1.4,0.4
				C306.4,150.3,306.7,149.6,306.3,149.2z M309.3,169.2c-1.2,0.4-2.2,1.6-2.3,2.9c-0.8,1.3-0.4,3,0.7,3.9c0.1,0.3,0.4,0.5,0.9,0.5
				c1.4,0.5,3,0.1,4.1-1C315.1,173.1,313,167.9,309.3,169.2z M322.3,198.2c0-1.8-2-3.3-3.8-3.2c-2.1,0.1-3.2,2.3-2.4,4.1
				c0.8,1.9,2.9,3,4.9,2.1c0.4-0.2,0.6-0.7,0.5-1.2v-0.1C322,199.7,322.3,199.2,322.3,198.2z M303.9,147.8
				C303.9,147.7,303.9,147.7,303.9,147.8L303.9,147.8z M318.6,197.2c0.1,0.1,0.1,0.1,0.2,0.2c0-0.1,0-0.2-0.1-0.3c-0.1,0-0.2,0-0.2,0
				C318.5,197.1,318.6,197.1,318.6,197.2z M373,222c-0.4-0.2-0.6-0.6-0.8-1.2c-3.6-16.6-7.6-33.2-11.9-49.6
				c-3.9-14.7-8-29.2-12.5-43.7c-1.5-4.7-2.9-9.5-4.5-14.2c-1.7,2.7-3.7,5.2-6.4,7.1c-3.1,2.1-7.5,3.3-11.3,2.7
				c0.1,0.1,0.1,0.3,0.2,0.4c0.8,2,1.6,4,2.3,6c1.6,4.1,3.1,8.2,4.6,12.3c3.4,9.4,6.5,18.8,9.5,28.3c0.3-0.2,0.6-0.2,0.9-0.3
				c0.6-0.8,1.6-1.4,3-1.1c2,0.3,3.6,2.3,3.3,4.3c-0.2,1.8-1.8,2.8-3.5,2.7c-0.1,0.1-0.2,0.2-0.3,0.2c-0.4,0.3-0.9,0.6-1.4,0.7
				c5.4,17.5,10.3,35.2,15.3,52.8c1.5-0.5,2.9-1.1,4.4-1.7c2-0.8,4.1-1.6,6.1-2.4c0.7-0.3,1.5-0.6,2.1-1c0.3-0.2,0.6-0.4,0.8-0.6
				c0-0.1,0.1-0.1,0.1-0.2C372.7,223.1,372.7,222.5,373,222z M357.4,230.2c-1.6,0.6-3.2,1.1-4.8,1.7c-3,1.1-6.1,2.1-9.2,3.1
				c-7.4-24.6-15.9-49-25.3-73c0.1-0.6,0.2-1.2,0.2-1.8c0.1-0.4,0.2-0.8,0.2-1.3c0.2-1.4,0-2.8-0.4-4.1c-0.7-2.7-1.7-5.3-2.9-7.8
				c-0.8-1.5-2.4-1.2-3.2-0.2c-2.5-6-5-12.1-7.7-18.1c1.3-0.8,2.5-1.7,3.5-2.7c0,0.8-0.1,1.5-0.2,2.5c-0.2,1.8-0.4,3.6,0.1,5.4
				c0.6,1.9,2.1,4.9,4.5,4.3c1.3-0.3,1.9-1.2,2.2-2.3c0.2-0.3,0.4-0.7,0.4-1.2c0-2.4-0.3-4.9-0.6-7.4c-0.3-2.4-0.9-5-1-7.5
				c0-0.1,0-0.2,0-0.3c0.2-0.1,0.3-0.2,0.5-0.4c1.5-1,3.9-1.8,5.1-0.1c1.1,1.6,2.3,2.7,4,3.4c0.8,2.1,1.8,4.1,2.6,6.1
				c1.4,3.6,2.7,7.2,4.1,10.8c0.1,0.3,0.2,0.6,0.3,0.9c-0.9-0.3-2-0.3-2.9,0.2c-0.4,0.2-0.5,0.7-0.5,1.2c0.1,0.7,0.3,1.3,0.7,1.9
				c0,0,0,0.1-0.1,0.1c-0.7-0.6-2,0.3-1.5,1.4c0.2,0.5,0.6,0.9,1,1.2c0,0.5,0.1,1,0.2,1.5c0.3,1.3,2.3,0.7,2-0.5c0-0.1,0-0.2,0-0.2
				c0.7,0,1.4-0.1,2-0.4c0.1,0,0.3,0.1,0.4,0.1c0.4,0.1,0.7,0,0.9-0.2c1.8,5.1,3.5,10.1,5.1,15.2c1.1,3.4,2.2,6.9,3.3,10.4
				c-0.5,1.1-0.4,2.4,0.2,3.4c0.3,0.5,0.7,0.9,1.2,1.1c3,9.8,5.9,19.6,8.7,29.4C352.9,214,355.1,222.1,357.4,230.2z M332.2,182.9
				c-1-1.2-2.4-2-3.9-2.4c-0.8-0.2-1.4,0.5-1.3,1.3c0.1,0.6,0.2,1.1,0.3,1.7c-0.2,0.1-0.3,0.3-0.5,0.5c-0.3,0.3-0.1,1,0.2,1.2
				c0.6,0.5,1.4,0.8,2.2,0.9c0.3,0.1,0.6,0.1,0.9-0.1c0.9-0.2,1.8-0.8,2.2-1.7C332.6,183.7,332.5,183.3,332.2,182.9z M343.7,201.5
				c-0.4-1-1.3-1.9-2.3-2.3c-0.9-0.4-3-1.1-3.9-0.4c-0.9,0.6-1,2.1-0.8,3.1c0.3,1.5,1.7,3,3.2,3.3c0.5,0.3,1,0.5,1.5,0.6
				c1.3,0.2,2.9-0.2,3.1-1.7C344.7,203.1,344.4,202.1,343.7,201.5z"/>
			<path fill="#231815" d="M314.2,67.4h0.1l0,0l0,0c0.3-0.1,0.5,0,0.7,0.2v0.5l-0.1,0.1v0.1l0,0c0,0.1-0.1,0.3-0.3,0.3
				c-0.3,0-0.4-0.3-0.3-0.6h-0.1C314.3,67.9,314.1,67.5,314.2,67.4z M322.4,76.9c0.1-0.1,0.2-0.1,0.2-0.2c0.2-0.1,0.4-0.2,0.6-0.3
				c0.3-0.1,0-0.6-0.3-0.4c-0.1,0-0.2,0.1-0.2,0.1c-0.1-0.5-0.6-0.8-1.1-0.4c-0.1,0.1-0.1,0.2-0.2,0.3
				C320.9,76.4,321.6,77.4,322.4,76.9z M275.2,68.9c0,0.1,0,0.2,0,0.2c0.4,0.3,0.8,0.3,1.2,0v-0.5c-0.1-0.1-0.2-0.2-0.2-0.2
				c0-0.1,0-0.1,0-0.1c-0.4-0.2-0.7-0.1-1,0.2V68.9L275.2,68.9z M290.1,64.6h0.1v-0.1c0-0.1,0-0.4,0-0.4h-0.1l0,0l0,0
				c-0.3,0-0.6,0-0.8,0c-0.1,0-0.1,0-0.2-0.1v-0.1c0-0.1-0.1,0-0.1,0l0,0c-0.1,0-0.2,0-0.2-0.1c0,0.1,0,0.2,0,0.2l0,0
				c-0.1,0-0.2,0-0.3,0v0.5c0.2,0,0.4-0.1,0.6-0.1C289.4,64.7,289.7,64.8,290.1,64.6z M301.6,84.5c-0.3,0.3-1.7,0.1-2.1,0.1
				c-0.5,0-0.7,0-1.1-0.3c-0.1-0.1-0.1-0.2-0.2-0.2c-0.6-0.3-1,0.2-1.3,0.7c-0.2,0.3,0.3,0.5,0.4,0.3c0.2-0.3,0.6-0.3,0.8-0.2
				c0.1,0,0.1,0.1,0.2,0.2c0.3,0.1,0.6,0.1,0.9,0.2c0.8,0,2.1,0.4,2.7-0.2C302.1,84.6,301.8,84.3,301.6,84.5z M303.1,55.7
				c0.2-0.4,0.8,0,1.1,0c0.5,0.1,1.1,0.3,1.6,0.4c0-0.1,0-0.1,0-0.2c0-0.1,0-0.3,0-0.3c-0.6-0.2-1.1-0.4-1.6-0.7c0,0,0,0.2,0,0.3
				c-0.3-0.1-0.9-0.4-1.1,0C303,55.3,303.1,55.5,303.1,55.7z M251.8,94.1c-0.4,0.5-0.7,0.9-1.3,1.1c-0.4,0.1-0.6,0.1-0.8,0.4
				c-0.4,0.6-0.4,1.7-0.2,2.4c0.1,0.3,0.5,0.2,0.5-0.1c-0.1-0.5-0.1-1,0-1.5c0.1-0.6,0.4-0.6,0.9-0.8c0.5-0.2,0.9-0.7,1.3-1.1
				C252.4,94.2,252,93.9,251.8,94.1z M258.1,114.8c0.2-0.2-0.2-0.6-0.4-0.4c-0.6,0.8-2,0.6-2.9,0.5c-1-0.1-1.9-0.4-2.9-0.7
				c-0.3-0.1-0.4,0.4-0.1,0.5c1.2,0.5,2.5,0.8,3.9,0.8C256.5,115.5,257.5,115.5,258.1,114.8z M284.6,106.3c-0.8,0.5-1.6,0.6-2.4,1.1
				c-0.8,0.4-1.6,0.6-2.4,0.9c-0.7,0.3-1.1,1.2-1.9,1.3c-0.3,0-0.3,0.5,0,0.5c0.4-0.1,0.7-0.1,1-0.4s0.6-0.7,1-0.9
				c0.7-0.4,0.9,0,1.5-0.3c0.3-0.1,0.4-0.2,0.6-0.4c0.4-0.4,0.9-0.6,1.4-0.8c0.2,0,0.3,0,0.5,0c0.4-0.1,1.2-0.9,1.5-1
				c0.3,0,0.3-0.5,0-0.5C284.8,105.9,285.1,106,284.6,106.3z M288.1,110.7c0.3-0.1,0.6-0.2,0.8-0.3c0.2-0.1,0.2-0.4,0-0.5
				c-0.1,0-0.2,0-0.3-0.1c-0.2,0-0.3,0.1-0.3,0.2c-0.1,0-0.2,0.1-0.4,0.1C287.7,110.3,287.8,110.8,288.1,110.7z M309.4,100.1
				c0.5-0.4,0.7-1,0.6-1.7c0-0.3-0.5-0.2-0.5,0.1c0.1,0.5-0.1,0.9-0.5,1.2C308.8,100,309.1,100.3,309.4,100.1z M260.6,100
				c0.9,0,1.8-0.1,2.7-0.5c0.3,0,0.6-0.1,1-0.1c0.3,0,0.3-0.5,0-0.5c-0.2,0-0.4,0-0.6,0c-0.1-0.1-0.2-0.1-0.3,0c-0.1,0-0.1,0-0.2,0.1
				c-0.8,0.1-1.6,0.1-2.4,0.2c-0.2,0-0.2,0.2-0.2,0.3h-0.1C260.3,99.6,260.3,100,260.6,100z M264.7,84c-0.2,0-0.4-0.1-0.5-0.1
				c-0.5-0.1-0.9-0.1-1.4-0.2c-0.3,0-0.3,0.5,0,0.5s0.5,0.1,0.8,0.1c0,0.1,0.1,0.2,0.3,0.1c0.1,0,0.2-0.1,0.4-0.1c0.1,0,0.3,0,0.4,0
				C264.9,84.6,265.1,84.1,264.7,84z M261.7,76.9c0.5,0,1,0,1.5,0c0,0.1,0.1,0.2,0.3,0.2c0.6-0.1,1.1-0.3,1.7-0.4
				c0.3-0.1,0.2-0.6-0.1-0.5c-0.6,0.1-1.2,0.2-1.9,0.3c0.2-0.1,0.1-0.4-0.1-0.5c-0.6-0.1-1.1,0.1-1.5,0.5
				C261.3,76.7,261.4,76.9,261.7,76.9z M293.7,70.9C293.7,71,293.7,71,293.7,70.9c0,0.1,0,0.2,0,0.3l0,0c-0.1,0.4-0.3,0.6-0.9,0.8
				c-0.5,0.2-1,0.3-1.5,0.5c0,0.1,0,0.4,0,0.5c-0.3,0.3-0.9,0.5-1.3,0.3c-0.2-0.1-0.2-0.1-0.2-0.3c-0.2,0.1-0.3,0.1-0.5,0.2
				c0,0-0.1-0.5,0-0.5c0.2-0.1,0.3-0.1,0.5-0.2c0-0.1,0-0.2,0-0.3c0.9-0.7,2-1.3,3.1-1.6C293.4,70.4,293.7,70.5,293.7,70.9
				L293.7,70.9C293.7,70.8,293.7,70.9,293.7,70.9L293.7,70.9z M293.6,71c-0.5-0.3-1.8,0.3-2.8,0.9c0.1,0,0.2,0,0.2,0.1
				c0.2-0.1,0.5-0.2,0.7-0.2C292.2,71.6,293.3,71.5,293.6,71z M305.6,73.4c-0.5,0.2-1.1,0.5-1.6,0.7c-0.1,0.1-0.1,0.2-0.1,0.2
				c-0.7,0.3-1.4,0.4-2.1,0.4c-0.3,0-0.3,0.5,0,0.5c0.8,0,1.5-0.2,2.2-0.5l0,0l0.1,0.1c0.7,0.2,1.4-0.1,1.8-0.7
				c0.1-0.1,0-0.3-0.1-0.3h-0.1l0,0C306.1,73.7,305.9,73.3,305.6,73.4z M251.4,91.3c0.4,0.1,0.3,0.1,0.6,0.1c0.1,0,0.2-0.1,0.2-0.2
				c1.8-0.3,3.6-0.5,5.4-0.6c0.3,0,0.3-0.5,0-0.5c-1,0-2,0-3-0.1c-0.2,0-0.2,0.1-0.2,0.3c-1,0.1-2,0.3-3,0.5
				C251.1,90.9,251.2,91.2,251.4,91.3z M299.6,64v0.5c1-0.2,2-0.4,3-0.6c0,0.1,0,0.3,0,0.3c0.2-0.1,0.5-0.2,0.7-0.2
				c0.2,0.3,0.5,0.4,0.8,0.1c0.1-0.1,0.1-0.3,0.1-0.4c0.2-0.1,0.4-0.1,0.5-0.2c0,0,0-0.2,0-0.3s0-0.1,0-0.2c-0.2,0-0.3,0.1-0.5,0.1
				V63c0,0,0,0-0.1,0c0-0.1-0.1-0.1-0.1-0.1c-0.4-0.3-0.9-0.1-1,0.4v0.1C301.8,63.5,300.7,63.8,299.6,64z M263.7,109.9
				c-0.3,0.1-0.2,0.5,0.1,0.5c0.6-0.1,1.3-0.2,1.9-0.4c-0.1,0.1-0.1,0.3,0.1,0.4c0.2,0.2,0.5,0.1,0.7-0.1c0.1-0.1,0-0.3-0.1-0.3
				c0,0,0,0,0.1-0.1c0,0,0,0,0-0.1c0.5-0.1,1.1-0.2,1.6-0.3c0.3-0.1,0.2-0.5-0.1-0.5c-0.7,0.1-1.4,0.2-2.2,0.3
				c-0.1,0-0.2,0.1-0.2,0.2C265,109.7,264.4,109.8,263.7,109.9z M297.5,112.6c1.5,0.1,3-0.2,4.4-0.7l0,0c0.7,0,1.4-0.1,2.1-0.6
				c0.3-0.2,0-0.6-0.3-0.4c-1.1,0.7-2,0.5-3.2,0.6c-1.1,0.2-2,0.6-3.1,0.6c-0.4,0-0.8-0.1-1.2-0.1c-0.3-0.1-0.4,0.4-0.1,0.5
				C296.7,112.6,297.1,112.7,297.5,112.6z M279.3,81.9c1.7-0.3,3.4,0,4.9,0.9c0.2,0.1,0.4-0.1,0.4-0.3c-0.2-0.5-0.5-0.8-0.9-1
				c0.1,0,0.1,0,0.2,0c0.2,0,0.3-0.2,0.2-0.4c-0.3-0.5-0.9-0.6-1.4-0.3c-0.1,0.1-0.1,0.1-0.1,0.2c-0.2,0-0.4,0-0.7,0
				c-0.2,0-0.2,0.2-0.2,0.3c-0.8-0.1-1.7-0.1-2.5,0C278.9,81.5,279,82,279.3,81.9z M272.1,93.5c0.1,0,0.1,0,0.2,0
				c0.1,0.1,0.1,0.2,0.3,0.1c0.3-0.1,0.6-0.2,1-0.3c-0.1,0.1-0.3,0.2-0.4,0.3c-0.3,0.2,0,0.6,0.3,0.4s0.5-0.4,0.8-0.7
				c0.1-0.1,0.2-0.2,0.3-0.2h0.1c0.2-0.1,0.4-0.1,0.7-0.2c0.6,0,1.1-0.1,1.7,0c0.6,0.2,1.2,0.3,1.8,0.2c0.2,0,0.2-0.4,0-0.5
				c-0.6-0.1-1.2-0.2-1.8-0.2c-0.4-0.1-0.9-0.3-1.3-0.3c0-0.1-0.1-0.2-0.2-0.3c-0.1-0.1-0.2,0-0.3,0c-0.3,0.3-0.7,0.5-1.1,0.7
				c-0.7,0.1-1.4,0.3-2.1,0.5C271.6,93.2,271.8,93.6,272.1,93.5z M296.4,56.2c0,0,0,0.2,0,0.3s0,0.1,0,0.2c0.5-0.1,1-0.3,1.5-0.4
				c-0.1,0.3-0.3,0.5-0.5,0.6c-0.1,0-0.2,0.1-0.4,0.1c0,0,0,0.3,0,0.4v0.1c0.2,0,0.3,0,0.4-0.1c1.1-0.2,2.2-0.5,3.3-0.7v-0.5
				c-0.9,0.2-1.9,0.4-2.8,0.6c0,0,0-0.1,0.1-0.1c0.1-0.2,0.1-0.3,0.2-0.5c0.2-0.1,0.4-0.1,0.6-0.2h0.1c0.5-0.1,1-0.2,1.6-0.3
				c0,0,0,0,0-0.1c0.6,0.2,1.3,0.4,1.9,0.4v-0.5c-1.2,0.1-2.3-0.8-3.4-0.4c-0.2,0.1-0.4,0.2-0.5,0.3C297.8,55.4,296.8,56,296.4,56.2z
				M164.2,70.2L164.2,70.2C164.2,70.3,164.2,70.3,164.2,70.2c0,0.2,0.1,0.3,0.3,0.3c0.3,0,0.4-0.3,0.3-0.6h0.1c-0.1,0,0.1-0.5,0-0.5
				h-0.1l0,0l0,0c-0.3-0.1-0.5,0-0.7,0.2C164.1,69.6,164.1,70.1,164.2,70.2C164.1,70.1,164.2,70.2,164.2,70.2z M175,75
				c0.1,0,0.1-0.1,0.1-0.1l0,0c0.7,0.3,1.4,0.4,2.2,0.5c0.3,0,0.3-0.5,0-0.5c-0.7,0-1.4-0.2-2.1-0.4c0-0.1,0-0.2-0.1-0.2
				c-0.5-0.2-1.1-0.5-1.6-0.7c-0.3-0.1-0.5,0.2-0.3,0.4l0,0h-0.1c-0.1,0.1-0.2,0.2-0.1,0.3C173.6,74.9,174.3,75.1,175,75z M157.7,78
				c0-0.1-0.1-0.2-0.2-0.3c-0.5-0.4-1,0-1.1,0.4c-0.1,0-0.2-0.1-0.2-0.1c-0.3-0.1-0.5,0.3-0.3,0.4s0.4,0.2,0.6,0.3
				c0.1,0.1,0.1,0.1,0.2,0.2C157.6,79.5,158.2,78.4,157.7,78z M203.9,69.2c0,0,0-0.1,0-0.2h0.1v-0.5c-0.3-0.3-0.7-0.3-1-0.2v0.1
				c-0.1,0.1-0.2,0.1-0.2,0.2v0.5C203.1,69.4,203.5,69.4,203.9,69.2z M188.9,64.6h0.1c0.3,0.1,0.7,0.1,1,0c0.2,0,0.4,0,0.6,0.1v-0.5
				c-0.1,0-0.2,0-0.3,0l0,0c0-0.1,0-0.2,0-0.2c-0.1,0.1-0.1,0.1-0.2,0.1l0,0c0-0.1-0.1-0.1-0.1,0c0,0,0,0,0,0.1
				c-0.1,0-0.1,0.1-0.2,0.1c-0.3,0-0.6,0-0.8,0l0,0l0,0h-0.1C188.9,64.3,188.9,64.5,188.9,64.6C188.9,64.5,188.9,64.6,188.9,64.6z
				M177.6,84.5c-0.2-0.2-0.6,0.1-0.4,0.4c0.3,0.3,0.3,0.3,0.7,0.3c0.6,0,1.3,0,1.9-0.1c0.3,0,0.6,0,0.9-0.1c0.4-0.1,0.7-0.6,1.1,0.1
				c0.2,0.3,0.6,0,0.4-0.3c-0.3-0.5-0.7-1-1.3-0.7c-0.1,0.1-0.1,0.2-0.2,0.2c-0.4,0.3-0.6,0.3-1.1,0.3
				C179.2,84.6,177.9,84.8,177.6,84.5z M173.4,56.1c0.5-0.1,1.1-0.3,1.6-0.4c0.3-0.1,0.9-0.4,1.1,0c-0.1-0.1,0.1-0.4,0-0.5
				c-0.2-0.4-0.8,0-1.1,0c0-0.1-0.1-0.3,0-0.3c-0.5,0.3-1,0.6-1.6,0.7c0,0,0,0.2,0,0.3C173.4,56,173.4,56.1,173.4,56.1z M228.7,95.2
				c-0.6-0.2-1-0.6-1.4-1.1c-0.2-0.3-0.6,0.1-0.4,0.4c0.4,0.5,0.7,0.9,1.3,1.1c0.4,0.2,0.8,0.2,0.9,0.7c0.1,0.5,0.1,1.1,0,1.6
				c-0.1,0.3,0.4,0.5,0.5,0.1c0.1-0.7,0.2-1.8-0.2-2.4C229.2,95.4,229,95.4,228.7,95.2z M148.7,106.7c-0.8-0.6-1.1-1.1-1.5-1.9
				c-0.2-0.4-0.4-0.5-0.7-0.8c-0.4-0.3-0.3,0.2-0.5-0.4c-0.1-0.5,0.2-1.3,0.3-1.8c0.1-0.3-0.4-0.4-0.5-0.1c-0.1,0.5-0.7,1.8-0.4,2.4
				c0.3,0.5,0.9,0.3,1.2,0.7c0.4,0.5,0.4,1.2,1,1.7c0.6,0.6,1.4,1,2,1.7c0.2,0.2,0.6-0.1,0.4-0.4C149.6,107.3,149.2,107,148.7,106.7z
				M156.8,105.9c-0.2,0.2-0.6-0.4-0.9-0.4c-0.3,0-0.6,0.1-0.7-0.2c-0.1-0.3,0.1-0.6,0.2-0.8c0.1-0.3-0.4-0.4-0.5-0.1
				c-0.2,0.6-0.4,1.7,0.5,1.8c0.2,0,0.3-0.1,0.5-0.1c0.1,0,0.2,0.2,0.3,0.3c0.3,0.2,0.6,0.2,0.8,0
				C157.3,106.2,157.1,105.8,156.8,105.9z M223,118.7c-0.9,0.4-1.9,0.6-2.9,0.7c-0.8,0.1-2.3,0.3-2.9-0.5c-0.2-0.3-0.6,0.1-0.4,0.4
				c0.6,0.7,1.5,0.7,2.4,0.7c1.3,0,2.6-0.3,3.9-0.8C223.4,119,223.3,118.6,223,118.7z M197.6,109.4c-0.8-0.1-1.1-0.9-1.7-1.2
				c-0.8-0.4-1.7-0.5-2.5-1c-0.6-0.4-1.2-0.4-1.9-0.8c-0.6-0.3-0.8-0.6-1.4-0.7c-0.3,0-0.3,0.5,0,0.5c0.2,0,1.1,0.8,1.4,0.9
				c0.2,0,0.4,0,0.5,0c0.4,0.2,0.9,0.4,1.3,0.6c0.4,0.2,0.3,0.3,0.8,0.5c0.3,0.1,0.8,0.1,1,0.2c0.6,0.2,0.8,0.4,1.3,0.8
				c0.4,0.3,0.7,0.5,1.1,0.5C198,110,198,109.5,197.6,109.4z M167.1,102.2c0-0.3-0.4-0.5-0.5-0.1c-0.1,0.7,0.1,1.3,0.6,1.7
				c0.2,0.2,0.6-0.2,0.4-0.4C167.3,103.1,167.1,102.7,167.1,102.2z M218.5,100c0.3,0,0.3-0.4,0.1-0.5h-0.1c0-0.1-0.1-0.3-0.2-0.3
				c-0.8-0.1-1.6-0.1-2.4-0.2c-0.1,0-0.1,0-0.2-0.1c-0.1,0-0.2,0-0.3,0c-0.2,0-0.4,0-0.6,0c-0.3,0-0.3,0.5,0,0.5s0.7,0.1,1,0.1
				C216.7,99.9,217.6,100,218.5,100z M215.3,84.5c0.1,0,0.2,0,0.3-0.1c0.3,0,0.5-0.1,0.8-0.1s0.3-0.5,0-0.5c-0.5,0-0.9,0.1-1.4,0.2
				c-0.2,0-0.3,0-0.5,0.1c-0.3,0.1-0.2,0.5,0.1,0.5c0.1,0,0.3,0,0.4,0C215,84.5,215.1,84.5,215.3,84.5z M216,76.9c0.5,0,1,0,1.5,0
				c0.2,0,0.3-0.3,0.2-0.4c-0.4-0.4-0.9-0.6-1.5-0.5c-0.3,0-0.3,0.4-0.1,0.5c-0.6,0-1.2-0.1-1.9-0.3c-0.3-0.1-0.4,0.4-0.1,0.5
				c0.6,0.1,1.1,0.3,1.7,0.4C215.9,77.1,216,77,216,76.9z M189.4,72.9c0,0.1-0.1,0.2-0.3,0.3c-0.4,0.1-0.9-0.1-1.3-0.3
				c0,0,0-0.3,0-0.4c-0.6-0.2-1.1-0.4-1.7-0.6c-0.4-0.2-0.7-0.4-0.7-0.7l0,0c0-0.1,0-0.1,0-0.2l0,0l0,0c0-0.1,0-0.1,0-0.2
				c0,0,0,0,0,0.1c0.1-0.4,0.5-0.4,1-0.2c1.1,0.4,2,0.9,2.9,1.6c0,0,0,0.2,0,0.3c0.2,0.1,0.3,0.1,0.5,0.2c0.1,0,0,0.5,0,0.5
				C189.7,73,189.5,73,189.4,72.9z M187.4,71.8c0.2,0.1,0.5,0.2,0.7,0.2c0.1,0,0.2,0,0.2-0.1c-1-0.6-2.3-1.3-2.8-0.9
				C185.9,71.5,186.9,71.6,187.4,71.8z M227.1,91.4c0.4,0,0.3,0.1,0.6-0.1c0.2-0.1,0.3-0.4,0-0.5c-1-0.2-2-0.4-3-0.5
				c0-0.1-0.1-0.3-0.2-0.3c-1,0-2,0-3,0.1c-0.3,0-0.3,0.5,0,0.5c1.8,0,3.6,0.2,5.4,0.6C227,91.3,227,91.3,227.1,91.4z M179.6,64
				c-1.1-0.2-2.2-0.5-3.3-0.7c0-0.1,0-0.1,0-0.1c-0.1-0.4-0.6-0.7-1-0.4c-0.1,0.1-0.1,0.1-0.2,0.2c0,0,0,0-0.1,0c0,0,0,0,0,0.1
				c-0.2,0-0.3-0.1-0.5-0.1c0,0.1,0,0.1,0,0.2c0,0.1,0,0.3,0,0.3c0.2,0.1,0.4,0.1,0.5,0.2c0,0.1,0,0.3,0.1,0.4
				c0.2,0.3,0.6,0.2,0.8-0.1c0.2,0.1,0.5,0.2,0.7,0.2c0,0,0-0.2,0-0.3c1,0.2,2,0.4,3,0.6C179.5,64.5,179.6,64,179.6,64z M210.5,113.8
				c-0.7-0.1-1.3-0.3-2-0.4c0-0.1-0.1-0.2-0.2-0.2c-0.7-0.1-1.4-0.2-2.2-0.3c-0.3,0-0.3,0.4-0.1,0.5c0.5,0.1,1.1,0.2,1.6,0.3
				c0,0,0,0,0,0.1c0,0,0,0,0.1,0.1c-0.1,0.1-0.2,0.2-0.1,0.3c0.2,0.2,0.4,0.3,0.7,0.1c0.1-0.1,0.1-0.3,0.1-0.4
				c0.6,0.1,1.3,0.2,1.9,0.4C210.7,114.3,210.8,113.8,210.5,113.8z M182.3,110c-0.7,0.3-1.3,0.6-2,0.7c-0.2,0-0.4,0-0.7-0.1
				c-0.5-0.1-0.9-0.5-1.4-0.5c-0.4-0.1-0.2,0-0.7,0c-0.3,0-0.5,0.1-0.8,0.1l0,0c-0.1,0-0.2,0-0.2,0.1c-0.6,0.1-1.1,0-1.7-0.6
				c-0.2-0.2-0.6,0.1-0.4,0.4c0.3,0.4,0.7,0.6,1,0.7c-0.1,0.1-0.2,0.3,0,0.4l0,0c0,0.2,0.2,0.4,0.4,0.3c0.3-0.2,0.4,0.5,0.4,0.6
				c0,0.3,0.5,0.3,0.5,0c0-0.2-0.1-0.5-0.2-0.7c0.1,0,0.2-0.1,0.3-0.1c0.1-0.1,0.1-0.1,0.1-0.2c1.3,0.5,2.7,0.6,4,0.2
				c0.5,0,1.1-0.2,1.7-0.6C182.9,110.3,182.6,109.8,182.3,110z M200,81.5c-0.9-0.1-1.7-0.2-2.5,0c0-0.1-0.1-0.3-0.2-0.3
				c-0.2,0-0.4,0-0.7,0c0-0.1,0-0.2-0.1-0.2c-0.5-0.3-1.1-0.2-1.4,0.3c-0.1,0.2,0,0.4,0.2,0.4c0.1,0,0.1,0,0.2,0
				c-0.4,0.2-0.7,0.4-0.9,1c-0.1,0.2,0.2,0.4,0.4,0.3c1.5-0.9,3.2-1.2,4.9-0.9C200.1,82,200.3,81.5,200,81.5z M206.1,93.6
				c-0.2-0.1-0.3-0.2-0.4-0.3c0.3,0.1,0.6,0.2,1,0.3c0.1,0,0.2,0,0.3-0.1c0.1,0,0.1,0,0.2,0c0.3,0.1,0.4-0.4,0.1-0.5
				c-0.7-0.2-1.4-0.4-2.1-0.5c-0.4-0.2-0.7-0.4-1.1-0.7c-0.1-0.1-0.2-0.1-0.3,0s-0.2,0.2-0.2,0.3c-0.5,0-0.9,0.2-1.4,0.3
				c-0.6,0-1.2,0.1-1.7,0.2c-0.2,0-0.2,0.4,0,0.5c0.7,0.1,1.2,0,1.9-0.2c0.6,0,1.1,0,1.7,0c0.2,0.1,0.5,0.2,0.7,0.2
				c0.1,0,0.1,0,0.2,0l0.1,0.1c0.3,0.3,0.5,0.6,0.9,0.8C206.1,94.2,206.4,93.8,206.1,93.6z M165.6,108.5c-2.8-0.6-4.9-2.7-7.6-3.5
				c-0.3-0.1-0.4,0.4-0.1,0.5c2.7,0.7,4.8,2.9,7.6,3.5C165.8,109,165.9,108.5,165.6,108.5z M182.7,56.2c-0.4-0.2-1.3-0.7-2-0.8
				c-0.1-0.1-0.3-0.2-0.5-0.3c-1.1-0.3-2.3,0.5-3.4,0.4V56c0.7,0,1.3-0.2,1.9-0.4v0.1c0.5,0.1,1,0.2,1.6,0.3h0.1
				c0.2,0,0.4,0.1,0.6,0.1c0.1,0.2,0.2,0.4,0.3,0.6c-0.9-0.2-1.9-0.4-2.8-0.6v0.5c1.1,0.2,2.2,0.5,3.3,0.7c0.1,0,0.2,0.1,0.4,0.1
				v-0.5c-0.1,0-0.2-0.1-0.4-0.1c-0.2-0.1-0.4-0.4-0.5-0.6c0.5,0.1,1,0.2,1.5,0.4c0-0.1,0-0.1,0-0.2
				C182.8,56.3,182.8,56.2,182.7,56.2z M318.2,257.7c-0.6,0-0.6,1,0,1C318.9,258.7,318.9,257.7,318.2,257.7z M392,257.8
				c-0.4,0.1-0.8,0.3-1.1,0.4c0.3,0.2,0.6,0.4,1,0.7c0.3,0.3,0.1,0.7-0.2,0.8c-0.7,0.2-1.5,0.5-2.3,0.7c0.7-0.1,1.4-0.1,2-0.2
				c0.6,0,0.7,0.9,0.1,1c-26.1,6-52.4,10.6-78.9,13.9c-0.6,0.1-0.6-0.9,0-1c13.2-1.6,26.4-3.6,39.4-5.9c0.2,0,0.4-0.1,0.7-0.1
				c-2.1,0.2-4.3,0.4-6.4,0.6c-4.4,0.6-8.9,1-13.4,1.3c-0.4,0-0.6-0.5-0.4-0.8c-1.2,0-2.5,0-3.7,0c-0.5,0-0.7-0.7-0.3-0.9
				c1.1-0.5,2.2-0.9,3.3-1.4c-3.1,0.2-6.2,0.3-9.3,0.3c-0.6,0-0.7-0.8-0.1-1c0.5-0.2,0.9-0.3,1.4-0.5c-1.8,0-3.6,0-5.4,0
				c-0.3,0-0.4-0.2-0.5-0.4c-3.3,0.6-6.6,0.9-10,0.7c-0.6,0-0.7-0.8-0.1-1c7-2,14.1-3.6,21.3-4.7c0.8-0.4,0.4-0.5-2.3-0.5
				c-2.8,0.1-5.5,0.2-8.2,0.5c-5.4,0.6-10.8,1.8-16,3.3c-0.6,0.2-0.9-0.8-0.3-1c2.3-0.6,4.6-1.3,6.8-2.2c6.2-2.4,2-1-0.6-0.9
				c-5,0.2-10.1,0.5-15.1,0.7c-0.6,0-0.6-1,0-1c1,0,1.9-0.1,2.9-0.1c5.3-0.4,10.9-1.6,15.4-4.2c0.5-0.3,0.9-0.5,1.2-0.6
				c-0.2,0.1-0.5,0.1-0.7,0.1c-1.8-0.1-3.8,0.5-5.5,0.8c-2.8,0.5-5.6,1.2-8.4,1.9c-0.6,0.2-0.9-0.8-0.3-1c5.6-1.5,11.2-2.5,17.1-3
				c0.5,0,0.7,0.7,0.3,0.9c-3.6,2.1-7.3,3.7-11.1,4.7c3.3-0.2,6.6-0.3,9.9-0.5c0.5,0,0.7,0.7,0.3,0.9c-0.8,0.4-1.7,0.8-2.6,1.1
				c6.4-1.2,13-1.7,19.6-1.6c0.5,0,0.7,0.7,0.3,0.9c-0.1,0.1-0.2,0.1-0.3,0.2c7.2-1,14.4-1.4,21.6-1.4c2.5-0.4,4.9-0.8,7.4-1.1
				c6.6-0.8,13.2-1.3,19.8-1.4c2.4,0,4.8-0.1,7,0.4c1.6,0,3.2,0.1,4.8,0.2C392.4,256.8,392.5,257.6,392,257.8z M368.8,258.5
				c-3.8,0.3-7.7,0.8-11.5,1.6c-4.6,1.5-9.3,2.7-14.1,3.6c-0.9,0.3-1.8,0.6-2.7,0.9c-0.7,0.3-1.5,0.5-2.2,0.8
				c8.4-0.9,16.8-2.6,24.9-5.1c1.4-0.4,5.5-2.1,6.1-1.6C369.2,258.6,369,258.5,368.8,258.5z M331.6,264.3L331.6,264.3
				c3.8-0.3,7.6-0.8,11.4-1.6c3.6-1.1,7.2-2.1,10.9-2.9c-2.3,0.2-4.5,0.5-6.8,0.8C341.9,261.6,336.8,262.8,331.6,264.3z M311.1,265.1
				c5.2-0.8,9.9-1.2,14.7-3.3c-1,0.2-2.1,0.4-3.1,0.6c-3.1,0.6-6.2,1.3-9.2,2.1C312.2,264.7,307,265.7,311.1,265.1z M324.5,263.3
				c6.9-1.4,13.9-2.6,20.9-3.5c-2.9,0.1-5.5,0.2-6,0.2c-3.5,0.3-7,0.7-10.4,1.2C327.5,262,326.1,262.7,324.5,263.3z M327.2,264.6
				c2.6-0.8,5.2-1.5,7.9-2.2c-2.4,0.4-4.8,0.8-7.2,1.3c-0.8,0.2-4.4,0.5-6.3,1c1.2-0.2,3.1,0,4.2,0
				C326.2,264.7,326.7,264.6,327.2,264.6z M334.7,265.7c1-0.4,1.9-0.7,2.9-1.1c-3.3,0.5-6.7,0.8-10.1,1c-1,0.3-1.9,0.6-2.5,0.7
				c1.5-0.1,5.4-0.3,5.8-0.3C332.1,265.9,333.4,265.8,334.7,265.7z M334.4,268.2c0.5,0,1,0,1.5,0c10.3-2.6,20.8-4.2,31.3-5
				c2.8-0.5,5.5-0.9,8.3-1.3c1.2-0.3,2.4-0.7,3.6-1c2.4-0.7,4.8-1.5,7.2-2.3c0.4-0.1,1.2-0.3,2-0.5c-0.2-0.2-0.5-0.4-0.8-0.5
				c-5.4,0.2-10.6,0.3-15.9,0.7c-0.1,0.1-0.1,0.2-0.3,0.3c-11.8,4.3-24,7-36.4,8c-0.4,0.1-0.7,0.3-1.1,0.4
				C329.7,268.7,330.5,268.2,334.4,268.2z M346.1,267.8c0.8-0.1,1.6-0.2,2.4-0.3c-0.1-0.2,0-0.5,0.3-0.6c2.4-0.6,4.8-1.1,7.2-1.6
				c-5.2,0.7-10.3,1.6-15.4,2.8C342.4,268,344.3,267.9,346.1,267.8z M373.4,263.7c-0.5,0.1-1,0.1-1.6,0.1c-1.7,0.4-3.5,0.9-5.2,1.3
				c0.4-0.1,0.8-0.1,1.2-0.2C369.7,264.6,371.5,264.2,373.4,263.7z M364.5,264.6c-2.8,0.5-5.7,1.1-8.5,1.7c2.2-0.4,4.5-0.8,6.7-1.3
				C363.3,264.9,363.9,264.8,364.5,264.6z M378.4,262.5c-0.6,0.1-1.2,0.2-1.8,0.2c0.3,0,0.5,0,0.8,0h0.1
				C377.8,262.7,378.1,262.6,378.4,262.5z M389,258.8c-2.4,0.8-4.9,1.6-7.3,2.4c0.9-0.1,1.9-0.2,2.8-0.3c0.8-0.2,1.6-0.5,2.4-0.7
				c0.9-0.3,1.8-0.6,2.7-0.8C389.3,259.1,389.2,259,389,258.8z M390,257.6C390,257.6,389.9,257.6,390,257.6
				C389.9,257.6,390,257.6,390,257.6z M293.7,113.8c-0.2,0.1-0.4,0.2-0.6,0.3c0,0.1,0,0.2-0.1,0.3c-2.9,1.6-6.2,3.1-9.6,2.8
				c-1.3-0.2-3.5-0.7-4.5-1.7c-0.6-0.6-1-0.6-0.9-0.8c-0.1-0.1-0.2-0.2-0.4-0.4h-0.1l0,0c-0.7,0.1-1.3,0.2-2,0.3
				c-0.5,0.2-1,0.4-1.5,0.6c0,0.1,0,0.1-0.1,0.2c-2.2,1.1-4.8,2.4-7.4,2.8c-0.7,0.2-1.5,0.4-2.4,0.5c-1.3,0.2-2.6,0.2-4,0.1
				c-0.5,0-1,0-1.4-0.1c-2.2-0.2-4.4-0.8-6.5-1.6c-0.3-0.1-0.2-0.6,0.1-0.5c1.8,0.7,3.7,1.2,5.5,1.5c0-0.2,0.2-0.4,0.4-0.2
				c0.1,0.1,0.3,0.2,0.5,0.3c0.5,0.1,1,0.1,1.6,0.1c0.7-0.1,1.6-0.2,2.4-0.5c0-0.1,0-0.2,0.2-0.3c1.9-0.5,3.9-1.1,5.8-1.8
				c1.5-0.6,2.9-1.4,4.3-2.2c0.8-0.5,1.6-1.1,2.4-1.2c0.7-0.4,1.6-0.4,2.3,0c0.1,0,0.1,0.1,0.1,0.1c0.1,0,0.2,0.1,0.2,0.1
				c2.1,0.7,2.2,1.9,3.4,2.7c3.3,0.9,7,0,10.2-1.1c0.3-0.2,0.6-0.4,0.9-0.7c-0.3,0-0.2-0.5,0.1-0.5c0.3,0,0.6,0.1,0.9,0.1
				C293.9,113.4,293.9,113.7,293.7,113.8z M282.5,116.4c-0.1,0-0.1,0-0.2-0.1l0,0C282.4,116.4,282.4,116.4,282.5,116.4z M272.8,114.7
				c0.1,0,0.2,0,0.2,0.1l0,0c-0.1,0-0.1-0.1-0.1-0.1H272.8z M266.8,117c-0.2,0.1-0.3,0.2-0.5,0.2c0.3-0.1,0.6-0.1,0.9-0.2
				c0.4-0.1,0.9-0.2,1.3-0.4c0,0,0-0.1,0-0.2c-0.1,0-0.2,0.1-0.3,0.1C268,116.7,267.4,116.8,266.8,117z M263.1,118.3
				c0.2,0,0.4,0,0.5,0c-0.1,0-0.1,0-0.2,0S263.2,118.3,263.1,118.3z M284.6,60.8c3.6-3.6,7.2-7.1,12-8.9c0.1,0,0.1-0.6,0-1.1
				c0-0.3,0-0.6,0-0.9c-2.7,1-8.2,2.7-9.3,5.8c-0.1,0.2-0.1,0.3-0.1,0.5c-0.9,0.9-1.8,1.7-2.7,2.6C284.3,59.1,284.9,60.4,284.6,60.8z
				M335.2,90.9c-0.3-0.4,0.3-1.6,0-2c-0.7-0.8-1-1.4-1.2-2.4c0.3-2.5,1.2-4.9,1.3-7.4c0,0.1,0,0.1,0,0.2v-0.1v0.1c0-0.1,0-0.2,0-0.4
				c0-0.1,0-0.2,0-0.4c0-0.1,0-0.2,0-0.4c0-0.1,0-0.1,0-0.2V78c-0.1-2.3-0.5-4.4-1.2-6.5c0.2,0.6-0.2,1.4,0,2c0.6,1.8,1,3.4,1.2,5.3
				C334.7,82.5,332.4,87.5,335.2,90.9z M267.1,142.7c7.5,21.9,15.2,43.7,21.8,65.9c-0.2-0.6,0.2-1.4,0-2c-6.6-22.2-14.3-44-21.8-65.9
				C267.3,141.3,266.9,142.1,267.1,142.7z M311.8,147c-2.1-5.7-4.5-11.3-7.5-16.5c0.3,0.5-0.3,1.5,0,2c2.9,5,5.2,10.3,7.2,15.8
				C311.5,147.8,311.6,147.4,311.8,147z M318.9,162.1c0.1-1.3,0.1-2.6,0.1-3.9c0-5.8-0.8-11.7-5.2-15.9c0.7,0.6-0.7,3.4,0,4
				c4.6,4.4,5.9,11.4,4.2,17.3c-0.1,0.4-0.3,1.1-0.5,1.9c-0.1,0.1-0.2,0.2-0.3,0.3c0,0.1,0.1,0.2,0.1,0.3c-0.6,1.7-1.5,3.5-2.8,3.6
				c-2.4,0.1-3.1-4.7-3.3-6.8c0.1-6,0.7-12,1.1-18c0.1-1.2-0.1-2.9,0-3.9c-0.4,7.1-1,14.2-1.1,21.2c0,0.4,0,1.1,0,1.9
				c0,0.3,0,0.5,0,0.8c0-0.2,0-0.3,0-0.5c0.2,4.1,1,11.1,4.4,8.6c1.1-0.8,1.9-2.6,2.4-4.5c0.2,0.8,0.5,1.6,0.7,2.5
				c4.2,14.3,8.9,28.4,14.1,42.3c2.9,7.9,6.1,15.7,9.3,23.5c-0.2-0.6,0.2-1.5,0-2c-5.8-13.7-11.1-27.6-15.8-41.7
				c-2.9-8.5-5.4-17.2-8-25.8C318.6,165.4,318.8,163.4,318.9,162.1z M307.5,131.9c0.1-1.6,0.3-3.2,0.4-4.6c0,0.1,0,0.2,0.1,0.3
				c0-0.7,0-1.3,0-2c0,0.3,0,0.7-0.1,1c-0.1-2.3-0.7-4.5-2.9-6.7c-0.2-0.2-1.7-1.7-1.9-1.6c-0.2,0.1-0.5,4.7-0.5,5
				c-0.2,1.5,0.1,4.7-1.2,5.7c-4.3,3.1-4.8-10.6-5-12.4c0.1,0.7-0.1,1.3,0,2c0.4,3.2,0.2,7.5,1.5,10.5c1.2,2.8,3.4,3.2,4.3,0.1
				c0.4-1.5,0.3-3.2,0.5-4.7c0.1-0.8,0.2-1.7,0.3-2.5c-0.3-1.7-0.1-2.1,0.6-1.3c2-0.1,3.8,4.5,4.3,6.4c-0.2,2-0.6,4.1-0.4,6.1
				c0,0,0,0,0,0.1l0,0l0,0c0.4,3.7,5.4,8.8,7.5,3.2c0.4-1.1,0.5-2.5,0.4-3.8c-0.1,1.1-0.4,2.1-0.9,2.8
				C311.6,139.3,308.2,135,307.5,131.9z M315.3,132.7c0.1-1.6-0.1-3.6-0.4-5.5c0.2,1.4,0.3,2.9,0.4,4.4
				C315.3,131.9,315.3,132.3,315.3,132.7z M241.7,128.6c0,0.1,0,0.2,0,0.2S241.7,128.7,241.7,128.6L241.7,128.6L241.7,128.6z
				M397.7,184.2c-1.9,3.3-5.5,4.9-9,6.2c-5,1.8-10,3.5-15,5.2c0.1,0.3,0.2,0.7,0.3,1c0.3,0.8-0.4,1.2-1,1.2
				c1.4,5.8,2.9,11.7,4.2,17.5c0.6,2.7,1.2,5.1,1.3,7.7c-1.9-8.5-4-17-6.1-25.4c-0.2-0.1-0.3-0.3-0.4-0.5c-1.9-5-3.2-10.2-4-15.4
				c-0.2-0.1-0.3-0.3-0.4-0.5c-6.5-23.5-13.4-47-20.9-70.2c-0.1-0.3,0-0.6,0.1-0.8c-0.8-2.7-1.5-5.5-2.3-8.2c-0.1-0.3-0.2-0.6-0.3-1
				c-0.8-1.8-1.7-3.6-2.5-5.4c-0.1-0.2-0.1-0.4-0.2-0.5c0,0,0,0,0-0.1c-0.1,0.6-0.2,1.2-0.5,1.8c-1.1,3-3.5,5.9-5.6,8.2
				c-2.3,2.4-5,3.8-8.2,4.2c-1.7,0.2-3.4,0.1-5.1-0.2c-1.9-0.3-4.9-1.9-6.8-0.7c-0.1,0.1-0.2,0.1-0.3,0.1l0,0c0,0.2,0,0.3,0,0.5
				c0,0.1,0,0.2,0,0.2s0-0.1,0-0.2v0.1c-2.4,6.1-1.1,12.1-0.3,18.2c-0.5-2.6-1.1-5.1-1.2-6.8c-0.3-4.1-0.2-8.2,1-12.1
				c-0.7-0.2-1-1.3-0.2-1.8c1.6-1.1,2.8-0.9,4.7-0.4c4.5,1.1,8.8,2.1,13-0.8c3.3-2.3,7.8-7.7,7.8-11.8c0-2.8-2-5.2-2-8
				c0-0.8,0.7-1.1,1.3-0.9c0.7-1.8,1-3.5,1-5.2c-0.3-2.2-1-4.6-2-6.8c-0.6-1-1.3-2-2.2-2.9c-3-3.1-6.3-3.9-10.3-4.9
				c-1.3-0.3-2-0.9-2.3-1.7c-0.1,0-0.1-0.1-0.2-0.1v0.1V63c-0.3-0.2-0.6-0.5-0.6-1c-0.1-0.7,0.1-1.3,0-2c0,0.4,0.2,0.7,0.4,0.9
				c0-0.6,0.1-1.3,0.1-1.9c-1-7.1-5.9-11.7-12.1-13.5c-6-1.2-13.1,0.2-18.5,2.5c-1.4,0.8-2.6,1.7-3.8,2.8c-3.3,3-5.3,8.1-9.2,10.3
				c-1.5,0.8-3.1,1.1-4.8,1.1c-1.5,0.3-3,0.4-4.5,0.5c-2.4,0.3-4.7,0.7-7,1.4c-3.3,1.1-6.4,3.1-8.3,6c-0.2,0.5-0.4,0.9-0.6,1.4
				c-1,2.5-1.1,3-3.8,3.8c-1.9,0.5-3.8,0.8-5.7,1.6c-3.3,1.5-6,4-7.5,7.1c-0.6,1.4-1.2,3-1.1,5c0.2,1.9,0.6,3.6,0.8,5.5
				c0-0.2,0-0.4,0-0.5c0,0.4,0,0.9,0,1.3c0,0.1,0,0.1,0,0.2c0,0.6,0,1.2,0,1.8c0,0,0,0,0,0.1s0,0.2,0,0.3c0-0.1,0-0.1,0-0.2
				c-0.6,5-5.2,8.6-5.3,13.7c0,0.3,0,0.6,0,1c0.8,3.2,2.7,6.1,6.2,6.9c0,0,0,0.2,0,0.5c0.8,0.2,1.5,0.2,2.3,0.2
				c0.1,0.5,0.2,1,0.3,1.5l0.1,0.1c1.3,5.7,2.4,11.4,3.4,17.2c1.3,5.8,2.3,11.7,3.7,17.4c2.2,9,4.6,18,7.2,26.8
				c0.2,0.1,0.4,0.3,0.5,0.6c2.2,7.1,4.4,14.2,6.6,21.2c1.1,3.2,2.2,6.3,3.4,9.5c0.1,0.1,0.2,0.2,0.2,0.3c1.7,4.6,3.5,9.1,5.2,13.7
				c0.3,0.8,0.6,1.6,1,2.4c1.7,4.2,3.5,8.3,5.3,12.5c0.1,0.2,0.2,0.5,0.3,0.7c0.9,1.6,2,3,3.2,4.4c0.1,0,0.2-0.1,0.3-0.1
				c13.4-0.5,26.5-2.4,39.5-5.2c-11.5-38.1-23.6-76-36.4-113.7c-0.2-0.6,0.2-1.4,0-2c13,38.3,25.3,76.8,37,115.6
				c11.9-2.6,23.7-6,35.4-9.6c-7.5-36.8-18-72.9-31.3-107.9c-0.2-0.6,0.2-1.4,0-2c13.4,35.4,24,71.8,31.5,108.9c0.1,0.3,0,0.6,0,1
				c3.1-1,6.3-2,9.4-3c0.4-0.2,0.8-0.4,1.3-0.6c0.2-0.1,0.4-0.1,0.6,0c1-0.3,2.1-0.7,3.1-1c0.1,0,0.2,0,0.3,0c1.7-0.6,3.4-1.2,5-1.8
				c0.2-0.1,0.3-0.1,0.4-0.1l0,0c1.1-0.7,2.1,1,1,1.7c-2.2,1.5-4.5,2.8-6.8,4.1c0.1,0.3,0,0.5-0.1,0.8c3.2-1.2,7.7-3,8.6-6.4
				c-0.4-1.5-0.8-2.1-0.8-3.7c5.5,9-9.7,12.9-15.5,15.1c-18.5,7.1-37.6,12.7-57.1,16.6c-5.1,1-10.3,2.2-15.5,2.5
				c-3.1,0.2-5.8,0.6-7.7-0.9c-3.7,0.1-6.6-2.3-8.3-5.8c-3.1-6-4.5-13.4-6.5-19.9c-4.8-15.5-9.6-31.1-14.5-46.6c0-0.1,0-0.1,0-0.1
				c-2.4-7.3-4.2-14.6-5.7-22.1c-0.1-0.5-0.2-1-0.3-1.5c-1.2-6-2.2-12-3.2-18c-0.2-1.2-0.5-2.4-0.7-3.6c-0.7-3.4-1.6-6.3-1.8-9.5
				c0.1,0.5,0.3,0.9,0.4,1.4c-0.1-0.7-0.3-1.4-0.4-2.2c0,0.3,0,0.5,0,0.8c0-0.1,0-0.1,0-0.2c0-0.2,0-0.5,0-0.7s-0.1-0.3-0.1-0.5
				c0,0.3,0,0.7,0.1,1.1c-0.1-0.6-0.1-1.2-0.2-1.9c-0.4-1.8-0.7-3.5-1.1-5.3c-0.6,0-1.2,0-1.8-0.1c-0.2-0.1-0.3-0.1-0.5-0.2
				c0,0.5-0.1,1-0.1,1.5c0,0.2,0,0.3,0,0.5c-0.1,0.9-0.1,1.7-0.2,2.6c-0.4,8.8-0.2,17.5,1.2,26.3c0.3,1.5,0.5,2.9,0.6,4.4
				c0.2,2.1,0.1,4.4-0.7,6.4c-0.2,0.4-0.4,0.8-0.6,1.3c-0.4,0.8-0.9,1.6-1.5,2.3c-1.9,2.1-5.2,4.3-6.1,0.3c-0.4-1.8-0.4-3.9-0.1-5.9
				c-2.1,7.6-4.2,15.2-6.3,22.8c-3.3,11.9-6.6,23.7-10.3,35.5c-2.2,6.9-4.8,13.6-7.5,20.4c-0.7,1.8-1.5,3.6-2.2,5.3
				c-0.2,0.6-0.4,1.2-0.6,1.8c-0.7,2.4-1.5,4.9-2.8,7.1c-0.3,0.8-0.7,1.6-1.1,2.1c-0.4,0.6-1.1,1-1.9,1.2c-4.3,3.1-10,1.6-14.7,0.4
				c-1.2-0.3-2.5-0.6-3.7-1c-3.3,0.3-6.6,0.6-10,0.9l0,0c0.4,0.1,0.5,0.7,0.1,0.9c-3,1.6-6.3,2.6-9.6,3.2c13.7-0.6,27.4-0.8,41.1,1.5
				c0.6,0.1,0.4,1-0.1,1c-2.1,0-4.2,0.1-6.3,0.1c-0.3,0.2-0.5,0.4-0.8,0.6c1.5,0.1,3.1,0.3,4.6,0.4c0.6,0.1,0.6,0.9,0,1
				c-3,0.2-6,0.4-9,0.6c-3.9,1.2-8.3,1.5-12.1,2c-1.9,0.3-3.8,0.5-5.7,0.7c6,0,12,0.2,18,0.6c0.4,0,0.6,0.4,0.5,0.7
				c1.2,0.1,2.4,0.2,3.7,0.3c0.4,0.1,0.8,0.7,0.3,0.9c-0.9,0.4-1.7,0.7-2.6,1.1c2.1-0.1,4.3-0.2,6.4-0.3c0.5,0,0.7,0.7,0.3,0.9
				c-2.3,1.3-4.8,2.5-7.4,3c0.4,0,0.7,0,0.8,0c1.2,0,2.4,0.1,3.7,0c0.5,0,9.3-1.1,8.4-2.2c-0.4-0.5,0.3-1.2,0.7-0.7
				c0.1,0.2,0.3,0.3,0.4,0.5c0.1,0.1,0.2,0.3,0.1,0.5c-1,2.3-3.6,2.3-5.9,2.6c-4.4,0.5-8.7,0.3-13.1-0.3c-0.6-0.1-0.4-1,0.1-1
				c2.6-0.1,5.1-0.4,7.6-1.3c4.7-1.7,2.5-1,0.4-0.9c-2.5,0.2-5.1,0.3-7.6,0.4c-2,0.3-4,0.4-6.1,0.2c-0.4,0-0.6-0.4-0.4-0.7
				c-2.8,0.3-5.6,0.2-8.5-0.3c-0.5-0.1-0.5-0.9,0-1c4.3-1.1,8.6-1.7,13-1.9c-1.3,0-2.4-0.1-2.6-0.1c-3.3-0.1-6.6-0.2-9.9-0.2
				c-6.6,0-13.2,0.2-19.8,0.6c-0.6,0-0.6-1,0-1c6.3-0.3,12.6-0.8,18.9-1.5c-15.1,0.5-30.3,0.8-45-2.8c-0.6-0.1-0.4-1,0.1-1
				s0.9,0,1.4,0c-0.1-0.3,0.1-0.6,0.5-0.6c1.4-0.1,2.7-0.2,4.1-0.3c-10.8,0.3-21.6,0.1-32.3-1.6c-0.6,0-1.2,0-1.8,0
				c-0.2,0-0.4-0.2-0.5-0.3c-1.7-0.3-3.4-0.7-5.2-1c-0.3-0.1-0.4-0.5-0.3-0.7c4-7.5,15-6.3,22.1-6.3c14.2,0.1,28.4,0.1,42.6,0.2
				c2.3-0.2,4.6-0.4,6.9-0.6c0.6,0,1.2-0.1,1.8-0.1c-15.8-3.3-31.4-7.8-46.5-13.2c-3.7-1.3-11.4-3.2-15.3-6.7
				c-0.2,0.1-0.4,0.1-0.6-0.1c-4-2.9-4.6-7.5-3.4-12.1c1.8-7.1,4.8-13.7,6.4-20.9c-0.1-0.2-0.1-0.4,0-0.7c0.1-0.2,0.1-0.4,0.2-0.6
				c0-0.3,0.1-0.5,0.1-0.8c0-0.1,0.1-0.3,0.1-0.4c-10.5-3-25.8-5.1-26-18.3c0-2.9,0.3-5.8,0.9-8.6c1.7-8.2,3.7-16.3,5.6-24.4
				c4.1-17.5,7.7-35.5,13.4-52.5c2.2-6.6,5.8-14,13.6-15.1c7.7-1.1,16.8,3.7,23.7,7c-0.4-1.3-0.7-2.7-0.8-4.1v0.1V82
				c-0.1-1.7-0.1-3.4,0.3-5c0.9-4.3,3.7-8.2,7.3-10.5c2.3-1.5,8.5-1.8,9.4-4.3c0-0.6-0.1-1.2-0.1-1.9c0,0.1,0,0.3,0,0.4
				c0-0.7,0-1.3,0-2c0,0.1,0,0.2,0,0.4c0-0.9,0.1-1.9,0.3-2.8c0-0.2,0.1-0.5,0.2-0.7c0-0.2,0.1-0.5,0.2-0.7l0,0
				c0.1-0.3,0.2-0.6,0.3-0.9c2.3-6.2,8.7-9.9,15.2-10.5c6.7-0.6,13.8,1.6,18.7,6.3c5.4,5.2,7,11.2,15.6,10.2
				c3.8-0.4,8.1-0.2,11.6,1.4c0.1,0,0.1,0,0.2,0.1c0,0,0,0,0,0.1c2.6,1.2,4.8,3.2,6.2,6.1c1.5,3.3,1.1,4.6,5.1,5.4
				c3.3,0.7,6.3,1.6,9,3.7c1.2,1,1.8,1.9,2,2.8c0.1-0.2,0.2-0.3,0.3-0.5c0,0.2,0,0.4,0,0.6c2.8-3.3,7.3-5.1,11.7-6.3
				c2-0.5,2.8-1.4,3.3-2.5c0-0.2,0-0.4,0.1-0.6c0.2-0.5,0.4-0.9,0.6-1.3c0-0.1,0.1-0.1,0.1-0.2c0.2-0.7,0.5-1.4,1-2.1
				c1.1-1.8,2.7-3.2,4.5-4.3c0.7-0.5,1.5-1,2.2-1.5c1.9-1.8,4.2-2.8,6.9-2.9c3-0.8,6.3,0.1,9.4,0c0.4,0,0.9,0,1.3-0.1
				c0,0.2,0,0.4,0,0.6c0,0.1,0,0.2,0,0.3c1-0.7,1.8-1.5,2.7-2.6c1.9-2.3,3.6-4.4,5.5-6.3c-0.1-0.4-0.2-0.9,0-1c0.9-0.6,2-1.2,3.2-1.8
				c2.3-1.8,5-3.1,8.4-3.8c6-1.3,12.8-0.5,17.7,3.4c0.5,0.4,1,0.8,1.5,1.2c0-0.2,0-0.4-0.1-0.5c2.5,2.4,4.6,6.8,4.7,10.3
				c0,1.2,0,2.4-0.1,3.6c1.1,0.4,3.1-0.1,4.2,0.2c2,0.4,4,1.6,5.6,2.8c2.2,1.6,3.7,4,4.9,6.5c2.1,3.6,2.8,7.8,2.2,12
				c-0.1,0.6-0.1,1.2-0.2,1.7c4.4-3.8,10.7-6.3,16.6-6.8c4.5-1,8.9-0.8,12.6,1.7c2.5,1.8,4.4,4.2,5.9,7c1,1.4,1.9,2.8,2.8,4.3
				c0.3,0.6,0.1,1.1-0.4,1.3c1.8,5.2,2.9,10.8,4.2,15.4c0.4,1.2,0.7,2.5,1,3.7c5.2,13.2,8.2,27.5,11.8,41c1.6,6.2,4.5,13.7,4.3,20.6
				c0,0.3,0.1,0.6,0.1,1C399.5,176.8,399.6,181,397.7,184.2z M184,272.1c0.1,0,1.1-0.3,2-0.6c-0.9,0-1.7,0-2.6,0.1
				c-2.1,0.1-4.3,0.3-6.4,0.7c-0.9,0.1-1.8,0.3-2.8,0.5c-1.2,0.2-1.2,0.3-0.2,0.2C177.1,273.7,181.2,272.9,184,272.1z M188.4,271.5
				c-1.9,0.8-3.9,1.4-5.9,1.8c2.2-0.1,4.4-0.2,6.5-0.3c0.8-0.2,1.5-0.6,2.1-1C192.4,271,189.7,271.5,188.4,271.5z M271.9,235.6
				c-0.1-0.2-0.2-0.4-0.3-0.6C271.7,235.2,271.8,235.4,271.9,235.6C271.8,235.7,271.9,235.6,271.9,235.6z M282.4,253.9
				c0.2,0,0.5,0,0.7,0c-0.6-0.3-1.1-0.6-1.6-1c0,0.1,0.1,0.2,0.1,0.2C281.8,253.4,282.1,253.6,282.4,253.9z M350,235.8
				c-1.3,0.4-2.6,0.8-3.8,1.1c0.6-0.1,1.2-0.2,1.8-0.2c0.7-0.2,1.4-0.4,2.1-0.6C350,236,350,235.9,350,235.8z M314.5,244.7
				c-10.4,2-20.9,3.4-31.6,3.8c0.3,0.1,0.7,0.2,1,0.3c1,0,2,0,2.9,0.1c0.1,0,0.2-0.1,0.3,0c0.1,0,0.2,0,0.3,0c4.4,0,8.8-0.2,13.2-0.5
				c1.3-0.2,2.6-0.4,4-0.7c0.1-0.5,0.4-0.9,0.9-0.9C308.7,246.6,311.6,245.7,314.5,244.7z M254,182.5c-0.5-1.2-0.9-2.5-1.4-3.8
				c0.4,1.3,0.8,2.6,1.2,3.9C253.9,182.6,253.9,182.6,254,182.5z M288,255c-0.8-0.2-1.6-0.4-2.4-0.7l0,0c0.1,0.2,0,0.5,0,0.7
				C286.4,255.1,287.2,255,288,255z M351.6,239.9c3.6-1.3,7.2-2.6,10.8-3.9c-4.6,1.4-9.4,2.4-14.2,3.1c-3.1,0.8-6.2,1.4-9.3,1.8
				c-7.1,2.1-14.3,3.9-21.5,5.5c0,0.1-0.1,0.2-0.2,0.3c0.3,0.2,0.3,0.8-0.2,0.9c-1.1,0.2-2.2,0.5-3.3,0.7c0.1,0.5-0.1,1-0.7,1.2
				c-5.4,1.4-10.8,2.6-16.3,3.4c-0.2,0.2-0.4,0.3-0.7,0.3c-0.3,0-0.5,0-0.8-0.1c-0.2,0-0.4,0.1-0.7,0.1c-1,0.1-2.3,0.4-3.7,0.7
				c0.3,0.2,0.4,0.6,0.3,1h0.1c4-0.3,8-1.1,11.9-1.9C319.7,249.6,335.9,245.3,351.6,239.9z M212.7,62.2c1.2,0.2,2.4,0.6,3.5,1.1
				c-0.8-0.4-1.6-0.7-2.4-1C213.4,62.2,213,62.2,212.7,62.2z M154.2,58.5c0,0.2-0.1,0.3-0.1,0.5c0,0.5,0,0.9,0,1.4
				c0,0.3,0.1,0.6,0.1,0.9C154.3,60.4,154.2,59.5,154.2,58.5z M155.8,54.2c1.1-1.4,2.5-2.7,3.8-3.9c-1.1,0.8-2.2,1.7-3.1,2.7
				C156.2,53.4,156,53.8,155.8,54.2z M165.7,46.4c-0.2,0.1-0.5,0.3-0.8,0.4c0.3-0.1,0.5-0.2,0.8-0.3
				C165.7,46.5,165.7,46.4,165.7,46.4z M160,49.5L160,49.5L160,49.5L160,49.5z M161.1,48.8c0.2-0.1,0.4-0.2,0.6-0.4
				c0-0.1,0-0.2,0-0.2C161.5,48.4,161.3,48.6,161.1,48.8z M158.7,50.3c-0.2,0.2-0.4,0.4-0.6,0.7c0.2-0.2,0.4-0.4,0.7-0.6
				C158.7,50.4,158.7,50.4,158.7,50.3z M154,59.7c0,0.2,0,0.4,0.1,0.6c0-0.4,0-0.8,0-1.2C154.1,59.3,154.1,59.5,154,59.7z
				M91.5,191.1c0.2,0.1,0.4,0.1,0.6,0.2c0.1-0.7,0.2-1.5,0.4-2.2c0.1-0.3,0.5-0.2,0.5,0.1c-0.1,0.8-0.3,1.5-0.4,2.3
				c1.2,0.4,2.4,0.8,3.6,1.2c0.1-0.5,0.3-1,0.5-1.5c0.1-0.3,0.6-0.2,0.5,0.1c-0.2,0.5-0.4,1-0.5,1.5c2.8,0.9,5.6,1.8,8.4,2.7l0,0
				c0.3-1,0.7-2,1.1-3c-0.2-0.1-0.4-0.1-0.5-0.3c-2.5-1.7-5-3.3-7.5-5c-2.1-1.4-4.3-2.6-5.8-4.6c-0.4-0.5-0.7-0.9-1-1.5
				c-3.6-3.7-2.6-11.1-2.4-15.8c0.3-5.9,0.9-11.9,1.6-17.8c0.1-3.2,0.1-6.4,0.2-9.6c0,0,0,0,0-0.1c0.5-2,1-4.1,1.2-6.2
				c0-0.5,0.1-0.9,0.1-1.4c3-10.5,6.3-20.9,9.9-31.2c2.1-6,3.6-13,10.6-14.8c3-0.8,6.2-0.5,9.1,0.4c1.2,0.4,2.4,0.9,3.7,1.4
				c0.6,0.2,1.2,0.4,1.9,0.6c0.2,0.1,1.9,0.3,0.9,0.2c0.4,0,0.8,0.1,1.2,0.2c1.6,0.2,3.1,0.6,4.6,1.4c0.2,0.1,0.3,0.2,0.5,0.4
				c0.4-0.6,1-1.2,1.5-1.8c-6.6-3.2-14.7-7-21.7-6.1c-7.7,1-11.4,8.5-13.6,15.1c-5.7,17-9.3,35.1-13.4,52.5
				c-1.4,6.1-2.8,12.3-4.2,18.4c-1.2,5.4-3.8,12.2-0.9,17.5c1.1,2,2.7,3.3,4.5,4.4c0.3-1.9,0.6-3.8,0.9-5.7c0-0.3,0.5-0.2,0.5,0.1
				c-0.3,2-0.6,3.9-0.9,5.8c0.9,0.5,1.9,0.9,2.9,1.3c0.2-1.4,0.4-2.9,0.5-4.3c0-0.3,0.5-0.3,0.5,0c-0.2,1.5-0.4,3-0.5,4.5
				C90.7,190.8,91.1,191,91.5,191.1z M115,232.2c-0.6-0.2-1.1-0.5-1.7-0.7c0.1,0.1,0.1,0.1,0.2,0.2c0.1,0.1,0.2,0.2,0.3,0.3
				c0.4,0.2,0.8,0.3,1.1,0.5C114.9,232.4,115,232.3,115,232.2z M104.1,215.2c0,0.1-0.1,0.2-0.1,0.3v0.1
				C104,215.5,104.1,215.3,104.1,215.2z M167.5,245.1c-5-1.7-10-3.3-15.1-4.5c-13.3-3.1-26.8-5.1-39.4-10.5c0,0.1,0,0.1-0.1,0.2
				c3.7,1.7,7.7,2.9,11.7,4.1c7.5,2.2,15,4.3,22.6,6.5c0.9,0.3,1.9,0.6,2.8,0.8c2.7,0.5,5.3,1,8,1.5
				C161.2,243.8,164.3,244.4,167.5,245.1z M163.7,245.9c3.7,0.8,7.4,1.7,11,2.5l0,0c-3.8-1-7.6-1.8-11.5-2.6
				C163.4,245.8,163.6,245.8,163.7,245.9z M131.4,234.4c-1.4-0.3-2.7-0.7-4.1-1C128.6,233.7,130,234,131.4,234.4z M132,102.9
				c-3.1-1.1-5.5-3-9.1-0.7c-2.5,1.7-3.5,6.7-4.3,9.5c-1.7,5.9-3.1,11.9-4.6,17.9c-3,12.1-6.2,24.1-9.3,36.1
				c-0.4,1.9,5.6,4.5,8.6,5.8C119.1,148.5,125.3,125.7,132,102.9z M132,99.8c-0.2,0.3-0.3,0.6-0.5,0.8c0.2,0.1,0.5,0.2,0.8,0.3
				C132.2,100.5,132.1,100.2,132,99.8z M108.7,260.4c1.3-0.5,2.6-1,3.9-1.4c-2.4,0.3-4.9,0.8-7.3,1.3c-0.3,0.1-1.8,0.4-3.1,0.6
				c2,0.1,4.5,0.4,5.4,0.4c0.3,0,0.6,0,0.9,0C108.3,261.1,108.3,260.6,108.7,260.4z M127,257.5c9.3,0.2,18.6,0.2,27.8-0.2
				c1.7-0.1,3.4-0.2,5.2-0.3c-4.5-0.6-9.1-1-13.7-1.2c-0.5,0-0.9,0.1-1.4,0.1C138.9,256.5,132.9,256.9,127,257.5z M143.2,254.9
				c0.8,0,1.6,0,2.4,0.1c0.1,0,0.3,0,0.4,0C145.1,254.9,144.1,254.9,143.2,254.9z M95.3,260.4c0.8,0.3,1.7,0.6,2.6,0.8
				c7-2.1,14.3-3.3,21.6-4.1c7.4-1.7,15-2.3,22.6-2.3c-11-0.1-21.9-0.2-32.9-0.1c-3,0-6.2,0.1-9.1,0.9
				C98.2,256.1,90.8,258.8,95.3,260.4z M159.6,266.1c10.1,0.3,20.2,0.2,30.3-0.4c0.2-0.1,0.5-0.2,0.7-0.3c-4.3-0.4-8.7-0.6-13.1-0.9
				c-12,0.3-24.1,0.6-36.1,0.8c1.1,0.1,2.2,0.2,3.4,0.3c2.2,0,4.4,0,5.1,0C153.1,265.9,156.3,266,159.6,266.1z M140.6,264.4
				c0.1,0,0.1,0,0.2,0c-0.5,0-1,0-1.5,0.1C139.7,264.4,140.1,264.4,140.6,264.4z M156.8,264c-2.4,0-4.8,0-7.1,0.1c-0.1,0-0.1,0-0.2,0
				c-0.2,0-0.4,0.1-0.6,0.1C151.6,264.1,154.2,264.1,156.8,264z M177,263.5c3.9-0.2,7.8-0.5,11.8-0.6c-0.4,0-0.7,0-1.1,0
				c-3.2-0.2-6.4-0.3-9.6-0.3c-5.6-0.1-11.2,0.1-16.7,0.5C166.6,263.1,171.8,263.2,177,263.5z M152.2,262.8c-1.7,0.1-3.4,0.2-5,0.3
				c1.1,0,2.1,0,3.2-0.1C150.9,263,151.5,262.9,152.2,262.8z M159.7,267.8c-9-0.6-17.9-1.3-26.9-2.2c-0.5,0-1.1,0-1.6,0
				c1.3,0.3,2.7,0.7,3.9,0.9c3,0.4,6,0.7,9,0.9C149.3,267.8,154.5,267.8,159.7,267.8z M185.7,266.9c-5.9,0.3-11.8,0.4-17.6,0.3
				c1.2,0.1,2.4,0.1,3.7,0.2c0.5,0,0.6,0.7,0.3,0.9c0.1,0,0.3,0,0.4,0C176,267.9,181.2,267.8,185.7,266.9z M192.4,265.6L192.4,265.6
				L192.4,265.6L192.4,265.6z M192.7,264.2c-1.3,0-2.5,0.1-3.8,0.1c1.1,0.1,2.1,0.2,3.2,0.3C192.3,264.4,192.5,264.3,192.7,264.2z
				M143.2,262.4c-0.9,0-1.8,0-2.7,0c-5.1,0.2-10.2,0.2-15.3,0.1c-6.9,0-13.7-0.1-20.6-0.2c4.4,0.4,8.8,0.5,12.9,0.6
				C126,263.2,134.6,262.8,143.2,262.4z M165.9,257.7c-15.5,1-31,1.2-46.5,0.6c-0.2,0-0.5,0-0.7,0.1c-0.9,0.2-1.9,0.5-2.8,0.7
				c-0.8,0.2-4.9,1.8-5.1,1.6c0.6,0.5,4.9,0.3,5.9,0.4c2.4,0.2,4.8,0.3,7.3,0.4c6.5,0,13.1,0,19.6-0.1c0.2,0,0.4,0,0.6-0.1
				c0.1,0,3-0.6,1.4-0.4c-0.6,0.1-0.9-0.9-0.3-1c1.6-0.3,2.2,0.1,3.2,1.3c4.2-0.1,8.4-0.2,12.5-0.9c0.9-0.2,6.9-1.9,6.8-2.1
				C167.7,258,166.9,257.8,165.9,257.7z M178,256.1c-1.3-0.4-2.7-0.8-4-1.2c-1.6-0.3-3.2-0.6-4.8-0.9c-3.9,0-7.8,0.3-11.7,0.7
				c-0.1,0.2-0.2,0.3-0.4,0.3c-0.8,0-1.5,0-2.3,0c-1,0.1-1.9,0.2-2.9,0.3c4.4,0.3,8.8,0.8,13.2,1.5c2.5-0.2,4.9-0.3,7.4-0.5
				C173.4,256.1,176,256.3,178,256.1z M238,121.1c-1.6-0.6-2.8-1-4.1-2.4c-1.5-1.7-2-3.8-2.2-6c-0.1-0.5-0.1-1-0.2-1.5v0.1
				c0-0.1,0-0.3,0-0.4c0-0.2,0-0.3,0-0.5c0-0.1,0-0.2,0-0.3c0-0.2,0-0.4,0-0.6c0,0.1,0,0.1,0,0.2c0.3-5.4,4.5-9.2,5.4-14.3
				c-0.3-2.1-0.8-4.2-0.9-6.4c0,0.2,0,0.3,0,0.5c0-0.3,0-0.7,0-1c0-0.8-0.1-1.6,0-2.5c0.2-1.7,0.6-3.1,1.3-4.4
				c0.3-0.6,0.6-1.2,0.9-1.8c-1.1-1.3-3.4-2.5-4.4-3.1c-2.3-1.2-4.6-1.4-6.9-2.1c-4.1-1.1-3.8-4.8-6.2-7.8c-2.6-2.8-6.6-4.2-10.5-4.5
				c-1.4,0.2-2.8,0.4-4.3,0.6c-0.2,0-0.4,0.1-0.5,0.1c-0.4,0.1-0.8,0.3-1.2,0.4c0-0.1,0-0.3,0-0.4c-0.1,0-0.1,0-0.2,0l0,0
				c-0.3,0-0.6,0-0.9,0c0,0,0-0.2,0-0.4c-0.4,0.1-0.8,0.2-1.2,0.2c0.1,0,0-0.6,0-1.1c-2.3,0-4.5-0.5-6.6-2.7
				c-3.5-3.6-5.8-7.9-10.3-10.5c-3.3-2-7.1-3.1-10.9-3.3c-1.2,0.1-1.9,0.1-2.3,0.2c-0.1,0-0.2,0-0.2,0.1c0.1,0,0.9,0,2.5-0.2
				c0,0,0,0.1,0,0.2c0.5,0,1,0,1.5,0.1c0,0,0,0.2,0,0.4c0.2,0,0.3,0,0.5,0.1c0.3,0,0.6,0,0.8,0.1c1.8,0.4,3.6,0.9,5.3,1.5
				c0,0,0,0.1,0,0.3c1.5,0.7,3,1.6,4.4,2.6c0.1,0.1-0.1,0.4,0,0.5c-1.4-1.1-2.9-1.9-4.4-2.6c0,0.1,0,0.3,0,0.3
				c-1.9-0.4-3.7-1-5.5-1.5c-2.2-0.3-4.5-0.5-6.7-0.6c-0.3,0-0.6,0-0.8,0.1c-2.4,0.4-4.8,1.2-7,2.4c0,0,0-0.1,0-0.3c0,0,0,0-0.1,0
				c-0.3,0.2-0.6,0.5-0.9,0.7c-2,1.8-4.7,3.8-6,6.4c-0.3,0.8-0.6,1.6-0.7,2.5c0,1.1,0,2.2,0,3.3c0.1,1.6-0.2,3.2-1.6,3.9
				c-1.5,0.8-3.8,0.6-5.4,1.3c-1.8,0.7-3.4,1.8-4.8,3.1c-3.1,2.8-4.9,6.6-5.2,10.7c0.3,2,0.7,3.8,1.6,5.7c0,0.1,0,0.4,0,0.7
				c0,0.4,0,0.9,0,1.3c0,0,0-0.1-0.1-0.1c0,0.1,0,0.1,0.1,0.1c-0.3-0.2-0.7-0.3-1-0.5l-0.1,0.1c-5.6,5.1-5.1,14.7,1.1,19.1
				c1,0.7,0,2.5-1,1.7c-1.7-1.2-3.1-2.8-4.1-4.6c-6.7,22.8-12.9,45.7-18.7,68.8c0,0.2-0.2,0.3-0.3,0.5c0,0.2,0,0.4,0,0.6
				c-0.3,1.3-0.6,2.7-0.8,4c0,2-0.4,4.1-1.2,5.9c0,0.1-0.1,0.2-0.1,0.3c-0.1,0.5-0.2,1-0.3,1.5c-0.4,1.9-0.7,3.8-1.4,5.5
				c-0.2,0.5-0.4,1-0.6,1.6c-0.5,2.1-1.1,4.2-1.8,6.2c-1.5,6.9-2.6,13.9-3.2,20.9c0,0.1,0.1,0.2,0.1,0.3c0,1,0.1,2,0.3,2.9
				c0,0,0,0,0.1,0.1s0.1,0.2,0.2,0.3l0,0c1.7,1.8,3.7,3.1,5.8,4.1c0.1,0,0.2,0,0.3,0.1c0.7,0.3,1.4,0.6,2.1,0.9
				c3.7,1.4,7.8,2.1,11.6,3c7.5,1.8,15,3.8,22.5,6c0.7,0.2,1.4,0.4,2.1,0.6c1.5,0.3,2.9,0.7,4.3,1c12.6,3.1,24.5,8.6,37.2,11.4
				c1,0.1,2,0.2,3,0.2c0.1,0,0.2,0,0.2,0.1c0.9,0.1,1.9,0.4,2.5,0.7c0.3,0.1,0.5,0.6,0.3,0.8c-0.9,2.3-5.2,1.1-7,0.9
				c-2.9-0.4-5.5-1.2-8.1-2.1c-1.6-0.3-3.2-0.6-4.8-1c-1.2-0.2-2.3-0.5-3.5-0.7c-5.7-1.2-11.3-2.5-17-3.9c-4.9-0.6-9.8-1.6-14.7-2.6
				c-4.8-1-11.2-0.8-15.8-3c-0.1,0.1-0.3,0.1-0.5,0c-2.6-0.9-5.2-1.8-7.7-2.9c-4-0.8-8.2-2.7-11.8-4c-0.3,0.1-0.7,0.1-0.9-0.3l0,0
				c0,0.1-0.1,0.1-0.1,0.2c3.4,1.9,7.9,2.9,10.5,3.8c10.9,4,22.1,7.4,33.3,10.3c5.9,1.5,11.9,2.8,17.9,4.1c0-0.1,0-0.2,0-0.2
				c0.5,0.2,1.1,0.4,1.6,0.5c4,0.8,7.9,1.5,11.9,2.2c4.7,0.8,11.3,2.4,16.1,1.2c1.2-0.9,2.2-2.2,2.7-4c0.2-0.7,1-0.6,1.3-0.2
				c0.8-1.9,1.3-4,1.9-5.5c5.2-12.4,9.8-24.9,13.6-37.8c5.1-17.1,9.8-34.3,14.5-51.5c0.1-0.4,0.1-0.8,0.2-1.2c0-0.3,0-0.6,0-1
				c0.2-1.9,0.4-3.9,0.6-5.9c0-0.6-0.1-1.1-0.1-1.7c-0.1-0.7,0.1-1.3,0-2c0.1,0.9,0.2,1.9,0.2,2.8c0.1-1.2,0.2-2.4,0.2-3.6
				c0-0.6,0.2-3.8-0.6-4.2c-1-0.5-0.9,0.4-1.5,1c-1.5,1.3-1.9,3-4.3,2.1c-1.6-0.6-2.5-2.3-2.7-3.9c-0.6-3.4,0.8-6.8,1.3-10.2
				c-0.2-1.4-0.6-2.2-1.9-3.3c-0.2-0.2,0-1,0.1-1.5c-0.1,0-0.3,0-0.5,0c-0.4,0.1-0.8,0.1-1.2,0.2c-0.1,0-0.2,0-0.2-0.1
				c-3.2,0.4-6.1,0-9-0.7c-2-0.3-3.9-0.7-5.9-1.3c-1.6-0.5-3.1-1.2-4.6-1.8c-1.3-0.3-2.6-0.5-3.9-0.8c-0.2,0-0.2-0.3-0.1-0.4
				c-0.2-0.1-0.5-0.1-0.7-0.2l0,0c-0.2,0-0.4-0.1-0.6-0.1c-0.2,0-0.2-0.2-0.1-0.3c-0.1,0.1-0.2,0.1-0.3,0.1c-0.2-0.1-0.3-0.2-0.5-0.3
				c-0.3,0-0.7,0-1,0c-0.1,0-0.2-0.1-0.2-0.1c-0.5,0-1-0.1-1.3-0.3c-0.1,0-0.2,0.1-0.3,0.1c-0.1,0.1-0.2,0.2-0.3,0.1l0,0l0,0h-0.1
				c-0.1,0-0.1,0-0.2,0l0,0c-0.1,0.1-0.2,0-0.3,0h-0.1l0,0h-0.1c-0.1,0-0.2,0-0.2,0h-0.1c-0.1,0-0.2,0-0.2,0c-0.1,0-0.2,0-0.2,0
				c-0.1,0-0.2-0.1-0.2-0.2c-0.1,0.1-0.2,0.1-0.2,0.1c-0.2,0.1-0.3,0-0.3-0.1c-0.3,0.1-0.5,0.1-0.8,0.2c-0.2,0-0.3,0.1-0.5,0.1
				c-0.1,0-0.2,0.1-0.3,0.1c-0.1,0.1-0.2,0.1-0.2,0.2c-0.1,0.1-0.2,0.1-0.3,0c-0.4,0.1-0.8,0.2-1.3,0.3c-0.4,0-0.8,0-1.1-0.1
				c-0.1,0-0.3,0-0.4,0.1c-0.2,0-0.3-0.1-0.3-0.3c-1.2-0.5-2-1.6-2.7-2.7l-0.1-0.1v-0.1c-0.1-0.2-0.2-0.3-0.3-0.5
				c-0.2-0.3,0.3-0.5,0.4-0.3c0.1,0.2,0.2,0.3,0.3,0.4c0.1,0,0.2,0,0.2,0.1c0.2,0,0.2,0.3,0.1,0.4c0.1,0.1,0.2,0.3,0.3,0.4
				c0.9,0.9,2.1,1.4,3.4,1.4c0-0.1,0.1-0.3,0.2-0.3c0.5-0.1,1-0.1,1.4-0.2c0.5-0.1,0.9-0.3,1.4-0.4l0,0c0.1,0,0.1,0,0.2,0
				c0.7-0.2,1.4-0.3,2.1-0.5c0.2,0,0.3,0.1,0.3,0.2c0.4-0.1,0.7-0.1,1.1-0.1c0.1,0,0.1,0,0.2,0.1c0.6,0,1.3,0.2,1.9,0.4
				c0.6,0.1,1.3,0.2,1.9,0.4c0.5,0.2,1,0.4,1.5,0.6h0.1c0.5,0.3,0.9,0.5,1.4,0.8c1.6,0.7,3.3,1.3,4.8,2c1.1,0.2,2.2,0.4,3.3,0.6
				c0.2,0,0.2,0.4,0,0.5c-0.1,0-0.2,0.1-0.3,0.1c1.7,0.6,3.5,1.2,5.2,1.6c2.9,0.4,5.9,0.6,8.9,0.3c0.3-0.1,0.6-0.1,1-0.1
				c0.4-0.1,0.8-0.2,1.2-0.3c0.3-0.1,0.4,0.2,0.2,0.4c0,0,0,0,0,0.1s0,0.2-0.2,0.2c-0.3,0.1-0.6,0.1-0.9,0.2l0.1,0.1c0.4,0,0.6,0,0,0
				c1.5,1.6,1.8,3.9,1.5,6.2l0,0l0,0c-0.3,2.3-1,4.7-1.4,6.7c0.3,1.9,1.1,3.7,3.2,4.1c2.2,0.4,2.4-1.1,3.8-2.3c1.4-1.3,1.3-1.5,2,0.6
				c0.3,0.9,0.2,2,0.2,3c0,2.1-0.1,4.2-0.2,6.3c0,2.3-0.2,4.6-0.5,6.8c0,0.3,0,0.6,0,0.9c0,0.3,0.1,0.6,0,0.8c-0.1,0.7-0.4,2-0.6,3.4
				c-0.1,0.9-0.2,1.8-0.3,2.6c0,0.6,0,1.1,0,1.6c0.6,2.2,2.5,2.9,4.7,1.3c1.1-0.8,2-1.9,2.6-3.1c1.6-3.5,0.7-8,0.1-11.9
				c-0.3-1.7-0.4-3.5-0.6-5.2c0-0.1,0-0.2,0-0.3s0-0.3,0-0.4C237.1,136.9,237.5,128.9,238,121.1z M232.1,149.4
				c-0.1,1.4-0.2,2.7-0.4,4.1C231.9,152.1,232,150.8,232.1,149.4z M201.5,119.2c-0.2-0.1-0.5-0.2-0.7-0.3c0,0.1-0.1,0.1-0.2,0.1l0,0
				l0,0c0.4,0.1,0.7,0.2,1.1,0.4c0.1,0,0.2,0,0.2,0.1C201.8,119.4,201.6,119.3,201.5,119.2z M197,117.3h-0.1
				C196.9,117.2,196.9,117.3,197,117.3C196.9,117.3,196.9,117.3,197,117.3L197,117.3z M195.7,117.8
				C195.7,117.9,195.7,117.9,195.7,117.8c0.1,0,0.1,0,0.2,0c0.2,0,0.4,0.1,0.5,0.1c-0.2-0.1-0.3-0.1-0.5-0.2L195.7,117.8
				C195.8,117.8,195.7,117.8,195.7,117.8z M222.5,123.6h0.1l0,0C222.6,123.6,222.6,123.6,222.5,123.6z M231.9,108.9
				c-0.1,0.4-0.2,0.9-0.3,1.4c0,0.1,0,0.2,0,0.3C231.7,110,231.8,109.4,231.9,108.9z M236.2,87.7c0,0.2-0.1,0.4-0.1,0.6
				c0.1,0.4,0.1,0.9,0.2,1.3C236.2,89,236.2,88.4,236.2,87.7z M370.9,185.4c0.8-0.1,1.6-0.3,2.4-0.5c0.6-0.2,1-0.4,1.5-0.7
				c2.1-1.3,3.7-3.6,4.9-5.7c-0.2-0.9-0.4-1.8-0.6-2.6c-2.9,1.9-5.9,3.7-9,5.3C370.3,182.7,370.6,184.1,370.9,185.4z M349.6,109
				c-0.3-0.1-0.6-0.2-0.9-0.4c0.1,0.2,0.1,0.4,0.2,0.6C349.1,109.2,349.4,109.1,349.6,109z M373.8,193.6c0.1,0,0.3-0.1,0.4-0.1
				c-0.1,0-0.2,0-0.3-0.1C373.9,193.5,373.8,193.5,373.8,193.6z M378.8,191.8c2-0.7,4-1.4,6-2.1c-0.3,0.1-0.6,0.1-0.9,0.2
				c-0.7,0.1-1.4,0.1-2.1,0C380.7,190.4,379.7,191,378.8,191.8z M377,91.8c-0.3,0-0.5-0.2-0.7-0.5c-3.9-6.6-8.7-12-16.9-12.1
				c-1,0-2,0-3,0.2c-5.4,1.2-10.8,4.1-15.2,6.4c-0.4,0.3-0.7,0.7-1.1,1c0,0-0.1,0-0.1,0.1c0.1,0.4,0.2,0.8,0.3,1.2
				c0.5-0.9,1.3-1.6,2.3-1.7c3.1-0.4,6.3-0.9,9.4-1.3c3-0.4,6.2-1.2,9.2-1.1c6.4,0.1,9.9,4.8,13.1,9.7c2.7,4.2,5,8.6,7,13.2
				C380.1,102.1,378.9,96.6,377,91.8z M326.2,63c1,0.2,2,0.3,3,0.5c-0.5-0.2-1-0.4-1.5-0.5C327.2,63,326.7,63,326.2,63z M323.2,59.3
				L323.2,59.3c0,0.4-0.1,1,0,1.5c0.2-1.6,0.2-2.8-0.1-4.1c0,0.4,0.1,0.8,0.1,1.2c0-0.1,0-0.3,0-0.4c0,0.3,0,0.5,0,0.8
				c0,0.1,0,0.1,0,0.2c0,0.2,0,0.3,0,0.5C323.2,59,323.2,59.1,323.2,59.3z M369.4,179.4c3-1.6,5.8-3.2,8.6-5.1
				c-3.1-11.7-6.6-23.2-9.8-34.8c-1.8-6.6-3.5-13.2-5.6-19.7c-0.9-2.9-1.8-7.7-4.5-9.4c-3.5-2.2-6-0.2-9,0.9
				C356.3,133.9,363.1,156.6,369.4,179.4z M398.9,174c-0.1,0.9-0.2,1.8-0.4,2.7c0,2.8-0.9,5.3-2.8,7.5c-0.8,1-1.8,1.8-2.9,2.4
				c0.8-0.4,1.5-0.9,2.2-1.4C398.7,182.3,399.4,178.3,398.9,174z M378.6,222.5C378.7,222.6,378.7,222.6,378.6,222.5
				c0-0.2,0-0.4,0-0.7c0,0.4,0,0.8,0,1.3c0,0,0,0,0-0.1c0,0.2,0,0.5,0,0.7C378.7,223.4,378.6,223,378.6,222.5z M241.7,128.9
				c0-0.1,0-0.2,0-0.3l0,0C241.7,128.7,241.7,128.8,241.7,128.9z M241.7,128.9c0,0.5,0,1,0,1.5C241.7,129.9,241.7,129.4,241.7,128.9z
				"/>
			<path fill="#FFFFFF" d="M138.8,198.8c-1.5,0.4-2.9,1.4-3.4,2.7c-0.6,0.6-0.9,1.5-0.8,2.4c0.1,1.5,1.8,2,3.1,1.8
				c0.6-0.1,1.1-0.3,1.6-0.7c0.2,0,0.4-0.1,0.6-0.2c1-0.4,1.8-1.3,2.3-2.3c0.4-1,0.5-2.1,0-3C141.5,198.2,140.1,198.5,138.8,198.8z
				M139.2,201.7c0,0.1,0,0.1,0,0.2c-0.2,0.3-0.4,0.6-0.7,0.9C138.6,202.3,138.9,201.9,139.2,201.7z M173.3,145.8
				c0.4-0.2,0.9-0.1,1.2,0.2c0.1,0,0.1-0.1,0.2-0.1c0.3-0.1,0.8,0,1,0.3c0.1,0.1,0.1,0.2,0.2,0.2c0.4-0.1,0.9,0.1,1.1,0.5
				c0.4,0.8,0.3,1.7-0.4,2.4c-0.5,0.5-1.2,0.7-1.8,0.6c-0.1,0.1-0.2,0.3-0.3,0.4c-0.3,0.4-0.9,0.7-1.4,0.4c-0.4-0.3-0.7-0.9-0.4-1.4
				c0,0,0-0.1,0.1-0.1C172.1,148.2,172.2,146.5,173.3,145.8z M149.9,186c0.8,0,1.6-0.3,2.2-0.8c0.3-0.3,0.4-0.9,0.2-1.2
				c-0.1-0.2-0.3-0.3-0.5-0.5c0.1-0.6,0.2-1.1,0.3-1.7c0.1-0.7-0.5-1.4-1.2-1.2c-1.5,0.4-2.9,1.2-3.9,2.4c-0.3,0.4-0.4,0.8-0.2,1.2
				c0.4,1,1.3,1.5,2.2,1.7C149.3,186,149.6,186.1,149.9,186z M149.4,183.4c0.1-0.1,0.2-0.2,0.3-0.2v0.1
				C149.6,183.3,149.5,183.3,149.4,183.4z M164.9,219.9c-1-0.1-2.5,0.3-2.8,1.4c0,0.2,0,0.3,0,0.5c-0.4,0.3-0.5,0.9-0.3,1.3
				c0.4,1,1.4,1.6,2.5,1.7c-0.1,0.5-0.5,0.9-1.3,0.8c-1.3-0.3-1.8,1.7-0.5,1.9c1.9,0.4,3.9-0.9,3.9-3c0.2-0.1,0.4-0.2,0.6-0.4
				c0.8-0.6,1.5-1.6,0.9-2.6C167.3,220.6,166.1,219.9,164.9,219.9z M165.6,222.1c-0.1,0.1-0.2,0.1-0.3,0.2c-0.2-0.1-0.4-0.3-0.6-0.4
				C165,221.9,165.3,222,165.6,222.1z M216.6,131.3c-11.1,39.3-23.3,78.2-36.8,116.7c-0.4,1.2-2.4,0.7-1.9-0.5
				c13.4-38.5,25.7-77.4,36.8-116.7C215,129.6,217,130.1,216.6,131.3z M187.9,123.6c-5.3,16-10.6,32-15.8,48
				c-0.2-0.7-0.6-1.3-1.2-1.8c-3.2-2.5-6.7,1.6-5.1,4.8c0.8,1.5,2.6,2.5,4.3,2.1c0.1,0,0.2-0.1,0.3-0.1c-2.4,7.3-4.8,14.5-7.2,21.8
				c0.3-1.6-0.7-3.3-2.6-3.4c-1.7,0-3.6,1.3-3.7,3.1c0,0.4,0.1,0.9,0.3,1.3c0.1,0.3,0.3,0.4,0.6,0.5v0.1c-0.1,0.4,0,1,0.5,1.1
				c1.8,0.8,3.8-0.1,4.7-1.8c-4.3,13-8.6,26-12.9,39c-0.6-0.3-1.5-0.1-1.5,0.8c0,1.4,0,2.7,0,4.1c0,1.2,1.6,1.3,2,0.3
				c13.1-39.8,26.3-79.7,39.4-119.5C190.2,122.9,188.3,122.4,187.9,123.6z M160.7,197.1c-0.1,0-0.1,0.1-0.2,0.1
				c-0.1,0.1-0.1,0.1-0.2,0.2c0-0.1,0-0.2,0.1-0.3C160.5,197,160.6,197,160.7,197.1z M115.8,230.3c7.6-18.1,15.1-36.3,22.3-54.5
				c0.1-0.1,0.2-0.2,0.3-0.3c0.4-0.5,0.5-1.2,0.6-1.8c3.5-8.9,7-17.9,10.4-26.9c0.4,0.1,0.7,0.1,1.1,0.1c0,0.1,0,0.2,0,0.3
				c-0.3,1.3,1.6,1.8,1.9,0.5c0.1-0.5,0.2-1,0.2-1.5c0.4-0.3,0.8-0.7,1-1.2c0.5-1-0.8-1.9-1.5-1.3c0-0.1-0.1-0.1-0.1-0.2
				c0.3-0.6,0.6-1.2,0.7-1.9c0.1-0.4,0-0.9-0.5-1.1c-0.1-0.1-0.2-0.1-0.3-0.1c3.2-8.5,6.4-17,9.5-25.5c0.4-1.2-1.5-1.7-1.9-0.5
				c-3.2,8.6-6.4,17.3-9.6,25.9c-1.7,0.4-3.2,1.9-3.1,3.7c-0.1,0.7-0.1,1.4,0.1,2c0.1,0.3,0.3,0.5,0.5,0.6
				c-3.1,8.1-6.2,16.3-9.4,24.4c-0.6-0.6-1.2-0.8-1.8-0.9c-0.6-0.8-1.6-1.4-2.9-1.1c-1.9,0.3-3.5,2.2-3.3,4.2
				c0.2,1.9,1.8,2.9,3.5,2.8c0.1,0.1,0.2,0.2,0.4,0.2c0.5,0.3,1,0.6,1.6,0.7c0.1,0.1,0.1,0.2,0.2,0.3c-6.7,16.9-13.5,33.7-20.6,50.4
				c-0.1,0.1-0.2,0.2-0.2,0.4c-0.2,0.7-0.5,1.3-0.7,2c-0.4,1.1,1.4,1.8,1.8,0.8C115.8,230.5,115.8,230.4,115.8,230.3L115.8,230.3
				L115.8,230.3z M134.9,172.5c-0.1,0.4-0.2,0.8-0.5,1.1C134.4,173.1,134.6,172.8,134.9,172.5z M136.5,174.5l-0.1,0.1l-0.1-0.1
				c0.3-0.6,0.5-1.2,0.6-1.8c0.1,0.2,0.2,0.4,0.2,0.6C136.8,173.7,136.6,174.1,136.5,174.5z M131.9,172.1c0.3-0.7,1.1-1.5,2-1.4
				c-0.8,0.7-1.3,1.8-1.3,2.9C132,173.4,131.7,172.8,131.9,172.1z M108.4,129c0.2-0.6-0.2-1.4,0-2c2.3-7.7,4.5-15.4,6.8-23
				c-0.2,0.6,0.2,1.4,0,2C112.9,113.7,110.7,121.3,108.4,129z M101.3,157.4c0.2-0.6-0.2-1.4,0-2c1.7-5.8,3.5-11.5,5.5-17.2
				c-0.2,0.6,0.2,1.4,0,2C104.9,145.9,103,151.6,101.3,157.4z M100.1,148.7c0.2-0.6-0.2-1.4,0-2c2.4-7.6,4.6-15.2,6.6-23
				c-0.2,0.6,0.2,1.4,0,2C104.7,133.5,102.5,141.2,100.1,148.7z M111.3,102.9c-1.6,5.3-3.2,10.5-4.7,15.8c0.2-0.6-0.2-1.4,0-2
				c1.6-5.3,3.2-10.5,4.7-15.8C111.1,101.5,111.5,102.2,111.3,102.9z M96,140.2c1.8-11,4.8-21.6,8.9-31.9c-0.2,0.6,0.2,1.4,0,2
				c-4.1,10.3-7,21-8.9,31.9C96.1,141.5,95.9,140.8,96,140.2z M95.6,153.4c0.6-2.2,1.1-4.4,1.7-6.6c-0.2,0.6,0.2,1.4,0,2
				c-0.6,2.2-1.1,4.4-1.7,6.6C95.8,154.8,95.5,154,95.6,153.4z M98.8,156.5c-1,3.2-1.9,6.5-2.9,9.7c0.2-0.6-0.2-1.4,0-2
				c1-3.2,1.9-6.5,2.9-9.7C98.6,155.1,99,155.9,98.8,156.5z M92.6,162.2c-0.7,7.3-1.4,14.7-2.1,22c0.1-0.7-0.1-1.3,0-2
				c0.7-7.3,1.4-14.7,2.1-22C92.6,160.8,92.7,161.5,92.6,162.2z M98.5,172.4c-1.3,5.5-2.6,11.1-3.9,16.6c0.1-0.6-0.1-1.4,0-2
				c1.3-5.5,2.6-11.1,3.9-16.6C98.4,171,98.6,171.8,98.5,172.4z M101.8,175.1c-0.3,2.6-0.8,5.1-1.5,7.6c0.2-0.6-0.2-1.4,0-2
				c0.7-2.5,1.2-5,1.5-7.6C101.7,173.7,101.8,174.4,101.8,175.1z M104.2,187.4c0.1-0.7-0.1-1.3,0-2c0.7-4.6,1.8-9.1,3.3-13.4
				c-0.2,0.6,0.2,1.4,0,2C106,178.4,104.9,182.8,104.2,187.4z M108.3,182.7c-1.3,4.3-2.6,8.6-3.9,12.9c0.2-0.6-0.2-1.4,0-2
				c1.3-4.3,2.6-8.6,3.9-12.9C108.1,181.3,108.5,182,108.3,182.7z M99.3,113.9c1.4-4.7,2.9-9.4,4.6-14.1c-0.2,0.6,0.2,1.4,0,2
				c-1.7,4.6-3.2,9.3-4.6,14.1C99.4,115.3,99.1,114.5,99.3,113.9z M106.2,99.9c2.1-6.3,4.3-12.6,6.6-18.9c-0.2,0.6,0.2,1.4,0,2
				c-2.3,6.3-4.5,12.6-6.6,18.9C106.4,101.3,106,100.5,106.2,99.9z M114.9,88.9c-0.2,0.6,0.2,1.4,0,2c-0.8,2.2-1.6,4.3-2.4,6.5
				c0.2-0.6-0.2-1.4,0-2C113.3,93.2,114.1,91,114.9,88.9z M115.9,98c2.3-4.9,4.1-10,5.4-15.3c-0.2,0.6,0.2,1.4,0,2
				c-1.3,5.3-3.1,10.4-5.4,15.3C116.1,99.4,115.6,98.5,115.9,98z M120.4,104.8c1.3-4,2.4-8.1,3.5-12.1c0.1-0.3,0.6-0.2,0.5,0.1
				c-1.1,4.1-2.2,8.1-3.5,12.1C120.7,105.3,120.3,105.1,120.4,104.8z M125,101.8c1.5-5.1,3.1-10.2,4.9-15.3c0.1-0.3,0.6-0.2,0.5,0.1
				c-1.7,5.1-3.4,10.1-4.9,15.3C125.4,102.3,124.9,102.1,125,101.8z M126.5,109.4c1.4-4.5,2.8-8.9,4.2-13.4c0.1-0.3,0.6-0.2,0.5,0.1
				c-1.4,4.5-2.8,8.9-4.2,13.4C126.9,109.8,126.4,109.7,126.5,109.4z M349.2,98.3c-1.8-4.5-3.6-9-5.4-13.4c-0.2-0.6,0.2-1.4,0-2
				c1.8,4.5,3.6,9,5.4,13.4C349.4,96.9,349,97.8,349.2,98.3z M353.1,102.4c-1.1-2.5-1.9-5.1-2.4-7.7c-0.1-0.6,0.1-1.4,0-2
				c0.6,2.6,1.4,5.2,2.4,7.7C353.3,100.9,352.8,101.8,353.1,102.4z M355.1,99.5c-1.2-3.6-2.5-7.1-3.9-10.7c-0.2-0.6,0.2-1.4,0-2
				c1.4,3.5,2.7,7.1,3.9,10.7C355.3,98.1,354.9,98.9,355.1,99.5z M360.7,107.2c-1.4-4.6-2.8-9.2-4.1-13.8c-0.2-0.6,0.2-1.4,0-2
				c1.3,4.6,2.7,9.2,4.1,13.8C360.9,105.8,360.5,106.6,360.7,107.2z M359,112.2c-0.6-3-1.3-6-2.2-8.9c-0.2-0.6,0.2-1.4,0-2
				c0.9,2.9,1.7,5.9,2.2,8.9C359.1,110.8,358.9,111.5,359,112.2z M359.8,85.3c1.5,4.3,3,8.6,4.4,12.9c0.2,0.6-0.2,1.4,0,2
				c-1.5-4.3-3-8.6-4.4-12.9C359.6,86.7,360,85.9,359.8,85.3z M373,141.2c-1.9-5-3.7-10-5-15.2c-1.2-4.5-1.5-9.8-3.7-13.9
				c-0.3-0.5,0.3-1.5,0-2c2.3,4.1,2.5,9.4,3.7,13.9c1.4,5.2,3.1,10.2,5,15.2C373.3,139.8,372.8,140.7,373,141.2z M385.2,165.9
				c-4.3-13-8.5-26-12.8-39c-0.2-0.6,0.2-1.4,0-2c4.3,13,8.5,26,12.8,39C385.4,164.5,385,165.3,385.2,165.9z M385.5,177.2
				c0.1,0.1,0.1,1.9,0,2l-0.1-0.1c-0.1-0.1-0.1-0.2-0.1-0.4c-0.5-1.7-2.2-7.4-2.4-8.4c-1-3.9-2-7.8-2.9-11.8c-0.2-0.6,0.2-1.4,0-2
				c1,3.9,2,7.9,2.9,11.8C383.1,169.4,385.4,177.2,385.5,177.2z M376.5,154.3c-0.3-2.4-0.9-4.8-1.8-7.1c-0.2-0.6,0.2-1.4,0-2
				c0.9,2.3,1.4,4.7,1.8,7.1C376.6,152.9,376.4,153.6,376.5,154.3z M372,111.8c2.2,5.8,4,11.7,5.4,17.8c0.1,0.6-0.1,1.4,0,2
				c-1.4-6.1-3.1-12-5.4-17.8C371.8,113.2,372.2,112.4,372,111.8z M385.8,145.3c-1.8-5.4-3.5-10.8-5.3-16.2c-0.2-0.6,0.2-1.4,0-2
				c1.8,5.4,3.5,10.8,5.3,16.2C386,143.9,385.6,144.7,385.8,145.3z M389.8,162.8c-2.2-5.6-4.4-11.2-6.6-16.8c-0.2-0.6,0.2-1.4,0-2
				c2.2,5.6,4.4,11.2,6.6,16.8C390,161.4,389.5,162.3,389.8,162.8z M381.9,118.8c1.7,5.1,3.4,10.2,5.1,15.3c0.2,0.6-0.2,1.4,0,2
				c-1.7-5.1-3.4-10.2-5.1-15.3C381.7,120.2,382.1,119.4,381.9,118.8z M391.7,147.4c1.8,7.1,3.8,14.2,5.7,21.2c0.2,0.6-0.2,1.4,0,2
				c-2-7.1-3.9-14.1-5.7-21.2C391.6,148.7,391.9,148,391.7,147.4z M398.9,188c-1.5-5.6-3-11.1-4.8-16.5c-0.2-0.6,0.2-1.4,0-2
				c1.7,5.5,3.3,11,4.8,16.5C399.1,186.7,398.8,187.4,398.9,188z M396.3,192.9c-1.7-7.6-4.1-14.9-6.4-22.3c-0.2-0.6,0.2-1.4,0-2
				c2.3,7.4,4.8,14.7,6.4,22.3C396.4,191.6,396.1,192.3,396.3,192.9z M388.4,192.9c-0.3-1.6-0.8-3.1-1.5-4.6c-0.3-0.6,0.2-1.5,0-2
				c0.7,1.5,1.1,3,1.5,4.6C388.5,191.6,388.2,192.3,388.4,192.9z M383,189.9c-0.6-1.9-1.1-3.8-1.7-5.7c-0.3-1-0.5-1.9-0.8-2.9
				c0,0-0.2-1.3-0.5-0.9c0,0.1,0,0.1,0.1,0.1c0,0-0.1,0-0.1-0.1c-0.1-0.1-0.1-1.8,0-2c0.3-0.5,0.6,0.9,0.6,0.9
				c0.3,0.9,0.6,1.9,0.8,2.9c0.6,1.9,1.1,3.8,1.7,5.7C383.2,188.5,382.8,189.3,383,189.9z M380.1,195.7c-0.3-2.9-1-5.6-2-8.3
				c-0.2-0.6,0.2-1.4,0-2c1,2.7,1.7,5.5,2,8.3C380.2,194.4,380.1,195.1,380.1,195.7z M374.1,188.7c-0.5-2.8-1.7-5.4-3.5-7.6
				c-0.3-0.4,0.3-1.6,0-2c1.8,2.3,2.9,4.8,3.5,7.6C374.2,187.3,374,188,374.1,188.7z M368.4,93.9c1.2,3.9,2.3,7.8,3.5,11.6
				c0.2,0.6-0.2,1.4,0,2c-1.2-3.9-2.3-7.8-3.5-11.6C368.2,95.3,368.5,94.5,368.4,93.9z M374.4,101c1.2,5.8,2.6,11.5,4.4,17.1
				c0.2,0.6-0.2,1.4,0,2c-1.7-5.6-3.2-11.3-4.4-17.1C374.3,102.4,374.6,101.6,374.4,101z M379.1,104.7c0.9,3.1,1.8,6.1,2.6,9.2
				c0.2,0.6-0.2,1.4,0,2c-0.9-3.1-1.8-6.1-2.6-9.2C378.9,106.1,379.3,105.3,379.1,104.7z M351.3,111.9c-0.8-2.5-1.7-4.8-2.8-7.2
				c-0.3-0.5,0.3-1.5,0-2c1.1,2.3,2.1,4.7,2.8,7.2C351.5,110.5,351.1,111.3,351.3,111.9z"/>
		</g>
	</g>
	<g>
		<g>
			<rect x="409.3" y="211" transform="matrix(0.3071 -0.9517 0.9517 0.3071 78.654 587.155)" fill="#902E1B" width="66.4" height="57.2"/>
			<rect x="432.7" y="238.2" transform="matrix(0.2953 -0.9554 0.9554 0.2953 50.5026 602.4718)" fill="#DAC68B" width="2" height="57.6"/>
			<rect x="398.8" y="230.8" transform="matrix(0.9218 -0.3876 0.3876 0.9218 -62.4507 179.1802)" width="28.4" height="27.2"/>
			<rect x="450.1" y="184.2" transform="matrix(0.2953 -0.9554 0.9554 0.2953 114.447 581.0709)" fill="#DAC68B" width="2" height="57.6"/>
		</g>
		<g>
			<rect x="8.8" y="206.4" transform="matrix(0.9517 -0.3071 0.3071 0.9517 -71.7795 23.0588)" fill="#902E1B" width="57.2" height="66.4"/>
			<rect x="17.6" y="266" transform="matrix(0.9555 -0.2949 0.2949 0.9555 -76.6714 25.5596)" fill="#DAC68B" width="57.6" height="2"/>
			<rect x="53.4" y="230.3" transform="matrix(0.3876 -0.9218 0.9218 0.3876 -184.2959 211.4942)" width="27.2" height="28.4"/>
			<rect x="0.1" y="212" transform="matrix(0.9555 -0.2949 0.2949 0.9555 -61.5293 17.9987)" fill="#DAC68B" width="57.6" height="2"/>
		</g>
		<g>
			<rect x="48.7" y="171" fill="#DAC68B" width="382.7" height="80"/>
			<rect x="48.7" y="174.7" fill="#902E1B" width="382.7" height="3"/>
			<rect x="48.7" y="244.3" fill="#902E1B" width="382.7" height="3"/>
		</g>
		<path fill="#902E1B" d="M154.6,224.8v-27h12c1.6,0,3,0.6,4.2,1.8s1.8,2.6,1.8,4.2v3c0,1.6-0.6,3-1.8,4.2s-2.6,1.8-4.2,1.8h-6v12H154.6
			z M160.6,209.9h3c0.8,0,1.5-0.3,2.1-0.9c0.6-0.6,0.9-1.3,0.9-2.1v-3c0-0.8-0.3-1.5-0.9-2.1c-0.6-0.6-1.3-0.9-2.1-0.9h-3V209.9z
			M182.6,224.8h-6v-21h6v6c0.2-2,0.9-3.5,1.9-4.5s2.4-1.5,4.2-1.5h3v6h-6c-0.8,0-1.5,0.3-2.1,0.9c-0.6,0.6-0.9,1.3-0.9,2.1
			L182.6,224.8L182.6,224.8z M212.6,215.8h-12v3c0,0.8,0.3,1.5,0.9,2.1s1.3,0.9,2.1,0.9h3c2,0,3-1,3-3h3c-0.5,4-2.5,6-6,6h-6
			c-1.6,0-3-0.6-4.2-1.8s-1.8-2.6-1.8-4.2v-9c0-1.7,0.6-3.1,1.8-4.3s2.6-1.8,4.2-1.8h6c1.6,0,3,0.6,4.2,1.8s1.8,2.6,1.8,4.2V215.8z
			M200.6,212.8h6v-3c0-0.8-0.3-1.5-0.9-2.1c-0.6-0.6-1.3-0.9-2.1-0.9s-1.5,0.3-2.1,0.9c-0.6,0.6-0.9,1.3-0.9,2.1V212.8z
			M230.4,224.8v-27h12c1.6,0,3,0.6,4.2,1.8s1.8,2.6,1.8,4.2v3c0,1.6-0.6,3-1.8,4.2s-2.6,1.8-4.2,1.8h-6v12H230.4z M236.4,209.9h3
			c0.8,0,1.5-0.3,2.1-0.9c0.6-0.6,0.9-1.3,0.9-2.1v-3c0-0.8-0.3-1.5-0.9-2.1c-0.6-0.6-1.3-0.9-2.1-0.9h-3V209.9z M263.4,212.8v-3
			c0-0.8-0.3-1.5-0.9-2.1s-1.3-0.9-2.1-0.9h-3c-1.8,0-2.8,1-3,3h-3c0.5-4,2.5-6,6-6h6c1.6,0,3,0.6,4.2,1.8s1.8,2.6,1.8,4.2v15h-6v-3
			c-0.2,2-1.2,3-3,3h-3c-1.6,0-3-0.6-4.2-1.8s-1.8-2.6-1.8-4.2l0,0c0-1.6,0.6-3,1.8-4.2s2.6-1.8,4.2-1.8H263.4z M263.4,215.8h-3
			c-0.8,0-1.5,0.3-2.1,0.9c-0.6,0.6-0.9,1.3-0.9,2.1l0,0c0,0.8,0.3,1.5,0.9,2.1s1.3,0.9,2.1,0.9s1.5-0.3,2.1-0.9s0.9-1.3,0.9-2.1
			V215.8z M279.4,224.8h-6v-21h6v6c0.2-2,0.9-3.5,1.9-4.5s2.4-1.5,4.2-1.5h3v6h-6c-0.8,0-1.5,0.3-2.1,0.9c-0.6,0.6-0.9,1.3-0.9,2.1
			v12H279.4z M294.4,197.8h6v6h3v3h-3v12c0,1,0.3,1.7,1,2.2c0.6,0.5,1.2,0.8,1.8,0.8h0.3v3h-3c-1.6,0-3.1-0.6-4.2-1.8
			s-1.8-2.6-1.8-4.2v-12h-3v-3h3L294.4,197.8L294.4,197.8z M310.4,227.9c0.1,2,1.1,3,3,3h3c0.8,0,1.5-0.3,2.1-0.9s0.9-1.3,0.9-2.1v-6
			c-0.2,2-1.2,3-3,3h-3c-1.6,0-3-0.6-4.2-1.8s-1.8-2.6-1.8-4.2v-15h6v15c0,0.8,0.3,1.5,0.9,2.1s1.3,0.9,2.1,0.9
			c0.8,0,1.5-0.3,2.1-0.9s0.9-1.3,0.9-2.1v-15h6v24c0,1.6-0.6,3-1.8,4.2c-1.2,1.2-2.6,1.8-4.2,1.8h-6c-3.5,0-5.5-2-6-6H310.4z"/>
	</g>
</svg>