<?xml version="1.0" encoding="utf-8"?>
<svg version="1.1" xmlns="http://www.w3.org/2000/svg" xmlns:xlink="http://www.w3.org/1999/xlink" x="0px" y="0px" viewBox="0 0 480 320" style="enable-background:new 0 0 480 320;" xml:space="preserve">
	<g>
		<circle fill="#EBE2C4" cx="240" cy="160" r="160"/>
		<g>
			<path fill="#E8D875" d="M220.6,143.7c-4.5-0.2-9.1-1.7-12.8-4.3c-1.7-1.2-3.2-2.7-4.4-4.5c-0.9-1.4-1.7-4.6-3.8-4.7
				c-1.7,0-3.3,2.3-4.5,3.2c-1.5,1.2-3.2,1.9-5.1,2.1c-4.1,0.6-8.3-0.8-11.8-2.8c-1.7-1-3.4-2.3-4.7-3.9c-1.6-1.9-2.8-4.4-5-5.8
				c-1.5-1-3.9-1.8-5.1-0.1c-1.3,1.8-2.6,3-4.7,3.7c-4.3,1.4-9.7,0.2-13.4-2.3c-2.8-1.9-4.8-4.4-6.4-7.1c-1.5,4.7-3,9.5-4.5,14.3
				c-4.5,14.6-8.6,29.2-12.5,43.9c-4.4,16.5-8.3,33.1-12,49.8c-0.1,0.6-0.4,0.9-0.8,1.2c0.2,0.5,0.3,1,0.1,1.6c0,0,0.1,0.1,0.1,0.2
				c0.2,0.2,0.5,0.5,0.8,0.6c0.7,0.4,1.4,0.7,2.2,1c2,0.8,4.1,1.6,6.1,2.4c3.7,1.4,7.4,2.8,11.1,4.1c7.7,2.7,15.6,5.1,23.5,7.3
				c7.9,2.2,15.9,4,23.9,5.7c7,1.4,14.3,3.1,21.5,2.8c0-0.2,0.1-0.4,0.2-0.6c15.1-33.5,26.7-68.5,34.3-104.4
				c0.6-2.6,1.1-5.2,1.6-7.9C230.8,142.4,225.7,144,220.6,143.7z M137.7,179.1c-0.2,0.1-0.4,0.2-0.6,0.2c-0.1-0.1-0.2-0.2-0.2-0.3
				c-1,0.3-2.1-0.1-2.6-1c-1.2-2,1.4-4.8,3.5-3.8c0.5,0.2,0.8,0.6,1.1,1.1c0.2,0,0.4,0,0.5,0c2,0.3,2.5,3.6,0.7,4.5
				c-0.3,0.1-0.6,0.2-0.9,0.2c0.1,0.1,0.1,0.3,0.1,0.5l-0.5-0.4c-0.5,0-1.1-0.3-1.5-0.7c0.2-0.1,0.3-0.1,0.5-0.1L137.7,179.1z
					M142,208.5c-1,0.7-2.2,1-3.2,0.2c-0.3-0.8,0-1.7,0.7-2.3c0.1-0.4,0.3-0.8,0.5-1c1-1.1,2.7-1.4,4.2-1.5
				C145.6,205.6,144,208.3,142,208.5z M152.8,189.3l-0.1,0.1c0,0,0-0.1,0-0.1c-0.8-0.1-1.6-0.6-1.9-1.3c0.9-1.1,2.1-1.9,3.5-2.2
				c-0.2,0.9-0.4,1.7-0.5,2.6c0.3,0,0.6,0.1,0.8,0.4C154.1,189.2,153.5,189.4,152.8,189.3z M162,204.8c0.1-0.4,0.2-0.8,0.3-1.3
				c-0.3,0-0.6,0-0.8,0c-1.2-1.9,2.4-4.2,3.8-2.5C166.6,202.8,164,205.8,162,204.8z M168.6,228.3c0.1,0.2,0.2,0.4,0.2,0.7
				c0,1.3-1.4,2.4-2.7,2l2.4-2.7c-1,0.1-2.1-0.3-2.5-1.3c0.2-0.1,0.5-0.1,0.7-0.1c-0.3-0.3-0.4-0.7-0.2-1.2c1.3-0.9,3.4-0.4,4,1.1
				C170.3,227.7,169.4,228.2,168.6,228.3z M173.9,179.7l0,0.1c-0.1,0-0.1,0-0.2,0c0,0,0,0,0,0c-1.2,0.6-2.8,0-3.5-1.1
				c-0.9-1.4-0.5-3.6,1.1-4.3c1.5-0.6,3.4,0.8,3.2,2.3C175.2,177.5,174.9,179,173.9,179.7z M169,227.7l-0.5,0.6
				c-0.1-0.2-0.2-0.4-0.3-0.5C168.5,227.8,168.8,227.7,169,227.7z M377.1,228.1c0,0-0.1,0.1-0.1,0.2c-0.2,0.2-0.5,0.5-0.8,0.6
				c-0.7,0.4-1.4,0.7-2.2,1c-2,0.8-4.1,1.6-6.1,2.4c-1.5,0.6-2.9,1.1-4.4,1.7c-5-17.7-9.9-35.5-15.3-53.1c0.5-0.1,1-0.4,1.4-0.7
				c0.1,0,0.3-0.1,0.3-0.2c1.6,0.1,3.2-0.9,3.5-2.7c0.3-2-1.4-4-3.4-4.3c-1.4-0.2-2.4,0.3-3,1.1c-0.3,0-0.6,0.1-0.9,0.3
				c-3-9.5-6.1-19-9.5-28.5c-1.5-4.1-3-8.3-4.6-12.4c-0.8-2-1.5-4-2.3-6c-0.1-0.1-0.1-0.3-0.2-0.4c3.9,0.6,8.3-0.6,11.4-2.8
				c2.8-1.9,4.8-4.4,6.4-7.1c1.5,4.7,3,9.5,4.5,14.3c4.5,14.6,8.6,29.2,12.5,43.9c4.4,16.5,8.3,33.1,12,49.8
				c0.1,0.6,0.4,0.9,0.8,1.2C377,227,376.9,227.5,377.1,228.1z M344.2,235.6c-1.9-6.2-3.9-12.5-5.9-18.7
				c-5.2-15.8-10.8-31.5-16.9-47c-0.3,1.5-0.5,3-1.1,4.4c-0.4,0.9-2,1.3-2.8,0.7c-3-2.2-2.2-5.6-2.1-8.8c0.1-2.1,0.2-4.2,0.2-6.3
				c0-1.4,0-2.8,0.2-4.2c-3-7.4-6.1-14.7-9.3-22c-3.1,1.5-6.7,2.4-10.1,1.9c-1.9-0.3-3.6-0.9-5.1-2.1c-1-0.8-2.3-2.5-3.7-3.1
				c2.9,8.7,5.7,17.4,8.6,26.1c5.8,17.5,11.5,35,17.3,52.5c1.7,5.1,3.3,10.1,5,15.2c1.1,0,2.3,0.4,2.5,1.5c0,0.1,0,0.2,0,0.3
				c0.4,0.3,0.5,0.9,0.3,1.4c-0.3,0.6-0.7,1.1-1.3,1.4c0.1,0.4,0.3,0.7,0.4,1.1c0.9,0.1,1.3,1.3,0.6,1.8c0.3,0.9,0.7,1.9,1,2.8
				c0.9,2.4,1.8,4.7,2.8,7.1c0.4,1,1.1,2.2,0.6,3.3c-0.9,1.9-3.4,0.7-3-1.2c0.1-0.3,0.4-0.6,0.7-0.7c0.1,0,0.1,0,0.2-0.1
				c-0.3-0.6-0.6-1.1-0.6-1.1c-0.1-0.2-0.2-0.4-0.3-0.6c-0.5-1.1-0.9-2.2-1.3-3.3c-0.8-2-1.5-3.9-2.2-5.9c0-0.1-0.1-0.2-0.1-0.3
				c-1.2-0.4-2.2-1.5-2.3-2.9c-0.2-0.1-0.4-0.2-0.6-0.3c-0.9-0.6-1.5-1.7-0.8-2.7c0.3-0.5,0.8-0.9,1.3-1.2c-0.6-1.7-1.1-3.4-1.7-5
				c-9.8-29.7-19.6-59.4-29.3-89c-1.2,0.9-1.9,3.1-2.6,4.2c-1.1,1.8-2.7,3.2-4.4,4.5c-2.6,1.9-5.6,3.1-8.8,3.8
				c2.7,6.3,5.2,12.6,7.7,19c10.8,28.1,19.9,56.9,29.4,85.5c0.4,1.3-1.6,1.8-2,0.5c-2.7-8.1-5.3-16.1-8-24.2
				c-9-27.1-17.9-54.3-29.1-80.5c-0.6,0.1-1.3,0.1-1.9,0.2c-5.1,0.3-10.2-1.4-14.1-4.5c0.5,2.6,1.1,5.3,1.6,7.9
				c7.7,35.9,19.2,70.9,34.3,104.4c0.1,0.2,0.2,0.4,0.2,0.6c7.2,0.4,14.5-1.4,21.5-2.8c8-1.6,16-3.5,23.9-5.7
				c3.8-1,7.5-2.1,11.3-3.3c-0.6-1.2-0.9-2.6-0.8-4.1C343.8,236,344,235.7,344.2,235.6z M309.9,154.8c-0.5,0.3-1.1,0.1-1.4-0.4
				c-0.1-0.1-0.2-0.3-0.3-0.4c-0.7,0.2-1.4-0.1-1.9-0.6c-0.6-0.7-0.7-1.5-0.4-2.4c0.2-0.4,0.7-0.6,1.1-0.5c0.1-0.1,0.1-0.2,0.2-0.2
				c0.2-0.3,0.7-0.4,1-0.3c0.1,0,0.2,0.1,0.2,0.1c0.3-0.3,0.9-0.4,1.3-0.2c1.2,0.7,1.3,2.4,0.5,3.3c0,0,0,0.1,0.1,0.1
				C310.6,153.8,310.3,154.5,309.9,154.8z M316.6,179.8c-1,1-2.7,1.5-4.1,1c-0.4,0-0.7-0.2-0.9-0.5c-1.1-1-1.5-2.7-0.7-4
				c0.1-1.3,1.1-2.4,2.3-2.9C317,172.1,319.1,177.4,316.6,179.8z M325.4,204.4c0,0,0,0.1,0,0.1c0.1,0.4,0,1-0.5,1.2
				c-1.9,0.8-4.1-0.2-4.9-2.1c-0.8-1.8,0.3-4.1,2.4-4.1c1.8,0,3.7,1.4,3.8,3.2C326.3,203.6,326,204.1,325.4,204.4z M346,180.7
				c-0.5-0.2-0.9-0.6-1.2-1.1c-0.6-1-0.7-2.4-0.2-3.5c-1.1-3.5-2.2-6.9-3.3-10.4c-1.7-5.1-3.4-10.2-5.2-15.3
				c-0.2,0.2-0.6,0.3-0.9,0.2c-0.1,0-0.3-0.1-0.4-0.1c-0.6,0.3-1.3,0.4-2,0.4c0,0.1,0,0.2,0,0.2c0.3,1.3-1.7,1.8-2,0.5
				c-0.1-0.5-0.2-1-0.2-1.5c-0.4-0.3-0.8-0.7-1-1.2c-0.5-1,0.8-2,1.5-1.4c0,0,0-0.1,0.1-0.1c-0.3-0.6-0.5-1.2-0.7-1.9
				c-0.1-0.4,0-0.9,0.5-1.2c0.9-0.5,2-0.5,2.9-0.2c-0.1-0.3-0.2-0.6-0.3-0.9c-1.3-3.6-2.7-7.3-4.1-10.9c-0.8-2-1.8-4.1-2.6-6.1
				c-1.7-0.7-2.9-1.8-4.1-3.4c-1.2-1.7-3.6-0.9-5.1,0.1c-0.2,0.1-0.3,0.2-0.5,0.4c0,0.1,0,0.2,0,0.3c0.1,2.5,0.6,5.1,1,7.5
				c0.3,2.4,0.7,4.9,0.6,7.4c0,0.5-0.2,0.9-0.4,1.2c-0.3,1.1-0.9,2-2.2,2.3c-2.4,0.5-4-2.4-4.5-4.4c-0.5-1.8-0.4-3.6-0.1-5.4
				c0.1-1,0.2-1.7,0.2-2.5c-1.1,1.1-2.3,2-3.5,2.7c2.6,6,5.2,12.1,7.7,18.1c0.8-1,2.5-1.2,3.2,0.2c1.2,2.5,2.3,5.1,3,7.8
				c0.3,1.4,0.5,2.7,0.4,4.2c-0.1,0.4-0.1,0.9-0.2,1.3c0,0.6-0.1,1.2-0.2,1.8c9.4,24.1,17.9,48.5,25.4,73.3c3.1-1,6.2-2,9.2-3.1
				c1.6-0.6,3.2-1.1,4.8-1.7c-2.3-8.2-4.6-16.3-6.9-24.5C351.9,200.4,349,190.5,346,180.7z M336.4,188.5c-0.4,1-1.3,1.5-2.2,1.7
				c-0.3,0.1-0.6,0.2-0.9,0.1c-0.8,0-1.6-0.3-2.2-0.9c-0.3-0.3-0.4-0.9-0.2-1.2c0.1-0.2,0.3-0.3,0.5-0.5c-0.1-0.6-0.2-1.1-0.3-1.7
				c-0.2-0.8,0.5-1.5,1.3-1.3c1.5,0.4,2.9,1.2,3.9,2.5C336.6,187.6,336.6,188,336.4,188.5z M348.7,208.5c-0.2,1.5-1.8,1.9-3.1,1.7
				c-0.5-0.1-1.1-0.3-1.5-0.6c-1.6-0.3-2.9-1.8-3.3-3.3c-0.2-1-0.1-2.4,0.8-3.1c0.9-0.7,3,0,3.9,0.4c1,0.4,1.9,1.3,2.3,2.3
				C348.5,206.5,348.8,207.5,348.7,208.5z"/>
			<path fill="#231815" d="M318.2,71.2c0,0,0.1,0,0.1,0c0,0,0,0,0,0c0,0,0,0,0,0c0.3-0.1,0.5,0,0.7,0.2c0,0,0,0.5,0,0.5
				c0,0-0.1,0.1-0.1,0.1c0,0,0,0.1,0,0.1c0,0,0,0,0,0c0,0.1-0.1,0.3-0.3,0.3c-0.3,0-0.4-0.3-0.3-0.6c0,0-0.1,0-0.1,0
				C318.2,71.7,318.1,71.3,318.2,71.2z M326.4,80.8c0.1-0.1,0.2-0.1,0.2-0.2c0.2-0.1,0.4-0.2,0.6-0.3c0.3-0.1,0-0.6-0.3-0.4
				c-0.1,0-0.2,0.1-0.2,0.1c-0.1-0.5-0.6-0.8-1.1-0.4c-0.1,0.1-0.1,0.2-0.2,0.3C324.9,80.2,325.6,81.3,326.4,80.8z M279,72.8
				c0,0.1,0,0.2,0,0.2c0.4,0.3,0.8,0.3,1.2,0c0,0,0-0.5,0-0.5c-0.1-0.1-0.2-0.2-0.2-0.2c0-0.1,0-0.1,0-0.1c-0.4-0.2-0.7-0.1-1,0.2
				c0,0,0,0.5,0,0.5C279,72.8,279,72.7,279,72.8z M293.9,68.4c0,0,0.1,0,0.1,0c0,0,0-0.1,0-0.1c0-0.1,0-0.4,0-0.4c0,0-0.1,0-0.1,0
				c0,0,0,0,0,0c0,0,0,0,0,0c-0.3,0-0.6,0-0.9,0c-0.1,0-0.1,0-0.2-0.1c0,0,0-0.1,0-0.1c0-0.1-0.1,0-0.1,0c0,0,0,0,0,0
				c-0.1,0-0.2,0-0.2-0.1c0,0.1,0,0.2,0,0.2c0,0,0,0,0,0c-0.1,0-0.2,0-0.3,0c0,0,0,0.5,0,0.5c0.2,0,0.4-0.1,0.6-0.1
				C293.3,68.5,293.6,68.5,293.9,68.4z M305.5,88.4c-0.3,0.3-1.7,0.1-2.1,0.1c-0.5,0-0.7,0-1.1-0.3c-0.1-0.1-0.1-0.2-0.2-0.2
				c-0.6-0.3-1,0.2-1.3,0.7c-0.2,0.3,0.3,0.5,0.4,0.3c0.2-0.3,0.6-0.3,0.9-0.2c0.1,0,0.1,0.1,0.2,0.2c0.3,0.1,0.6,0.1,1,0.2
				c0.8,0,2.1,0.4,2.7-0.2C306.1,88.5,305.7,88.1,305.5,88.4z M307,59.4c0.2-0.4,0.8,0,1.1,0c0.5,0.2,1.1,0.3,1.6,0.5
				c0-0.1,0-0.1,0-0.2c0-0.1,0-0.3,0-0.3c-0.6-0.2-1.1-0.4-1.6-0.7c0,0,0,0.2,0,0.3c-0.3-0.1-0.9-0.4-1.1,0
				C306.9,59,307.1,59.3,307,59.4z M255.5,98.1c-0.4,0.5-0.7,0.9-1.3,1.1c-0.4,0.1-0.6,0.1-0.8,0.4c-0.5,0.6-0.4,1.7-0.2,2.4
				c0.1,0.3,0.5,0.2,0.5-0.1c-0.1-0.5-0.1-1,0-1.5c0.1-0.6,0.4-0.6,0.9-0.8c0.5-0.2,0.9-0.7,1.3-1.1
				C256.1,98.2,255.7,97.8,255.5,98.1z M261.8,118.8c0.2-0.2-0.2-0.6-0.4-0.4c-0.6,0.8-2,0.6-2.9,0.5c-1-0.1-2-0.4-2.9-0.7
				c-0.3-0.1-0.4,0.4-0.1,0.5c1.2,0.5,2.5,0.8,3.9,0.8C260.3,119.6,261.2,119.6,261.8,118.8z M288.4,110.3
				c-0.8,0.5-1.6,0.6-2.5,1.1c-0.8,0.4-1.6,0.6-2.4,0.9c-0.7,0.3-1.1,1.2-1.9,1.3c-0.3,0-0.3,0.5,0,0.5c0.4-0.1,0.7-0.1,1-0.4
				c0.3-0.3,0.6-0.7,1-0.9c0.7-0.4,0.9,0,1.5-0.3c0.3-0.1,0.4-0.2,0.6-0.4c0.4-0.4,0.9-0.6,1.5-0.8c0.2,0,0.3,0,0.5,0
				c0.4-0.1,1.2-0.9,1.5-1c0.3,0,0.3-0.5,0-0.5C288.7,109.9,288.9,110,288.4,110.3z M292,114.7c0.3-0.1,0.6-0.2,0.8-0.3
				c0.2-0.1,0.2-0.4,0-0.5c-0.1,0-0.2,0-0.3-0.1c-0.2,0-0.3,0.1-0.3,0.2c-0.1,0-0.2,0.1-0.4,0.1C291.5,114.3,291.7,114.8,292,114.7
				z M313.3,104.1c0.5-0.4,0.7-1,0.6-1.7c0-0.3-0.5-0.2-0.5,0.1c0.1,0.5-0.1,0.9-0.5,1.2C312.7,103.9,313.1,104.3,313.3,104.1z
					M264.4,103.9c0.9,0,1.8-0.1,2.7-0.5c0.3,0,0.7-0.1,1-0.1c0.3,0,0.3-0.5,0-0.5c-0.2,0-0.4,0-0.6,0c-0.1-0.1-0.2-0.1-0.3,0
				c-0.1,0-0.1,0-0.2,0.1c-0.8,0.1-1.6,0.1-2.4,0.2c-0.2,0-0.2,0.2-0.2,0.3c0,0-0.1,0-0.1,0C264,103.5,264.1,103.9,264.4,103.9z
					M268.5,87.9c-0.2-0.1-0.4-0.1-0.5-0.1c-0.5-0.1-0.9-0.1-1.4-0.2c-0.3,0-0.3,0.5,0,0.5c0.3,0,0.5,0.1,0.8,0.1
				c0,0.1,0.1,0.2,0.3,0.1c0.1,0,0.2-0.1,0.4-0.1c0.1,0,0.3,0,0.4,0C268.7,88.4,268.8,88,268.5,87.9z M265.4,80.8c0.5,0,1,0,1.5,0
				c0,0.1,0.1,0.2,0.3,0.2c0.6-0.2,1.1-0.3,1.7-0.5c0.3-0.1,0.2-0.6-0.1-0.5c-0.6,0.1-1.2,0.2-1.9,0.3c0.2-0.1,0.1-0.4-0.1-0.5
				c-0.6-0.1-1.1,0.1-1.5,0.5C265.1,80.5,265.2,80.7,265.4,80.8z M297.6,74.8C297.6,74.8,297.6,74.8,297.6,74.8c0,0.1,0,0.2,0,0.3
				c0,0,0,0,0,0c-0.1,0.4-0.3,0.6-0.9,0.8c-0.5,0.2-1,0.3-1.5,0.5c0,0.1,0,0.4,0,0.5c-0.3,0.3-0.9,0.5-1.3,0.3
				c-0.2-0.1-0.2-0.1-0.2-0.3c-0.2,0.1-0.4,0.1-0.5,0.2c0,0-0.1-0.5,0-0.5c0.2-0.1,0.4-0.1,0.5-0.2c0-0.1,0-0.3,0-0.3
				c0.9-0.7,2-1.3,3.1-1.6c0.5-0.2,0.8-0.1,0.8,0.3c0,0,0-0.1,0-0.1C297.6,74.6,297.6,74.7,297.6,74.8
				C297.6,74.8,297.6,74.8,297.6,74.8z M297.5,74.8c-0.5-0.3-1.8,0.3-2.8,1c0.1,0,0.2,0,0.2,0.1c0.2-0.1,0.5-0.2,0.7-0.2
				C296.1,75.5,297.1,75.3,297.5,74.8z M309.5,77.3c-0.5,0.2-1.1,0.5-1.6,0.7c-0.1,0.1-0.1,0.2-0.1,0.2c-0.7,0.3-1.4,0.4-2.1,0.4
				c-0.3,0-0.3,0.5,0,0.5c0.8,0,1.5-0.2,2.2-0.5c0,0,0,0,0,0c0,0,0.1,0.1,0.1,0.1c0.7,0.2,1.4-0.1,1.8-0.7c0.1-0.1,0-0.3-0.1-0.3
				c0,0-0.1,0-0.1,0c0,0,0,0,0,0C310,77.5,309.8,77.1,309.5,77.3z M255.1,95.2c0.4,0.1,0.3,0.1,0.6,0.1c0.1,0,0.2-0.1,0.2-0.2
				c1.8-0.3,3.6-0.5,5.4-0.6c0.3,0,0.3-0.5,0-0.5c-1,0-2,0-3-0.1c-0.2,0-0.2,0.1-0.2,0.3c-1,0.1-2,0.3-3,0.5
				C254.8,94.8,254.8,95.1,255.1,95.2z M303.5,67.8c0,0,0,0.5,0,0.5c1-0.2,2-0.4,3-0.6c0,0.1,0,0.3,0,0.3c0.2-0.1,0.5-0.2,0.7-0.2
				c0.2,0.3,0.5,0.4,0.8,0.1c0.1-0.1,0.1-0.3,0.1-0.4c0.2-0.1,0.4-0.1,0.5-0.2c0,0,0-0.2,0-0.3c0-0.1,0-0.1,0-0.2
				c-0.2,0-0.3,0.1-0.5,0.1c0,0,0-0.1,0-0.1c0,0,0,0-0.1,0c0-0.1-0.1-0.1-0.1-0.1c-0.4-0.3-0.9-0.1-1,0.4c0,0,0,0.1,0,0.1
				C305.7,67.3,304.6,67.6,303.5,67.8z M267.4,113.9c-0.3,0.1-0.2,0.5,0.1,0.5c0.6-0.1,1.3-0.2,1.9-0.4c-0.1,0.1-0.1,0.3,0.1,0.4
				c0.2,0.2,0.5,0.1,0.7-0.1c0.1-0.1,0-0.3-0.1-0.3c0,0,0,0,0.1-0.1c0,0,0,0,0-0.1c0.5-0.1,1.1-0.2,1.6-0.3
				c0.3-0.1,0.2-0.5-0.1-0.5c-0.7,0.1-1.4,0.2-2.2,0.3c-0.1,0-0.2,0.1-0.2,0.2C268.8,113.6,268.1,113.8,267.4,113.9z M301.4,116.6
				c1.5,0.1,3-0.2,4.4-0.7c0,0,0,0,0,0c0.7,0,1.4-0.1,2.1-0.6c0.3-0.2,0-0.6-0.3-0.4c-1.1,0.7-2,0.5-3.2,0.6
				c-1.1,0.2-2,0.6-3.1,0.6c-0.4,0-0.8-0.1-1.2-0.1c-0.3-0.1-0.4,0.4-0.1,0.5C300.6,116.6,301,116.7,301.4,116.6z M283.1,85.8
				c1.7-0.3,3.4,0,4.9,0.9c0.2,0.1,0.4-0.1,0.4-0.3c-0.2-0.5-0.5-0.8-0.9-1c0.1,0,0.1,0,0.2,0c0.2,0,0.3-0.2,0.2-0.4
				c-0.3-0.5-0.9-0.6-1.4-0.3c-0.1,0.1-0.1,0.1-0.1,0.2c-0.2,0-0.4,0-0.7,0c-0.2,0-0.2,0.2-0.2,0.3c-0.8-0.1-1.7-0.1-2.6,0
				C282.7,85.4,282.8,85.9,283.1,85.8z M275.8,97.5c0.1,0,0.1,0,0.2,0c0.1,0.1,0.1,0.2,0.3,0.1c0.3-0.1,0.7-0.2,1-0.3
				c-0.1,0.1-0.3,0.2-0.4,0.3c-0.3,0.2,0,0.6,0.3,0.4c0.3-0.2,0.6-0.4,0.8-0.7c0.1-0.1,0.2-0.2,0.3-0.2c0,0,0.1,0,0.1,0
				c0.2-0.1,0.4-0.1,0.7-0.2c0.6,0,1.1-0.1,1.7,0c0.6,0.2,1.2,0.3,1.9,0.2c0.2,0,0.2-0.4,0-0.5c-0.6-0.1-1.2-0.2-1.8-0.2
				c-0.4-0.1-0.9-0.3-1.4-0.3c0-0.1-0.1-0.2-0.2-0.3c-0.1-0.1-0.2,0-0.3,0c-0.3,0.3-0.7,0.5-1.1,0.7c-0.7,0.1-1.4,0.3-2.1,0.5
				C275.4,97.1,275.5,97.6,275.8,97.5z M300.3,59.9c0,0,0,0.2,0,0.3c0,0.1,0,0.1,0,0.2c0.5-0.1,1-0.3,1.5-0.4
				c-0.1,0.3-0.3,0.5-0.5,0.7c-0.1,0-0.2,0.1-0.4,0.1c0,0,0,0.3,0,0.4c0,0,0,0.1,0,0.1c0.2,0,0.3,0,0.4-0.1
				c1.1-0.2,2.2-0.5,3.3-0.7c0,0,0-0.5,0-0.5c-0.9,0.2-1.9,0.4-2.8,0.6c0,0,0-0.1,0.1-0.1c0.1-0.2,0.1-0.3,0.2-0.5
				c0.2-0.1,0.4-0.1,0.6-0.2c0,0,0.1,0,0.1,0c0.5-0.1,1-0.2,1.6-0.3c0,0,0,0,0-0.1c0.6,0.2,1.3,0.4,1.9,0.4c0,0,0-0.5,0-0.5
				c-1.2,0.1-2.3-0.8-3.5-0.4c-0.2,0.1-0.4,0.2-0.5,0.3C301.7,59.2,300.7,59.7,300.3,59.9z M167.5,74C167.5,74,167.5,74,167.5,74
				C167.5,74.1,167.5,74.1,167.5,74c0,0.2,0.1,0.3,0.3,0.3c0.3,0,0.4-0.3,0.3-0.6c0,0,0.1,0,0.1,0c-0.1,0,0.1-0.5,0-0.5
				c0,0-0.1,0-0.1,0c0,0,0,0,0,0c0,0,0,0,0,0c-0.3-0.1-0.5,0-0.7,0.2C167.4,73.5,167.4,73.9,167.5,74C167.4,73.9,167.5,74,167.5,74
				z M178.4,78.8c0.1,0,0.1-0.1,0.1-0.1c0,0,0,0,0,0c0.7,0.3,1.4,0.4,2.2,0.5c0.3,0,0.3-0.5,0-0.5c-0.7,0-1.4-0.2-2.1-0.4
				c0-0.1,0-0.2-0.1-0.2c-0.5-0.2-1.1-0.5-1.6-0.7c-0.3-0.1-0.5,0.2-0.3,0.4c0,0,0,0,0,0c0,0-0.1,0-0.1,0c-0.1,0.1-0.2,0.2-0.1,0.3
				C177,78.7,177.7,79,178.4,78.8z M159.9,82.6c0.1,0.1,0.1,0.1,0.2,0.2c0.8,0.5,1.4-0.6,0.9-0.9c0-0.1-0.1-0.2-0.2-0.3
				c-0.5-0.4-1,0-1.1,0.4c-0.1,0-0.2-0.1-0.2-0.1c-0.3-0.1-0.5,0.3-0.3,0.4C159.4,82.4,159.6,82.5,159.9,82.6z M207.4,73
				c0,0,0-0.1,0-0.2c0,0,0.1,0,0.1,0c0,0,0-0.5,0-0.5c-0.3-0.3-0.7-0.3-1-0.2c0,0,0,0.1,0,0.1c-0.1,0.1-0.2,0.1-0.2,0.2
				c0,0,0,0.5,0,0.5C206.6,73.2,207,73.2,207.4,73z M192.3,68.4c0,0,0.1,0,0.1,0c0.3,0.1,0.7,0.1,1,0c0.2,0,0.4,0,0.6,0.1
				c0,0,0-0.5,0-0.5c-0.1,0-0.2,0-0.3,0c0,0,0,0,0,0c0-0.1,0-0.2,0-0.2c-0.1,0.1-0.1,0.1-0.2,0.1c0,0,0,0,0,0c0-0.1-0.1-0.1-0.1,0
				c0,0,0,0,0,0.1c-0.1,0-0.1,0.1-0.2,0.1c-0.3,0-0.6,0-0.9,0c0,0,0,0,0,0c0,0,0,0,0,0c0,0-0.1,0-0.1,0c0,0,0,0.2,0,0.4
				C192.3,68.3,192.3,68.4,192.3,68.4z M180.9,88.4c-0.2-0.2-0.6,0.1-0.4,0.4c0.3,0.3,0.3,0.3,0.7,0.3c0.6,0,1.3,0,1.9-0.1
				c0.3,0,0.6,0,0.9-0.1c0.4-0.1,0.7-0.6,1.1,0.1c0.2,0.3,0.6,0,0.4-0.3c-0.3-0.5-0.7-1-1.3-0.7c-0.1,0.1-0.2,0.2-0.2,0.2
				c-0.4,0.3-0.6,0.3-1.1,0.3C182.6,88.5,181.2,88.7,180.9,88.4z M176.7,59.9c0.5-0.2,1.1-0.3,1.6-0.5c0.3-0.1,0.9-0.4,1.1,0
				c-0.1-0.1,0.1-0.4,0-0.5c-0.2-0.4-0.8,0-1.1,0c0-0.1-0.1-0.3,0-0.3c-0.5,0.3-1,0.6-1.6,0.7c0,0,0,0.2,0,0.3
				C176.7,59.8,176.7,59.8,176.7,59.9z M232.3,99.2c-0.6-0.2-1-0.6-1.4-1.1c-0.2-0.3-0.6,0.1-0.4,0.4c0.4,0.5,0.7,0.9,1.3,1.1
				c0.4,0.2,0.8,0.2,0.9,0.7c0.1,0.5,0.1,1.1,0,1.7c-0.1,0.3,0.4,0.5,0.5,0.1c0.1-0.7,0.2-1.8-0.2-2.4
				C232.8,99.3,232.6,99.3,232.3,99.2z M149.9,108.7c0.4,0.5,0.4,1.2,1,1.7c0.6,0.6,1.4,1,2,1.7c0.2,0.2,0.6-0.1,0.4-0.4
				c-0.4-0.4-0.8-0.8-1.3-1.1c-0.8-0.6-1.1-1.1-1.5-1.9c-0.2-0.5-0.4-0.5-0.7-0.8c-0.4-0.3-0.3,0.2-0.5-0.4
				c-0.1-0.5,0.2-1.3,0.3-1.8c0.1-0.3-0.4-0.4-0.5-0.1c-0.1,0.5-0.7,1.9-0.4,2.4C148.9,108.5,149.6,108.3,149.9,108.7z
					M158.6,110.1c0.2,0,0.3-0.1,0.5-0.1c0.1,0,0.2,0.2,0.3,0.3c0.3,0.2,0.6,0.2,0.8,0c0.3-0.2,0-0.6-0.3-0.4
				c-0.2,0.2-0.6-0.4-0.9-0.4c-0.3,0-0.6,0.1-0.7-0.2c-0.1-0.3,0.1-0.6,0.2-0.8c0.1-0.3-0.4-0.4-0.5-0.1
				C157.9,108.9,157.7,110,158.6,110.1z M226.5,122.7c-0.9,0.4-1.9,0.6-2.9,0.7c-0.9,0.1-2.3,0.3-2.9-0.5c-0.2-0.3-0.6,0.1-0.4,0.4
				c0.6,0.7,1.5,0.7,2.4,0.7c1.3,0,2.6-0.3,3.9-0.8C227,123.1,226.8,122.6,226.5,122.7z M201.1,113.4c-0.8-0.1-1.1-0.9-1.7-1.2
				c-0.8-0.4-1.7-0.5-2.5-1c-0.6-0.4-1.2-0.4-1.9-0.8c-0.6-0.3-0.8-0.6-1.4-0.7c-0.3,0-0.3,0.5,0,0.5c0.2,0,1.1,0.8,1.5,0.9
				c0.2,0,0.4,0,0.5,0c0.4,0.2,0.9,0.4,1.3,0.6c0.4,0.2,0.3,0.3,0.8,0.5c0.3,0.1,0.8,0.1,1,0.2c0.6,0.2,0.9,0.4,1.4,0.8
				c0.4,0.3,0.7,0.5,1.2,0.5C201.4,114,201.4,113.5,201.1,113.4z M170.5,106.2c0-0.3-0.4-0.5-0.5-0.1c-0.1,0.7,0.1,1.3,0.6,1.7
				c0.2,0.2,0.6-0.2,0.4-0.4C170.6,107.1,170.4,106.6,170.5,106.2z M222.1,103.9c0.3,0,0.3-0.4,0.1-0.5c0,0-0.1,0-0.1,0
				c0-0.1-0.1-0.3-0.2-0.3c-0.8-0.1-1.6-0.1-2.4-0.2c-0.1,0-0.1,0-0.2-0.1c-0.1,0-0.2,0-0.3,0c-0.2,0-0.4,0-0.6,0
				c-0.3,0-0.3,0.5,0,0.5c0.3,0,0.7,0.1,1,0.1C220.3,103.8,221.1,104,222.1,103.9z M218.8,88.4c0.1,0,0.2,0,0.3-0.1
				c0.3,0,0.5-0.1,0.8-0.1c0.3,0,0.3-0.5,0-0.5c-0.5,0-0.9,0.1-1.4,0.2c-0.2,0-0.4,0-0.5,0.1c-0.3,0.1-0.2,0.5,0.1,0.5
				c0.1,0,0.3,0,0.4,0C218.6,88.3,218.7,88.4,218.8,88.4z M219.6,80.8c0.5,0,1,0,1.5,0c0.2,0,0.3-0.3,0.2-0.4
				c-0.4-0.4-0.9-0.6-1.5-0.5c-0.3,0-0.3,0.4-0.1,0.5c-0.6,0-1.3-0.1-1.9-0.3c-0.3-0.1-0.4,0.4-0.1,0.5c0.6,0.2,1.1,0.3,1.7,0.5
				C219.4,81,219.5,80.9,219.6,80.8z M192.8,76.8c0,0.1-0.1,0.2-0.3,0.3c-0.4,0.1-0.9-0.1-1.3-0.3c0,0,0-0.3,0-0.4
				c-0.6-0.2-1.1-0.4-1.7-0.6c-0.4-0.2-0.7-0.4-0.7-0.7c0,0,0,0,0,0c0-0.1,0-0.1,0-0.2c0,0,0,0,0,0c0,0,0,0,0,0c0-0.1,0-0.1,0-0.2
				c0,0,0,0,0,0.1c0.1-0.5,0.5-0.4,1-0.2c1.1,0.4,2,0.9,3,1.6c0,0,0,0.2,0,0.3c0.2,0.1,0.4,0.1,0.5,0.2c0.1,0,0,0.5,0,0.5
				C193.1,76.9,193,76.8,192.8,76.8z M190.8,75.6c0.2,0.1,0.5,0.2,0.7,0.2c0.1,0,0.2,0,0.2-0.1c-1-0.6-2.4-1.3-2.8-1
				C189.3,75.3,190.3,75.5,190.8,75.6z M230.7,95.3c0.4,0,0.3,0.1,0.6-0.1c0.2-0.1,0.3-0.4,0-0.5c-1-0.2-2-0.4-3-0.5
				c0-0.1-0.1-0.3-0.2-0.3c-1,0-2,0-3,0.1c-0.3,0-0.3,0.5,0,0.5c1.8,0,3.6,0.2,5.4,0.6C230.5,95.2,230.6,95.3,230.7,95.3z
					M182.9,67.8c-1.1-0.2-2.2-0.5-3.3-0.7c0-0.1,0-0.1,0-0.1c-0.1-0.4-0.6-0.7-1-0.4c-0.1,0.1-0.1,0.1-0.2,0.2c0,0,0,0-0.1,0
				c0,0,0,0,0,0.1c-0.2,0-0.3-0.1-0.5-0.1c0,0.1,0,0.1,0,0.2c0,0.1,0,0.3,0,0.3c0.2,0.1,0.4,0.1,0.5,0.2c0,0.1,0,0.3,0.1,0.4
				c0.2,0.3,0.6,0.2,0.8-0.1c0.2,0.1,0.5,0.2,0.7,0.2c0,0,0-0.2,0-0.3c1,0.2,2,0.4,3,0.6C182.9,68.3,183,67.8,182.9,67.8z
					M214,117.8c-0.7-0.1-1.4-0.3-2-0.4c0-0.1-0.1-0.2-0.2-0.2c-0.7-0.1-1.4-0.2-2.2-0.3c-0.3,0-0.3,0.4-0.1,0.5
				c0.5,0.1,1.1,0.2,1.6,0.3c0,0,0,0,0,0.1c0,0,0,0,0.1,0.1c-0.1,0.1-0.2,0.2-0.1,0.3c0.2,0.2,0.4,0.3,0.7,0.1
				c0.1-0.1,0.1-0.3,0.1-0.4l0,0c0.6,0.1,1.3,0.2,1.9,0.4C214.2,118.3,214.3,117.8,214,117.8z M185.7,114c-0.7,0.4-1.3,0.6-2,0.7
				c-0.2,0-0.5,0-0.7-0.1c-0.5-0.1-0.9-0.5-1.4-0.5c-0.4-0.1-0.2,0-0.7,0c-0.3,0-0.5,0.1-0.8,0.1c0,0,0,0,0,0c-0.1,0-0.2,0-0.2,0.1
				c-0.6,0.1-1.1,0-1.7-0.7c-0.2-0.2-0.6,0.1-0.4,0.4c0.3,0.4,0.7,0.6,1,0.7c-0.1,0.1-0.2,0.3,0,0.4c0,0,0,0,0,0
				c0,0.2,0.2,0.4,0.4,0.3c0.4-0.2,0.4,0.5,0.4,0.6c0,0.3,0.5,0.3,0.5,0c0-0.2-0.1-0.5-0.2-0.7c0.1,0,0.2-0.1,0.3-0.1
				c0.1-0.1,0.1-0.1,0.1-0.2c1.3,0.5,2.7,0.6,4,0.2c0.5,0,1.1-0.2,1.7-0.7C186.3,114.2,186,113.8,185.7,114z M203.4,85.3
				c-0.9-0.1-1.7-0.2-2.6,0c0-0.1-0.1-0.3-0.2-0.3c-0.2,0-0.4,0-0.7,0c0-0.1,0-0.2-0.1-0.2c-0.5-0.3-1.1-0.2-1.4,0.3
				c-0.1,0.2,0,0.4,0.2,0.4c0.1,0,0.1,0,0.2,0c-0.4,0.2-0.7,0.4-0.9,1c-0.1,0.2,0.2,0.4,0.4,0.3c1.5-0.9,3.2-1.2,4.9-0.9
				C203.6,85.9,203.7,85.4,203.4,85.3z M209.6,97.6c-0.2-0.1-0.3-0.2-0.4-0.3c0.3,0.1,0.6,0.2,1,0.3c0.1,0,0.2,0,0.3-0.1
				c0.1,0,0.1,0,0.2,0c0.3,0.1,0.4-0.4,0.1-0.5c-0.7-0.2-1.4-0.4-2.1-0.5c-0.4-0.2-0.7-0.4-1.1-0.7c-0.1-0.1-0.2-0.1-0.3,0
				c-0.1,0.1-0.2,0.2-0.2,0.3c-0.5,0-0.9,0.2-1.4,0.3c-0.6,0-1.2,0.1-1.7,0.2c-0.2,0-0.2,0.4,0,0.5c0.7,0.1,1.2,0,1.9-0.2
				c0.6,0,1.1,0,1.7,0c0.2,0.1,0.5,0.2,0.7,0.2c0.1,0,0.1,0,0.2,0c0,0,0.1,0.1,0.1,0.1c0.3,0.3,0.5,0.6,0.9,0.8
				C209.6,98.2,209.9,97.7,209.6,97.6z M168.9,112.4c-2.8-0.6-4.9-2.7-7.6-3.5c-0.3-0.1-0.4,0.4-0.1,0.5c2.7,0.7,4.8,2.9,7.6,3.5
				C169.1,113,169.2,112.5,168.9,112.4z M186.1,59.9c-0.4-0.2-1.3-0.7-2-0.8c-0.1-0.1-0.3-0.2-0.5-0.3c-1.1-0.3-2.3,0.5-3.5,0.4
				c0,0,0,0.5,0,0.5c0.7,0,1.3-0.2,1.9-0.4c0,0,0,0.1,0,0.1c0.5,0.1,1,0.2,1.6,0.3c0,0,0.1,0,0.1,0c0.2,0,0.4,0.1,0.6,0.1
				c0.1,0.2,0.2,0.4,0.3,0.6c-0.9-0.2-1.9-0.4-2.8-0.6c0,0,0,0.5,0,0.5c1.1,0.2,2.2,0.5,3.3,0.7c0.1,0,0.2,0.1,0.4,0.1
				c0,0,0-0.5,0-0.5c-0.1,0-0.2-0.1-0.4-0.1c-0.2-0.1-0.4-0.4-0.5-0.6c0.5,0.1,1,0.3,1.5,0.4c0-0.1,0-0.1,0-0.2
				C186.1,60.1,186.2,60,186.1,59.9z M322.2,262.4c-0.6,0-0.6,1,0,1C322.8,263.4,322.8,262.4,322.2,262.4z M396.3,262.4
				c-0.4,0.1-0.8,0.3-1.1,0.4c0.3,0.2,0.7,0.4,1,0.7c0.3,0.3,0.1,0.7-0.2,0.8c-0.8,0.3-1.5,0.5-2.3,0.7c0.7-0.1,1.4-0.1,2.1-0.2
				c0.6,0,0.7,0.9,0.1,1c-26.2,6-52.6,10.7-79.3,14c-0.6,0.1-0.6-0.9,0-1c13.3-1.6,26.5-3.6,39.6-5.9c0.2,0,0.5-0.1,0.7-0.1
				c-2.2,0.2-4.3,0.4-6.5,0.6c-4.5,0.6-8.9,1-13.5,1.3c-0.4,0-0.6-0.5-0.4-0.8c-1.3,0-2.5,0-3.8,0c-0.5,0-0.7-0.7-0.3-0.9
				c1.1-0.5,2.2-0.9,3.3-1.4c-3.1,0.2-6.2,0.3-9.3,0.3c-0.6,0-0.7-0.8-0.1-1c0.5-0.2,1-0.3,1.4-0.5c-1.8,0-3.7,0-5.5,0
				c-0.3,0-0.4-0.2-0.5-0.4c-3.3,0.6-6.6,0.9-10.1,0.7c-0.6,0-0.7-0.8-0.1-1c7-2.1,14.2-3.6,21.3-4.7c0.8-0.4,0.4-0.5-2.3-0.5
				c-2.5,0-4.9,0.2-7.4,0.4c-5.8,0.6-11.4,1.8-17,3.4c-0.6,0.2-0.9-0.8-0.3-1c2.3-0.6,4.6-1.3,6.8-2.2c6.2-2.4,2-1-0.6-0.9
				c-5,0.2-10.1,0.5-15.1,0.7c-0.6,0-0.6-1,0-1c1,0,1.9-0.1,2.9-0.1c5.3-0.4,10.9-1.6,15.5-4.2c0.5-0.3,0.9-0.5,1.2-0.6
				c-0.2,0.1-0.5,0.1-0.7,0.1c-1.8-0.1-3.8,0.5-5.6,0.8c-2.8,0.5-5.6,1.2-8.4,1.9c-0.6,0.2-0.9-0.8-0.3-1c5.6-1.6,11.3-2.5,17.1-3
				c0.5,0,0.7,0.7,0.3,0.9c-3.6,2.1-7.3,3.7-11.2,4.7c3.3-0.2,6.7-0.3,10-0.5c0.5,0,0.7,0.7,0.3,0.9c-0.9,0.4-1.7,0.8-2.6,1.1
				c6.5-1.2,13-1.7,19.7-1.6c0.5,0,0.7,0.7,0.3,0.9c-0.1,0.1-0.2,0.1-0.3,0.2c7.2-1,14.4-1.4,21.7-1.4c2.5-0.4,5-0.8,7.4-1.1
				c6.6-0.8,13.2-1.3,19.9-1.4c2.5,0,4.8-0.1,7.1,0.4c1.6,0,3.2,0.1,4.8,0.2C396.7,261.4,396.8,262.2,396.3,262.4z M367.1,263.7
				c-1.7,0.3-3.4,0.5-5,0.9c-0.2,0-0.3,0.1-0.5,0.1c-4.7,1.5-9.5,2.8-14.3,3.7c0,0,0,0,0,0c-1.6,0.5-3.2,1.1-4.8,1.7
				c8.2-0.9,16.3-2.5,24.1-4.8c0.9-0.3,4.5-1.7,6.2-2.1C371.2,263.2,368.2,263.6,367.1,263.7z M336.6,268.7
				c-0.2,0.1-0.5,0.1-0.8,0.3c3.8-0.3,7.5-0.8,11.3-1.5c3.6-1.1,7.2-2.1,10.9-2.9c0,0,0,0-0.1,0c-2.2,0.2-4.4,0.5-6.6,0.7
				C346.4,266.2,341.5,267.4,336.6,268.7z M318.3,268.9c-0.9,0.2-1.8,0.5-2.7,0.7c5-0.5,9.6-1.1,14.2-3.2c-1.1,0.2-2.1,0.4-3.2,0.6
				C323.9,267.5,321.1,268.2,318.3,268.9z M328.5,268c7.3-1.5,14.7-2.7,22.2-3.6c0.1,0,0.3,0,0.4-0.1c-2.2,0.1-4.4,0.2-6.6,0.3
				c-3.8,0.3-7.6,0.7-11.4,1.3C331.6,266.7,330.1,267.4,328.5,268z M326.2,269.4c0,0-0.1,0-0.2,0
				C326.1,269.4,326.2,269.4,326.2,269.4z M331.2,269.3c2.6-0.8,5.3-1.5,8-2.2c-2.1,0.4-4.3,0.7-6.4,1.1c-1.5,0.3-3.1,0.8-4.8,1.2
				c0.6,0,1.2,0,1.7,0C330.2,269.3,330.7,269.3,331.2,269.3z M338.8,270.3c1-0.4,2-0.7,2.9-1.1c-3,0.4-6,0.7-9,0.9
				c-0.8,0.3-1.6,0.6-2.4,0.8c1.4-0.1,3.2-0.3,3.6-0.3C335.5,270.6,337.1,270.5,338.8,270.3z M336.5,272.9c1.4-0.1,2.7-0.1,4.1-0.2
				c10.1-2.5,20.4-4.1,30.8-4.9c2.8-0.5,5.6-0.9,8.3-1.3c0.5-0.1,0.9-0.2,1.4-0.4c2.4-0.7,4.7-1.4,7-2.1c0.7-0.2,3.4-0.9,5-1.3
				c-0.2-0.1-0.3-0.2-0.5-0.3c-2.2,0-5.8-0.3-6.4-0.3c-2.4,0-4.8,0.1-7.2,0.3c-1,0.1-2,0.2-3.1,0.2c0,0.2-0.1,0.5-0.3,0.6
				c-12,4.4-24.4,7.1-37.1,8.1C335.9,272.1,332.5,273.1,336.5,272.9z M377.2,268.5c-0.5,0-1,0-1.1,0c-1.8,0.5-3.7,0.9-5.5,1.3
				C372.8,269.5,375,269,377.2,268.5z M366,269.9c1-0.2,2-0.4,3-0.6c-3,0.5-5.9,1.1-8.8,1.7C362,270.6,364,270.3,366,269.9z
					M360.2,269.9c-4.8,0.6-9.5,1.5-14.2,2.5c2.2-0.1,4.4-0.2,6.6-0.4c0-0.2,0.1-0.4,0.4-0.5C355.4,271,357.8,270.4,360.2,269.9z
					M382.7,267.2c-0.6,0.1-1.3,0.2-1.9,0.2c0.3,0,0.6,0,0.8,0c0,0,0.1,0,0.1,0C382.1,267.3,382.4,267.3,382.7,267.2z M393.7,263.3
				c-2.6,0.9-5.2,1.7-7.8,2.5c1.1-0.1,2.2-0.2,3.4-0.4c2.2-0.6,4.6-1.3,4.6-1.5C393.8,263.7,393.8,263.5,393.7,263.3z M394.3,262.3
				C394.3,262.3,394.3,262.3,394.3,262.3C394.3,262.3,394.3,262.3,394.3,262.3C394.3,262.3,394.3,262.3,394.3,262.3z M297.6,117.8
				c-0.2,0.1-0.4,0.2-0.6,0.3c0,0.1,0,0.2-0.1,0.3c-2.9,1.6-6.2,3.2-9.6,2.8c-1.3-0.2-3.5-0.7-4.5-1.7c-0.6-0.6-1-0.6-1-0.8
				c-0.1-0.1-0.2-0.2-0.4-0.4c0,0-0.1,0-0.1,0c0,0,0,0,0,0c-0.7,0.1-1.3,0.2-2,0.3c-0.5,0.2-1,0.4-1.5,0.6c0,0.1,0,0.1-0.1,0.2
				c-2.2,1.1-4.8,2.4-7.4,2.8c-0.7,0.2-1.5,0.4-2.4,0.5c-1.3,0.2-2.7,0.2-4,0.1c-0.5,0-1,0-1.4-0.1c-2.2-0.2-4.4-0.8-6.5-1.6
				c-0.3-0.1-0.2-0.6,0.1-0.5c1.8,0.7,3.7,1.2,5.6,1.5c0-0.2,0.2-0.4,0.4-0.2c0.1,0.1,0.3,0.2,0.5,0.3c0.5,0.1,1,0.1,1.6,0.1
				c0.7-0.1,1.6-0.2,2.5-0.5c0-0.1,0-0.2,0.2-0.3c2-0.5,3.9-1.1,5.8-1.8c1.5-0.6,2.9-1.4,4.3-2.2c0.8-0.5,1.6-1.1,2.4-1.2
				c0.7-0.4,1.6-0.4,2.3,0c0.1,0,0.1,0.1,0.1,0.1c0.1,0,0.2,0.1,0.2,0.1c2.1,0.7,2.2,1.9,3.4,2.7c3.3,0.9,7,0,10.3-1.1
				c0.3-0.2,0.6-0.4,0.9-0.7c-0.3,0-0.2-0.5,0.1-0.5c0.3,0,0.6,0.1,0.9,0.1C297.7,117.4,297.8,117.7,297.6,117.8z M286.4,120.4
				c-0.1,0-0.2,0-0.2-0.1c0,0,0,0,0,0C286.2,120.4,286.3,120.4,286.4,120.4z M276.6,118.7c0.1,0,0.2,0,0.2,0.1c0,0,0,0,0,0
				c-0.1,0-0.1-0.1-0.1-0.1C276.6,118.7,276.6,118.7,276.6,118.7z M270.5,121c-0.2,0.1-0.3,0.2-0.5,0.2c0.3-0.1,0.6-0.1,0.9-0.2
				c0.4-0.1,0.9-0.2,1.3-0.4c0-0.1,0-0.1,0-0.2c-0.1,0-0.2,0.1-0.3,0.1C271.7,120.7,271.2,120.8,270.5,121z M266.9,122.3
				c0.2,0,0.4,0,0.6,0c-0.1,0-0.2,0-0.2,0C267.1,122.3,267,122.3,266.9,122.3z M288.4,64.5c3.6-3.6,7.2-7.1,12.1-9
				c0.1,0,0.1-0.6,0-1.1c0-0.3,0-0.6,0-0.9c-2.7,1-8.2,2.7-9.3,5.8c-0.1,0.2-0.1,0.3-0.1,0.5c-0.9,0.9-1.8,1.8-2.7,2.7
				C288.1,62.9,288.8,64.2,288.4,64.5z M339.3,94.8c-0.3-0.4,0.3-1.6,0-2c-0.7-0.8-1-1.4-1.2-2.4c0.3-2.5,1.2-4.9,1.3-7.4
				c0,0.1,0,0.1,0,0.2c0-0.1,0-0.1,0-0.2c0,0,0,0.1,0,0.1c0-0.1,0-0.2,0-0.4c0-0.1,0-0.2,0-0.4c0-0.1,0-0.2,0-0.4
				c0-0.1,0-0.1,0-0.2c0,0,0,0.1,0,0.1c-0.1-2.3-0.5-4.4-1.2-6.6c0.2,0.6-0.2,1.4,0,2c0.6,1.8,1,3.5,1.2,5.3
				C338.8,86.4,336.4,91.4,339.3,94.8z M270.8,146.9c7.5,22,15.3,43.9,21.9,66.2c-0.2-0.6,0.2-1.4,0-2
				c-6.6-22.3-14.4-44.2-21.9-66.2C271,145.5,270.6,146.3,270.8,146.9z M315.8,151.2c-2.1-5.7-4.5-11.3-7.5-16.6
				c0.3,0.5-0.3,1.5,0,2.1c2.9,5.1,5.2,10.4,7.2,15.8C315.5,152,315.6,151.5,315.8,151.2z M322.9,166.3c0.1-1.3,0.1-2.6,0.1-3.9
				c0-5.8-0.8-11.8-5.2-15.9c0.7,0.6-0.7,3.4,0,4c4.6,4.4,5.9,11.4,4.2,17.4c-0.1,0.4-0.3,1.1-0.5,1.9c-0.1,0.1-0.2,0.2-0.3,0.3
				c0,0.1,0.1,0.2,0.1,0.3c-0.6,1.7-1.5,3.5-2.8,3.6c-2.4,0.1-3.1-4.7-3.3-6.8c0.1-6,0.7-12.1,1.1-18.1c0.1-1.2-0.1-2.9,0-3.9
				c-0.4,7.1-1,14.2-1.1,21.3c0,0.4,0,1.1,0,1.9c0,0.3,0,0.5,0,0.8c0-0.2,0-0.3,0-0.5c0.2,4.1,1,11.2,4.4,8.6
				c1.1-0.9,1.9-2.6,2.4-4.5c0.2,0.8,0.5,1.6,0.7,2.5c4.2,14.3,8.9,28.5,14.1,42.5c3,7.9,6.1,15.8,9.4,23.6c-0.2-0.6,0.2-1.5,0-2.1
				c-5.8-13.8-11.1-27.7-15.9-41.9c-2.9-8.6-5.4-17.3-8-26C322.6,169.6,322.8,167.6,322.9,166.3z M311.4,136
				c0.1-1.6,0.3-3.2,0.4-4.6c0,0.1,0,0.2,0.1,0.3c0-0.7,0-1.3,0-2c0,0.3,0,0.7-0.1,1c-0.1-2.3-0.7-4.5-2.9-6.7
				c-0.2-0.2-1.7-1.7-1.9-1.6c-0.2,0.1-0.5,4.7-0.5,5c-0.2,1.5,0.1,4.8-1.2,5.7c-4.4,3.1-4.8-10.7-5-12.4c0.1,0.7-0.1,1.3,0,2
				c0.4,3.2,0.2,7.6,1.5,10.5c1.2,2.8,3.4,3.2,4.3,0.1c0.4-1.5,0.3-3.2,0.5-4.7c0.1-0.8,0.2-1.7,0.3-2.5c-0.3-1.7-0.1-2.1,0.6-1.3
				c2-0.1,3.8,4.5,4.3,6.4c-0.2,2-0.6,4.1-0.4,6.1c0,0,0,0,0,0.1c0,0,0,0,0,0c0,0,0,0,0,0c0.4,3.7,5.4,8.8,7.6,3.3
				c0.4-1.1,0.5-2.5,0.4-3.8c-0.1,1.1-0.4,2.1-0.9,2.8C315.5,143.4,312.1,139.1,311.4,136z M319.3,136.8c0.1-1.7-0.1-3.6-0.5-5.6
				c0.2,1.5,0.3,2.9,0.4,4.4C319.2,136,319.3,136.4,319.3,136.8z M402.1,188.5c-2,3.3-5.6,5-9,6.3c-5,1.9-10,3.5-15.1,5.2
				c0.1,0.3,0.2,0.7,0.3,1c0.3,0.8-0.4,1.2-1,1.2c1.4,5.7,2.8,11.4,4.1,17.1c0.7,2.9,1.3,5.4,1.4,8.3c-1.9-8.5-4-17.1-6.1-25.5
				c-0.2-0.1-0.3-0.3-0.4-0.5c-1.9-5-3.2-10.2-4-15.5c-0.2-0.1-0.3-0.3-0.4-0.5c-6.5-23.7-13.5-47.2-21-70.5
				c-0.1-0.3,0-0.6,0.1-0.8c-0.8-2.8-1.5-5.5-2.3-8.3c-0.1-0.3-0.2-0.6-0.3-0.9c-0.8-1.8-1.7-3.6-2.5-5.5c-0.1-0.2-0.1-0.4-0.2-0.5
				c0,0,0,0,0-0.1c-0.1,0.6-0.2,1.2-0.5,1.8c-1.1,3-3.5,5.9-5.7,8.2c-2.3,2.4-5,3.8-8.3,4.2c-1.7,0.2-3.4,0.1-5.1-0.2
				c-2-0.3-4.9-2-6.9-0.7c-0.1,0.1-0.2,0.1-0.3,0.1c0,0,0,0,0,0c0,0.2,0,0.3,0,0.5c0,0.1,0,0.2,0,0.2c0,0,0-0.1,0-0.2
				c0,0,0,0.1,0,0.1c-2.4,6.1-1.1,12.1-0.3,18.3c-0.5-2.6-1.1-5.1-1.2-6.8c-0.3-4.1-0.2-8.3,1.1-12.2c-0.7-0.2-1-1.3-0.2-1.9
				c1.6-1.1,2.8-0.9,4.7-0.4c4.6,1.1,8.8,2.1,13.1-0.8c3.3-2.3,7.8-7.8,7.8-11.9c0-2.8-2-5.2-2-8.1c0-0.8,0.7-1.1,1.3-0.9
				c0.7-1.8,1-3.5,1-5.2c-0.3-2.1-0.9-4.4-1.8-6.6c-2.4-4.1-7-7.1-12.1-8.1c-1.6-0.3-2.4-0.9-2.8-1.8c-0.1,0-0.2-0.1-0.3-0.1
				c0,0,0,0.1,0,0.1c0,0,0-0.1,0-0.1c-0.3-0.2-0.6-0.5-0.6-1c-0.1-0.7,0.1-1.3,0-2c0,0.4,0.2,0.7,0.5,0.9c0-0.6,0-1.3,0.1-1.9
				c-1-7.1-5.9-11.7-12.1-13.6c-6-1.2-13.2,0.2-18.6,2.5c-1.4,0.8-2.6,1.7-3.8,2.8c-3.3,3-5.3,8.1-9.2,10.4
				c-1.5,0.8-3.1,1.1-4.8,1.1c-1.5,0.3-3,0.4-4.5,0.6c-2.4,0.3-4.7,0.7-7,1.4c-3.4,1.1-6.4,3.1-8.3,6c-0.2,0.5-0.4,0.9-0.6,1.4
				c-1,2.6-1.1,3-3.9,3.8c-1.9,0.5-3.8,0.8-5.7,1.6c-3.4,1.6-6.1,4.1-7.6,7.3c-0.6,1.4-1.2,3-1,4.8c0.2,1.9,0.6,3.6,0.8,5.5
				c0-0.2,0-0.4,0-0.5c0,0.4,0,0.9,0,1.3c0,0.1,0,0.1,0,0.2c0,0.6,0,1.2,0,1.8c0,0,0,0,0,0.1c0,0.1,0,0.2,0,0.3c0-0.1,0-0.1,0-0.2
				c-0.6,5.1-5.2,8.7-5.3,13.8c0,0.3,0,0.7,0,1c0.8,3.3,2.7,6.1,6.2,6.9c0,0,0,0.2,0,0.5c0.8,0.2,1.5,0.2,2.3,0.2
				c0.1,0.5,0.2,1,0.3,1.5c0,0,0.1,0.1,0.1,0.1c1.3,5.7,2.4,11.5,3.4,17.2c1.3,5.8,2.3,11.8,3.7,17.5c2.2,9,4.6,18,7.3,27
				c0.2,0.1,0.4,0.3,0.5,0.6c2.2,7.1,4.4,14.2,6.6,21.2c1.1,3.2,2.3,6.4,3.4,9.6c0.1,0.1,0.1,0.2,0.2,0.3c1.7,4.5,3.4,9,5.2,13.5
				c0.3,0.9,0.7,1.7,1,2.6c1.7,4.2,3.5,8.4,5.3,12.5c0.1,0.2,0.2,0.5,0.3,0.8c1,1.6,2,3,3.2,4.4c0.1,0,0.2-0.1,0.3-0.1
				c13.4-0.5,26.7-2.4,39.7-5.2c-11.5-38.3-23.7-76.4-36.6-114.2c-0.2-0.6,0.2-1.4,0-2C301,169.3,313.4,208,325.1,247
				c12-2.6,23.8-6,35.6-9.7c-7.5-36.9-18-73.2-31.4-108.4c-0.2-0.6,0.2-1.4,0-2c13.5,35.6,24.1,72.1,31.6,109.4c0.1,0.3,0,0.6,0,1
				c3.2-1,6.3-2,9.5-3.1c0.4-0.2,0.8-0.4,1.2-0.6c0.3-0.1,0.5-0.1,0.7,0c1-0.3,2-0.7,3.1-1c0.1,0,0.2,0,0.3,0
				c1.7-0.6,3.4-1.2,5.1-1.8c0.2-0.1,0.3-0.1,0.4-0.1c0,0,0,0,0,0c1.1-0.7,2.1,1,1,1.7c-2.2,1.5-4.5,2.9-6.9,4.1
				c0.1,0.3,0,0.6-0.2,0.8c3.2-1.2,7.8-3.1,8.6-6.5c-0.4-1.5-0.8-2.1-0.8-3.7c5.6,9-9.7,12.9-15.6,15.1
				c-18.6,7.1-37.8,12.7-57.4,16.7c-5.2,1-10.3,2.2-15.6,2.5c-3.1,0.2-5.8,0.6-7.7-0.9c-3.7,0.1-6.6-2.4-8.4-5.8
				c-3.1-6-4.5-13.5-6.5-20c-4.8-15.6-9.7-31.2-14.5-46.8c0,0,0-0.1,0-0.1c-2.4-7.3-4.3-14.7-5.8-22.2c-0.1-0.5-0.2-1-0.3-1.5
				c-1.2-6-2.2-12-3.3-18c-0.2-1.2-0.5-2.4-0.7-3.6c-0.7-3.4-1.6-6.3-1.8-9.6c0.1,0.5,0.3,0.9,0.4,1.4c-0.1-0.7-0.3-1.5-0.4-2.2
				c0,0.3,0,0.5,0,0.8c0-0.1,0-0.1,0-0.2c0-0.2,0-0.5,0-0.7c0-0.2-0.1-0.3-0.1-0.5c0,0.4,0,0.7,0.1,1.1c-0.1-0.6-0.1-1.2-0.2-1.9
				c-0.4-1.8-0.7-3.5-1.1-5.3c-0.6,0-1.2,0-1.8-0.1c-0.2-0.1-0.3-0.1-0.5-0.2c0,0.6-0.1,1.2-0.1,1.7c0,0.1,0,0.2,0,0.3
				c0,0.6-0.1,1.3-0.1,1.9c-0.4,9.9,0.1,19.6,1.6,29.5c0,0.3,0.1,0.6,0.1,0.8c0,0.3,0.1,0.7,0.1,1c0,0.1,0,0.1,0,0.2
				c0.2,2.1,0.1,4.4-0.7,6.4c-0.2,0.4-0.4,0.9-0.6,1.3c-0.4,0.8-0.9,1.6-1.6,2.4c-1.8,2.1-5.1,4.1-6,0.3c-0.5-1.8-0.4-4-0.2-6
				c-2.1,7.6-4.2,15.2-6.3,22.8c-3.4,12-6.7,24.1-10.5,36c-2.4,7.4-5.2,14.7-8.1,21.9c-0.5,1.2-1,2.4-1.5,3.6
				c-0.2,0.6-0.4,1.2-0.6,1.8c-0.7,2.4-1.5,5.1-2.9,7.3c-0.3,0.8-0.6,1.5-1,2c-0.5,0.6-1.1,1-1.9,1.3c-4.3,3.1-10,1.6-14.8,0.4
				c-1.2-0.3-2.5-0.6-3.7-1c-3.3,0.3-6.7,0.6-10,0.9c0,0,0,0,0,0c0.4,0.1,0.5,0.7,0.1,0.9c-3.1,1.6-6.4,2.6-9.8,3.2
				c13.8-0.6,27.6-0.8,41.3,1.5c0.6,0.1,0.4,1-0.1,1c-2.1,0-4.3,0.1-6.4,0.1c-0.3,0.2-0.5,0.4-0.8,0.6c1.5,0.1,3.1,0.3,4.6,0.4
				c0.6,0.1,0.6,0.9,0,1c-3,0.2-6,0.4-9,0.6c-3.9,1.2-8.3,1.5-12.2,2c-1.9,0.3-3.8,0.5-5.7,0.7c6,0,12,0.2,18.1,0.6
				c0.4,0,0.6,0.5,0.4,0.7c1.2,0.1,2.4,0.2,3.7,0.3c0.4,0.1,0.8,0.7,0.3,0.9c-0.9,0.4-1.7,0.8-2.6,1.1c2.1-0.1,4.3-0.2,6.4-0.3
				c0.5,0,0.7,0.7,0.3,0.9c-2.3,1.3-4.9,2.5-7.5,3c0.4,0,0.7,0,0.8,0c1.2,0,2.5,0.1,3.7,0c0.5,0,9.4-1.1,8.5-2.2
				c-0.4-0.5,0.3-1.2,0.7-0.7c0.1,0.2,0.3,0.3,0.4,0.5c0.1,0.1,0.2,0.3,0.1,0.5c-1,2.3-3.6,2.3-5.9,2.6c-4.4,0.5-8.8,0.3-13.1-0.3
				c-0.6-0.1-0.4-1,0.1-1c2.6-0.1,5.2-0.4,7.6-1.3c4.7-1.7,2.5-1,0.4-0.9c-2.5,0.2-5.1,0.3-7.6,0.4c-2,0.3-4,0.4-6.1,0.2
				c-0.4,0-0.6-0.4-0.4-0.7c-2.8,0.3-5.6,0.2-8.5-0.3c-0.5-0.1-0.5-0.9,0-1c4.4-1.1,8.7-1.7,13.1-1.9c-1.3,0-2.5-0.1-2.6-0.1
				c-3.3-0.1-6.6-0.2-9.9-0.2c-6.6,0-13.2,0.2-19.8,0.6c-0.6,0-0.6-1,0-1c6.4-0.3,12.7-0.8,19-1.5c-15.2,0.5-30.4,0.8-45.3-2.8
				c-0.6-0.1-0.4-1,0.1-1c0.5,0,0.9,0,1.4,0c-0.1-0.3,0.1-0.6,0.5-0.6c1.4-0.1,2.8-0.2,4.2-0.3c-10.9,0.3-21.7,0.1-32.5-1.6
				c-0.6,0-1.2,0-1.8,0c-0.2,0-0.4-0.2-0.5-0.4c-1.7-0.3-3.5-0.7-5.2-1c-0.3-0.1-0.4-0.5-0.3-0.7c4.2-7.7,15.7-6.4,23-6.3
				c14,0.1,28,0.1,42.1,0.2c2.3-0.2,4.6-0.4,7-0.6c0.7-0.1,1.4-0.1,2-0.1c-15.9-3.3-31.6-7.8-46.9-13.2c-3.7-1.3-11.4-3.2-15.4-6.7
				c-0.2,0.1-0.4,0.1-0.6-0.1c-4-2.9-4.6-7.5-3.4-12.1c1.8-7.2,4.8-13.7,6.5-21c-0.1-0.2-0.1-0.4,0-0.7c0.1-0.2,0.1-0.4,0.2-0.6
				c0-0.3,0.1-0.5,0.1-0.8c0-0.2,0.1-0.3,0.1-0.4c-6.8-2-14.6-3.5-20.5-7.2c-4.2-2.6-5.5-6.5-5.6-11.2c0-3.5,0.6-6.8,1.3-10.3
				c1.7-7.6,3.5-15.2,5.3-22.8c4.1-17.5,7.8-35.7,13.5-52.8c2.2-6.7,5.9-14.1,13.6-15.2c7.8-1.1,16.9,3.7,23.8,7.1
				c-0.4-1.4-0.7-2.8-0.8-4.2c0,0,0,0.1,0,0.1c0-0.1,0-0.2,0-0.2c-0.1-1.9,0-3.9,0.5-5.8c1.1-4.1,3.9-7.8,7.5-10
				c2.4-1.4,8.2-1.5,9-4.1c0-0.6-0.1-1.3-0.1-1.9c0,0.1,0,0.2-0.1,0.4c0-0.7,0-1.3,0-2c0,0.1,0,0.2,0,0.4c0-0.9,0.1-1.9,0.3-2.8
				c0-0.2,0.1-0.4,0.2-0.7c0.1-0.6,0.3-1.1,0.5-1.6c2.4-6.5,9.2-10.2,16-10.6c6.9-0.4,13.9,2,18.7,7c2.4,2.4,4.1,5.7,6.7,7.9
				c2.8,2.4,5.7,2,9.2,1.7c3.5-0.4,7.3,0,10.5,1.5c0.2,0,0.3,0.1,0.5,0.1c0,0,0,0,0,0.1c2.8,1.3,5.1,3.5,6.4,6.6
				c1.5,3.5,1.5,4.1,5.5,5c3.1,0.7,5.9,1.6,8.4,3.7c1.2,1,1.8,1.9,2,2.8c0.1-0.2,0.2-0.3,0.3-0.5c0,0.2,0,0.5,0,0.7
				c0.7-0.9,1.5-1.7,2.4-2.5c3.1-2.6,6.4-2.9,10-4c1.5-0.5,2.2-1.3,2.7-2.3c0-0.3,0-0.5,0-0.7c0.2-0.5,0.4-0.9,0.6-1.3
				c0-0.1,0.1-0.2,0.1-0.3c0-0.1,0.1-0.1,0.1-0.2c0.2-0.6,0.5-1.2,0.9-1.8c1.1-1.8,2.8-3.3,4.6-4.5c0.7-0.5,1.4-1,2.1-1.4
				c1.9-1.8,4.3-2.8,6.9-2.9c3-0.8,6.3,0.1,9.5,0c0.4,0,0.9,0,1.3-0.1c0,0.2,0,0.4,0,0.6c0,0.1,0,0.2,0,0.3
				c1.1-0.8,2.1-1.8,3.1-3.1c1.7-2.1,3.3-4.1,5.1-5.9c-0.1-0.4-0.2-0.8,0-0.9c0.9-0.6,1.9-1.2,3-1.7c2.6-2,5.6-3.4,9.3-4.1
				c6-1.1,12.7-0.1,17.5,3.9c0.4,0.3,0.7,0.6,1.1,0.9c0-0.2,0-0.4-0.1-0.5c2.5,2.4,4.7,6.8,4.8,10.3c0,1.2,0,2.4-0.1,3.6
				c1.1,0.4,3.1-0.1,4.2,0.2c2,0.4,4,1.6,5.6,2.8c2.1,1.5,3.7,3.9,4.8,6.4c2.2,3.6,3,8,2.3,12.3c-0.1,0.6-0.1,1.1-0.2,1.7
				c4.4-3.8,10.7-6.3,16.7-6.8c4.5-1,9-0.9,12.6,1.7c2.5,1.8,4.4,4.2,6,7c1,1.4,1.9,2.8,2.8,4.3c0.3,0.6,0.1,1.1-0.4,1.3
				c1.8,5.2,2.9,10.9,4.2,15.5c0.4,1.2,0.7,2.5,1,3.7c5.2,13.3,8.2,27.6,11.8,41.2c1.7,6.3,4.5,13.8,4.3,20.8
				C403.9,180.5,404,185.1,402.1,188.5z M187.4,276.8c0.1,0,1.1-0.3,2-0.6c-0.9,0-1.7,0-2.6,0.1c-2.1,0.1-4.3,0.3-6.4,0.7
				c-0.9,0.1-1.8,0.3-2.8,0.5c-1.2,0.2-1.2,0.3-0.2,0.2C180.4,278.5,184.5,277.6,187.4,276.8z M191.8,276.2c-2,0.8-3.9,1.5-5.9,1.9
				c2.2-0.1,4.4-0.2,6.6-0.3c0.8-0.2,1.6-0.6,2.1-1C195.8,275.7,193.1,276.2,191.8,276.2z M275.7,240.2c-0.1-0.2-0.2-0.5-0.3-0.7
				C275.4,239.7,275.5,240,275.7,240.2C275.6,240.2,275.6,240.2,275.7,240.2z M286.2,258.5c0.2,0,0.5,0,0.7,0
				c-0.6-0.3-1.1-0.6-1.6-1c0.1,0.1,0.1,0.2,0.1,0.2C285.7,258,285.9,258.3,286.2,258.5z M354.1,240.3c-1.3,0.4-2.6,0.8-3.9,1.2
				c0.6-0.1,1.2-0.2,1.8-0.2c0.7-0.2,1.4-0.4,2.2-0.6C354.2,240.5,354.1,240.4,354.1,240.3z M318.5,249.3
				c-10.5,2-21.1,3.4-31.8,3.9c0.3,0.1,0.7,0.2,1,0.3c1,0,2,0,3,0.1c0.1,0,0.2-0.1,0.3,0c0.1,0,0.2,0,0.3,0c4.4,0,8.8-0.2,13.3-0.5
				c1.3-0.2,2.7-0.5,4-0.7c0.1-0.5,0.4-0.9,0.9-0.9C312.7,251.2,315.6,250.3,318.5,249.3z M257.7,186.8c-0.5-1.3-0.9-2.6-1.4-3.8
				c0.4,1.3,0.8,2.6,1.2,4C257.6,186.9,257.6,186.9,257.7,186.8z M291.9,259.6c-0.8-0.2-1.7-0.4-2.5-0.7c0,0,0,0,0,0
				c0.1,0.2,0,0.5,0,0.7C290.2,259.7,291.1,259.7,291.9,259.6z M355.8,244.4c3.7-1.3,7.3-2.6,11-4c-4.7,1.4-9.5,2.5-14.4,3.1
				c-3.1,0.8-6.2,1.4-9.4,1.8c-7.1,2.1-14.3,3.9-21.6,5.5c0,0.1-0.1,0.2-0.2,0.3c0.3,0.2,0.3,0.8-0.2,0.9c-1.1,0.2-2.2,0.5-3.3,0.7
				c0.1,0.5-0.1,1-0.7,1.2c-5.4,1.5-10.8,2.6-16.3,3.4c-0.2,0.2-0.4,0.3-0.7,0.3c-0.3,0-0.5,0-0.8-0.1c-0.2,0-0.4,0.1-0.7,0.1
				c-1,0.1-2.3,0.4-3.7,0.7c0.3,0.2,0.4,0.6,0.3,1c0,0,0.1,0,0.1,0c4-0.3,8-1.1,12-1.9C323.7,254.2,339.9,249.9,355.8,244.4z
					M216.2,66c1.2,0.2,2.4,0.6,3.5,1.1c-0.7-0.4-1.5-0.7-2.3-1C217,66,216.6,66,216.2,66z M157.5,62.3c0,0.2-0.1,0.3-0.1,0.5
				c0,0.5,0,0.9,0,1.4c0,0.3,0.1,0.6,0.1,0.9C157.5,64.2,157.5,63.2,157.5,62.3z M159,57.9c1.1-1.5,2.5-2.7,3.8-3.9
				c-1.1,0.8-2.2,1.7-3.1,2.7C159.5,57.1,159.3,57.5,159,57.9z M169,50.1c-0.3,0.1-0.5,0.3-0.8,0.4c0.3-0.1,0.5-0.2,0.8-0.3
				C169,50.2,169,50.1,169,50.1z M165,52.1c0-0.1,0-0.2,0-0.2c-0.2,0.2-0.4,0.4-0.6,0.6C164.6,52.4,164.8,52.3,165,52.1z
					M163.3,53.2C163.3,53.2,163.3,53.2,163.3,53.2C163.3,53.2,163.3,53.2,163.3,53.2C163.3,53.2,163.3,53.2,163.3,53.2z
					M161.3,54.8c0.2-0.2,0.5-0.4,0.7-0.6c0,0,0-0.1,0-0.1C161.7,54.3,161.5,54.5,161.3,54.8z M157.3,63.5c0,0.2,0,0.4,0.1,0.6
				c0-0.4,0-0.8,0-1.2C157.4,63.1,157.3,63.3,157.3,63.5z M93.8,195.2c0.4,0.1,0.8,0.3,1.2,0.4c0.1-0.7,0.3-1.5,0.4-2.2
				c0.1-0.3,0.5-0.2,0.5,0.1c-0.1,0.8-0.3,1.5-0.4,2.3c1.2,0.4,2.4,0.8,3.6,1.2c0.1-0.5,0.3-1,0.5-1.5c0.1-0.3,0.6-0.2,0.5,0.1
				c-0.2,0.5-0.4,1-0.5,1.5c2.8,0.9,5.6,1.8,8.4,2.7c0,0,0,0,0-0.1c0.3-1,0.7-2,1.1-3c-0.2-0.1-0.4-0.1-0.5-0.3
				c-2.5-1.7-5-3.3-7.5-5c-2.1-1.4-4.3-2.7-5.8-4.6c-0.4-0.5-0.7-1-1-1.5c-3.6-3.7-2.7-11.2-2.4-15.9c0.3-6,0.9-11.9,1.6-17.8
				c0.1-3.2,0.1-6.5,0.2-9.7c0,0,0,0,0-0.1c0.5-2.1,1-4.1,1.2-6.2c0-0.5,0.1-0.9,0.1-1.4c3-10.5,6.3-21,9.9-31.4
				c2.1-6,3.6-13.1,10.7-14.9c3-0.8,6.2-0.5,9.2,0.4c1.2,0.4,2.5,0.9,3.7,1.4c0.6,0.2,1.2,0.4,1.9,0.6c0.2,0.1,1.9,0.3,0.9,0.2
				c0.5,0,0.9,0.1,1.4,0.2c1.6,0.2,3.1,0.6,4.5,1.4c0.2,0.1,0.3,0.2,0.5,0.4c0.5-0.6,1-1.2,1.5-1.8c-6.6-3.2-14.7-7.1-21.8-6.1
				c-7.8,1-11.4,8.5-13.6,15.2c-5.7,17.1-9.3,35.2-13.5,52.8c-1.4,5.9-2.7,11.8-4.1,17.7c-1.2,5.5-3.9,12.4-1.4,17.8
				c1,2.2,2.8,3.8,4.8,5c0.3-1.9,0.7-3.8,0.9-5.7c0-0.3,0.5-0.2,0.5,0.1c-0.3,2-0.6,3.9-0.9,5.9c0.9,0.5,1.9,0.9,2.9,1.3
				c0.2-1.4,0.4-2.9,0.5-4.3c0-0.3,0.5-0.3,0.5,0c-0.2,1.5-0.4,3-0.6,4.5C93.5,195.1,93.7,195.2,93.8,195.2z M116.1,234.6
				c0,0.1,0,0.1-0.1,0.2c3.7,1.7,7.7,2.9,11.7,4.1c7.6,2.2,15.1,4.4,22.7,6.5c1,0.3,1.9,0.6,2.9,0.8c2.7,0.5,5.4,1,8,1.5
				c3.2,0.6,6.4,1.2,9.6,1.9c-5-1.7-10-3.3-15.2-4.5c-0.3-0.1-0.6-0.1-0.9-0.2c0,0.1,0,0.1-0.1,0.2c0-0.1,0-0.2,0-0.2
				C141.7,241.9,128.4,239.9,116.1,234.6z M118.1,236.8c-0.6-0.2-1.2-0.5-1.7-0.7c0.1,0.1,0.2,0.1,0.2,0.2c0.1,0.1,0.2,0.2,0.3,0.3
				c0.4,0.2,0.8,0.3,1.2,0.5C118,236.9,118.1,236.8,118.1,236.8z M107.1,220.1c0-0.2,0.1-0.3,0.1-0.5c0,0.1-0.1,0.2-0.1,0.4
				C107,220,107,220,107.1,220.1z M167,250.4c3.7,0.9,7.4,1.7,11.1,2.5c0,0,0,0,0,0c-3.8-1-7.7-1.8-11.6-2.6
				C166.7,250.3,166.9,250.4,167,250.4z M135,239c-1.6-0.4-3.2-0.8-4.9-1.2C131.8,238.2,133.4,238.6,135,239z M135.2,106.9
				c-3.2-1.1-5.5-3.1-9.1-0.7c-2.5,1.7-3.5,6.8-4.3,9.5c-1.7,6-3.2,12-4.7,18c-3,12.1-6.2,24.2-9.3,36.3c-0.4,1.9,5.7,4.5,8.6,5.8
				C122.2,152.7,128.5,129.7,135.2,106.9z M135.2,103.8c-0.2,0.3-0.3,0.6-0.5,0.8c0.3,0.1,0.5,0.2,0.8,0.3
				C135.3,104.5,135.2,104.1,135.2,103.8z M111.8,265.1c1.3-0.5,2.6-1,3.9-1.4c-3.1,0.4-6.1,1-9.1,1.7c-0.7,0.2-1.4,0.4-2,0.5
				c2.3-0.1,4.7-0.1,7,0C111.4,265.6,111.4,265.2,111.8,265.1z M130,262.1c9.3,0.2,18.7,0.2,28-0.2c1.7-0.1,3.5-0.2,5.2-0.3
				c0,0-0.1,0-0.1,0c-4.6-0.6-9.2-1-13.8-1.2c-0.8,0.1-1.5,0.2-2.3,0.2C141.4,261.2,135.7,261.6,130,262.1z M148.8,259.6
				c0.1,0,0.2,0,0.2,0c-0.4,0-0.9,0-1.3,0C148.1,259.5,148.5,259.5,148.8,259.6z M97.4,264.9c0.5,0.5,2.4,0.7,3.8,0.9
				c7-2,14.1-3.2,21.3-4c6.4-1.5,12.9-2.2,19.4-2.3c-9.3,0-18.5-0.1-27.8-0.1c-3.3,0-6.6,0-9.8,0.6c-1.5,0.3-3.3,0.7-4.7,1.5
				c-0.8,0.4-1.6,0.9-2.1,1.7C96.1,263.8,96.1,264.4,97.4,264.9z M162.8,270.8c10.1,0.3,20.3,0.2,30.4-0.4c0.3-0.1,0.5-0.2,0.7-0.3
				c-4.4-0.4-8.7-0.7-13.1-0.9c-12.1,0.3-24.2,0.6-36.3,0.8c0,0,0,0,0.1,0c0.9,0.1,1.8,0.2,2.7,0.2c2.4,0.1,5.1,0,5.8,0.1
				C156.3,270.5,159.6,270.7,162.8,270.8z M143.8,269c0.1,0,0.2,0,0.3,0c-0.6,0-1.2,0-1.8,0.1C142.7,269.1,143.3,269.1,143.8,269z
					M160.3,268.7c-2.4,0-4.9,0-7.3,0.1c-0.1,0-0.1,0-0.2,0c-0.1,0-0.4,0.1-0.6,0.1C154.9,268.8,157.6,268.7,160.3,268.7z
					M180.4,268.2c3.9-0.2,8-0.5,12-0.6c-0.4,0-0.8,0-1.2,0c-3.2-0.2-6.4-0.3-9.6-0.3c-5.6-0.1-11.3,0.1-16.9,0.5
				C169.9,267.7,175.2,267.9,180.4,268.2z M155.5,267.5c-1.7,0.1-3.5,0.2-5.2,0.3c1.1,0,2.2,0,3.3-0.1
				C154.2,267.7,154.8,267.6,155.5,267.5z M163.1,272.5c-9-0.6-18-1.3-27-2.2c-0.5,0-1.1,0-1.6,0c1.4,0.3,2.7,0.8,3.9,0.9
				c3,0.4,6,0.7,9,0.9C152.6,272.5,157.8,272.5,163.1,272.5z M189.1,271.6c-6,0.3-11.9,0.4-17.9,0.3c1.3,0.1,2.5,0.1,3.8,0.2
				c0.5,0,0.6,0.7,0.2,0.9c0.1,0,0.3,0,0.4,0C179.4,272.6,184.6,272.5,189.1,271.6z M195.8,270.2
				C195.8,270.2,195.8,270.2,195.8,270.2C195.8,270.2,195.8,270.2,195.8,270.2C195.8,270.2,195.8,270.2,195.8,270.2z M196.1,268.8
				c-1.3,0-2.6,0.1-3.9,0.1c1.1,0.1,2.2,0.2,3.2,0.3C195.8,269.1,196,268.9,196.1,268.8z M146.6,267.1c-1,0-1.9,0-2.9,0
				c-5.1,0.2-10.3,0.2-15.4,0.1c-5.6,0-11.2,0-16.8-0.1c2.7,0.2,5.4,0.4,8.1,0.5C128.6,267.9,137.6,267.5,146.6,267.1z
					M169.4,262.3c-15.6,1.1-31.3,1.2-47,0.6c0,0,0,0,0,0c-0.2,0-0.4,0-0.5,0.1c-0.8,0.2-1.5,0.4-2.3,0.6c-0.6,0.2-5.6,2-5.8,1.8
				c0.8,0.7,4.8,0.3,6,0.4c2.4,0.2,4.8,0.3,7.3,0.4c6.6,0,13.2,0,19.8-0.2c0.2,0,0.4,0,0.5-0.1c0.1,0,3-0.7,1.4-0.4
				c-0.6,0.1-0.9-0.9-0.3-1c1.6-0.3,2.2,0.1,3.2,1.3c4.5-0.1,9-0.1,13.4-1c1.1-0.2,6-1.5,5.8-2.1
				C170.9,262.6,170.3,262.4,169.4,262.3z M181.4,260.7c-1.4-0.4-2.9-0.8-4.3-1.3c-1.4-0.2-2.7-0.5-4.1-0.8
				c-4-0.1-8.1,0.2-12.2,0.6c-0.1,0.2-0.2,0.3-0.4,0.3c-0.8,0-1.6,0-2.4,0c-1,0.1-1.9,0.2-2.9,0.3c4.5,0.3,8.9,0.8,13.4,1.5
				c2.5-0.2,4.9-0.3,7.4-0.5C177.1,260.7,179.5,260.9,181.4,260.7z M241.6,125.1c-1.6-0.6-2.8-1-4.1-2.4c-1.5-1.7-2-3.8-2.2-6
				c-0.1-0.5-0.1-1-0.2-1.5c0,0,0,0.1,0,0.1c0-0.1,0-0.3,0-0.4c0-0.2,0-0.3,0-0.5c0-0.1,0-0.2,0-0.3c0-0.2,0-0.4,0-0.6
				c0,0.1,0,0.1,0,0.2c0.3-5.4,4.5-9.2,5.5-14.4c-0.3-2.1-0.8-4.3-0.9-6.4c0,0.2,0,0.3,0,0.5c0-0.3,0-0.7,0-1c0-0.8-0.1-1.6,0-2.5
				c0.1-1,0.3-1.9,0.7-2.8c0.4-1.2,1-2.3,1.7-3.6c-1.8-2.7-8-4.4-10.3-4.8c-1.9-0.4-3.5-0.3-4.6-2.1c-1.2-1.9-1.2-3.8-2.6-5.6
				c-2.6-3-6.8-4.5-10.8-4.8c-1.4,0.2-2.8,0.4-4.3,0.6c-0.2,0-0.4,0.1-0.5,0.1c-0.4,0.1-0.8,0.3-1.2,0.4c0-0.1,0-0.3,0-0.4
				c-0.1,0-0.1,0-0.2,0c0,0,0,0,0,0c-0.3,0-0.6,0-0.9,0c0,0,0-0.2,0-0.4c-0.4,0.1-0.8,0.2-1.2,0.2c0.1,0,0-0.6,0-1
				c-2.2,0-4.2-0.4-6.2-2.3c-3.6-3.4-5.8-7.9-10.1-10.6c-3.5-2.2-7.6-3.5-11.7-3.8c-3.4,0.2-3,0.4,0.1,0.1c0,0,0,0.1,0,0.2
				c0.5,0,1,0,1.5,0.1c0,0,0,0.2,0,0.4c0.2,0,0.3,0,0.5,0.1c0.3,0,0.6,0,0.8,0.1c1.8,0.4,3.6,0.9,5.4,1.5c0,0,0,0.1,0,0.3
				c1.5,0.7,3,1.6,4.4,2.6c0.1,0.1-0.1,0.4,0,0.5c-1.4-1.1-2.9-1.9-4.5-2.6c0,0.1,0,0.3,0,0.3c-1.9-0.4-3.7-1-5.6-1.5
				c-2.2-0.3-4.5-0.5-6.8-0.6c-0.3,0-0.6,0-0.8,0.1c-2.4,0.4-4.8,1.2-7.1,2.4c0,0,0-0.1,0-0.3c0,0,0,0-0.1,0
				c-0.3,0.2-0.6,0.5-0.9,0.7c-2,1.8-4.7,3.9-6,6.4c-0.3,0.8-0.6,1.6-0.7,2.5c0,1.1,0,2.3,0,3.3c0.1,1.8-0.2,3.5-2.1,4.1
				c-3.7,1.2-6.7,1.5-9.8,4.3c-3.2,2.9-4.9,6.6-5.3,10.8c0.3,2,0.7,3.8,1.6,5.7c0,0.1,0,0.4,0,0.7c0,0.4,0,0.9,0,1.3
				c0,0,0-0.1-0.1-0.1c0,0.1,0,0.1,0.1,0.1c-0.3-0.2-0.7-0.3-1-0.5c0,0-0.1,0.1-0.1,0.1c-5.6,5.2-5.2,14.7,1.1,19.2
				c1,0.7,0,2.5-1,1.7c-1.7-1.2-3.1-2.8-4.1-4.6c-6.7,22.9-13,45.9-18.8,69.1c0,0.2-0.1,0.3-0.3,0.4c0,0.2,0,0.4,0,0.6
				c-0.3,1.4-0.6,2.7-0.8,4.1c0,2-0.4,4.1-1.2,6c0,0.1-0.1,0.2-0.1,0.3c-0.1,0.5-0.2,1-0.3,1.5c-0.4,1.9-0.7,3.8-1.4,5.6
				c-0.2,0.5-0.4,1-0.6,1.5c-0.5,2.2-1.1,4.3-1.8,6.4c-1.5,6.9-2.6,13.8-3.2,20.9c0,0.1,0.1,0.2,0.1,0.3c0,1,0.1,2,0.3,2.9
				c0,0,0,0,0.1,0.1c0.1,0.1,0.1,0.2,0.2,0.3c0,0,0,0,0,0c1.7,1.8,3.7,3.1,5.8,4.1c0.1,0,0.2,0,0.3,0.1c0.7,0.3,1.5,0.7,2.3,1
				c3.9,1.4,8.3,2.2,12.3,3.1c7.3,1.8,14.6,3.7,21.8,5.8c0.7,0.2,1.4,0.4,2.1,0.6c0.4,0.1,0.8,0.2,1.3,0.3c0-0.1,0-0.1,0-0.2
				c0-0.1,0-0.2,0-0.2c0-1.2,0-2.4,0-3.7c0-1,0,1.5,0,1.9c0,0.4,0,0.9,0,1.3c11.3-35.8,22.6-71.5,34-107.3c-0.3,0.8,0.3,1.8,0,2.6
				c-11.2,35.2-22.3,70.5-33.5,105.7c0.9,0.2,1.7,0.4,2.6,0.6c12.6,3.1,24.6,8.7,37.3,11.5c1,0.1,2,0.2,3,0.2c0.1,0,0.2,0,0.2,0.1
				c0.9,0.1,1.9,0.4,2.5,0.7c0.3,0.1,0.5,0.6,0.3,0.8c-0.9,2.3-5.2,1.1-7.1,0.9c-2.9-0.4-5.5-1.2-8.1-2.2c-1.6-0.3-3.1-0.6-4.7-1
				c-1.2-0.2-2.4-0.5-3.6-0.8c-5.7-1.2-11.4-2.5-17-3.9c-5-0.6-9.8-1.6-14.7-2.6c-3.8-0.8-7.7-1.4-11.6-2c-1.5-0.2-2.9-0.4-4.3-1
				c-0.1,0.1-0.3,0.1-0.6,0c-2.6-0.9-5.2-1.9-7.7-2.9c-4-0.8-8.3-2.8-11.8-4c-0.3,0.1-0.7,0.1-0.9-0.3c0,0,0,0,0,0
				c0,0.1-0.1,0.1-0.1,0.2c3.4,1.9,7.9,2.9,10.5,3.8c11.3,4.1,22.8,7.6,34.4,10.6c5.6,1.4,11.3,2.7,17,3.8c0-0.1,0-0.2,0-0.2
				c0.5,0.2,1,0.4,1.6,0.5c3.7,0.7,7.4,1.4,11.1,2c5.1,0.9,10.5,1.8,15.8,1.4c0.7-0.1,1.2-0.2,1.7-0.4c1-0.9,1.9-2,2.3-3.7
				c0.2-0.6,0.9-0.6,1.3-0.3c0.5-1.4,1-2.9,1.6-4.5c5.2-12.4,9.9-25,13.8-37.9c5.2-17.5,10.1-35.1,14.8-52.7
				c0.1-0.4,0.1-0.8,0.2-1.2c0-0.3,0-0.6,0-1c0.2-2,0.4-3.9,0.6-5.9c0-0.6-0.1-1.2-0.1-1.7c-0.1-0.7,0.1-1.3,0-2
				c0.1,0.9,0.2,1.9,0.2,2.8c0.1-1.2,0.2-2.4,0.2-3.6c0-0.6,0.2-3.9-0.6-4.2c-1-0.5-0.9,0.4-1.5,1c-1.5,1.3-1.9,3-4.4,2.1
				c-1.7-0.6-2.5-2.3-2.7-3.9c-0.6-3.4,0.8-6.9,1.4-10.2c-0.2-1.4-0.6-2.2-1.9-3.3c-0.2-0.2,0-1,0.1-1.5c-0.1,0-0.3,0-0.5,0
				c-0.4,0.1-0.8,0.1-1.2,0.2c-0.1,0-0.2,0-0.2-0.1c-3.2,0.4-6.2,0-9.1-0.7c-2-0.3-4-0.7-6-1.3c-1.6-0.5-3.1-1.2-4.6-1.9
				c-1.3-0.3-2.6-0.5-3.9-0.8c-0.2,0-0.2-0.3-0.1-0.4c-0.2-0.1-0.5-0.1-0.7-0.2c0,0,0,0,0,0c-0.2,0-0.4-0.1-0.6-0.1
				c-0.2,0-0.2-0.2-0.1-0.3c-0.1,0.1-0.2,0.2-0.3,0.1c-0.2-0.1-0.3-0.2-0.5-0.3c-0.3,0-0.7,0-1,0c-0.1,0-0.2-0.1-0.2-0.1
				c-0.5,0-1-0.1-1.3-0.3c-0.1,0-0.2,0.1-0.3,0.1c-0.1,0.1-0.2,0.2-0.3,0.1c0,0,0,0,0,0c0,0,0,0,0,0c0,0-0.1,0-0.1,0
				c-0.1,0-0.1,0-0.2,0c0,0,0,0,0,0c-0.1,0.1-0.2,0-0.3,0c0,0-0.1,0-0.1,0c0,0,0,0,0,0c0,0-0.1,0-0.1,0c-0.1,0-0.2,0-0.2,0
				c0,0-0.1,0-0.1,0c-0.1,0-0.2,0-0.2,0c-0.1,0-0.2,0-0.2,0c-0.1,0-0.2-0.1-0.2-0.2c-0.1,0.1-0.2,0.1-0.2,0.1
				c-0.2,0.1-0.3,0-0.3-0.1c-0.3,0.1-0.5,0.1-0.8,0.2c-0.2,0-0.3,0.1-0.5,0.1c-0.1,0-0.2,0.1-0.2,0.1c-0.1,0.1-0.2,0.1-0.2,0.2
				c-0.1,0.1-0.2,0.1-0.3,0c-0.4,0.1-0.8,0.2-1.3,0.3c-0.4,0-0.8,0-1.1-0.1c-0.1,0-0.3,0-0.4,0.1c-0.2,0-0.3-0.1-0.3-0.3
				c-1.2-0.5-2-1.6-2.7-2.7c0,0-0.1-0.1-0.1-0.1c0,0,0-0.1,0-0.1c-0.1-0.2-0.2-0.3-0.3-0.5c-0.2-0.3,0.3-0.5,0.4-0.3
				c0.1,0.2,0.2,0.3,0.3,0.5c0.1,0,0.2,0,0.2,0.1c0.2,0,0.2,0.3,0.1,0.4c0.1,0.1,0.2,0.3,0.3,0.4c0.9,0.9,2.1,1.4,3.4,1.4
				c0-0.1,0-0.3,0.2-0.3c0.5-0.1,1-0.1,1.4-0.2c0.5-0.1,0.9-0.3,1.4-0.4c0,0,0,0,0,0c0.1,0,0.1,0,0.2,0c0.7-0.2,1.4-0.3,2.2-0.5
				c0.2,0,0.3,0.1,0.3,0.2c0.4-0.1,0.7-0.1,1.1-0.1c0.1,0,0.1,0,0.2,0.1c0.6,0,1.3,0.2,1.9,0.4c0.6,0.1,1.3,0.2,1.9,0.4
				c0.5,0.2,1,0.4,1.5,0.6c0,0,0.1,0,0.1,0c0.5,0.3,0.9,0.5,1.4,0.8c1.7,0.7,3.3,1.4,4.9,2c1.1,0.2,2.2,0.4,3.3,0.6
				c0.2,0,0.2,0.4,0,0.5c-0.1,0-0.2,0.1-0.4,0.1c1.7,0.7,3.5,1.2,5.3,1.6c2.9,0.4,5.9,0.6,8.9,0.3c0.3-0.1,0.6-0.1,1-0.1
				c0.4-0.1,0.8-0.2,1.2-0.3c0.3-0.1,0.4,0.2,0.2,0.4c0,0,0,0,0,0.1c0,0.1,0,0.2-0.2,0.2c-0.3,0.1-0.6,0.1-0.9,0.2
				c0,0,0.1,0.1,0.1,0.1c0.4,0,0.6,0,0,0c1.5,1.6,1.8,3.9,1.5,6.2c0,0,0,0,0,0c0,0,0,0,0,0c-0.3,2.3-1,4.8-1.4,6.7
				c0.3,1.9,1.1,3.7,3.2,4.1c2.2,0.4,2.5-1.1,3.8-2.3c1.4-1.3,1.3-1.5,2,0.6c0.3,0.9,0.2,2,0.2,3c0,2.1-0.1,4.2-0.2,6.3
				c0,2.3-0.2,4.6-0.5,6.9c0,0.3,0,0.6,0,0.9c0,0.3,0.1,0.6,0,0.8c-0.1,0.5-0.3,1.5-0.5,2.6c-0.2,1.5-0.3,3-0.4,4.5
				c0.5,2.6,2.4,3.5,4.9,1.8c1.1-0.8,1.9-1.9,2.6-3.1c1.4-3.2,1-7.4,0.4-10.7C240.4,146.2,240.9,135.3,241.6,125.1z M235.7,153.5
				c-0.1,1.4-0.2,2.8-0.4,4.1C235.5,156.3,235.7,154.9,235.7,153.5z M204.9,123.3c-0.2-0.1-0.5-0.2-0.7-0.3c0,0.1-0.1,0.1-0.2,0.1
				c0,0,0,0,0,0c0,0,0,0,0,0c0.4,0.1,0.7,0.2,1.1,0.4c0.1,0,0.2,0,0.3,0.1C205.3,123.4,205.1,123.4,204.9,123.3z M200.4,121.3
				c0,0-0.1,0-0.1,0C200.3,121.3,200.4,121.3,200.4,121.3C200.4,121.3,200.4,121.3,200.4,121.3
				C200.4,121.3,200.4,121.3,200.4,121.3z M199.2,121.8c0,0.1,0,0.1,0,0.2c0.1-0.1,0.1-0.1,0.2-0.1c0.2,0,0.4,0.1,0.6,0.1
				c-0.2-0.1-0.4-0.1-0.5-0.2c0,0-0.1,0-0.1,0C199.2,121.8,199.2,121.8,199.2,121.8z M226.1,127.6c0,0,0.1,0,0.1,0c0,0,0,0,0,0
				C226.2,127.6,226.1,127.6,226.1,127.6z M235.5,112.9c-0.1,0.4-0.2,0.9-0.3,1.4c0,0.1,0,0.2,0,0.3
				C235.3,114,235.4,113.4,235.5,112.9z M239.8,91.6c0,0.2-0.1,0.4-0.1,0.6c0.1,0.4,0.1,0.9,0.2,1.3
				C239.9,92.9,239.8,92.3,239.8,91.6z M375.1,189.8c0.8-0.1,1.6-0.3,2.4-0.5c0.6-0.2,1-0.4,1.5-0.7c2.1-1.3,3.7-3.6,4.9-5.7
				c-0.2-0.9-0.4-1.8-0.6-2.7c-2.9,2-5.9,3.7-9.1,5.3C374.6,187,374.8,188.4,375.1,189.8z M353.8,113c-0.3-0.1-0.6-0.2-0.9-0.4
				c0.1,0.2,0.1,0.4,0.2,0.6C353.2,113.2,353.5,113.1,353.8,113z M378,198c0.2-0.1,0.3-0.1,0.5-0.2c-0.1,0-0.2,0-0.3-0.1
				C378.1,197.8,378.1,197.9,378,198z M383,196.2c2-0.7,4.1-1.4,6.1-2.1c-0.3,0.1-0.7,0.2-1,0.2c-0.7,0.1-1.4,0.1-2.1,0
				C384.9,194.8,383.9,195.4,383,196.2z M381.2,95.7c-0.3,0-0.5-0.2-0.7-0.5c-3.9-6.6-8.7-12-17-12.1c-1,0-2,0-3,0.2
				c-5.4,1.2-10.9,4.1-15.3,6.4c-0.4,0.3-0.7,0.7-1.1,1c0,0-0.1,0-0.1,0.1c0.1,0.4,0.2,0.8,0.3,1.2c0.5-0.9,1.3-1.6,2.4-1.7
				c3.1-0.4,6.3-0.9,9.4-1.3c3-0.4,6.2-1.2,9.3-1.1c6.4,0.1,10,4.8,13.1,9.8c2.7,4.2,5,8.7,7,13.2
				C384.3,106,383.2,100.6,381.2,95.7z M327.2,61.7c0-0.2,0-0.4,0-0.7c0,0.4,0,0.7,0,1.1c0,0.1,0,0.1,0,0.2c0,0.7-0.1,1.4,0,2
				c0.2-1.7,0.2-3-0.2-4.4C327.1,60.6,327.1,61.1,327.2,61.7z M373.6,183.7c3-1.6,5.9-3.3,8.7-5.1c-3.1-11.7-6.6-23.3-9.8-35
				c-1.8-6.6-3.6-13.2-5.6-19.8c-0.9-2.9-1.8-7.7-4.6-9.4c-3.5-2.2-6-0.2-9.1,0.9C360.5,138,367.3,160.8,373.6,183.7z M403.3,178.1
				c-0.1,1-0.2,2-0.5,2.9c0,2.8-0.9,5.3-2.9,7.6c-0.8,1-1.8,1.8-2.9,2.4c0.9-0.5,1.9-1.1,2.7-1.8
				C403.2,186.3,403.8,182.3,403.3,178.1z M382.9,227C382.9,227.1,382.9,227.1,382.9,227c0-0.2,0-0.4,0-0.7c0,0.4,0,0.8,0,1.3
				c0,0,0,0,0-0.1c0,0.3,0,0.5,0,0.8C382.9,227.9,382.9,227.5,382.9,227z M245.4,133c0,0.5,0,1,0,1.5
				C245.4,134,245.4,133.5,245.4,133z M245.4,132.7c0,0.1,0,0.2,0,0.2C245.4,132.8,245.4,132.8,245.4,132.7
				C245.4,132.7,245.4,132.7,245.4,132.7C245.4,132.6,245.4,132.7,245.4,132.7z M245.4,133c0-0.1,0-0.2,0-0.3c0,0,0,0,0,0
				C245.3,132.8,245.4,132.9,245.4,133z M184.1,250c11.8-35,22.6-70.4,32.3-106.1c0.2-0.8-0.2-1.8,0-2.7
				c-9.7,35.7-20.5,71-32.3,106.1C183.8,248.1,184.3,249.2,184.1,250z M161,124.7c-12.6,34.6-26.1,68.9-40.4,102.9
				c0-0.1,0-0.3,0.1-0.4c-0.2,0.6-0.4,1.2-0.7,1.8c-0.2,0.4-0.1,0.9,0,1.4c0,0.5,0,1,0,1.5c14.5-34.4,28.2-69.2,41-104.3
				C161.3,126.7,160.7,125.6,161,124.7z"/>
			<path fill="#EBE2C4" d="M213.3,145.9c0.5-1.7,3-1,2.6,0.7c-9.7,35.7-20.5,71-32.3,106.1c-0.5,1.6-3.1,0.9-2.6-0.7
				C192.8,217,203.6,181.6,213.3,145.9L213.3,145.9z M188.4,135c-12.4,37.5-24.7,75-37.1,112.5c0.9,0.1,1.8,0.2,2.8,0.4
				c0-1.3,0-2.6,0-3.8c0-1.8-2.8-1.8-2.8,0c0,1.3,0,2.6,0,3.8c0,1.6,2.3,1.9,2.8,0.4c12.4-37.5,24.7-75,37.1-112.5
				C191.7,134,189,133.3,188.4,135L188.4,135z M159.6,126.8c-13.4,36-27.7,71.7-42.9,107c0.9,0.4,1.8,0.8,2.7,1.2
				c0.2-0.6,0.5-1.2,0.7-1.8c0.7-1.8-2.2-2.6-2.9-0.8c-0.2,0.6-0.5,1.2-0.7,1.8c-0.6,1.6,2.1,2.7,2.7,1.2
				c15.3-35.6,29.7-71.5,43.2-107.7C163.1,125.8,160.2,125,159.6,126.8L159.6,126.8z M118.3,107.9c-0.2,0.6,0.2,1.4,0,2
				c-2.3,7.7-4.6,15.4-6.9,23.2c0.2-0.6-0.2-1.4,0-2C113.7,123.4,116,115.7,118.3,107.9L118.3,107.9z M109.8,142.3
				c-1.9,5.7-3.8,11.5-5.5,17.3c-0.2,0.6,0.2,1.4,0,2c1.7-5.8,3.5-11.6,5.5-17.3C110,143.7,109.6,142.9,109.8,142.3L109.8,142.3z
					M109.7,127.8c-1.9,7.8-4.1,15.4-6.6,23.1c-0.2,0.6,0.2,1.4,0,2c2.5-7.6,4.6-15.3,6.6-23.1C109.9,129.2,109.6,128.5,109.7,127.8
				L109.7,127.8z M114.4,104.8c-1.6,5.3-3.2,10.6-4.8,15.9c-0.2,0.6,0.2,1.4,0,2c1.6-5.3,3.2-10.6,4.8-15.9
				C114.6,106.2,114.2,105.4,114.4,104.8L114.4,104.8z M108,112.3c-4.1,10.4-7.1,21.1-8.9,32.1c-0.1,0.7,0.1,1.4,0,2
				c1.9-11,4.8-21.7,8.9-32.1C108.2,113.7,107.7,112.8,108,112.3L108,112.3z M100.3,150.9c-0.6,2.2-1.1,4.4-1.7,6.6
				c-0.2,0.6,0.2,1.4,0,2c0.6-2.2,1.1-4.4,1.7-6.6C100.5,152.3,100.2,151.5,100.3,150.9L100.3,150.9z M101.8,158.7
				c-1,3.3-1.9,6.5-2.9,9.8c-0.2,0.6,0.2,1.4,0,2c1-3.3,1.9-6.5,2.9-9.8C102,160.1,101.6,159.3,101.8,158.7L101.8,158.7z
					M95.6,164.4c-0.7,7.4-1.4,14.7-2.1,22.1c-0.1,0.7,0.1,1.3,0,2c0.7-7.4,1.4-14.7,2.1-22.1C95.7,165.7,95.6,165,95.6,164.4
				L95.6,164.4z M101.5,174.7c-1.3,5.6-2.6,11.1-3.9,16.7c-0.1,0.6,0.1,1.4,0,2c1.3-5.6,2.6-11.1,3.9-16.7
				C101.7,176,101.4,175.3,101.5,174.7L101.5,174.7z M104.8,177.4c-0.3,2.6-0.8,5.1-1.5,7.6c-0.2,0.6,0.2,1.4,0,2
				c0.7-2.5,1.2-5,1.5-7.6C104.9,178.7,104.7,178,104.8,177.4L104.8,177.4z M110.6,176.3c-1.6,4.4-2.7,8.9-3.4,13.5
				c-0.1,0.7,0.1,1.4,0,2c0.7-4.6,1.8-9.1,3.4-13.5C110.8,177.7,110.4,176.8,110.6,176.3L110.6,176.3z M111.4,185
				c-1.3,4.3-2.6,8.6-3.9,12.9c-0.2,0.6,0.2,1.4,0,2c1.3-4.3,2.6-8.6,3.9-12.9C111.6,186.4,111.2,185.6,111.4,185L111.4,185z
					M106.9,103.8c-1.7,4.7-3.3,9.4-4.7,14.1c-0.2,0.6,0.2,1.4,0,2c1.4-4.8,3-9.5,4.7-14.1C107.2,105.2,106.7,104.4,106.9,103.8
				L106.9,103.8z M115.8,84.9c-2.3,6.3-4.5,12.7-6.6,19c-0.2,0.6,0.2,1.4,0,2c2.1-6.4,4.4-12.7,6.6-19
				C116.1,86.3,115.6,85.5,115.8,84.9L115.8,84.9z M118,92.8c-0.8,2.2-1.6,4.3-2.4,6.5c-0.2,0.6,0.2,1.4,0,2
				c0.8-2.2,1.6-4.3,2.4-6.5C118.2,94.2,117.8,93.4,118,92.8L118,92.8z M119,103.9c2.3-5,4.1-10.1,5.4-15.4c0.2-0.6-0.2-1.4,0-2
				c-1.3,5.3-3.2,10.4-5.4,15.4C118.7,102.5,119.2,103.4,119,103.9L119,103.9z M126.9,96.6c-1.1,4.1-2.2,8.2-3.5,12.2
				c-0.1,0.3,0.4,0.4,0.5,0.1c1.3-4,2.4-8.1,3.5-12.2C127.5,96.4,127,96.3,126.9,96.6L126.9,96.6z M333.6,187.6
				C333.5,187.5,333.5,187.5,333.6,187.6C333.5,187.5,333.5,187.5,333.6,187.6C333.5,187.5,333.5,187.5,333.6,187.6z M347.9,88.8
				c1.8,4.5,3.6,9,5.4,13.5c-0.2-0.6,0.2-1.4,0-2c-1.8-4.5-3.6-9-5.4-13.5C348.1,87.3,347.7,88.2,347.9,88.8L347.9,88.8z
					M354.8,98.6c0.6,2.7,1.4,5.2,2.4,7.7c-0.2-0.6,0.2-1.4,0-2c-1.1-2.5-1.9-5.1-2.4-7.7C354.9,97.2,354.7,97.9,354.8,98.6
				L354.8,98.6z M355.3,92.8c1.4,3.5,2.7,7.1,4,10.7c-0.2-0.6,0.2-1.4,0-2c-1.2-3.6-2.6-7.2-4-10.7
				C355.5,91.3,355.1,92.2,355.3,92.8L355.3,92.8z M360.7,97.3c1.3,4.6,2.7,9.2,4.1,13.8c-0.2-0.6,0.2-1.4,0-2
				c-1.4-4.6-2.8-9.2-4.1-13.8C360.9,95.9,360.5,96.7,360.7,97.3L360.7,97.3z M360.9,107.2c0.9,2.9,1.7,5.9,2.2,8.9
				c-0.1-0.6,0.1-1.4,0-2c-0.6-3-1.3-6-2.2-8.9C361.1,105.8,360.7,106.6,360.9,107.2L360.9,107.2z M364,91.2
				c1.5,4.3,3,8.6,4.5,12.9c-0.2-0.6,0.2-1.4,0-2c-1.5-4.3-3-8.6-4.5-12.9C364.2,89.8,363.8,90.6,364,91.2L364,91.2z M368.5,116.1
				c2.3,4.1,2.6,9.5,3.8,14c1.4,5.2,3.1,10.3,5,15.3c-0.2-0.6,0.2-1.4,0-2c-2-5-3.7-10.1-5-15.3c-1.2-4.5-1.5-9.9-3.8-14
				C368.7,114.6,368.2,115.6,368.5,116.1L368.5,116.1z M376.6,130.9c4.3,13.1,8.6,26.1,12.9,39.2c-0.2-0.6,0.2-1.4,0-2
				c-4.3-13.1-8.6-26.1-12.9-39.2C376.8,129.5,376.4,130.3,376.6,130.9L376.6,130.9z M384.2,162.7c1,3.9,2,7.9,3,11.8
				c0.3,1.1,2.5,9,2.6,8.9c0.1-0.1,0.1-1.9,0-2c0,0-0.1-0.1-0.1-0.1c0.3,0.4-0.3,1.6,0,2c0,0,0.1,0.1,0.1,0.1c0-0.7,0-1.3,0-2
				c-0.1,0.1-2.3-7.8-2.6-8.9c-1-3.9-2-7.9-3-11.8C384.3,161.4,384,162.1,384.2,162.7L384.2,162.7z M378.9,151.3
				c0.9,2.3,1.5,4.7,1.8,7.1c-0.1-0.7,0.1-1.3,0-2c-0.3-2.4-0.9-4.8-1.8-7.1C379.2,149.9,378.7,150.7,378.9,151.3L378.9,151.3z
					M376.2,117.8c2.2,5.8,4,11.8,5.4,17.8c-0.1-0.6,0.1-1.4,0-2c-1.4-6.1-3.2-12-5.4-17.8C376.4,116.4,376,117.2,376.2,117.8
				L376.2,117.8z M384.8,133.2c1.8,5.4,3.5,10.8,5.3,16.2c-0.2-0.6,0.2-1.4,0-2c-1.8-5.4-3.5-10.8-5.3-16.2
				C385,131.8,384.6,132.6,384.8,133.2L384.8,133.2z M387.4,150.1c2.2,5.6,4.4,11.3,6.6,16.9c-0.2-0.6,0.2-1.4,0-2
				c-2.2-5.6-4.4-11.3-6.6-16.9C387.7,148.7,387.2,149.6,387.4,150.1L387.4,150.1z M386.2,124.8c1.7,5.1,3.4,10.2,5.1,15.4
				c-0.2-0.6,0.2-1.4,0-2c-1.7-5.1-3.4-10.2-5.1-15.4C386.4,123.4,386,124.2,386.2,124.8L386.2,124.8z M396.1,153.5
				c1.8,7.1,3.8,14.2,5.8,21.3c-0.2-0.6,0.2-1.4,0-2c-2-7.1-3.9-14.2-5.8-21.3C396.2,152.1,395.9,152.9,396.1,153.5L396.1,153.5z
					M394.2,174.9c2.3,7.4,4.8,14.8,6.4,22.4c-0.1-0.6,0.1-1.4,0-2c-1.7-7.6-4.1-15-6.4-22.4C394.4,173.5,394,174.3,394.2,174.9
				L394.2,174.9z M391.2,192.7c0.7,1.5,1.2,3,1.5,4.6c-0.1-0.6,0.1-1.4,0-2c-0.3-1.6-0.8-3.1-1.5-4.6
				C391.4,191.2,390.9,192.1,391.2,192.7L391.2,192.7z M384.3,182.8c0,0-0.1,0-0.1-0.1c0,0.7,0,1.3,0,2c0.3-0.5,0.6,0.9,0.6,0.9
				c0.3,0.9,0.6,1.9,0.8,2.9c0.6,1.9,1.1,3.8,1.7,5.7c-0.2-0.6,0.2-1.4,0-2c-0.6-1.9-1.1-3.8-1.7-5.7c-0.3-1-0.5-1.9-0.8-2.9
				c0,0-0.3-1.4-0.6-0.9c-0.1,0.2-0.1,1.9,0,2c0,0,0.1,0,0.1,0.1C384,184.6,384.6,183,384.3,182.8L384.3,182.8z M382.4,191.7
				c1,2.7,1.7,5.5,2,8.4c-0.1-0.7,0.1-1.3,0-2c-0.3-2.9-1-5.7-2-8.4C382.6,190.3,382.1,191.1,382.4,191.7L382.4,191.7z M378.3,191
				c-0.5-2.8-1.7-5.4-3.5-7.7c0.3,0.4-0.3,1.6,0,2c1.8,2.3,3,4.8,3.5,7.7C378.2,192.3,378.4,191.6,378.3,191L378.3,191z
					M372.6,99.9c1.2,3.9,2.4,7.8,3.5,11.7c-0.2-0.6,0.2-1.4,0-2c-1.2-3.9-2.4-7.8-3.5-11.7C372.8,98.5,372.4,99.2,372.6,99.9
				L372.6,99.9z M378.7,107c1.2,5.8,2.6,11.5,4.4,17.2c-0.2-0.6,0.2-1.4,0-2c-1.8-5.7-3.2-11.4-4.4-17.2
				C378.8,105.6,378.5,106.3,378.7,107L378.7,107z M383.3,110.7c0.9,3.1,1.8,6.1,2.7,9.2c-0.2-0.6,0.2-1.4,0-2
				c-0.9-3.1-1.8-6.1-2.7-9.2C383.5,109.3,383.2,110,383.3,110.7L383.3,110.7z M352.6,108.7c1.1,2.3,2.1,4.7,2.8,7.2
				c-0.2-0.6,0.2-1.4,0-2c-0.8-2.5-1.7-4.9-2.8-7.2C352.9,107.2,352.4,108.2,352.6,108.7L352.6,108.7z"/>
		</g>
	</g>
	<g>
		<g>
			<rect x="409.3" y="211" transform="matrix(0.3071 -0.9517 0.9517 0.3071 78.654 587.155)" fill="#902E1B" width="66.4" height="57.2"/>
			<rect x="432.7" y="238.2" transform="matrix(0.2953 -0.9554 0.9554 0.2953 50.5026 602.4718)" fill="#DAC68B" width="2" height="57.6"/>
			<rect x="398.8" y="230.8" transform="matrix(0.9218 -0.3876 0.3876 0.9218 -62.4507 179.1802)" width="28.4" height="27.2"/>
			<rect x="450.1" y="184.2" transform="matrix(0.2953 -0.9554 0.9554 0.2953 114.447 581.0709)" fill="#DAC68B" width="2" height="57.6"/>
		</g>
		<g>
			<rect x="8.8" y="206.4" transform="matrix(0.9517 -0.3071 0.3071 0.9517 -71.7795 23.0588)" fill="#902E1B" width="57.2" height="66.4"/>
			<rect x="17.6" y="266" transform="matrix(0.9555 -0.2949 0.2949 0.9555 -76.6714 25.5596)" fill="#DAC68B" width="57.6" height="2"/>
			<rect x="53.4" y="230.3" transform="matrix(0.3876 -0.9218 0.9218 0.3876 -184.2959 211.4942)" width="27.2" height="28.4"/>
			<rect x="0.1" y="212" transform="matrix(0.9555 -0.2949 0.2949 0.9555 -61.5293 17.9987)" fill="#DAC68B" width="57.6" height="2"/>
		</g>
		<g>
			<rect x="48.7" y="171" fill="#DAC68B" width="382.7" height="80"/>
			<rect x="48.7" y="174.7" fill="#902E1B" width="382.7" height="3"/>
			<rect x="48.7" y="244.3" fill="#902E1B" width="382.7" height="3"/>
		</g>
		<path fill="#902E1B" d="M154.6,224.8v-27h12c1.6,0,3,0.6,4.2,1.8s1.8,2.6,1.8,4.2v3c0,1.6-0.6,3-1.8,4.2s-2.6,1.8-4.2,1.8h-6v12H154.6
			z M160.6,209.9h3c0.8,0,1.5-0.3,2.1-0.9c0.6-0.6,0.9-1.3,0.9-2.1v-3c0-0.8-0.3-1.5-0.9-2.1c-0.6-0.6-1.3-0.9-2.1-0.9h-3V209.9z
			M182.6,224.8h-6v-21h6v6c0.2-2,0.9-3.5,1.9-4.5s2.4-1.5,4.2-1.5h3v6h-6c-0.8,0-1.5,0.3-2.1,0.9c-0.6,0.6-0.9,1.3-0.9,2.1
			L182.6,224.8L182.6,224.8z M212.6,215.8h-12v3c0,0.8,0.3,1.5,0.9,2.1s1.3,0.9,2.1,0.9h3c2,0,3-1,3-3h3c-0.5,4-2.5,6-6,6h-6
			c-1.6,0-3-0.6-4.2-1.8s-1.8-2.6-1.8-4.2v-9c0-1.7,0.6-3.1,1.8-4.3s2.6-1.8,4.2-1.8h6c1.6,0,3,0.6,4.2,1.8s1.8,2.6,1.8,4.2V215.8z
			M200.6,212.8h6v-3c0-0.8-0.3-1.5-0.9-2.1c-0.6-0.6-1.3-0.9-2.1-0.9s-1.5,0.3-2.1,0.9c-0.6,0.6-0.9,1.3-0.9,2.1V212.8z
			M230.4,224.8v-27h12c1.6,0,3,0.6,4.2,1.8s1.8,2.6,1.8,4.2v3c0,1.6-0.6,3-1.8,4.2s-2.6,1.8-4.2,1.8h-6v12H230.4z M236.4,209.9h3
			c0.8,0,1.5-0.3,2.1-0.9c0.6-0.6,0.9-1.3,0.9-2.1v-3c0-0.8-0.3-1.5-0.9-2.1c-0.6-0.6-1.3-0.9-2.1-0.9h-3V209.9z M263.4,212.8v-3
			c0-0.8-0.3-1.5-0.9-2.1s-1.3-0.9-2.1-0.9h-3c-1.8,0-2.8,1-3,3h-3c0.5-4,2.5-6,6-6h6c1.6,0,3,0.6,4.2,1.8s1.8,2.6,1.8,4.2v15h-6v-3
			c-0.2,2-1.2,3-3,3h-3c-1.6,0-3-0.6-4.2-1.8s-1.8-2.6-1.8-4.2l0,0c0-1.6,0.6-3,1.8-4.2s2.6-1.8,4.2-1.8H263.4z M263.4,215.8h-3
			c-0.8,0-1.5,0.3-2.1,0.9c-0.6,0.6-0.9,1.3-0.9,2.1l0,0c0,0.8,0.3,1.5,0.9,2.1s1.3,0.9,2.1,0.9s1.5-0.3,2.1-0.9s0.9-1.3,0.9-2.1
			V215.8z M279.4,224.8h-6v-21h6v6c0.2-2,0.9-3.5,1.9-4.5s2.4-1.5,4.2-1.5h3v6h-6c-0.8,0-1.5,0.3-2.1,0.9c-0.6,0.6-0.9,1.3-0.9,2.1
			v12H279.4z M294.4,197.8h6v6h3v3h-3v12c0,1,0.3,1.7,1,2.2c0.6,0.5,1.2,0.8,1.8,0.8h0.3v3h-3c-1.6,0-3.1-0.6-4.2-1.8
			s-1.8-2.6-1.8-4.2v-12h-3v-3h3L294.4,197.8L294.4,197.8z M310.4,227.9c0.1,2,1.1,3,3,3h3c0.8,0,1.5-0.3,2.1-0.9s0.9-1.3,0.9-2.1v-6
			c-0.2,2-1.2,3-3,3h-3c-1.6,0-3-0.6-4.2-1.8s-1.8-2.6-1.8-4.2v-15h6v15c0,0.8,0.3,1.5,0.9,2.1s1.3,0.9,2.1,0.9
			c0.8,0,1.5-0.3,2.1-0.9s0.9-1.3,0.9-2.1v-15h6v24c0,1.6-0.6,3-1.8,4.2c-1.2,1.2-2.6,1.8-4.2,1.8h-6c-3.5,0-5.5-2-6-6H310.4z"/>
	</g>
</svg>