<?xml version="1.0" encoding="utf-8"?>
<svg version="1.1" xmlns="http://www.w3.org/2000/svg" xmlns:xlink="http://www.w3.org/1999/xlink" x="0px" y="0px" viewBox="0 0 480 320" style="enable-background:new 0 0 480 320;" xml:space="preserve">
<g>
	<circle fill="#EBE2C4" cx="240" cy="160" r="160"/>
	<g>
		<polygon fill="#A80511" points="328.8,60 151.2,60 105,130.3 240,280 375,130.3"/>
		<path fill="#DAC68B" d="M377,130.2c0-0.6-0.3-1.1-0.7-1.5l-45.9-69.8c-0.4-0.6-1-0.9-1.7-0.9H151.2c-0.7,0-1.3,0.3-1.7,0.9
			l-45.9,69.8c-0.4,0.4-0.7,0.9-0.7,1.5c0,0.1,0,0.1,0,0.2c0,0.5,0.2,0.9,0.5,1.3l135,149.7c0.4,0.4,0.9,0.7,1.5,0.7
			s1.1-0.2,1.5-0.7l135-149.7c0.3-0.4,0.5-0.8,0.5-1.3C377,130.3,377,130.3,377,130.2z M282.2,132.2l-42.3,140.1l-42.3-140.1
			L282.2,132.2L282.2,132.2z M198.6,128.2L240,62.9l42,65.3H198.6z M244.1,62h81.3l-40.5,63.5L244.1,62z M194.9,126.5L154.4,62h81.4
			L194.9,126.5z M191.3,128.2h-82.5L151,64.1L191.3,128.2z M193.4,132.2l42.3,140.1L109.4,132.2H193.4z M286.4,132.2h84.2L244,272.6
			L286.4,132.2z M287.9,128.2l41-64.3l42.3,64.3H287.9z"/>
	</g>
</g>
<g>
	<g>
		<rect x="409.3" y="211" transform="matrix(0.3071 -0.9517 0.9517 0.3071 78.654 587.155)" fill="#902E1B" width="66.4" height="57.2"/>
		<rect x="432.7" y="238.2" transform="matrix(0.2953 -0.9554 0.9554 0.2953 50.5026 602.4718)" fill="#DAC68B" width="2" height="57.6"/>
		<rect x="398.8" y="230.8" transform="matrix(0.9218 -0.3876 0.3876 0.9218 -62.4507 179.1802)" width="28.4" height="27.2"/>
		<rect x="450.1" y="184.2" transform="matrix(0.2953 -0.9554 0.9554 0.2953 114.447 581.0709)" fill="#DAC68B" width="2" height="57.6"/>
	</g>
	<g>
		<rect x="8.8" y="206.4" transform="matrix(0.9517 -0.3071 0.3071 0.9517 -71.7795 23.0588)" fill="#902E1B" width="57.2" height="66.4"/>
		<rect x="17.6" y="266" transform="matrix(0.9555 -0.2949 0.2949 0.9555 -76.6714 25.5596)" fill="#DAC68B" width="57.6" height="2"/>
		<rect x="53.4" y="230.3" transform="matrix(0.3876 -0.9218 0.9218 0.3876 -184.2959 211.4942)" width="27.2" height="28.4"/>
		<rect x="0.1" y="212" transform="matrix(0.9555 -0.2949 0.2949 0.9555 -61.5293 17.9987)" fill="#DAC68B" width="57.6" height="2"/>
	</g>
	<g>
		<rect x="48.7" y="171" fill="#DAC68B" width="382.7" height="80"/>
		<rect x="48.7" y="174.7" fill="#902E1B" width="382.7" height="3"/>
		<rect x="48.7" y="244.3" fill="#902E1B" width="382.7" height="3"/>
	</g>
	<path fill="#902E1B" d="M83.7,224.8v-24h-6v-3h18v3h-6v24H83.7z M98.7,224.8v-27h6v9c0.1-1,0.4-1.8,0.9-2.3s1.2-0.7,2.1-0.7h3
		c1.6,0,3,0.6,4.2,1.8s1.8,2.6,1.8,4.2v15h-6v-15c0-0.8-0.3-1.5-0.9-2.1s-1.3-0.9-2.1-0.9c-0.8,0-1.5,0.3-2.1,0.9
		c-0.6,0.6-0.9,1.3-0.9,2.1v15H98.7z M138.7,215.8h-12v3c0,0.8,0.3,1.5,0.9,2.1s1.3,0.9,2.1,0.9h3c2,0,3-1,3-3h3c-0.5,4-2.5,6-6,6
		h-6c-1.6,0-3-0.6-4.2-1.8s-1.8-2.6-1.8-4.2v-9c0-1.7,0.6-3.1,1.8-4.3c1.2-1.2,2.6-1.8,4.2-1.8h6c1.6,0,3,0.6,4.2,1.8
		s1.8,2.6,1.8,4.2V215.8z M126.7,212.8h6v-3c0-0.8-0.3-1.5-0.9-2.1c-0.6-0.6-1.3-0.9-2.1-0.9s-1.5,0.3-2.1,0.9
		c-0.6,0.6-0.9,1.3-0.9,2.1V212.8z M163.5,197.8h6c1.6,0,3,0.6,4.2,1.8s1.8,2.6,1.8,4.2v15c0,1.6-0.6,3-1.8,4.2s-2.6,1.8-4.2,1.8h-6
		c-1.6,0-3-0.6-4.2-1.8s-1.8-2.6-1.8-4.2v-15c0-1.6,0.6-3,1.8-4.2C160.5,198.4,161.9,197.8,163.5,197.8z M163.5,203.8v15
		c0,0.8,0.3,1.5,0.9,2.1s1.3,0.9,2.1,0.9s1.5-0.3,2.1-0.9s0.9-1.3,0.9-2.1v-15c0-0.8-0.3-1.5-0.9-2.1c-0.6-0.6-1.3-0.9-2.1-0.9
		s-1.5,0.3-2.1,0.9C163.8,202.3,163.5,203,163.5,203.8z M182.5,224.8v-18h-3v-3h3v-0.3c0-1.6,0.6-2.9,1.7-4s2.5-1.7,4-1.7h6.3v3
		h-3.3c-0.8,0-1.4,0.3-1.9,0.8s-0.8,1.2-0.8,1.9v0.3h3v3h-3v18H182.5z M198.5,224.8v-18h-3v-3h3v-0.3c0-1.6,0.6-2.9,1.7-4
		s2.5-1.7,4-1.7h6.3v3h-3.3c-0.8,0-1.4,0.3-1.9,0.8s-0.8,1.2-0.8,1.9v0.3h3v3h-3v18H198.5z M213.5,200.9v-3h6v3H213.5z M213.5,224.8
		v-21h6v21H213.5z M240.5,209.9h-3c-0.2-2-1.2-3-3-3c-0.8,0-1.5,0.3-2.1,0.9s-0.9,1.3-0.9,2.1v9c0,0.8,0.3,1.5,0.9,2.1
		s1.3,0.9,2.1,0.9c1.8,0,2.8-1,3-3h3c-0.2,4-2.2,6-6,6h-3c-1.6,0-3-0.6-4.2-1.8s-1.8-2.6-1.8-4.2v-9c0-1.7,0.6-3.1,1.8-4.3
		s2.6-1.8,4.2-1.8h3C238.3,203.8,240.3,205.8,240.5,209.9z M246.5,200.9v-3h6v3H246.5z M246.5,224.8v-21h6v21H246.5z M270.5,212.8
		v-3c0-0.8-0.3-1.5-0.9-2.1s-1.3-0.9-2.1-0.9h-3c-1.8,0-2.8,1-3,3h-3c0.5-4,2.5-6,6-6h6c1.6,0,3,0.6,4.2,1.8s1.8,2.6,1.8,4.2v15h-6
		v-3c-0.2,2-1.2,3-3,3h-3c-1.6,0-3-0.6-4.2-1.8s-1.8-2.6-1.8-4.2l0,0c0-1.6,0.6-3,1.8-4.2c1.2-1.2,2.6-1.8,4.2-1.8H270.5z
		 M270.5,215.8h-3c-0.8,0-1.5,0.3-2.1,0.9c-0.6,0.6-0.9,1.3-0.9,2.1l0,0c0,0.8,0.3,1.5,0.9,2.1s1.3,0.9,2.1,0.9
		c0.8,0,1.5-0.3,2.1-0.9s0.9-1.3,0.9-2.1V215.8z M282.5,224.8v-27h6v27H282.5z M323.6,199.6c-1.2-1.2-2.6-1.8-4.2-1.8h-12v27h6v-12
		h6c1.6,0,3-0.6,4.2-1.8s1.8-2.6,1.8-4.2v-3C325.3,202.2,324.7,200.8,323.6,199.6z M319.3,206.8c0,0.8-0.3,1.5-0.9,2.1
		s-1.3,0.9-2.1,0.9h-3v-9h3c0.8,0,1.5,0.3,2.1,0.9c0.6,0.6,0.9,1.3,0.9,2.1V206.8z M344.5,205.6c-1.2-1.2-2.6-1.8-4.2-1.8h-6
		c-3.5,0-5.5,2-6,6h3c0.2-2,1.2-3,3-3h3c0.8,0,1.5,0.3,2.1,0.9c0.6,0.6,0.9,1.3,0.9,2.1v3h-6c-1.6,0-3,0.6-4.2,1.8s-1.8,2.6-1.8,4.2
		l0,0c0,1.6,0.6,3,1.8,4.2c1.2,1.2,2.6,1.8,4.2,1.8h3c1.8,0,2.8-1,3-3v3h6v-15C346.3,208.2,345.7,206.8,344.5,205.6z M340.3,218.9
		c0,0.8-0.3,1.5-0.9,2.1s-1.3,0.9-2.1,0.9s-1.5-0.3-2.1-0.9s-0.9-1.3-0.9-2.1l0,0c0-0.8,0.3-1.5,0.9-2.1s1.3-0.9,2.1-0.9h3V218.9z
		 M356.3,224.8h-6v-21h6v6c0.2-2,0.9-3.5,1.9-4.5s2.4-1.5,4.2-1.5h3v6h-6c-0.8,0-1.5,0.3-2.1,0.9c-0.6,0.6-0.9,1.3-0.9,2.1v12H356.3
		z M371.3,197.8h6v6h3v3h-3v12c0,1,0.3,1.7,1,2.2c0.6,0.5,1.2,0.8,1.8,0.8h0.3v3h-3c-1.6,0-3.1-0.6-4.2-1.8s-1.8-2.6-1.8-4.2v-12h-3
		v-3h3L371.3,197.8L371.3,197.8z M387.3,227.9c0.1,2,1.1,3,3,3h3c0.8,0,1.5-0.3,2.1-0.9s0.9-1.3,0.9-2.1v-6c-0.2,2-1.2,3-3,3h-3
		c-1.6,0-3-0.6-4.2-1.8s-1.8-2.6-1.8-4.2v-15h6v15c0,0.8,0.3,1.5,0.9,2.1s1.3,0.9,2.1,0.9c0.8,0,1.5-0.3,2.1-0.9s0.9-1.3,0.9-2.1
		v-15h6v24c0,1.6-0.6,3-1.8,4.2c-1.2,1.2-2.6,1.8-4.2,1.8h-6c-3.5,0-5.5-2-6-6H387.3z"/>
</g>
</svg>
