<?xml version="1.0" encoding="utf-8"?>
<svg version="1.1" xmlns="http://www.w3.org/2000/svg" xmlns:xlink="http://www.w3.org/1999/xlink" x="0px" y="0px" viewBox="0 0 360 80" style="enable-background:new 0 0 360 80;" xml:space="preserve">
<path fill="#DAC68B" d="M21.6,65.9c-5.6,0-10.2-4.5-10.2-10c0-0.6,0.1-1.1,0.1-1.7l0.1-0.4l-0.4-0.2C6.1,51,2.9,45.8,2.9,40
	s3.2-11,8.4-13.6l0.4-0.2l-0.1-0.4c-0.1-0.6-0.1-1.1-0.1-1.7c0-5.5,4.5-10,10.2-10h316.8c5.6,0,10.2,4.5,10.2,10
	c0,0.6-0.1,1.1-0.1,1.7l-0.1,0.4l0.4,0.2c5.2,2.6,8.4,7.8,8.4,13.6s-3.2,11-8.4,13.6l-0.4,0.2l0.1,0.4c0.1,0.6,0.1,1.1,0.1,1.7
	c0,5.5-4.5,10-10.2,10H21.6z"/>
<path fill="#902E1B" d="M360,40c0-6.3-3.2-12.1-8.6-15.4c0-0.1,0-0.4,0-0.5c0-7.1-5.8-12.9-13-12.9H21.6c-7.2,0-13,5.8-13,12.9
	c0,0.1,0,0.4,0,0.5C3.2,27.9,0,33.7,0,40s3.2,12.1,8.6,15.4c0,0.1,0,0.4,0,0.5c0,7.1,5.8,12.9,13,12.9h316.8c7.2,0,13-5.8,13-12.9
	c0-0.1,0-0.4,0-0.5C356.8,52.1,360,46.3,360,40z M21.6,15.4c0.2,0,316.6,0,316.8,0c2.5,0,4.8,1.1,6.4,2.8H15.2
	C16.8,16.5,19.1,15.4,21.6,15.4z M341.4,51.8l0.6,3.5c0,0.2,0.1,0.4,0.1,0.6c0,1.8-1.3,3.2-3,3.5H21c-1.7-0.3-3-1.8-3-3.5
	c0-0.2,0-0.4,0.1-0.6l0.6-3.5c0.1-0.9-0.3-1.8-1.2-2.2l-3.2-1.7c-3-1.5-4.9-4.6-4.9-7.9s1.9-6.4,4.9-7.9l3.2-1.7
	c0.9-0.4,1.3-1.4,1.2-2.2L18,24.7c0-0.2-0.1-0.4-0.1-0.6c0-2,1.7-3.6,3.7-3.6h316.8c2,0,3.7,1.7,3.7,3.6c0,0.2,0,0.4-0.1,0.6
	l-0.6,3.5c-0.1,0.9,0.3,1.8,1.2,2.2l3.2,1.7c3,1.5,4.9,4.6,4.9,7.9s-1.9,6.4-4.9,7.9l-3.2,1.7C341.7,50,341.3,50.9,341.4,51.8z
	 M12,52.4C7.3,49.9,4.3,45.3,4.3,40s3-9.9,7.6-12.4l1.3-0.6L13,25.5c-0.1-0.5-0.1-0.9-0.1-1.4c0-1.3,0.3-2.5,0.8-3.6h3.4
	c-0.8,1-1.3,2.2-1.3,3.6c0,0.3,0,0.6,0.1,0.9l0.6,3.5l-3.2,1.7c-3.7,1.9-6,5.6-6,9.8s2.3,7.9,6,9.9l3.2,1.7L15.8,55
	c-0.1,0.3-0.1,0.6-0.1,0.9c0,1.4,0.5,2.6,1.2,3.5h-3.3c-0.5-1.1-0.8-2.3-0.8-3.5c0-0.5,0.1-0.9,0.1-1.4l0.2-1.4L12,52.4z
	 M338.4,64.6H21.6c-2.6,0-4.8-1.1-6.5-2.9h329.8C343.2,63.4,341,64.6,338.4,64.6z M348,52.4l-1.3,0.6l0.2,1.4
	c0.1,0.5,0.1,0.9,0.1,1.4c0,1.3-0.3,2.4-0.8,3.5H343c0.8-1,1.2-2.2,1.2-3.5c0-0.3,0-0.6-0.1-0.9l-0.6-3.5l3.2-1.7
	c3.7-1.9,6-5.7,6-9.9s-2.3-7.9-6-9.9l-3.2-1.7l0.6-3.5c0.1-0.3,0.1-0.6,0.1-0.9c0-1.4-0.5-2.7-1.3-3.6h3.4c0.5,1.1,0.8,2.3,0.8,3.6
	c0,0.5-0.1,0.9-0.1,1.4l-0.2,1.4l1.3,0.6c4.7,2.4,7.6,7.1,7.6,12.4S352.7,49.9,348,52.4z M58.4,35.8h-1.7c0.3-2.2,1.4-3.4,3.4-3.4
	h3.4c0.9,0,1.7,0.4,2.4,1c0.6,0.6,1,1.4,1,2.4v0.9c0,1.2-1.1,2.7-3.2,4.5l-0.3,0.1c-2.2,1.9-3.2,3.3-3.2,4.4v0.1h6.7v1.7H56.7v-1.7
	c0-1.2,1.1-2.7,3.2-4.5l0.2-0.2c2.2-1.9,3.2-3.4,3.2-4.5v-0.9c0-0.4-0.1-0.9-0.5-1.2c-0.4-0.4-0.7-0.5-1.2-0.5h-1.7
	C59,34.2,58.5,34.7,58.4,35.8z M74.2,32.5h3.4c0.9,0,1.7,0.4,2.4,1c0.6,0.6,1,1.4,1,2.4v8.4c0,0.9-0.4,1.7-1,2.4
	c-0.6,0.6-1.4,1-2.4,1h-3.4c-0.9,0-1.7-0.4-2.4-1c-0.6-0.6-1-1.4-1-2.4v-8.5c0-0.9,0.4-1.7,1-2.4C72.5,32.8,73.3,32.5,74.2,32.5z
	 M77.5,35.5c-0.2-0.9-0.8-1.4-1.7-1.4c-0.4,0-0.9,0.1-1.2,0.5c-0.4,0.4-0.5,0.7-0.5,1.2v5.7L77.5,35.5z M74.3,44.5
	c0.1,0.4,0.3,0.8,0.5,1.1c0.2,0.3,0.6,0.4,1.1,0.4s0.9-0.1,1.2-0.5s0.5-0.7,0.5-1.2v-5.8L74.3,44.5z M87,47.6V35.8h-1.7v-1.7
	l3.4-1.7h1.7v15.1C90.4,47.6,87,47.6,87,47.6z M101.6,40.9c-0.1,1.2-0.6,1.7-1.7,1.7h-1.7c-0.9,0-1.7-0.4-2.4-1
	c-0.6-0.6-1-1.4-1-2.4v-3.4c0-0.9,0.4-1.7,1-2.4s1.4-1,2.4-1h3.4c0.9,0,1.7,0.4,2.4,1c0.6,0.6,1,1.4,1,2.4v5.9c0,1.6-0.6,3-1.7,4.1
	c-1.2,1.2-2.5,1.7-4.2,1.7h-2.5v-1.7h1.7c0.9,0,1.7-0.4,2.4-1c0.6-0.6,1-1.4,1-2.4L101.6,40.9L101.6,40.9z M98.2,35.8v3.4
	c0,0.4,0.1,0.9,0.5,1.2c0.4,0.4,0.7,0.5,1.2,0.5c0.4,0,0.9-0.1,1.2-0.5c0.4-0.4,0.5-0.7,0.5-1.2v-3.4c0-0.4-0.1-0.9-0.5-1.2
	c-0.4-0.4-0.7-0.5-1.2-0.5c-0.4,0-0.9,0.1-1.2,0.5C98.4,35,98.2,35.4,98.2,35.8z M115.4,47.6V32.5h6.7c0.9,0,1.7,0.4,2.4,1
	c0.6,0.6,1,1.4,1,2.4v0.9c0,0.7-0.3,1.4-0.8,2.2c-0.5,0.7-1.4,1-2.6,1h1.7c0.4,0,0.9,0.1,1.2,0.5s0.5,0.7,0.5,1.2v6h-3.4v-5
	c0-0.4-0.1-0.9-0.5-1.2c-0.4-0.4-0.7-0.5-1.2-0.5h-1.7v6.7H115.4z M118.7,39.2h1.7c0.4,0,0.9-0.1,1.2-0.5c0.4-0.4,0.5-0.7,0.5-1.2
	v-1.7c0-0.4-0.1-0.9-0.5-1.2c-0.4-0.4-0.7-0.5-1.2-0.5h-1.7V39.2z M138.9,35.8v11.7h-3.4v-1.7c-0.1,1.2-0.7,1.7-1.7,1.7h-1.7
	c-0.9,0-1.7-0.4-2.4-1c-0.6-0.6-1-1.4-1-2.4v-8.4h3.4v8.4c0,0.4,0.1,0.9,0.5,1.2c0.4,0.4,0.7,0.5,1.2,0.5c0.4,0,0.9-0.1,1.2-0.5
	s0.5-0.7,0.5-1.2v-8.4H138.9z M142.3,47.6V32.5h3.4v5c0.1-0.6,0.2-1,0.5-1.3c0.3-0.3,0.6-0.4,1.2-0.4h1.7c0.9,0,1.7,0.4,2.4,1
	c0.6,0.6,1,1.4,1,2.4v5c0,0.9-0.4,1.7-1,2.4c-0.6,0.6-1.4,1-2.4,1C149,47.6,142.3,47.6,142.3,47.6z M145.6,45.9h1.7
	c0.4,0,0.9-0.1,1.2-0.5s0.5-0.7,0.5-1.2v-5c0-0.4-0.1-0.9-0.5-1.2s-0.7-0.5-1.2-0.5s-0.9,0.1-1.2,0.5s-0.5,0.7-0.5,1.2V45.9z
	 M157.4,49.3c0.1,1.1,0.6,1.7,1.7,1.7h1.7c0.4,0,0.9-0.1,1.2-0.5c0.4-0.4,0.5-0.7,0.5-1.2v-3.4c-0.1,1.2-0.7,1.7-1.7,1.7H159
	c-0.9,0-1.7-0.4-2.4-1c-0.6-0.6-1-1.4-1-2.4v-8.4h3.4v8.4c0,0.4,0.1,0.9,0.5,1.2c0.4,0.4,0.7,0.5,1.2,0.5c0.4,0,0.9-0.1,1.2-0.5
	s0.5-0.7,0.5-1.2v-8.4h3.4v13.5c0,0.9-0.4,1.7-1,2.4s-1.4,1-2.4,1h-3.4c-1.9,0-3.1-1.2-3.4-3.4H157.4z M184.1,44.2
	c-0.1,2.2-1.3,3.4-3.4,3.4h-3.4c-0.9,0-1.7-0.4-2.4-1c-0.6-0.6-1-1.4-1-2.4v-8.4c0-0.9,0.4-1.7,1-2.4c0.6-0.6,1.4-1,2.4-1h3.4
	c2.1,0,3.2,1.2,3.4,3.4h-1.7c-0.1-1.1-0.7-1.7-1.7-1.7h-1.7c-0.4,0-0.9,0.1-1.2,0.5s-0.5,0.7-0.5,1.2v8.4c0,0.4,0.1,0.9,0.5,1.2
	c0.4,0.4,0.7,0.5,1.2,0.5h1.7c1,0,1.5-0.6,1.7-1.7H184.1z M190.2,35.8h3.4c0.9,0,1.7,0.4,2.4,1c0.6,0.6,1,1.4,1,2.4v5
	c0,0.9-0.4,1.7-1,2.4c-0.6,0.6-1.4,1-2.4,1h-3.4c-0.9,0-1.7-0.4-2.4-1s-1-1.4-1-2.4v-5c0-0.9,0.4-1.7,1-2.4S189.2,35.8,190.2,35.8z
	 M190.2,39.2v5c0,0.4,0.1,0.9,0.5,1.2c0.4,0.4,0.7,0.5,1.2,0.5c0.4,0,0.9-0.1,1.2-0.5s0.5-0.7,0.5-1.2v-5c0-0.4-0.1-0.9-0.5-1.2
	s-0.7-0.5-1.2-0.5c-0.4,0-0.9,0.1-1.2,0.5C190.3,38.3,190.2,38.8,190.2,39.2z M200.2,47.6V35.8h3.4v1.7c0.1-0.6,0.2-1,0.5-1.3
	c0.3-0.3,0.6-0.4,1.2-0.4h1.7c0.9,0,1.7,0.4,2.4,1c0.6,0.6,1,1.4,1,2.4v8.4h-3.4v-8.4c0-0.4-0.1-0.9-0.5-1.2s-0.7-0.5-1.2-0.5
	s-0.9,0.1-1.2,0.5c-0.4,0.4-0.5,0.7-0.5,1.2v8.4C203.5,47.6,200.2,47.6,200.2,47.6z M214.6,47.6V37.6H213v-1.7h1.7v-0.2
	c0-0.9,0.3-1.7,0.9-2.2c0.6-0.6,1.4-0.9,2.2-0.9h3.5v1.7h-1.8c-0.4,0-0.8,0.1-1.1,0.4c-0.3,0.3-0.4,0.6-0.4,1.1v0.1h1.7v1.7H218
	v10.1L214.6,47.6L214.6,47.6z M231,47.6V34.2h-3.4v-1.7h10.1v1.7h-3.4v13.5H231z M246.2,40.9v-1.7c0-0.4-0.1-0.9-0.5-1.2
	s-0.7-0.5-1.2-0.5h-1.7c-1,0-1.6,0.6-1.7,1.7h-1.7c0.3-2.2,1.4-3.4,3.4-3.4h3.4c0.9,0,1.7,0.4,2.4,1c0.6,0.6,1,1.4,1,2.4v8.4h-3.4
	v-1.7c-0.1,1.2-0.7,1.7-1.7,1.7H243c-0.9,0-1.7-0.4-2.4-1c-0.6-0.6-1-1.4-1-2.4l0,0c0-0.9,0.4-1.7,1-2.4s1.4-1,2.4-1L246.2,40.9
	L246.2,40.9z M246.2,42.6h-1.7c-0.4,0-0.9,0.1-1.2,0.5s-0.5,0.7-0.5,1.2l0,0c0,0.4,0.1,0.9,0.5,1.2c0.4,0.4,0.7,0.5,1.2,0.5
	c0.4,0,0.9-0.1,1.2-0.5s0.5-0.7,0.5-1.2L246.2,42.6L246.2,42.6z M252.9,34.2v-1.7h3.4v1.7H252.9z M252.9,47.6V35.8h3.4v11.7
	L252.9,47.6L252.9,47.6z M259.6,35.8h3.4v10.1h1.7c0.4,0,0.9-0.1,1.2-0.5c0.4-0.4,0.5-0.7,0.5-1.2v-8.4h3.4v10.1h1.7
	c0.4,0,0.9-0.1,1.2-0.5c0.4-0.4,0.5-0.7,0.5-1.2v-8.4h3.4v6c0,1.6-0.6,2.9-1.7,4c-1.2,1.2-2.4,1.7-4,1.7h-4.3v-0.5
	c-0.6,0.4-1.4,0.5-2.4,0.5h-4.3V35.8H259.6z M286.5,40.9v-1.7c0-0.4-0.1-0.9-0.5-1.2c-0.4-0.4-0.7-0.5-1.2-0.5h-1.7
	c-1,0-1.6,0.6-1.7,1.7h-1.7c0.3-2.2,1.4-3.4,3.4-3.4h3.4c0.9,0,1.7,0.4,2.4,1c0.6,0.6,1,1.4,1,2.4v8.4h-3.4v-1.7
	c-0.1,1.2-0.7,1.7-1.7,1.7h-1.7c-0.9,0-1.7-0.4-2.4-1c-0.6-0.6-1-1.4-1-2.4l0,0c0-0.9,0.4-1.7,1-2.4c0.6-0.6,1.4-1,2.4-1L286.5,40.9
	L286.5,40.9z M286.5,42.6h-1.7c-0.4,0-0.9,0.1-1.2,0.5c-0.4,0.4-0.5,0.7-0.5,1.2l0,0c0,0.4,0.1,0.9,0.5,1.2c0.4,0.4,0.7,0.5,1.2,0.5
	c0.4,0,0.9-0.1,1.2-0.5c0.4-0.4,0.5-0.7,0.5-1.2L286.5,42.6L286.5,42.6z M293.2,47.6V35.8h3.4v1.7c0.1-0.6,0.2-1,0.5-1.3
	c0.3-0.3,0.6-0.4,1.2-0.4h1.7c0.9,0,1.7,0.4,2.4,1c0.6,0.6,1,1.4,1,2.4v8.4h-3.4v-8.4c0-0.4-0.1-0.9-0.5-1.2
	c-0.4-0.4-0.7-0.5-1.2-0.5s-0.9,0.1-1.2,0.5c-0.4,0.4-0.5,0.7-0.5,1.2v8.4C296.5,47.6,293.2,47.6,293.2,47.6z"/>
</svg>
