<?xml version="1.0" encoding="utf-8"?>
<!-- Generator: Adobe Illustrator 22.1.0, SVG Export Plug-In . SVG Version: 6.00 Build 0)  -->
<svg version="1.1" xmlns="http://www.w3.org/2000/svg" xmlns:xlink="http://www.w3.org/1999/xlink" x="0px" y="0px"
	 viewBox="0 0 180 90" style="enable-background:new 0 0 180 90;" xml:space="preserve">
<style type="text/css">
	.st0{fill:#333F48;}
	.st1{fill:#002D74;}
	.st2{opacity:0.5;fill:url(#SVGID_1_);}
	.st3{opacity:0.5;fill:url(#SVGID_2_);}
	.st4{fill:#DC2314;}
	.st5{fill:#5F696E;}
	.st6{fill:#323333;}
	.st7{fill:url(#logo_1_);}
	.st8{fill:url(#SVGID_3_);}
	.st9{fill:url(#SVGID_4_);}
	.st10{fill:#00B7AD;}
	.st11{fill:#66BE77;}
	.st12{fill:url(#SVGID_5_);}
	.st13{fill:#D7233B;}
</style>
<g id="Platinum">
</g>
<g id="Silver">
</g>
<g id="Partner">
	<g id="_x35_xRuby">
		<g id="text">
			<path class="st13" d="M27,54.3V52c1.1,0.5,2.4,0.7,3.6,0.7c1.1,0.1,2.2-0.3,2.9-1.1c0.7-0.8,1.1-1.9,1.1-3c0-2.8-2-4.3-5.9-4.3
				c-0.5,0-0.9,0-1.4,0.1v-9.3h9.6v2.2h-7.4v4.9c2.4,0,4.3,0.6,5.7,1.7c1.4,1.1,2.1,2.8,2,4.6c0.1,1.7-0.6,3.3-1.9,4.4
				c-1.5,1.1-3.3,1.7-5.2,1.6C29.2,54.7,28.1,54.5,27,54.3z"/>
			<path class="st13" d="M51.1,49h-2.6l-1.6-2.2L45.3,49h-2.7l3-4.2l-2.9-4.1h2.6l1.6,2.2l1.6-2.2h2.7l-2.9,4.1L51.1,49z"/>
			<path class="st13" d="M59.1,44.7c0.5,0.5,0.9,1,1.1,1.6c0.2,0.7,0.3,1.4,0.3,2.1v5.9v0.7c-0.1,0.6,0,1.2,0.3,1.7
				c0.4,0.3,0.9,0.4,1.4,0.4h0.9v2.7h-1.1c-1.3,0.1-2.5-0.4-3.3-1.3c-0.7-0.9-1.1-2.2-1.1-4.1v-5.8c0-0.6-0.1-1.2-0.3-1.7
				c-0.2-0.4-0.7-0.7-1.1-0.7l-0.1,0H56l-0.2,0v-2.7c0.1-0.1,0.3-0.2,0.4-0.2c0.9-0.2,1.4-0.9,1.4-2.3v-6.2c0-3.3,1.4-4.9,4.2-4.9
				h0.7c0.2,0,0.4,0,0.5,0.1v2.6h-0.8c-0.7,0-1.2,0.2-1.4,0.5c-0.3,0.7-0.4,1.5-0.3,2.2v6c0,0.4,0,0.8-0.1,1.2c0,0.3-0.1,0.7-0.2,1
				c-0.1,0.3-0.3,0.6-0.4,0.8C59.6,44.3,59.4,44.5,59.1,44.7z"/>
			<path class="st13" d="M128.9,43.3h2.9v2.9h-2.9V43.3z"/>
			<path class="st13" d="M141.9,52.9c-1.1,0.1-2.2-0.3-3-1.1c-0.8-0.8-1.1-1.9-1.1-3.1v-8.2h-1.7v-1.9h1.7v-2.5l2.5-0.2v2.8h3.6v1.9
				h-3.6v7.7c0,1.8,0.8,2.7,2.4,2.7c0.4,0,0.8-0.1,1.2-0.2v1.7C143.3,52.7,142.6,52.8,141.9,52.9z"/>
			<path class="st13" d="M149.2,52.5l-4-13.9h2.5l3,10.8l3.3-10.8h2.5l2.9,10.8l3.5-10.7h2.2l-4.5,13.9H158L155,41.8l-3.3,10.7
				H149.2z"/>
			<path class="st13" d="M120.7,44.7c-0.5-0.5-0.9-1-1.2-1.6c-0.2-0.7-0.3-1.4-0.3-2.1V35v-0.7c0.1-0.6,0-1.2-0.3-1.7
				c-0.2-0.2-0.7-0.4-1.4-0.4h-0.8v-2.7h1c1.2-0.1,2.5,0.3,3.3,1.3c0.7,0.9,1.1,2.2,1.1,4.1v5.9c0,0.6,0.1,1.2,0.3,1.7
				c0.3,0.4,0.7,0.7,1.1,0.7l0.1,0h0.1l0.2,0v2.7c-0.1,0.1-0.3,0.2-0.4,0.2c-0.9,0.2-1.4,0.9-1.4,2.3v6.2c0,3.3-1.4,4.9-4.3,4.9
				h-0.7c-0.2,0-0.4,0-0.5-0.1V57h0.8c0.7,0,1.2-0.2,1.4-0.5c0.3-0.7,0.4-1.5,0.3-2.2v-6c0-0.8,0.1-1.5,0.3-2.2
				C119.8,45.5,120.2,45.1,120.7,44.7z"/>
		</g>
		<g id="ruby">
			<polygon class="st13" points="90.6,45.8 90.6,63 102,44.2 			"/>
			<polygon class="st13" points="90.9,44.6 102.1,43 94.9,33.3 			"/>
			<polygon class="st13" points="105.5,29.8 103.9,42.7 113.5,40.2 			"/>
			<polygon class="st13" points="102.8,41.9 104.4,29.2 95.6,32.4 			"/>
			<polygon class="st13" points="76.4,43.9 67.4,41.7 87,61.2 			"/>
			<polygon class="st13" points="89.4,45.8 78,44.2 89.4,63 			"/>
			<polygon class="st13" points="103.5,43.9 93,61.2 112.6,41.7 			"/>
			<path class="st13" d="M76.9,28.5l8.4,3.1h9.2l8.5-3.1C94.5,26.5,85.6,26.5,76.9,28.5L76.9,28.5z"/>
			<polygon class="st13" points="90,43.6 93.9,32.7 86.1,32.7 			"/>
			<polygon class="st13" points="89.1,44.6 85.1,33.3 77.9,43 			"/>
			<polygon class="st13" points="76.1,42.7 74.5,29.8 66.5,40.2 			"/>
			<polygon class="st13" points="77.2,41.9 84.4,32.4 75.6,29.2 			"/>
		</g>
	</g>
</g>
</svg>
