<?xml version="1.0" encoding="utf-8"?>
<!-- Generator: Adobe Illustrator 22.1.0, SVG Export Plug-In . SVG Version: 6.00 Build 0)  -->
<svg version="1.1" xmlns="http://www.w3.org/2000/svg" xmlns:xlink="http://www.w3.org/1999/xlink" x="0px" y="0px"
	 viewBox="0 0 180 90" style="enable-background:new 0 0 180 90;" xml:space="preserve">
<style type="text/css">
	.st0{fill:#0E0D0D;}
	.st1{fill:#110323;}
	.st2{fill:url(#SVGID_1_);}
	.st3{fill:url(#SVGID_2_);}
	.st4{fill:url(#SVGID_3_);}
	.st5{fill:url(#SVGID_4_);}
	.st6{fill:url(#SVGID_5_);}
	.st7{fill:url(#SVGID_6_);}
	.st8{clip-path:url(#SVGID_8_);}
	.st9{fill:url(#SVGID_9_);}
	.st10{fill:url(#SVGID_10_);}
	.st11{fill:url(#SVGID_11_);}
	.st12{fill:#231815;}
</style>
<g id="Platinum">
</g>
<g id="Silver">
</g>
<g id="Partner">
</g>
<g id="Speakers">
	<path id="github" class="st0" d="M53.1,42.7H43c-0.3,0-0.5,0.2-0.5,0.5v4.9c0,0.3,0.2,0.5,0.5,0.5l0,0H47v6.1
		c-1.1,0.3-2.2,0.4-3.3,0.3c-2.9,0-6.9-1-6.9-9.9s4.2-10,8.1-10c2-0.1,3.9,0.2,5.8,0.9c0.3,0.1,0.5-0.1,0.6-0.4c0,0,0-0.1,0-0.1
		l1.1-4.8c0-0.1-0.1-0.3-0.2-0.4c-0.4-0.3-2.7-1.6-8.6-1.6c-6.7,0-13.6,2.9-13.6,16.7s7.9,15.8,14.6,15.8c3.1,0.1,6.2-0.7,8.9-2.4
		c0.1-0.1,0.1-0.3,0.1-0.4V43.1C53.6,42.9,53.4,42.7,53.1,42.7z M105.1,30.4c0-0.3-0.2-0.5-0.5-0.5h-5.7c-0.3,0-0.5,0.2-0.5,0.5v11
		h-8.9v-11c0-0.3-0.2-0.5-0.5-0.5h-5.7c-0.3,0-0.5,0.2-0.5,0.5c0,0,0,0,0,0v29.7c0,0.3,0.2,0.5,0.5,0.5h0h5.7c0.3,0,0.5-0.2,0.5-0.5
		V47.4h8.9v12.7c0,0.3,0.2,0.5,0.5,0.5h0h5.7c0.3,0,0.5-0.2,0.5-0.5L105.1,30.4z M63.8,34.3c0-2-1.7-3.6-3.7-3.6
		c-2,0-3.6,1.7-3.6,3.7c0,2,1.7,3.6,3.7,3.6C62.2,38,63.8,36.4,63.8,34.3C63.8,34.3,63.8,34.3,63.8,34.3z M63.4,53.9V40.2
		c0-0.3-0.2-0.5-0.5-0.5h-5.7c-0.3,0-0.5,0.3-0.5,0.5v19.6c0,0.6,0.4,0.8,0.9,0.8h5.1c0.6,0,0.7-0.3,0.7-0.8L63.4,53.9z M126.7,39.7
		H121c-0.3,0-0.5,0.2-0.5,0.5c0,0,0,0,0,0v14.6c-1,0.7-2.2,1-3.4,1.1c-2,0-2.6-0.9-2.6-2.9V40.2c0-0.3-0.2-0.5-0.5-0.5h-5.7
		c-0.3,0-0.5,0.2-0.5,0.5v13.7c0,5.9,3.3,7.4,7.8,7.4c2.4-0.1,4.7-0.8,6.7-2c0,0,0.1,1.1,0.2,1.2c0.1,0.2,0.2,0.2,0.4,0.3h3.6
		c0.3,0,0.5-0.2,0.5-0.5v0v-20C127.2,39.9,127,39.7,126.7,39.7C126.7,39.7,126.7,39.7,126.7,39.7z M142.1,39.1
		c-1.9,0-3.7,0.5-5.4,1.4V30.4c0-0.3-0.2-0.5-0.5-0.5h-5.7c-0.3,0-0.5,0.2-0.5,0.5c0,0,0,0,0,0v29.7c0,0.3,0.2,0.5,0.5,0.5l0,0h4
		c0.2,0,0.3-0.1,0.4-0.2c0.1-0.5,0.2-0.9,0.2-1.4c1.9,1.5,4.3,2.3,6.7,2.2c5.1,0,8.1-2.6,8.1-11.8S145.3,39.1,142.1,39.1z
		 M139.8,55.8c-1.2,0-2.3-0.4-3.3-1v-9.4c0.9-0.5,1.9-0.8,2.9-0.9c2-0.2,4,0.4,4,5.3C143.5,54.9,142.6,55.9,139.8,55.8z M79.7,39.7
		h-4.3v-5.6c0-0.2-0.1-0.3-0.4-0.3h-5.8c-0.2,0-0.4,0.1-0.4,0.3v5.8c0,0-2.9,0.7-3.1,0.8c-0.2,0.1-0.3,0.2-0.3,0.5v3.7
		c0,0.3,0.2,0.5,0.5,0.5h3V54c0,6.5,4.6,7.2,7.7,7.2c1.1,0,2.3-0.2,3.4-0.6c0.2-0.1,0.3-0.2,0.3-0.4v-4c0-0.3-0.2-0.5-0.5-0.5h0
		c-0.2,0-0.9,0.1-1.5,0.1c-2.1,0-2.8-1-2.8-2.2v-8.3h4.3c0.3,0,0.5-0.2,0.5-0.5c0,0,0,0,0,0v-4.6C80.2,39.9,80,39.7,79.7,39.7
		C79.7,39.7,79.7,39.7,79.7,39.7z"/>
</g>
</svg>
