<?xml version="1.0" encoding="utf-8"?>
<!-- Generator: Adobe Illustrator 22.1.0, SVG Export Plug-In . SVG Version: 6.00 Build 0)  -->
<svg version="1.1" xmlns="http://www.w3.org/2000/svg" xmlns:xlink="http://www.w3.org/1999/xlink" x="0px" y="0px"
	 viewBox="0 0 180 90" style="enable-background:new 0 0 180 90;" xml:space="preserve">
<style type="text/css">
	.st0{fill:#0E0D0D;}
	.st1{fill:#110323;}
	.st2{fill:url(#SVGID_1_);}
	.st3{fill:url(#SVGID_2_);}
	.st4{fill:url(#SVGID_3_);}
	.st5{fill:url(#SVGID_4_);}
	.st6{fill:url(#SVGID_5_);}
	.st7{fill:url(#SVGID_6_);}
	.st8{clip-path:url(#SVGID_8_);}
	.st9{fill:url(#SVGID_9_);}
	.st10{fill:url(#SVGID_10_);}
	.st11{fill:url(#SVGID_11_);}
	.st12{fill:#231815;}
</style>
<g id="Platinum">
</g>
<g id="Silver">
</g>
<g id="Partner">
</g>
<g id="Speakers">
	<path id="kisko" class="st1" d="M34.8,27.5c-9.7,0-17.5,7.8-17.5,17.5c0,9.7,7.8,17.5,17.5,17.5c9.7,0,17.5-7.8,17.5-17.5
		C52.3,35.3,44.4,27.5,34.8,27.5z M44.3,41.3c0,0.5-0.4,0.9-0.9,0.9h-1.8c-0.5,0-0.9,0.4-0.9,0.9v3.9c0,0.5,0.4,0.9,0.9,0.9h1.8
		c0.5,0,0.9,0.4,0.9,0.9v3.8c0,0.5-0.4,0.9-0.9,0.9H26.1c-0.5,0-0.9-0.4-0.9-0.9v-3.8c0-0.5,0.4-0.9,0.9-0.9h1.8
		c0.5,0,0.9-0.4,0.9-0.9v-3.9c0-0.5-0.4-0.9-0.9-0.9h-1.8c-0.5,0-0.9-0.4-0.9-0.9v-3.9c0-0.5,0.4-0.9,0.9-0.9h17.3
		c0.5,0,0.9,0.4,0.9,0.9V41.3z M114.5,48.9c0,2.1-0.7,3.7-2.2,4.8c-1.5,1.1-3.5,1.7-6.1,1.7c-1.4,0-2.8-0.1-4-0.3
		c-1.3-0.2-2.9-0.4-3.9-0.8c-0.2,0-0.3-0.2-0.5-0.3c-0.1-0.2-0.2-0.3-0.2-0.5l0-4.3c0-0.4,0.1-0.7,0.4-1c0.3-0.2,0.6-0.3,1-0.1
		c0.2,0.1,0.5,0.2,1,0.4c0.4,0.2,1,0.4,1.7,0.6c1.3,0.5,2.7,0.8,4,0.8c0.4,0,0.8,0,1.1-0.1c0.3-0.1,0.4-0.2,0.4-0.4
		c0-0.3,0.4-1-1.1-1.5c-0.7-0.2-3.6-0.5-5.9-2.1c-0.4-0.2-2.4-1.9-2.6-4.7c-0.1-2.1,0.7-3.7,2.2-4.8c1.5-1.1,3.5-1.7,6.1-1.7
		c1.4,0,5.4,0.5,6.4,0.9c0.2,0,0.3,0.2,0.5,0.3c0.1,0.2,0.2,0.3,0.2,0.5l0,4.1c0,0.4-0.1,0.7-0.4,1c-0.3,0.2-0.6,0.3-1,0.1
		c-0.2-0.1-0.5-0.2-1-0.4c-0.4-0.2-2.9-1-4.2-1c-0.4,0-0.8,0-1.1,0.1c0,0-0.1,0-0.1,0c0,0,0,0,0,0c0,0-0.1,0-0.1,0.1c0,0,0,0,0,0
		c0,0,0,0,0,0c-0.1,0.1-0.2,0.3-0.3,0.4c0,0,0,0,0,0c-0.2,0.4,0.2,1.2,0.7,1.4c0.6,0.3,1.8,0.4,2.9,0.8
		C108.4,42.9,114.5,44.5,114.5,48.9z M93.4,35.6c0.2,0.2,0.2,0.5,0.2,0.7V45h0v8.6c0,0.3-0.1,0.5-0.2,0.7c-0.2,0.2-0.4,0.3-0.6,0.3
		h-5.6c-0.3,0-0.5-0.1-0.6-0.3c-0.2-0.2-0.2-0.5-0.2-0.7V45h0v-8.6c0-0.3,0.1-0.5,0.2-0.7c0.2-0.2,0.4-0.3,0.6-0.3h5.6
		C93,35.3,93.2,35.4,93.4,35.6z M139,37.1l-5.6,7.9l5.6,7.9c0.3,0.4,0.4,0.8,0.2,1.2c-0.2,0.4-0.5,0.6-1,0.6h-6.4
		c-0.1,0-0.2,0-0.4-0.1c-0.2-0.1-0.3-0.2-0.4-0.2l-4.9-6.7v6c0,0.3-0.1,0.5-0.3,0.7c-0.2,0.2-0.5,0.3-0.7,0.3H119
		c-0.3,0-0.5-0.1-0.8-0.3c-0.2-0.2-0.3-0.5-0.3-0.7V45h0l0-8.6c0-0.3,0.1-0.5,0.3-0.7c0.2-0.2,0.5-0.3,0.8-0.3h6.1
		c0.3,0,0.5,0.1,0.7,0.3c0.2,0.2,0.3,0.5,0.3,0.7l0,6l4.9-6.7c0.1-0.1,0.2-0.1,0.4-0.2c0.2-0.1,0.3-0.1,0.4-0.1h6.4
		c0.5,0,0.8,0.2,1,0.6C139.4,36.3,139.4,36.7,139,37.1z M82.7,37.1L77.1,45l5.6,7.9c0.3,0.4,0.4,0.8,0.2,1.2c-0.2,0.4-0.5,0.6-1,0.6
		h-6.4c-0.1,0-0.2,0-0.4-0.1c-0.2-0.1-0.3-0.2-0.4-0.2l-4.9-6.7v6c0,0.3-0.1,0.5-0.3,0.7c-0.2,0.2-0.5,0.3-0.7,0.3h-6.1
		c-0.3,0-0.5-0.1-0.8-0.3c-0.2-0.2-0.3-0.5-0.3-0.7V45h0l0-8.6c0-0.3,0.1-0.5,0.3-0.7c0.2-0.2,0.5-0.3,0.8-0.3h6.1
		c0.3,0,0.5,0.1,0.7,0.3c0.2,0.2,0.3,0.5,0.3,0.7l0,6l4.9-6.7c0.1-0.1,0.2-0.1,0.4-0.2c0.2-0.1,0.3-0.1,0.4-0.1h6.4
		c0.5,0,0.8,0.2,1,0.6C83.1,36.3,83,36.7,82.7,37.1z M162.7,45c0-3.2-1-5.7-3-7.6c-2-1.9-4.7-2.8-8.1-2.8c-3.4,0-6.1,0.9-8.1,2.8
		c-2,1.9-3,4.4-3,7.5h0c0,3.2,1,5.7,3,7.6c2,1.9,4.7,2.8,8.1,2.8c3.4,0,6.1-0.9,8.1-2.8C161.7,50.7,162.7,48.2,162.7,45L162.7,45z
		 M151.6,49c-1.2,0-2.1-0.4-2.7-1.1c-0.6-0.7-0.9-1.7-1-2.9c0-1.2,0.3-2.2,1-2.9c0.7-0.7,1.6-1.1,2.7-1.1c1.2,0,2.1,0.4,2.8,1.1
		c0.6,0.7,0.9,1.7,1,2.9c0,1.2-0.3,2.2-1,2.9C153.7,48.7,152.8,49,151.6,49z"/>
</g>
</svg>
