<?xml version="1.0" encoding="utf-8"?>
<!-- Generator: Adobe Illustrator 22.1.0, SVG Export Plug-In . SVG Version: 6.00 Build 0)  -->
<svg version="1.1" xmlns="http://www.w3.org/2000/svg" xmlns:xlink="http://www.w3.org/1999/xlink" x="0px" y="0px"
	 viewBox="0 0 240 120" style="enable-background:new 0 0 240 120;" xml:space="preserve">
<style type="text/css">
	.st0{fill:#333F48;}
	.st1{fill:#002D74;}
	.st2{opacity:0.5;fill:url(#SVGID_1_);}
	.st3{opacity:0.5;fill:url(#SVGID_2_);}
	.st4{fill:#DC2314;}
	.st5{fill:#5F696E;}
	.st6{fill:#323333;}
	.st7{fill:url(#logo_1_);}
	.st8{fill:url(#SVGID_3_);}
	.st9{fill:url(#SVGID_4_);}
	.st10{fill:#00B7AD;}
	.st11{fill:#66BE77;}
	.st12{fill:url(#SVGID_5_);}
	.st13{fill:#D7233B;}
</style>
<g id="Platinum">
	<g id="OSP">
		<path class="st4" d="M68.2,29.3L68.2,29.3c-13,0-23.2,10-23.2,22.2c0,12.5,10.2,22.4,23.2,22.4c13,0,23.5-9.9,23.5-22.4
			C91.7,39.2,81.3,29.3,68.2,29.3z M68.2,65.9c-7.7,0-13.8-6.6-13.8-14.5c0-7.8,6-14.2,13.8-14.2c7.9,0,14,6.4,14,14.2
			C82.3,59.3,76.1,65.9,68.2,65.9z"/>
		<path class="st5" d="M137.6,59.4c0,10.3-8.4,14.4-18.5,14.4c-10.6,0-17.8-4.3-22.6-8.3l5.1-6.3c3.5,2.8,9.3,7.1,17.6,7.1
			c5.2,0,9.4-2.1,9.4-6c0-4-4.2-4.9-10.4-5.5c-9-0.6-19.6-1.6-19.6-12.3c0-10.2,9.3-13.3,17-13.3c8.6,0,15.8,3.2,19.3,5.7l-5.2,6.4
			c-2.5-1.9-7.6-4.5-14.4-4.5c-4.1,0-7.7,1.5-7.7,5.1c0,3.7,5.4,4,10.8,4.4C125.9,46.9,137.6,47.8,137.6,59.4z M179.6,33.9
			c2.1,2.4,3.3,5.4,3.3,8.6c0,3.7-1.5,6.9-3.9,9.3c-2.6,2.5-6.2,4-11.8,4h-13.8l0,18h-9l0-44.5h22.8C173,29.3,176.9,31,179.6,33.9z
			 M173.9,42.6c0-1.5-0.6-2.8-1.5-3.8c-1.4-1.5-3.2-1.7-4.8-1.7h-14.1v11h14.1c1.6,0,3.3-0.3,4.7-1.6
			C173.3,45.4,173.9,44,173.9,42.6z M192,78.4h3V24.6h-3V78.4z"/>
		<path class="st5" d="M64.1,86.3v1.6h1.7v0.5h-1.7v3.3c0,0.6,0.4,0.8,0.8,0.8c0.3,0,0.7-0.1,0.9-0.2l0.1,0.5
			c-0.2,0.2-0.7,0.3-1.2,0.3c-0.6,0-1.4-0.4-1.4-1.4v-3.3h-1.1v-0.5v0h1.1v-1.6H64.1z M53.5,93.2c-2.2,0-4-1.7-4-3.8
			c0-2.1,1.8-3.8,4-3.8c2.2,0,4,1.7,4,3.8C57.5,91.5,55.7,93.2,53.5,93.2z M53.5,92.5c1.8,0,3.2-1.4,3.2-3.2c0-1.7-1.4-3.1-3.2-3.1
			c-1.8,0-3.2,1.4-3.2,3.1C50.3,91.1,51.7,92.5,53.5,92.5z M72.3,90.4c0,1.5-1.2,2.7-2.8,2.7c-1.6,0-2.8-1.2-2.8-2.7
			c0-1.5,1.2-2.7,2.8-2.7C71.1,87.7,72.3,88.9,72.3,90.4z M71.5,90.4c0-1.1-0.9-2.1-2.1-2.1c-1.2,0-2,1-2,2.1c0,1.2,0.8,2.1,2,2.1
			C70.7,92.6,71.5,91.6,71.5,90.4z M59.4,86.3v1.6h-1.1v0v0.5h1.1v3.3c0,1.1,0.7,1.4,1.4,1.4c0.4,0,0.9-0.1,1.2-0.3l-0.1-0.5
			c-0.2,0.1-0.6,0.2-0.9,0.2c-0.4,0-0.8-0.2-0.8-0.8v-3.3h1.7v-0.5h-1.7v-1.6H59.4z M81.8,90.9c0-1.2-1.3-1.4-2.6-1.5
			c-1.5-0.1-3.3-0.2-3.3-1.8c0-1.6,1.6-2.1,2.9-2.1c1.5,0,2.6,0.6,3.2,1.1l-0.5,0.5c-0.4-0.4-1.4-0.9-2.7-0.9c-1,0-2.1,0.4-2.1,1.4
			c0,1,1.3,1.1,2.5,1.2c1.3,0.1,3.3,0.2,3.3,2.1c0,1.6-1.5,2.3-3.3,2.3c-1.8,0-2.9-0.8-3.7-1.5l0.5-0.5c0.6,0.6,1.7,1.4,3.3,1.4
			C80.6,92.5,81.8,92,81.8,90.9z M91,86.7v1.1h-1v0.5h1V93h0.7v-4.6h1.6v-0.5h-1.6v-1.1c0-0.8,0.5-1.1,1-1.1c0.3,0,0.7,0.1,0.9,0.3
			l0.2-0.6c-0.3-0.3-0.8-0.4-1.2-0.4C91.8,85,91,85.5,91,86.7z M86.4,93.1c-1.6,0-2.8-1.2-2.8-2.7c0-1.5,1.2-2.7,2.8-2.7
			c1.6,0,2.8,1.2,2.8,2.7C89.1,91.9,87.9,93.1,86.4,93.1z M86.4,92.6c1.2,0,2.1-1,2.1-2.1c0-1.1-0.9-2.1-2.1-2.1c-1.2,0-2,1-2,2.1
			C84.3,91.6,85.2,92.6,86.4,92.6z M94.5,86.3v1.6h-1.1v0v0.5h1.1v3.3c0,1.1,0.7,1.4,1.4,1.4c0.4,0,0.9-0.1,1.2-0.3L97,92.3
			c-0.2,0.1-0.6,0.2-0.9,0.2c-0.4,0-0.8-0.2-0.8-0.8v-3.3h1.7v-0.5h-1.7v-1.6H94.5z M101.4,88.8L101.4,88.8l1.4,4.1h0.8l1.7-5.1
			h-0.8l-1.3,4.2h-0.1l-1.4-4.2h-0.7l-1.4,4.2h-0.1l-1.3-4.2h-0.7l1.7,5.1h0.8L101.4,88.8z M113.7,93v-3.6c0.3-0.4,0.8-1,1.4-1
			c0.2,0,0.6,0.1,0.7,0.2L116,88c-0.2-0.2-0.5-0.3-0.8-0.3c-0.7,0-1.3,0.5-1.6,1c0-0.3,0-0.6-0.1-0.9h-0.6c0.1,0.4,0.2,0.8,0.2,1.2
			V93H113.7z M121.6,90.2c0,0.1,0,0.1,0,0.2H117v0c0,1.1,0.7,2.1,2,2.1c0.8,0,1.5-0.3,2-0.8l0.5,0.4h0c-0.6,0.5-1.4,1-2.5,1
			c-1.7,0-2.7-1.2-2.7-2.6c0-1.6,1.2-2.8,2.7-2.8C120.3,87.7,121.6,88.5,121.6,90.2z M120.9,89.9c0-1.1-1-1.6-1.9-1.6
			c-1,0-1.7,0.7-1.9,1.6H120.9z M110.4,90.3v-0.9c0-0.8-0.8-1.1-1.6-1.1c-0.9,0-1.7,0.4-2,0.6l-0.3-0.6c0.4-0.3,1.3-0.7,2.3-0.7
			c1.1,0,2.3,0.4,2.3,1.5v2.8c0,0.3,0,0.6,0.2,0.9h-0.7c-0.1-0.2-0.2-0.5-0.2-0.8c-0.4,0.4-1.2,0.9-2.3,0.9c-1.3,0-2-0.7-2-1.8
			c0-0.9,0.8-1.7,2.3-1.7C109.1,89.6,110,89.8,110.4,90.3z M110.4,90.9c-0.3-0.5-1.1-0.7-1.9-0.7c-1.2,0-1.8,0.5-1.8,1.2
			c0,0.6,0.5,1.2,1.5,1.2c1.2,0,2.1-0.8,2.1-0.9V90.9z M129.5,89.9c0.9,0,1.5-0.2,1.9-0.6c0.4-0.4,0.6-0.9,0.6-1.5
			c0-0.5-0.2-1-0.5-1.4c-0.5-0.5-1.1-0.7-2-0.7h-3.9V93h0.7v-3.1H129.5z M126.4,86.4h3.1c0.6,0,1.1,0.1,1.4,0.5
			c0.2,0.3,0.4,0.6,0.4,0.9c0,0.4-0.1,0.7-0.4,1c-0.4,0.4-0.9,0.5-1.4,0.5h-3.1V86.4z M135,89.6c-1.5,0-2.3,0.8-2.3,1.7
			c0,1,0.8,1.8,2,1.8c1.1,0,1.9-0.5,2.3-0.9c0,0.3,0,0.6,0.2,0.8h0.7c-0.1-0.3-0.2-0.7-0.2-0.9v-2.8c0-1.1-1.2-1.5-2.3-1.5
			c-1,0-1.9,0.4-2.3,0.7l0.3,0.6c0.4-0.3,1.2-0.6,2-0.6c0.8,0,1.6,0.3,1.6,1.1v0.9C136.5,89.8,135.7,89.6,135,89.6z M137,91.6
			c-0.1,0.1-1,0.9-2.1,0.9c-1,0-1.5-0.5-1.5-1.2c0-0.6,0.5-1.2,1.8-1.2c0.8,0,1.5,0.2,1.9,0.7V91.6z M139.5,93v-3.9
			c0-0.4,0-0.8-0.2-1.2h0.6c0.1,0.3,0.1,0.6,0.1,0.9c0.4-0.5,0.9-1,1.6-1c0.3,0,0.7,0.1,0.8,0.3l-0.2,0.6c-0.2-0.2-0.5-0.2-0.7-0.2
			c-0.6,0-1.1,0.5-1.4,1V93H139.5z M159,90.4c0-0.1,0-0.2,0-0.2c0-1.8-1.4-2.5-2.6-2.5c-1.6,0-2.7,1.2-2.7,2.8c0,1.5,1,2.6,2.7,2.6
			c1,0,1.9-0.4,2.5-1l-0.5-0.4c-0.4,0.5-1.2,0.8-2,0.8c-1.3,0-2-0.9-2-2.1v0H159z M156.4,88.3c0.9,0,1.8,0.5,1.9,1.6h-3.8
			C154.7,89,155.4,88.3,156.4,88.3z M162.8,87.7c0.3,0,0.7,0.1,0.8,0.3l-0.2,0.6c-0.2-0.2-0.5-0.2-0.7-0.2c-0.6,0-1.1,0.5-1.4,1V93
			h-0.7v-3.9c0-0.4,0-0.8-0.2-1.2h0.6c0.1,0.3,0.1,0.6,0.1,0.9C161.5,88.2,162,87.7,162.8,87.7z M144.6,86.3v1.6h1.7v0.5h-1.7v3.3
			c0,0.6,0.4,0.8,0.8,0.8c0.3,0,0.7-0.1,0.9-0.2l0.1,0.5c-0.2,0.2-0.7,0.3-1.2,0.3c-0.6,0-1.4-0.4-1.4-1.4v-3.3h-1.1v-0.5v0h1.1
			v-1.6H144.6z M151.6,93v-3.5c0-0.7-0.6-1.2-1.4-1.2c-0.8,0-1.5,0.5-1.9,0.9V93h-0.7v-3.9c0-0.4,0-0.8-0.2-1.2h0.6
			c0.1,0.3,0.1,0.5,0.1,0.8c0.4-0.5,1.1-1,2-1c1.1,0,2,0.7,2,1.8V93H151.6z M179.2,85.8c0,0.2-0.2,0.4-0.5,0.4
			c-0.3,0-0.5-0.2-0.5-0.4c0-0.2,0.2-0.4,0.5-0.4C179,85.4,179.2,85.6,179.2,85.8z M165.5,86.4h2.8V93h0.7v-6.6h2.8v-0.7h-6.4V86.4z
			 M175.8,90.3v-0.9c0-0.8-0.8-1.1-1.6-1.1c-0.9,0-1.7,0.4-2,0.6l-0.3-0.6c0.4-0.3,1.3-0.7,2.3-0.7c1.1,0,2.3,0.4,2.3,1.5v2.8
			c0,0.3,0,0.6,0.2,0.9H176c-0.1-0.2-0.2-0.5-0.2-0.8c-0.4,0.4-1.2,0.9-2.3,0.9c-1.3,0-2-0.7-2-1.8c0-0.9,0.8-1.7,2.3-1.7
			C174.6,89.6,175.4,89.8,175.8,90.3z M175.8,90.9c-0.3-0.5-1.1-0.7-1.9-0.7c-1.2,0-1.8,0.5-1.8,1.2c0,0.6,0.5,1.2,1.5,1.2
			c1.2,0,2.1-0.8,2.1-0.9V90.9z M194,87.9V93h0.7v-5.1H194z M188,90.4L188,90.4c0,1.2,0.7,2.1,2,2.1c0.8,0,1.5-0.3,2-0.8l0.5,0.4
			c-0.6,0.5-1.4,1-2.5,1c-1.7,0-2.7-1.2-2.7-2.6c0-1.6,1.2-2.8,2.7-2.8c1.2,0,2.6,0.7,2.6,2.5c0,0.1,0,0.1,0,0.2H188z M188,89.9h3.8
			c0-1.1-1-1.6-1.9-1.6C189,88.3,188.3,89,188,89.9z M178.4,93h0.7v-5.1h-0.7V93z M194.4,85.4c-0.3,0-0.5,0.2-0.5,0.4
			c0,0.2,0.2,0.4,0.5,0.4c0.3,0,0.5-0.2,0.5-0.4C194.9,85.6,194.7,85.4,194.4,85.4z M181,95.4v-6.2c0-0.4,0-0.8-0.1-1.3h0.6
			c0.1,0.3,0.1,0.5,0.1,0.8c0.4-0.5,1.1-0.9,2-0.9c1.4,0,2.6,1.1,2.6,2.7c0,1.6-1.2,2.7-2.7,2.7c-0.8,0-1.4-0.4-1.8-0.9v3.1H181z
			 M181.7,91.7c0.3,0.4,1,0.9,1.8,0.9c1.1,0,2-0.8,2-2.1c0-1.3-0.9-2.1-1.9-2.1c-0.8,0-1.5,0.5-1.9,0.9V91.7z"/>
	</g>
</g>
<g id="Silver">
</g>
<g id="Partner">
</g>
</svg>
