<?xml version="1.0" encoding="utf-8"?>
<!-- Generator: Adobe Illustrator 22.1.0, SVG Export Plug-In . SVG Version: 6.00 Build 0)  -->
<svg version="1.1" xmlns="http://www.w3.org/2000/svg" xmlns:xlink="http://www.w3.org/1999/xlink" x="0px" y="0px"
	 viewBox="0 0 240 120" style="enable-background:new 0 0 240 120;" xml:space="preserve">
<style type="text/css">
	.st0{fill:#333F48;}
	.st1{fill:#002D74;}
	.st2{opacity:0.5;fill:url(#SVGID_1_);}
	.st3{opacity:0.5;fill:url(#SVGID_2_);}
	.st4{fill:#DC2314;}
	.st5{fill:#5F696E;}
	.st6{fill:#202326;}
	.st7{fill:#F6961E;}
	.st8{fill:#323333;}
	.st9{fill:url(#logo_1_);}
	.st10{fill:url(#SVGID_3_);}
	.st11{fill:url(#SVGID_4_);}
	.st12{fill:#00B7AD;}
	.st13{fill:#66BE77;}
	.st14{fill:url(#SVGID_5_);}
	.st15{fill:#D7233B;}
</style>
<g id="Platinum">
	<g id="SCOUT">
		<path class="st6" d="M112.7,68.1c0.3,0.6,0.4,1.4,0.4,2.3c0,0.4-0.1,1-0.2,1.6c-0.1,0.6-0.4,1.3-0.9,2c-0.9,1.2-2.1,2.1-3.7,2.6
			c-1.6,0.5-3.4,0.8-5.6,0.8c-0.9,0-1.8-0.1-2.8-0.2c-1-0.1-1.9-0.3-2.6-0.5c-1.1-0.3-2-0.6-2.7-1c-0.7-0.4-1.4-0.8-1.9-1.2
			c-0.5-0.4-0.9-0.8-1.2-1.2c-0.3-0.4-0.5-0.6-0.6-0.9c-0.1-0.1-0.1-0.2,0-0.3c0-0.1,0.1-0.2,0.2-0.2l2.7-1.1c0,0,0.1,0,0.1,0
			c0.1,0,0.2,0,0.2,0.1c0.1,0.2,0.3,0.4,0.5,0.5c0.2,0.2,0.5,0.4,0.9,0.7c1.1,0.7,2.3,1.3,3.5,1.5c1.3,0.3,2.6,0.4,3.9,0.4
			c2.2,0,3.9-0.4,5-1.1c1.1-0.7,1.6-1.6,1.6-2.7c0-0.6-0.2-1.1-0.5-1.5c-0.3-0.4-0.8-0.7-1.4-0.9c-0.6-0.2-1.4-0.4-2.2-0.5
			c-0.9-0.1-1.8-0.2-2.8-0.3c-1.3-0.1-2.4-0.2-3.3-0.3c-0.9-0.1-1.7-0.2-2.3-0.3c-0.7-0.1-1.2-0.3-1.7-0.5c-0.5-0.2-0.9-0.5-1.3-0.9
			c-0.7-0.6-1.1-1.3-1.3-1.9c-0.2-0.6-0.3-1.2-0.3-1.7c0-1,0.2-1.9,0.6-2.6c0.4-0.7,0.9-1.3,1.6-1.8c0.6-0.5,1.3-0.8,2.1-1.1
			c0.8-0.2,1.5-0.4,2.2-0.5c0.7-0.1,1.4-0.2,2-0.2c0.6,0,1.1,0,1.4,0c1.5,0,2.9,0.1,4.3,0.4c1.4,0.3,2.8,0.9,4,1.7
			c0.5,0.4,0.9,0.7,1.2,1c0.3,0.3,0.6,0.7,0.9,1.1c0.1,0.1,0.1,0.2,0,0.3c0,0.1-0.1,0.2-0.2,0.2l-2.6,1.1c0,0-0.1,0-0.1,0
			c-0.1,0-0.2,0-0.2-0.1l-0.6-0.6c-0.2-0.2-0.3-0.3-0.6-0.5c-0.9-0.6-1.9-1.1-2.9-1.3c-1.1-0.2-2.1-0.4-3.2-0.4
			c-0.8,0-1.7,0.1-2.6,0.2c-0.9,0.1-1.6,0.3-2.2,0.6c-0.6,0.3-1.1,0.7-1.3,1.1C96.2,60.6,96,61,96,61.4c0,0.5,0.2,1,0.5,1.4
			c0.3,0.4,0.7,0.6,1.2,0.7c0.6,0.1,1.3,0.3,2.3,0.4c0.9,0.1,1.8,0.2,2.8,0.3c0.9,0.1,1.8,0.2,2.8,0.3c0.5,0,0.9,0.1,1.3,0.2
			c0.4,0.1,0.9,0.2,1.3,0.3c0.6,0.1,1.1,0.3,1.7,0.6c0.6,0.3,1.1,0.6,1.6,1.1C112.1,66.9,112.5,67.4,112.7,68.1z M144.1,70.8
			c0,0.1,0,0.2,0,0.3c-0.4,0.7-0.9,1.4-1.4,2.1c-0.5,0.7-1.3,1.4-2.4,2.1c-0.7,0.4-1.4,0.8-2.1,1c-0.7,0.3-1.4,0.5-2.2,0.6
			c-0.7,0.2-1.4,0.3-2.2,0.3c-0.7,0.1-1.4,0.1-2,0.1c-2.1,0-4-0.3-5.6-0.9c-1.6-0.6-2.9-1.4-4-2.4c-1.1-1-1.9-2.2-2.4-3.6
			c-0.5-1.4-0.8-2.8-0.8-4.4c0-1.2,0.1-2.3,0.4-3.3c0.3-0.9,0.6-1.7,1-2.4c0.4-0.7,0.8-1.2,1.3-1.7c0.4-0.4,0.8-0.8,1.2-1
			c0.2-0.2,0.5-0.4,1-0.7c0.4-0.3,1-0.6,1.7-0.9c0.7-0.3,1.6-0.5,2.5-0.7c1-0.2,2.2-0.3,3.5-0.3c0.4,0,0.9,0,1.5,0.1
			c0.6,0,1.3,0.1,2,0.3c0.7,0.1,1.5,0.3,2.2,0.6c0.8,0.3,1.5,0.6,2.2,1c0.6,0.4,1,0.7,1.5,1.1c0.4,0.4,0.8,0.8,1.1,1.1
			c0.3,0.4,0.6,0.7,0.8,1c0.2,0.3,0.4,0.6,0.5,0.8c0.1,0.1,0.1,0.2,0,0.3c0,0.1-0.1,0.2-0.2,0.2l-3.1,0.7c0,0,0,0-0.1,0
			c-0.1,0-0.2-0.1-0.3-0.2c-0.2-0.4-0.5-0.8-0.8-1.2c-0.3-0.4-0.7-0.8-1.3-1.2c-0.6-0.4-1.4-0.7-2.4-1c-1-0.3-2.2-0.5-3.5-0.5
			c-1.2,0-2.3,0.1-3.4,0.4c-1.1,0.3-2.1,0.7-2.9,1.4c-0.8,0.6-1.5,1.4-2,2.4c-0.5,1-0.7,2.2-0.7,3.6c0,1,0.2,2,0.5,2.9
			c0.3,0.9,0.8,1.9,1.6,2.7c0.7,0.7,1.6,1.3,2.8,1.8c1.2,0.5,2.7,0.7,4.5,0.7c0.1,0,0.2,0,0.2,0c1.4,0,2.7-0.2,3.6-0.5
			c1-0.3,1.8-0.7,2.4-1.2c0,0,0,0,0,0c0.5-0.4,1-0.8,1.3-1.2c0.3-0.4,0.6-0.8,0.7-1.1c0.1-0.1,0.2-0.2,0.3-0.2c0,0,0,0,0.1,0
			l3.1,0.6C143.9,70.6,144,70.7,144.1,70.8z M174,61.9c0.7,1.4,1,3,1,4.7c0,1.8-0.3,3.4-1,4.7c-0.7,1.3-1.6,2.5-2.8,3.4
			c-1.2,0.9-2.5,1.6-4,2c-1.5,0.4-3.1,0.7-4.8,0.7c-1.5,0-3-0.2-4.5-0.5c-1.5-0.3-2.9-0.9-4.1-1.8c-0.5-0.4-1-0.8-1.5-1.3
			c-0.5-0.5-1-1.1-1.4-1.8c-0.4-0.7-0.7-1.5-1-2.4c-0.2-0.9-0.4-1.9-0.4-3c0-1.9,0.4-3.6,1.1-5.1c0.7-1.4,1.7-2.6,2.9-3.5
			c1.2-0.9,2.6-1.6,4.1-2.1c1.5-0.4,3-0.7,4.6-0.7c1.8,0,3.5,0.3,5.1,0.8c1.6,0.5,2.9,1.3,4.1,2.3C172.4,59.3,173.3,60.5,174,61.9z
			 M166.9,73.5c1.2-0.5,2.1-1.2,2.8-1.9c0.7-0.8,1.1-1.6,1.4-2.6c0.3-0.9,0.4-1.8,0.4-2.7c0-1.3-0.2-2.4-0.7-3.4
			c-0.5-1-1.2-1.8-2-2.5c-0.9-0.7-1.9-1.2-3-1.5c-1.1-0.3-2.2-0.5-3.4-0.5c-0.1,0-0.3,0-0.4,0c-1,0-2.1,0.2-3.1,0.5
			c-1,0.3-2,0.7-2.8,1.4c-0.8,0.6-1.5,1.4-2.1,2.4c-0.5,1-0.8,2.2-0.8,3.7c0,0.8,0.1,1.6,0.4,2.5c0.2,0.9,0.7,1.7,1.4,2.5
			c0.9,1.1,2.1,1.8,3.4,2.2c1.4,0.4,2.8,0.6,4.2,0.6C164.2,74.3,165.7,74,166.9,73.5z M203.3,55.8h-2.9c-0.2,0-0.3,0.1-0.3,0.3v12.5
			c0,0.4,0,0.9,0,1.3c0,0.4-0.1,0.9-0.3,1.3c-0.2,0.4-0.4,0.8-0.7,1.2c-0.3,0.4-0.8,0.7-1.4,1c-0.5,0.3-1.2,0.5-2,0.6
			c-0.8,0.2-1.7,0.2-2.7,0.2c-0.8,0-1.5,0-2.1-0.1c-0.6-0.1-1.1-0.2-1.6-0.4c-0.4-0.1-0.8-0.3-1.1-0.4c-0.3-0.2-0.5-0.3-0.7-0.4
			c-0.4-0.3-0.7-0.5-1-0.8c-0.2-0.3-0.4-0.6-0.6-1c-0.1-0.4-0.2-0.8-0.3-1.2c0-0.5-0.1-1-0.1-1.6V56.1c0-0.2-0.1-0.3-0.3-0.3h-2.9
			c-0.2,0-0.3,0.1-0.3,0.3v12c0,0.6,0,1.2,0.1,1.8c0,0.6,0.2,1.3,0.4,1.9c0.2,0.6,0.5,1.2,0.9,1.8c0.4,0.6,1,1.2,1.8,1.7
			c1.1,0.8,2.4,1.3,3.7,1.6c1.3,0.3,2.7,0.4,4,0.4c1.8,0,3.4-0.2,4.6-0.5c1.2-0.4,2.2-0.8,2.9-1.3c0.8-0.5,1.4-1.1,1.9-1.7
			c0.4-0.6,0.8-1.2,1-1.9c0.2-0.6,0.3-1.3,0.4-1.9c0-0.6,0-1.2,0-1.7V56.1C203.7,55.9,203.5,55.8,203.3,55.8z M229.7,55.8h-19.6
			c-0.2,0-0.3,0.1-0.3,0.3v2.4c0,0.2,0.1,0.3,0.3,0.3h8v17.7c0,0.2,0.1,0.3,0.3,0.3h2.9c0.2,0,0.3-0.1,0.3-0.3V58.8h8.1
			c0.2,0,0.3-0.1,0.3-0.3v-2.4C230,55.9,229.9,55.8,229.7,55.8z"/>
		<path class="st7" d="M73.3,45.8l-3.8,5.1h-8.1l-7.2,7.3l0.3,2.1l3.2,2.3l-6.4,5.1h-5.4l2.2-3h2.4l1.9-1.4l-5.9-2.1l-9.9,0.4
			l-8.2,6.6l-7.6,3.2L18.3,75l0.5,2.8h-4.2l4.6-9.5l6.8-5.9l1.9-6.9l-16.4-4.1L10,50.4l20.9,1.8L52.2,47l5.8-4.3l1.1,4.5l1.2,1.4
			l2-6.5l3.8,0.6l0.7,1.7L73.3,45.8z M54.1,67.4l-2.6,2.1l2.4,8.3h4l-1.9-2.5L54.1,67.4z M29,69.7l2.5,7.3h4l-1.9-2.5l-0.9-2.4
			l5.2-3.2l1.8-5.9L37,63.2L29,69.7z"/>
	</g>
</g>
<g id="Silver">
</g>
<g id="Partner">
</g>
</svg>
