<?xml version="1.0" encoding="utf-8"?>
<!-- Generator: Adobe Illustrator 22.1.0, SVG Export Plug-In . SVG Version: 6.00 Build 0)  -->
<svg version="1.1" xmlns="http://www.w3.org/2000/svg" xmlns:xlink="http://www.w3.org/1999/xlink" x="0px" y="0px"
	 viewBox="0 0 180 90" style="enable-background:new 0 0 180 90;" xml:space="preserve">
<style type="text/css">
	.st0{fill:#333F48;}
	.st1{fill:#002D74;}
	.st2{opacity:0.5;fill:url(#SVGID_1_);}
	.st3{opacity:0.5;fill:url(#SVGID_2_);}
	.st4{fill:#DC2314;}
	.st5{fill:#5F696E;}
	.st6{fill:#202326;}
	.st7{fill:#F6961E;}
	.st8{fill:#323333;}
	.st9{fill:url(#logo_1_);}
	.st10{fill:url(#SVGID_3_);}
	.st11{fill:url(#SVGID_4_);}
	.st12{fill:#00B7AD;}
	.st13{fill:#66BE77;}
	.st14{fill:url(#SVGID_5_);}
	.st15{fill:#002C6C;}
	.st16{fill:#EC2281;}
	.st17{fill:#20B8A0;}
	.st18{fill:#FAA928;}
	.st19{fill:#D7233B;}
	.st20{fill:#0E0D0D;}
	.st21{fill:#110323;}
	.st22{fill:url(#SVGID_6_);}
	.st23{fill:url(#SVGID_7_);}
	.st24{fill:url(#SVGID_8_);}
	.st25{fill:url(#SVGID_9_);}
	.st26{fill:url(#SVGID_10_);}
	.st27{fill:url(#SVGID_11_);}
	.st28{clip-path:url(#SVGID_13_);}
	.st29{fill:url(#SVGID_14_);}
	.st30{fill:url(#SVGID_15_);}
	.st31{fill:url(#SVGID_16_);}
	.st32{fill:#231815;}
</style>
<g id="Platinum">
</g>
<g id="Silver">
	<g id="ticketsolve_1_">
		<g id="ticketsolve">
			<path class="st15" d="M120.1,37l-1.1,2.2c-1.2-0.7-2.5-1.1-3.8-1.1c-1.5,0-2.4,0.6-2.4,1.6c0,1.2,1.3,1.5,3.1,2.1
				c2.4,0.7,4.4,1.6,4.4,4.1c0,2.9-2.3,4.7-5.8,4.7c-1.8,0-3.5-0.6-5-1.6l0.9-2.5c1.2,0.8,2.6,1.3,4,1.3c1.8,0,2.8-0.8,2.8-1.8
				c0-1.3-1.6-1.4-3.6-2.1c-2.4-0.8-3.8-1.9-3.8-4.1c0-2.7,2.2-4.3,5.4-4.3C117,35.5,118.7,36,120.1,37z"/>
			<path class="st15" d="M136,43c0,5.2-3.5,7.5-7.2,7.5s-7.2-2.3-7.2-7.5s3.5-7.5,7.2-7.5S136,37.8,136,43z M125,43
				c0,3,1.5,4.6,3.9,4.6s3.9-1.7,3.9-4.6c0-2.9-1.4-4.6-3.9-4.6S125,40.1,125,43z"/>
			<path class="st15" d="M137.7,50.2V29.7h3.3v20.5H137.7z"/>
			<path class="st15" d="M151.2,50.2h-3L142.6,36h3.5l3.7,10.8l3.7-10.8h3.6L151.2,50.2z"/>
			<path class="st15" d="M170,42.3c0,0.6-0.1,1.3-0.2,1.9H160c0.4,2.7,2,3.7,4.1,3.7c1.5,0,2.9-0.5,4.1-1.4l1.4,2.1
				c-1.7,1.4-3.8,2.1-5.9,2c-3.7,0-6.9-2.4-6.9-7.5c0-4.6,2.7-7.6,6.8-7.6C167.9,35.5,170,38.8,170,42.3L170,42.3z M167,42
				c-0.1-2.4-1.4-3.9-3.4-3.9s-3.4,1.2-3.6,3.9H167z"/>
			<path class="st16" d="M49.2,35.9v2.8h-3.5v7.7c0,0.9,0.5,1.3,1.1,1.3c0.6,0,1.3-0.2,1.9-0.4l0.8,2.3c-1,0.7-2.2,1-3.5,1
				c-2.3,0-3.6-1-3.6-3.5v-8.4h-2.2v-2.8h2.2v-1.8l1.9-1.9h1.4v3.7H49.2z"/>
			<rect x="51.9" y="35.9" class="st16" width="3.2" height="14.2"/>
			<path class="st16" d="M64.2,35.5c1.8,0,3.6,0.6,5.1,1.7L68,39.5c-1-0.8-2.2-1.2-3.4-1.2c-2.4,0-4.1,1.6-4.1,4.6
				c0,3,1.8,4.8,4.2,4.8c1.3,0,2.6-0.5,3.6-1.3l1.4,2.1c-1.4,1.3-3.3,2.1-5.3,2c-4,0-7.2-2.7-7.2-7.6S60.4,35.5,64.2,35.5L64.2,35.5
				z"/>
			<path class="st16" d="M76,44.1l-1.6,1.8v4.2h-3.3V29.7h3.3V42l4.9-6.1h4l-5.3,5.9l6.2,8.4h-4L76,44.1z"/>
			<path class="st16" d="M97.3,42.3c0,0.6-0.1,1.3-0.2,1.9h-9.8c0.4,2.7,2,3.7,4.1,3.7c1.5,0,2.9-0.5,4-1.4l1.4,2.1
				c-1.7,1.4-3.8,2.1-5.9,2c-3.7,0-6.9-2.4-6.9-7.5c0-4.6,2.7-7.6,6.8-7.6C95.1,35.5,97.2,38.8,97.3,42.3L97.3,42.3z M94.3,42
				c-0.1-2.4-1.4-3.9-3.4-3.9s-3.4,1.2-3.6,3.9H94.3z"/>
			
				<rect x="51.9" y="30.1" transform="matrix(0.7071 -0.7071 0.7071 0.7071 -6.7714 47.1133)" class="st16" width="3.2" height="3.2"/>
			<path class="st16" d="M107.2,35.9v2.8h-3.5v7.7c0,0.9,0.5,1.3,1.1,1.3c0.6,0,1.3-0.2,1.9-0.4l0.8,2.3c-1,0.7-2.2,1-3.4,1
				c-2.3,0-3.6-1-3.6-3.5v-8.4h-2.2v-2.8h2.2v-1.8l1.9-1.9h1.4v3.7H107.2z"/>
			<polygon class="st16" points="18.1,33.9 26.2,42 34.3,33.9 			"/>
			<rect x="18.1" y="42" class="st15" width="8.1" height="8.1"/>
			<polygon class="st17" points="26.2,25.9 26.2,34 18.1,34 			"/>
			<polygon class="st18" points="18.1,34 18.1,25.9 26.2,25.9 			"/>
			<polygon class="st17" points="26.2,58.2 18.1,50.1 26.2,50.1 			"/>
			<polygon class="st15" points="34.3,50.1 26.2,58.2 26.2,50.1 			"/>
			<polygon class="st18" points="26.2,42 18.1,42 18.1,33.9 			"/>
			<polygon class="st16" points="10,42 18.1,42 18.1,33.9 			"/>
			<path class="st16" d="M43.6,57.6c0.4-0.4,0.9-0.7,1.4-0.6c1.2,0,2.1,0.9,2.1,2.5c0,1.6-0.9,2.7-2.3,2.7c-0.6,0-1.1-0.2-1.4-0.7
				l0,0l-0.2,0.5h-0.8V55h1.1L43.6,57.6L43.6,57.6z M43.6,58.6v2.1c0.3,0.3,0.7,0.5,1.1,0.5c0.8,0,1.3-0.7,1.3-1.7
				c0-1-0.5-1.5-1.3-1.5C44.3,58,43.9,58.2,43.6,58.6L43.6,58.6z"/>
			<path class="st16" d="M51.6,61.4c-0.4,0.5-1,0.8-1.6,0.8c-0.9,0.1-1.6-0.6-1.7-1.4c0-0.1,0-0.2,0-0.3v-3.3h1.1v3.1
				c0,0.8,0.3,1,0.8,1c0.5,0,1-0.3,1.3-0.8v-3.3h1.1v5h-0.8L51.6,61.4z"/>
			<path class="st16" d="M55.2,55.7c0,0.4-0.3,0.7-0.7,0.7c-0.4,0-0.7-0.3-0.7-0.7s0.3-0.7,0.7-0.7C54.9,55,55.2,55.3,55.2,55.7z
				 M54,62.1v-5h1.1v5H54z"/>
			<path class="st16" d="M56.5,62.1V55h1.1v7.2L56.5,62.1z"/>
			<path class="st16" d="M61.7,57.1v1h-1.2v2.7c0,0.3,0.2,0.4,0.4,0.4c0.2,0,0.4-0.1,0.7-0.1l0.3,0.8c-0.4,0.2-0.8,0.3-1.2,0.3
				c-0.6,0.1-1.2-0.3-1.3-0.9c0-0.1,0-0.2,0-0.4v-2.9h-0.8v-1h0.8v-0.6l0.5-0.6h0.6v1.3L61.7,57.1z"/>
			<path class="st16" d="M67.3,54.8c0.3,0,0.6,0,0.9,0.1L68,55.8c-0.2,0-0.3-0.1-0.5-0.1c-0.5,0-0.7,0.2-0.7,0.6v0.8H68v1h-1.2v4
				h-1.1v-4H65v-1h0.7v-0.8c-0.1-0.8,0.6-1.5,1.4-1.5C67.1,54.8,67.2,54.8,67.3,54.8L67.3,54.8z"/>
			<path class="st16" d="M73.5,59.6c-0.1,1.4-1.2,2.5-2.6,2.4c-1.4-0.1-2.5-1.2-2.4-2.6c0.1-1.4,1.2-2.4,2.5-2.4
				c1.3-0.1,2.5,1,2.5,2.3C73.5,59.4,73.5,59.5,73.5,59.6z M69.6,59.6c0,1,0.5,1.6,1.3,1.6c0.8,0,1.3-0.6,1.3-1.6
				c0-1-0.5-1.6-1.3-1.6S69.6,58.6,69.6,59.6z"/>
			<path class="st16" d="M77.5,57.1l-0.2,1C77.1,58.1,77,58,76.8,58c-0.4,0-0.8,0.3-1,1v3h-1.2v-5h0.9l0.2,0.7l0,0
				c0.2-0.7,0.9-1,1.6-0.8c0.1,0,0.1,0.1,0.2,0.1L77.5,57.1z"/>
			<path class="st16" d="M83.6,57.1v1h-1.2v2.7c0,0.3,0.2,0.4,0.4,0.4c0.2,0,0.4,0,0.7-0.1l0.3,0.8c-0.4,0.2-0.8,0.3-1.2,0.3
				c-0.8,0-1.3-0.4-1.3-1.2v-2.9h-0.8v-1h0.8v-0.6l0.5-0.6h0.6v1.3L83.6,57.1z"/>
			<path class="st16" d="M85.7,57.8c0.4-0.5,1-0.8,1.6-0.8c0.9-0.1,1.6,0.6,1.7,1.4c0,0.1,0,0.2,0,0.3v3.4h-1.1v-3.2
				c0.1-0.4-0.2-0.9-0.7-0.9c-0.1,0-0.1,0-0.2,0c-0.5,0-1,0.3-1.2,0.8v3.3h-1.1V55h1.1V57.8z"/>
			<path class="st16" d="M94.7,59.3c0,0.2,0,0.5-0.1,0.7h-3.4c0,0.7,0.6,1.3,1.3,1.3c0,0,0.1,0,0.1,0c0.5,0,1-0.2,1.4-0.5l0.5,0.7
				c-0.6,0.5-1.3,0.7-2.1,0.7c-1.3,0-2.4-1-2.4-2.3c0-0.1,0-0.2,0-0.4c-0.1-1.3,0.8-2.5,2.1-2.6c0.1,0,0.2,0,0.3,0
				c1.2,0,2.2,0.9,2.3,2.1C94.7,59.2,94.7,59.3,94.7,59.3L94.7,59.3z M93.7,59.2c0-0.8-0.5-1.4-1.2-1.4s-1.2,0.4-1.3,1.4H93.7z"/>
			<path class="st16" d="M100.4,57c1.4,0,2,0.6,2,1.8V61c0,0.2,0.1,0.4,0.3,0.4h0.2l-0.1,0.7c-0.2,0.1-0.4,0.2-0.6,0.2
				c-0.4,0-0.7-0.2-0.8-0.6c-0.4,0.4-0.9,0.6-1.5,0.6c-1,0-1.8-0.5-1.8-1.5c0-1.1,0.9-1.4,2-1.4c0.4,0,0.8,0,1.1,0.1v-0.5
				c0-0.7-0.4-1-1-1c-0.5,0-1,0.2-1.4,0.5l-0.5-0.7C99,57.2,99.7,56.9,100.4,57L100.4,57z M99.2,60.7c0,0.5,0.4,0.7,0.9,0.7
				c0.5,0,0.9-0.2,1.2-0.6v-0.7c-0.3-0.1-0.7-0.1-1-0.1C99.7,60,99.2,60.2,99.2,60.7L99.2,60.7z"/>
			<path class="st16" d="M106.7,57.1l-0.2,1c-0.2-0.1-0.3-0.1-0.5-0.1c-0.4,0-0.8,0.3-1,1v3h-1.2v-5h0.9l0.2,0.7l0,0
				c0.2-0.5,0.6-0.9,1.2-0.9C106.3,56.9,106.5,57,106.7,57.1z"/>
			<path class="st16" d="M110.4,57.1v1h-1.2v2.7c0,0.3,0.2,0.4,0.4,0.4c0.2,0,0.4-0.1,0.7-0.1l0.3,0.8c-0.4,0.2-0.8,0.3-1.2,0.3
				c-0.6,0.1-1.2-0.3-1.3-0.9c0-0.1,0-0.2,0-0.4v-2.9h-0.8v-1h0.8v-0.6l0.5-0.6h0.6v1.3L110.4,57.1z"/>
			<path class="st16" d="M115,57.5l-0.4,0.8c-0.4-0.2-0.9-0.4-1.3-0.4c-0.5,0-0.8,0.2-0.8,0.6s0.5,0.5,1.1,0.7
				c0.8,0.2,1.5,0.6,1.5,1.5s-0.8,1.6-2,1.6c-0.6,0-1.3-0.2-1.8-0.5l0.3-0.9c0.4,0.3,0.9,0.4,1.4,0.4c0.6,0,1-0.3,1-0.6
				s-0.6-0.5-1.3-0.7s-1.3-0.7-1.3-1.4c0-0.9,0.8-1.5,1.9-1.5C113.9,57,114.5,57.2,115,57.5z"/>
			<path class="st16" d="M117.5,61.6c0,0.7-0.4,1.4-1,1.8l-0.4-0.3c0.3-0.3,0.5-0.6,0.6-1c-0.3,0-0.6-0.3-0.6-0.7
				c0-0.3,0.2-0.6,0.6-0.6c0,0,0,0,0.1,0c0.4,0,0.7,0.3,0.7,0.7C117.5,61.5,117.5,61.6,117.5,61.6z"/>
			<path class="st16" d="M122.6,57.6c0.4-0.4,0.9-0.6,1.4-0.6c1.2,0,2.1,0.9,2.1,2.5c0,1.6-1,2.7-2.3,2.7c-0.6,0-1.1-0.2-1.4-0.7
				l0,0l-0.2,0.5h-0.8V55h1.1L122.6,57.6L122.6,57.6z M122.6,58.6v2.1c0.3,0.3,0.7,0.5,1.1,0.5c0.8,0,1.3-0.7,1.3-1.7
				c0-1-0.5-1.5-1.2-1.5C123.3,58,122.8,58.3,122.6,58.6L122.6,58.6z"/>
			<path class="st16" d="M129.7,62.4c-0.4,1.1-1,1.7-1.9,1.7c-0.4,0-0.7,0-1.1-0.1l0.2-0.9c0.2,0.1,0.4,0.1,0.7,0.1
				c0.4,0,0.8-0.3,0.9-0.7l0.1-0.2l-2.1-5.2h1.2l1.4,4l1.3-4h1.2L129.7,62.4z"/>
			<path class="st16" d="M137.9,57.1v1h-1.2v2.7c0,0.3,0.2,0.4,0.4,0.4c0.2,0,0.4-0.1,0.6-0.1l0.3,0.8c-0.4,0.2-0.8,0.3-1.2,0.3
				c-0.6,0.1-1.2-0.3-1.3-0.9c0-0.1,0-0.2,0-0.4v-2.9h-0.8v-1h0.8v-0.6l0.5-0.6h0.6v1.3L137.9,57.1z"/>
			<path class="st16" d="M140,57.8c0.4-0.5,1-0.8,1.6-0.8c0.9-0.1,1.6,0.5,1.7,1.4c0,0.1,0,0.2,0,0.3v3.4h-1.1v-3.2
				c0.1-0.4-0.3-0.9-0.7-0.9c-0.1,0-0.1,0-0.2,0c-0.5,0-1,0.3-1.2,0.8v3.3h-1.1V55h1.1V57.8z"/>
			<path class="st16" d="M149,59.3c0,0.2,0,0.5-0.1,0.7h-3.4c0,0.7,0.6,1.3,1.4,1.3c0,0,0,0,0.1,0c0.5,0,1-0.2,1.4-0.5l0.5,0.7
				c-0.6,0.5-1.3,0.7-2.1,0.7c-1.3,0-2.4-1-2.4-2.3c0-0.1,0-0.2,0-0.3c-0.1-1.3,0.8-2.5,2.1-2.6c0.1,0,0.2,0,0.3,0
				c1.2,0,2.2,0.9,2.3,2.1C149,59.2,149,59.3,149,59.3z M147.9,59.2c0-0.8-0.5-1.4-1.2-1.4s-1.2,0.4-1.3,1.4H147.9z"/>
			<path class="st16" d="M156.7,58.8v2.1c0,0.2,0.1,0.4,0.3,0.4h0.2l-0.1,0.7c-0.2,0.1-0.4,0.2-0.6,0.2c-0.4,0-0.7-0.2-0.8-0.6
				c-0.4,0.4-0.9,0.6-1.5,0.6c-1,0-1.8-0.5-1.8-1.5s0.9-1.4,2-1.4c0.4,0,0.8,0,1.1,0.1v-0.5c0-0.7-0.4-1-1-1c-0.5,0-1,0.2-1.4,0.5
				l-0.4-0.7c0.6-0.5,1.3-0.7,2-0.7C156,57,156.7,57.6,156.7,58.8z M153.5,60.7c0,0.5,0.4,0.7,0.9,0.7c0.5,0,0.9-0.2,1.2-0.6v-0.7
				c-0.3-0.1-0.7-0.1-1-0.1C153.9,60,153.5,60.2,153.5,60.7z"/>
			<path class="st16" d="M161,57.1l-0.2,1c-0.2-0.1-0.3-0.1-0.5-0.1c-0.4,0-0.8,0.3-1,1v3H158v-5h0.9l0.2,0.7l0,0
				c0.2-0.7,0.9-1,1.6-0.8c0.1,0,0.1,0.1,0.2,0.1L161,57.1z"/>
			<path class="st16" d="M164.7,57.1v1h-1.2v2.7c0,0.3,0.2,0.4,0.4,0.4c0.2,0,0.4-0.1,0.6-0.1l0.3,0.8c-0.4,0.2-0.8,0.3-1.2,0.3
				c-0.6,0.1-1.2-0.3-1.3-0.9c0-0.1,0-0.2,0-0.4v-2.9h-0.8v-1h0.8v-0.6l0.5-0.6h0.6v1.3L164.7,57.1z"/>
			<path class="st16" d="M169.3,57.5l-0.4,0.8c-0.4-0.2-0.9-0.4-1.3-0.4c-0.5,0-0.8,0.2-0.8,0.6s0.5,0.5,1.1,0.7
				c0.8,0.2,1.5,0.6,1.5,1.5s-0.8,1.6-2.1,1.6c-0.6,0-1.3-0.2-1.8-0.5l0.3-0.9c0.4,0.3,0.9,0.4,1.4,0.4c0.6,0,1-0.3,1-0.6
				s-0.6-0.5-1.3-0.7s-1.3-0.7-1.3-1.4c0-0.9,0.8-1.5,1.9-1.5C168.2,57,168.8,57.2,169.3,57.5z"/>
		</g>
	</g>
</g>
<g id="Partner">
</g>
<g id="Speakers">
</g>
</svg>
