<?xml version="1.0" standalone="no"?>
<!DOCTYPE svg PUBLIC "-//W3C//DTD SVG 20010904//EN"
 "http://www.w3.org/TR/2001/REC-SVG-20010904/DTD/svg10.dtd">
<svg version="1.0" xmlns="http://www.w3.org/2000/svg"
 width="376.000000pt" height="376.000000pt" viewBox="0 0 376.000000 376.000000"
 preserveAspectRatio="xMidYMid meet">
<metadata>
Created by potrace 1.11, written by Peter Selinger 2001-2013
</metadata>
<g transform="translate(0.000000,376.000000) scale(0.100000,-0.100000)"
fill="#000000" stroke="none">
<path d="M1739 3436 c-2 -3 -31 -7 -64 -10 -135 -12 -345 -76 -490 -148 -711
-356 -1041 -1167 -783 -1923 68 -200 220 -440 373 -590 224 -220 514 -370 830
-432 128 -24 416 -24 544 0 343 67 607 207 846 451 118 121 193 223 269 366
77 146 143 343 161 480 3 25 8 62 11 82 8 51 7 260 -1 328 -53 463 -304 877
-683 1131 -151 101 -363 197 -492 223 -14 3 -61 12 -105 22 -71 14 -405 30
-416 20z m-17 -98 c33 -37 33 -36 11 -60 -16 -18 -18 -17 -61 28 -33 36 -40
49 -30 55 25 16 51 9 80 -23z m387 23 c11 -7 6 -18 -25 -55 -36 -43 -39 -45
-56 -29 -24 22 -23 36 8 67 28 27 49 32 73 17z m-166 -81 c32 -32 60 -69 62
-80 4 -19 25 -54 65 -104 29 -38 116 -123 144 -141 29 -19 26 -25 -20 -39 -17
-5 -35 6 -84 54 -34 33 -66 57 -72 54 -7 -4 -8 -2 -4 4 4 7 -9 32 -28 57 -19
25 -37 41 -41 35 -3 -5 -3 -15 0 -20 4 -6 1 -9 -6 -8 -7 2 -14 -1 -14 -7 -1
-5 -4 -17 -8 -25 -18 -46 -37 -113 -32 -118 2 -3 1 -10 -5 -17 -5 -6 -10 -28
-12 -49 -2 -35 -14 -60 -15 -33 -3 60 -35 180 -64 242 -12 25 -23 44 -24 43
-55 -66 -95 -120 -95 -128 0 -5 -3 -9 -7 -8 -14 5 -73 -55 -66 -66 3 -6 3 -8
-2 -4 -4 4 -16 3 -26 -2 -11 -7 -27 -6 -45 0 l-27 11 44 42 c24 23 45 41 47
40 13 -6 145 161 135 171 -4 3 -1 6 6 6 7 0 9 5 5 11 -6 10 111 139 126 139 3
0 31 -27 63 -60z m-773 -91 c0 -28 137 -182 154 -172 6 3 8 2 3 -2 -4 -5 2
-18 12 -29 l20 -21 -46 4 c-33 2 -53 11 -74 30 -15 15 -51 40 -78 54 l-49 27
-20 -52 -20 -53 -60 -3 -60 -3 -12 37 c-15 43 -19 39 125 134 93 62 105 68
105 49z m1505 -38 c44 -27 97 -64 118 -83 36 -32 38 -34 26 -66 -11 -33 -11
-33 -72 -30 l-61 3 -15 48 c-8 26 -19 47 -25 47 -20 0 -90 -41 -121 -71 -26
-24 -40 -29 -80 -29 l-50 0 38 31 c21 18 34 36 30 42 -3 7 -3 9 2 5 14 -13 99
88 88 105 -3 6 -1 7 5 3 12 -7 35 27 25 38 -20 20 23 0 92 -43z m-1629 -240
c11 -1 10 -87 -1 -119 -7 -18 25 -28 36 -11 6 10 9 10 9 2 0 -7 6 -10 13 -8 6
2 28 6 48 9 61 9 154 36 157 46 2 5 10 6 18 3 18 -7 18 14 0 50 l-15 27 44 0
c42 0 44 -1 36 -22 -47 -118 -84 -205 -93 -215 -8 -10 -17 -9 -45 2 -36 15
-108 27 -172 29 l-35 1 3 -51 c1 -28 11 -85 21 -125 11 -40 18 -74 17 -74 -15
-9 -231 -95 -237 -95 -4 0 -7 22 -7 48 l-1 49 36 -18 c19 -10 38 -16 42 -14
15 9 46 135 56 226 l7 59 -37 0 c-26 0 -35 -4 -30 -12 5 -7 3 -8 -7 -2 -8 4
-26 7 -41 5 -27 -2 -28 0 -28 41 0 43 0 43 33 41 17 -1 49 -5 70 -8 l38 -5 -6
73 -6 73 33 -2 c18 -1 38 -2 44 -3z m1748 0 c4 -1 5 -9 2 -18 -4 -10 -9 -40
-12 -69 l-5 -51 46 3 c26 2 57 6 69 8 21 4 23 1 22 -41 -1 -45 -2 -46 -34 -47
-17 -1 -32 2 -32 7 0 4 -15 7 -34 7 l-35 0 5 -62 c5 -56 37 -199 50 -220 3 -4
21 -1 40 7 31 13 34 12 35 -3 2 -24 -2 -66 -6 -71 -2 -2 -56 18 -120 45 -90
37 -114 52 -110 64 12 31 34 137 39 188 l5 53 -52 -4 c-29 -3 -77 -11 -107
-18 -111 -24 -105 -28 -155 95 -25 61 -45 113 -45 118 0 4 19 8 43 8 36 0 43
-3 43 -19 0 -11 -3 -18 -7 -15 -4 2 -9 -7 -11 -20 -5 -24 0 -28 52 -41 3 0 21
-6 40 -12 37 -13 101 -24 160 -28 31 -2 35 1 35 21 0 13 -4 24 -9 24 -5 0 -4
6 2 13 5 7 6 21 1 32 -16 42 -3 54 56 49 11 -1 24 -3 29 -3z m-1259 -54 c35
-18 194 -80 238 -94 9 -3 17 -8 17 -12 0 -3 -69 -34 -153 -68 -83 -34 -190
-78 -235 -97 -67 -28 -82 -32 -77 -18 3 9 34 86 68 169 69 169 60 162 142 120z
m829 -129 c36 -90 66 -166 66 -170 0 -3 -35 8 -77 27 -86 36 -296 124 -357
149 -22 9 -37 18 -35 20 2 2 59 24 126 49 67 25 139 55 160 66 21 11 41 20 44
21 3 0 36 -73 73 -162z m-1610 82 c24 -9 26 -14 26 -70 0 -58 -1 -61 -27 -66
-16 -3 -36 -12 -46 -19 -18 -13 -17 -15 3 -56 12 -23 29 -49 36 -57 24 -24 38
-56 41 -94 3 -45 -5 -47 -39 -10 -43 46 -96 92 -106 92 -6 0 -12 3 -14 8 -7
16 -61 51 -70 46 -16 -10 22 56 84 149 33 48 66 87 73 87 8 0 25 -4 39 -10z
m2372 -98 c89 -134 89 -134 73 -131 -16 4 -119 -68 -119 -82 0 -5 -6 -9 -12
-9 -7 0 -32 -21 -55 -47 l-42 -48 0 45 c-1 37 5 52 33 84 19 21 42 56 52 78
20 45 16 50 -47 68 l-37 10 2 58 c1 50 4 58 26 69 14 7 32 12 40 13 8 0 47
-48 86 -108z m-1243 -27 c-3 -9 -8 -14 -10 -11 -3 3 -2 9 2 15 9 16 15 13 8
-4z m5 -65 c1 -37 35 -161 59 -219 18 -41 20 -43 36 -27 9 10 14 22 11 28 -4
7 -2 8 4 4 7 -4 12 -3 12 2 0 12 116 131 155 159 28 19 33 20 58 7 24 -13 26
-17 13 -29 -8 -8 -19 -15 -24 -15 -6 0 -24 -16 -41 -35 -17 -19 -33 -35 -37
-35 -13 0 -45 -44 -40 -56 3 -8 -1 -11 -9 -7 -9 3 -18 -3 -22 -13 -4 -11 -17
-30 -30 -44 -13 -14 -23 -33 -23 -43 0 -22 68 -113 82 -109 5 1 7 -2 4 -6 -9
-15 80 -100 161 -155 35 -24 45 -27 62 -17 12 6 19 15 16 19 -2 5 2 8 9 7 15
-1 125 83 126 97 0 4 18 25 40 47 22 22 40 45 40 50 0 19 17 10 29 -16 8 -19
9 -30 0 -40 -6 -7 -7 -19 -3 -25 4 -7 3 -9 -3 -6 -12 8 -104 -88 -95 -99 4 -4
2 -4 -4 -1 -6 3 -21 -4 -35 -17 -13 -12 -37 -31 -53 -41 l-28 -18 34 -17 c43
-21 126 -46 208 -64 43 -9 55 -14 35 -15 -33 -1 -137 -25 -170 -40 -76 -33
-105 -47 -105 -51 0 -3 12 -13 28 -22 15 -9 49 -36 77 -61 27 -25 54 -43 59
-40 5 4 6 2 3 -4 -4 -6 9 -28 28 -49 25 -27 33 -45 29 -59 -14 -45 -20 -46
-49 -8 -54 68 -165 173 -185 173 -6 0 -10 4 -10 8 0 5 -12 14 -26 21 -24 11
-31 8 -78 -27 -89 -68 -206 -192 -206 -219 0 -7 -4 -13 -10 -13 -5 0 -10 -10
-10 -21 0 -39 174 -238 208 -239 6 0 12 -6 12 -14 0 -15 -21 -26 -48 -26 -25
0 -180 154 -195 194 -4 9 -11 16 -16 16 -11 0 -54 -108 -66 -167 -2 -10 -7
-36 -13 -58 -5 -22 -8 -48 -6 -58 1 -9 -1 -17 -5 -17 -5 0 -8 13 -9 28 -1 37
-38 183 -49 191 -4 3 -9 17 -11 31 -1 14 -8 31 -16 38 -10 10 -21 2 -59 -46
-25 -33 -43 -63 -39 -68 4 -5 3 -6 -2 -2 -5 5 -33 -15 -62 -42 -53 -50 -83
-60 -114 -40 -13 9 -10 14 15 33 79 58 215 213 215 244 0 20 -73 116 -119 157
-13 12 -33 31 -44 44 -12 12 -44 38 -73 58 -46 32 -54 34 -73 22 -11 -7 -21
-16 -21 -20 0 -5 -6 -8 -13 -8 -15 0 -133 -109 -176 -164 l-31 -38 -10 27 c-5
14 -10 29 -10 32 0 16 82 102 147 156 59 48 71 62 58 69 -8 5 -20 6 -27 2 -6
-4 -8 -3 -5 3 8 12 -20 26 -34 17 -5 -3 -9 -1 -9 4 0 13 -131 49 -184 51 -22
1 -14 14 12 17 101 15 194 43 186 56 -4 7 -2 8 4 4 6 -3 25 -1 42 6 l31 13
-50 39 c-56 42 -149 135 -169 169 -11 17 -11 28 -2 52 l12 30 16 -23 c40 -56
132 -147 190 -189 l63 -45 34 23 c19 13 35 27 35 32 0 4 5 7 11 7 20 0 150
134 144 148 -2 7 -1 11 4 8 5 -3 14 1 21 9 7 8 9 15 6 15 -4 0 2 10 14 22 11
12 20 25 20 28 0 8 -57 86 -89 122 -13 15 -28 25 -34 21 -6 -3 -7 -2 -4 4 9
14 -29 52 -107 107 -19 13 -19 14 3 26 13 6 33 9 44 6 29 -7 132 -107 181
-174 l38 -53 15 28 c8 15 16 33 17 38 1 6 4 15 7 20 20 33 42 126 43 181 1 47
22 51 24 4z m-568 -133 c0 -2 -12 -14 -26 -28 -25 -22 -26 -23 -15 -2 9 18 19
26 39 32 1 1 2 0 2 -2z m1153 -21 c4 -10 1 -13 -9 -9 -15 6 -19 23 -5 23 5 0
11 -7 14 -14z m-1354 -232 c-45 -110 -87 -211 -93 -226 -6 -16 -13 -28 -16
-28 -6 0 -131 298 -134 316 -1 4 68 36 153 71 85 35 157 65 159 68 19 18 3
-26 -69 -201z m1767 63 c4 -4 -9 -42 -28 -84 -20 -43 -47 -112 -62 -153 -27
-78 -42 -108 -49 -100 -3 4 -175 417 -193 464 -4 11 43 -4 160 -52 91 -38 169
-71 172 -75z m-2042 -79 c3 -13 6 -29 6 -36 0 -17 -174 -189 -200 -197 -11 -3
-20 -10 -20 -16 0 -8 58 -37 85 -43 6 -1 27 -8 48 -15 21 -7 45 -10 53 -7 9 3
12 1 9 -4 -4 -6 6 -10 22 -11 58 -1 114 -19 61 -19 -37 0 -138 -22 -134 -29 2
-3 -8 -6 -23 -7 -15 0 -51 -12 -80 -25 l-52 -24 48 -37 c27 -20 77 -67 112
-103 55 -57 62 -69 56 -93 -4 -15 -8 -29 -10 -31 -2 -2 -41 35 -87 82 -81 83
-164 147 -190 147 -7 0 -41 28 -75 62 l-63 62 66 67 c37 37 73 65 80 62 7 -2
32 9 56 25 46 32 158 134 158 144 0 8 54 67 61 68 4 0 9 -10 13 -22z m2184
-82 c56 -58 158 -136 179 -136 9 0 44 -28 79 -62 l64 -62 -63 -63 c-34 -34
-69 -62 -79 -63 -38 -1 -267 -208 -268 -244 -1 -6 -7 4 -15 23 -14 30 -13 35
4 60 10 14 28 34 40 45 11 10 18 23 14 29 -3 6 -1 7 5 3 6 -3 17 2 24 12 7 10
39 38 71 61 66 50 67 47 -48 88 -59 22 -75 26 -165 42 -25 5 -38 10 -30 11 15
2 26 3 88 15 40 7 137 38 175 56 26 12 37 29 19 29 -11 0 -72 51 -123 102 -20
20 -39 35 -43 33 -3 -3 -4 -2 -1 1 2 4 -6 20 -19 35 -22 25 -23 32 -13 59 l12
31 23 -28 c13 -15 45 -50 70 -77z m-2544 -87 c11 -10 -11 -39 -31 -39 -7 0
-26 13 -42 29 -22 22 -27 35 -23 60 l4 31 42 -36 c22 -20 45 -40 50 -45z
m2886 35 c0 -11 -15 -35 -33 -52 -33 -32 -34 -32 -52 -12 -13 15 -15 23 -6 33
6 8 7 18 3 22 -4 5 -2 5 4 2 6 -4 24 6 40 21 30 29 44 25 44 -14z m-2565 -23
c3 -5 2 -12 -3 -15 -5 -3 -9 1 -9 9 0 17 3 19 12 6z m239 -334 c16 -39 60
-146 98 -236 38 -90 67 -167 66 -171 -2 -5 -30 3 -63 16 -223 93 -280 117
-283 119 -1 1 11 28 27 61 16 32 43 95 60 139 44 119 55 145 61 145 3 0 18
-33 34 -73z m1754 -49 c23 -57 51 -127 64 -155 12 -29 20 -54 17 -56 -8 -8
-298 -127 -307 -127 -10 0 169 439 179 440 3 0 25 -46 47 -102z m-2349 -7
c-46 -44 -59 -49 -59 -27 0 8 -2 21 -5 28 -6 15 31 61 56 70 8 3 23 -3 33 -13
19 -17 18 -19 -25 -58z m2921 -8 c0 -18 -4 -33 -9 -33 -5 0 -29 18 -52 40 -41
38 -42 40 -25 59 18 20 19 20 52 -7 26 -21 34 -35 34 -59z m-1045 9 c-3 -3
-11 0 -18 7 -9 10 -8 11 6 5 10 -3 15 -9 12 -12z m587 -308 c2 -25 2 -47 -1
-49 -2 -2 -18 2 -36 9 -31 13 -32 13 -44 -20 -7 -18 -14 -41 -15 -51 -2 -10
-9 -36 -14 -58 -6 -22 -13 -66 -17 -97 -7 -67 -10 -65 82 -54 l52 6 -2 -45 -2
-44 -50 5 c-27 3 -56 7 -63 9 -20 7 -25 -21 -15 -76 9 -42 8 -51 -6 -58 -9 -4
-22 -6 -28 -5 -7 1 -22 2 -33 3 -16 1 -19 6 -16 24 14 62 15 107 3 108 -35 4
-107 -4 -107 -12 0 -3 -12 -4 -26 -1 -19 3 -25 1 -20 -6 4 -8 2 -10 -7 -6 -8
3 -38 -2 -67 -12 -54 -18 -56 -22 -34 -78 5 -13 -2 -16 -41 -16 -41 0 -46 2
-41 18 43 115 94 222 108 225 9 3 18 1 20 -4 4 -11 126 -36 172 -35 20 1 36
-3 36 -7 0 -5 4 -6 9 -3 14 9 -17 213 -40 258 -6 10 -4 18 4 22 41 18 223 94
228 95 4 1 9 -20 11 -45z m-1955 -15 c54 -22 106 -43 116 -46 10 -3 16 -12 13
-22 -18 -60 -28 -109 -33 -154 -9 -86 -8 -92 4 -90 6 2 40 5 75 9 35 3 70 10
78 14 16 9 22 10 46 10 8 0 13 3 11 8 -3 4 6 7 19 7 21 0 29 -11 55 -75 17
-41 40 -95 50 -119 10 -24 19 -45 19 -47 0 -2 -22 -4 -48 -4 -37 0 -49 4 -49
15 0 8 4 15 8 15 3 0 9 9 12 19 4 15 -3 23 -32 34 -36 14 -88 28 -126 33 -11
1 -20 3 -20 4 0 3 -38 9 -74 12 -40 3 -39 7 -28 -84 4 -33 2 -48 -6 -49 -7 0
-27 -1 -45 -2 l-33 -2 6 72 c6 66 5 71 -12 68 -10 -2 -42 -6 -70 -9 l-53 -5 0
50 c0 36 3 48 12 43 6 -4 37 -9 70 -11 l58 -5 -5 61 c-7 75 -29 164 -39 154
-4 -4 -4 0 -1 9 4 9 -1 30 -9 47 -15 28 -19 29 -41 19 -14 -6 -25 -15 -25 -20
0 -5 -4 -7 -8 -4 -12 7 -14 86 -3 86 5 0 54 -18 108 -41z m-169 -31 c0 -30 -8
-53 -25 -76 -13 -17 -21 -37 -17 -44 4 -7 3 -8 -4 -4 -11 7 -52 -61 -52 -86 0
-8 20 -20 45 -27 l45 -13 0 -63 0 -63 -36 -7 c-28 -5 -39 -2 -50 12 -29 35
-134 195 -134 203 0 9 29 33 71 60 17 11 124 114 155 149 1 0 1 -18 2 -41z
m2227 9 c4 5 5 3 2 -3 -7 -13 51 -75 103 -110 19 -13 46 -32 59 -42 l25 -20
-67 -98 c-96 -143 -89 -135 -124 -122 -25 9 -32 19 -36 47 -11 73 -6 84 46
100 37 11 47 19 47 36 0 22 -46 101 -80 137 -13 14 -20 36 -20 61 0 38 1 39
18 24 10 -10 22 -14 27 -10z m-1714 -44 c13 -16 12 -17 -3 -4 -10 7 -18 15
-18 17 0 8 8 3 21 -13z m1095 -190 c-75 -180 -98 -233 -102 -233 -2 0 -29 13
-61 29 -32 17 -97 43 -143 60 -47 16 -101 36 -120 45 l-35 14 45 20 c25 10 81
31 125 47 44 15 100 38 125 51 44 25 198 92 212 93 4 1 -17 -56 -46 -126z
m-886 28 c91 -38 187 -78 215 -90 l49 -22 -44 -20 c-117 -53 -262 -109 -270
-104 -4 3 -15 24 -23 48 -8 23 -36 90 -61 150 -25 59 -42 107 -38 107 4 0 81
-31 172 -69z m378 -240 c1 -50 26 -135 64 -220 l19 -44 19 30 c10 17 45 59 79
95 33 36 57 68 54 72 -4 4 0 4 8 1 9 -3 22 1 29 10 15 18 20 18 55 5 l26 -10
-38 -32 c-99 -84 -207 -215 -198 -240 3 -7 -24 -42 -60 -78 l-65 -64 -60 59
c-34 33 -70 79 -80 103 -10 23 -24 42 -29 42 -6 0 -11 6 -11 13 0 15 -117 137
-171 179 l-34 26 29 11 c31 13 43 7 100 -42 17 -14 34 -23 39 -20 6 3 7 1 3
-6 -8 -12 16 -41 34 -41 6 0 9 -4 5 -9 -3 -6 0 -13 7 -18 7 -4 24 -25 38 -45
30 -45 37 -47 51 -10 7 15 16 37 21 49 6 11 7 27 3 34 -6 8 -4 10 5 4 10 -6
12 -3 8 13 -4 12 -2 20 2 17 5 -3 14 28 21 70 13 77 25 98 27 46z m645 -129
c13 -12 29 -22 35 -22 7 0 12 -4 12 -8 0 -12 71 -35 80 -26 5 5 12 25 17 44 9
35 10 35 70 38 l61 3 12 -36 c11 -32 10 -38 -7 -51 -37 -30 -159 -112 -188
-126 -30 -16 -30 -16 -55 23 -13 21 -28 39 -32 39 -4 0 -8 6 -8 13 0 7 -8 20
-17 29 -10 9 -39 38 -65 65 l-48 49 55 -6 c36 -4 62 -13 78 -28z m-1444 -24
l16 -47 45 21 c25 11 61 34 81 49 28 22 48 29 80 29 l44 0 -40 -37 c-54 -50
-145 -164 -145 -181 0 -20 -21 -10 -115 54 -135 92 -130 85 -114 128 l13 37
60 -3 59 -3 16 -47z m649 -291 c-24 -46 -67 -67 -96 -48 -11 6 -4 19 29 55 40
43 44 45 60 30 15 -13 16 -21 7 -37z m393 -29 c6 1 8 -2 5 -7 -4 -5 -20 -13
-37 -16 -27 -6 -35 -2 -60 25 -34 37 -34 38 -12 62 17 19 18 18 55 -24 21 -24
43 -42 49 -40z"/>
<path d="M1774 2215 c-4 -11 -23 -36 -41 -55 -18 -19 -33 -41 -33 -49 0 -8 -2
-12 -5 -9 -3 2 -25 -14 -50 -37 -25 -24 -61 -53 -80 -66 -19 -13 -34 -28 -32
-33 4 -13 109 -52 186 -70 84 -19 84 -19 75 -4 -4 7 -3 8 4 4 24 -14 11 -24
-50 -35 -82 -16 -229 -71 -222 -83 3 -5 13 -7 21 -4 8 3 12 2 9 -3 -3 -5 9
-20 27 -34 46 -35 132 -121 152 -151 10 -14 22 -23 28 -19 5 3 7 2 4 -4 -4 -6
0 -19 7 -29 14 -18 15 -17 26 11 7 17 16 39 21 50 24 57 27 73 16 85 -9 9 -9
11 -1 7 15 -9 22 11 30 79 8 62 11 64 19 8 10 -62 24 -114 53 -188 l26 -68 18
23 c10 13 38 46 61 73 23 28 41 54 39 59 -1 5 1 6 6 3 10 -6 55 38 47 46 -3 2
1 5 8 5 8 0 30 13 50 29 l37 29 -33 16 c-52 27 -170 60 -247 69 -8 1 17 8 55
16 39 9 75 16 80 18 58 16 96 30 124 45 l34 18 -34 24 c-71 50 -140 117 -197
192 l-37 48 -17 -22 c-10 -11 -18 -29 -18 -38 0 -9 -4 -21 -9 -26 -10 -13 -39
-118 -45 -169 -6 -47 -16 -59 -17 -20 0 16 -2 36 -4 44 -2 8 -7 29 -10 45 -9
45 -33 112 -54 153 -17 33 -20 35 -27 17z"/>
</g>
</svg>
