<?xml version="1.0" encoding="utf-8"?>
<svg version="1.1" class="speakers__ic__baos" xmlns="http://www.w3.org/2000/svg" xmlns:xlink="http://www.w3.org/1999/xlink" x="0px" y="0px" width="140" viewBox="0 0 260 260" style="enable-background:new 0 0 260 260;" xml:space="preserve">

  <defs>
		<filter id="dropshadow">
			<feGaussianBlur in="SourceAlpha" stdDeviation="8"/> 
			<feOffset dx="2" dy="2"/>
			<feComponentTransfer>
				<feFuncA type="linear" slope="0.5"/>
			</feComponentTransfer>
			<feMerge> 
				<feMergeNode/>
				<feMergeNode in="SourceGraphic"/> 
			</feMerge>
		</filter>
	</defs>

	<g class="steamer">
		<path fill="#F1D0B2" d="M105.8,13.8l140.5,140.5c-1.9,9.4-5,18.5-9.2,27.3L78.5,23C87.2,18.8,96.4,15.7,105.8,13.8z M14,104.5
			L155.5,246c9.3-2,18.4-5.2,27-9.5l-159-159C19.2,86.2,16.1,95.3,14,104.5z M46.1,213.9c21,21,47.9,32.5,75.3,34.5L11.6,138.6
			C13.6,166.1,25.1,192.9,46.1,213.9z M46.1,46.1c-3,3-5.7,6-8.3,9.2l167,167c3.2-2.6,6.3-5.3,9.2-8.3c3.2-3.2,6.2-6.6,9-10
			L56.1,37.1C52.6,39.9,49.3,42.8,46.1,46.1z M213.9,46.1c-20.6-20.6-46.8-32-73.7-34.3l108.1,108.1C246,92.9,234.5,66.6,213.9,46.1z
			"/>
		<path fill="#D9A575" d="M14,104.5L155.5,246c-11.2,2.4-22.7,3.3-34.1,2.4L11.6,138.6C10.8,127.2,11.6,115.7,14,104.5z M23.5,77.5
			l159,159c7.8-3.8,15.3-8.6,22.2-14.3l-167-167C32.1,62.2,27.3,69.7,23.5,77.5z M56.1,37.1l166.8,166.8c5.6-7,10.3-14.6,14.1-22.4
			L78.5,23C70.6,26.8,63.1,31.5,56.1,37.1z M248.3,119.8L140.2,11.7c-11.5-1-23.1-0.3-34.4,2.1l140.5,140.5
			C248.6,142.9,249.3,131.3,248.3,119.8z"/>
		<path fill="#D9A575" filter="url(#dropshadow)" d="M45.1,45.1C-1.7,92-1.7,168,45.1,214.9s122.8,46.9,169.7,0s46.9-122.8,0-169.7S92-1.7,45.1,45.1z
			M208.6,208.6c-43.4,43.4-113.9,43.4-157.3,0S7.9,94.8,51.4,51.4s113.9-43.4,157.3,0S252.1,165.2,208.6,208.6z"/>
	</g>
	<g class="bao">
		<circle fill="#FFF" cx="81.4" cy="82.2" r="28.1"/>
		<path fill="#CCC" d="M100,88c-1.1-1.9-3-3.6-5.2-4.1c-4.2-1-8.6,3-11.5-2l-0.1-0.1c2,0.3,3.9-0.3,5.3-1.8c1.2-1.2,1.7-2.9,2.9-4.2
			c1.8-1.9,4.5-2.3,6.9-1.7c0.7,0.2,1-0.9,0.3-1c-2.5-0.6-5.3-0.3-7.3,1.3c-3,2.5-3.7,7.6-8.8,6.2h-0.1c1.5-1.2,2.5-2.8,2.5-4.9
			c0-1.7-0.9-3.2-0.9-4.9c-0.1-2.7,1.4-5,3.7-6.4c0.6-0.4,0-1.3-0.5-0.9c-1.9,1.1-3.6,3-4.1,5.2c-1,4.2,3,8.6-2,11.5L81,80.3
			c0.3-2-0.3-3.9-1.8-5.3c-1.2-1.2-2.9-1.7-4.2-2.9c-1.9-1.8-2.3-4.5-1.7-6.9c0.2-0.7-0.9-1-1-0.3c-0.6,2.5-0.3,5.3,1.3,7.3
			c2.5,3,7.6,3.7,6.2,8.8v0.1c-1.2-1.5-2.8-2.5-4.9-2.5c-1.7,0-3.2,0.9-4.9,0.9c-2.7,0.1-5-1.4-6.4-3.7c-0.4-0.6-1.3,0-0.9,0.5
			c1.1,1.9,3,3.6,5.2,4.1c4.2,1,8.6-3,11.5,2c0,0,0,0.1,0.1,0.1c-2-0.3-3.9,0.3-5.3,1.8c-1.2,1.2-1.7,2.9-2.9,4.2
			c-1.8,1.9-4.5,2.3-6.9,1.7c-0.7-0.2-1,0.9-0.3,1c2.5,0.6,5.3,0.3,7.3-1.3c3-2.5,3.7-7.6,8.8-6.2h0.1c-1.5,1.2-2.5,2.8-2.5,4.9
			c0,1.7,0.9,3.2,0.9,4.9c0.1,2.7-1.4,5-3.7,6.4c-0.6,0.4-0.1,1.3,0.5,0.9c1.9-1.1,3.6-3,4.1-5.2c1-4.2-3-8.6,2-11.5l0.1-0.1
			c-0.3,2,0.3,3.9,1.8,5.3c1.2,1.2,2.9,1.7,4.2,2.9c1.9,1.8,2.3,4.5,1.7,6.9c-0.2,0.7,0.9,1,1,0.3c0.6-2.5,0.3-5.3-1.3-7.3
			c-2.5-3-7.6-3.7-6.2-8.8v-0.1c1.2,1.5,2.8,2.5,4.9,2.5c1.7,0,3.2-0.9,4.9-0.9c2.7-0.1,5,1.4,6.4,3.7C99.5,89.2,100.4,88.6,100,88z"/>
		<path fill="#EEE" d="M81.9,83.1c0,0.1-0.1,0.2-0.1,0.4c-0.1-0.3-0.4-0.5-0.7-0.3c-0.1,0.1-0.2,0.1-0.3,0.2c0.1-0.3,0-0.6-0.3-0.7
			c-0.1,0-0.2-0.1-0.4-0.1c0.3-0.1,0.5-0.4,0.3-0.7c-0.1-0.1-0.1-0.2-0.2-0.3c0.3,0.1,0.6,0,0.7-0.3c0-0.1,0.1-0.2,0.1-0.4
			c0.1,0.3,0.4,0.5,0.7,0.3c0.1-0.1,0.2-0.1,0.3-0.2c-0.1,0.3,0,0.6,0.3,0.7c0.1,0,0.2,0.1,0.4,0.1c-0.3,0.1-0.5,0.4-0.3,0.7
			c0.1,0.1,0.1,0.2,0.2,0.3C82.4,82.7,82,82.8,81.9,83.1z"/>
	</g>
	<g class="bao">
		<circle fill="#FFF" cx="181.5" cy="86.6" r="28.1"/>
		<path fill="#CCC" d="M200.2,92.4c-1.1-1.9-3-3.6-5.2-4.1c-4.2-1-8.6,3-11.5-2l-0.1-0.1c2,0.3,3.9-0.3,5.3-1.8
			c1.2-1.2,1.7-2.9,2.9-4.2c1.8-1.9,4.5-2.3,6.9-1.7c0.7,0.2,1-0.9,0.3-1c-2.5-0.6-5.3-0.3-7.3,1.3c-3,2.5-3.7,7.6-8.8,6.2h-0.1
			c1.5-1.2,2.5-2.8,2.5-4.9c0-1.7-0.9-3.2-0.9-4.9c-0.1-2.7,1.4-5,3.7-6.4c0.6-0.4,0-1.3-0.5-0.9c-1.9,1.1-3.6,3-4.1,5.2
			c-1,4.2,3,8.6-2,11.5l-0.1,0.1c0.3-2-0.3-3.9-1.8-5.3c-1.2-1.2-2.9-1.7-4.2-2.9c-1.9-1.8-2.3-4.5-1.7-6.9c0.2-0.7-0.9-1-1-0.3
			c-0.6,2.5-0.3,5.3,1.3,7.3c2.5,3,7.6,3.7,6.2,8.8v0.1c-1.2-1.5-2.8-2.5-4.9-2.5c-1.7,0-3.2,0.9-4.9,0.9c-2.7,0.1-5-1.4-6.4-3.7
			c-0.4-0.6-1.3,0-0.9,0.5c1.1,1.9,3,3.6,5.2,4.1c4.2,1,8.6-3,11.5,2c0,0,0,0.1,0.1,0.1c-2-0.3-3.9,0.3-5.3,1.8
			c-1.2,1.2-1.7,2.9-2.9,4.2c-1.8,1.9-4.5,2.3-6.9,1.7c-0.7-0.2-1,0.9-0.3,1c2.5,0.6,5.3,0.3,7.3-1.3c3-2.5,3.7-7.6,8.8-6.2h0.1
			c-1.5,1.2-2.5,2.8-2.5,4.9c0,1.7,0.9,3.2,0.9,4.9c0.1,2.7-1.4,5-3.7,6.4c-0.6,0.4-0.1,1.3,0.5,0.9c1.9-1.1,3.6-3,4.1-5.2
			c1-4.2-3-8.6,2-11.5l0.1-0.1c-0.3,2,0.3,3.9,1.8,5.3c1.2,1.2,2.9,1.7,4.2,2.9c1.9,1.8,2.3,4.5,1.7,6.9c-0.2,0.7,0.9,1,1,0.3
			c0.6-2.5,0.3-5.3-1.3-7.3c-2.5-3-7.6-3.7-6.2-8.8v-0.1c1.2,1.5,2.8,2.5,4.9,2.5c1.7,0,3.2-0.9,4.9-0.9c2.7-0.1,5,1.4,6.4,3.7
			C199.6,93.6,200.5,93,200.2,92.4z"/>
		<path fill="#EEE" d="M182.1,87.5c0,0.1-0.1,0.2-0.1,0.4c-0.1-0.3-0.4-0.5-0.7-0.3c-0.1,0.1-0.2,0.1-0.3,0.2c0.1-0.3,0-0.6-0.3-0.7
			c-0.1,0-0.2-0.1-0.4-0.1c0.3-0.1,0.5-0.4,0.3-0.7c-0.1-0.1-0.1-0.2-0.2-0.3c0.3,0.1,0.6,0,0.7-0.3c0-0.1,0.1-0.2,0.1-0.4
			c0.1,0.3,0.4,0.5,0.7,0.3c0.1-0.1,0.2-0.1,0.3-0.2c-0.1,0.3,0,0.6,0.3,0.7c0.1,0,0.2,0.1,0.4,0.1c-0.3,0.1-0.5,0.4-0.3,0.7
			c0.1,0.1,0.1,0.2,0.2,0.3C182.5,87.1,182.2,87.2,182.1,87.5z"/>
	</g>
	<g class="bao">
		<circle fill="#FFF" cx="130.2" cy="130.5" r="28.1"/>
		<path fill="#CCC" d="M148.8,136.4c-1.1-1.9-3-3.6-5.2-4.1c-4.2-1-8.6,3-11.5-2l-0.1-0.1c2,0.3,3.9-0.3,5.3-1.8
			c1.2-1.2,1.7-2.9,2.9-4.2c1.8-1.9,4.5-2.3,6.9-1.7c0.7,0.2,1-0.9,0.3-1c-2.5-0.6-5.3-0.3-7.3,1.3c-3,2.5-3.7,7.6-8.8,6.2h-0.1
			c1.5-1.2,2.5-2.8,2.5-4.9c0-1.7-0.9-3.2-0.9-4.9c-0.1-2.7,1.4-5,3.7-6.4c0.6-0.4,0-1.3-0.5-0.9c-1.9,1.1-3.6,3-4.1,5.2
			c-1,4.2,3,8.6-2,11.5l-0.1,0.1c0.3-2-0.3-3.9-1.8-5.3c-1.2-1.2-2.9-1.7-4.2-2.9c-1.9-1.8-2.3-4.5-1.7-6.9c0.2-0.7-0.9-1-1-0.3
			c-0.6,2.5-0.3,5.3,1.3,7.3c2.5,3,7.6,3.7,6.2,8.8v0.1c-1.2-1.5-2.8-2.5-4.9-2.5c-1.7,0-3.2,0.9-4.9,0.9c-2.7,0.1-5-1.4-6.4-3.7
			c-0.4-0.6-1.3,0-0.9,0.5c1.1,1.9,3,3.6,5.2,4.1c4.2,1,8.6-3,11.5,2c0,0,0,0.1,0.1,0.1c-2-0.3-3.9,0.3-5.3,1.8
			c-1.2,1.2-1.7,2.9-2.9,4.2c-1.8,1.9-4.5,2.3-6.9,1.7c-0.7-0.2-1,0.9-0.3,1c2.5,0.6,5.3,0.3,7.3-1.3c3-2.5,3.7-7.6,8.8-6.2h0.1
			c-1.5,1.2-2.5,2.8-2.5,4.9c0,1.7,0.9,3.2,0.9,4.9c0.1,2.7-1.4,5-3.7,6.4c-0.6,0.4-0.1,1.3,0.5,0.9c1.9-1.1,3.6-3,4.1-5.2
			c1-4.2-3-8.6,2-11.5l0.1-0.1c-0.3,2,0.3,3.9,1.8,5.3c1.2,1.2,2.9,1.7,4.2,2.9c1.9,1.8,2.3,4.5,1.7,6.9c-0.2,0.7,0.9,1,1,0.3
			c0.6-2.5,0.3-5.3-1.3-7.3c-2.5-3-7.6-3.7-6.2-8.8v-0.1c1.2,1.5,2.8,2.5,4.9,2.5c1.7,0,3.2-0.9,4.9-0.9c2.7-0.1,5,1.4,6.4,3.7
			C148.3,137.5,149.2,137,148.8,136.4z"/>
		<path fill="#EEE" d="M130.7,131.5c0,0.1-0.1,0.2-0.1,0.4c-0.1-0.3-0.4-0.5-0.7-0.3c-0.1,0.1-0.2,0.1-0.3,0.2c0.1-0.3,0-0.6-0.3-0.7
			c-0.1,0-0.2-0.1-0.4-0.1c0.3-0.1,0.5-0.4,0.3-0.7c-0.1-0.1-0.1-0.2-0.2-0.3c0.3,0.1,0.6,0,0.7-0.3c0-0.1,0.1-0.2,0.1-0.4
			c0.1,0.3,0.4,0.5,0.7,0.3c0.1-0.1,0.2-0.1,0.3-0.2c-0.1,0.3,0,0.6,0.3,0.7c0.1,0,0.2,0.1,0.4,0.1c-0.3,0.1-0.5,0.4-0.3,0.7
			c0.1,0.1,0.1,0.2,0.2,0.3C131.2,131,130.8,131.1,130.7,131.5z"/>
	</g>
	<g class="bao">
		<circle fill="#FFF" cx="80.6" cy="175.9" r="28.1"/>
		<path fill="#CCC" d="M99.2,181.8c-1.1-1.9-3-3.6-5.2-4.1c-4.2-1-8.6,3-11.5-2l-0.1-0.1c2,0.3,3.9-0.3,5.3-1.8
			c1.2-1.2,1.7-2.9,2.9-4.2c1.8-1.9,4.5-2.3,6.9-1.7c0.7,0.2,1-0.9,0.3-1c-2.5-0.6-5.3-0.3-7.3,1.3c-3,2.5-3.7,7.6-8.8,6.2h-0.1
			c1.5-1.2,2.5-2.8,2.5-4.9c0-1.7-0.9-3.2-0.9-4.9c-0.1-2.7,1.4-5,3.7-6.4c0.6-0.4,0-1.3-0.5-0.9c-1.9,1.1-3.6,3-4.1,5.2
			c-1,4.2,3,8.6-2,11.5l-0.1,0.1c0.3-2-0.3-3.9-1.8-5.3c-1.2-1.2-2.9-1.7-4.2-2.9c-1.9-1.8-2.3-4.5-1.7-6.9c0.2-0.7-0.9-1-1-0.3
			c-0.6,2.5-0.3,5.3,1.3,7.3c2.5,3,7.6,3.7,6.2,8.8v0.1c-1.2-1.5-2.8-2.5-4.9-2.5c-1.7,0-3.2,0.9-4.9,0.9c-2.7,0.1-5-1.4-6.4-3.7
			c-0.4-0.6-1.3-0.1-0.9,0.5c1.1,1.9,3,3.6,5.2,4.1c4.2,1,8.6-3,11.5,2c0,0,0,0.1,0.1,0.1c-2-0.3-3.9,0.3-5.3,1.8
			c-1.2,1.2-1.7,2.9-2.9,4.2c-1.8,1.9-4.5,2.3-6.9,1.7c-0.7-0.2-1,0.9-0.3,1c2.5,0.6,5.3,0.3,7.3-1.3c3-2.5,3.7-7.6,8.8-6.2h0.1
			c-1.5,1.2-2.5,2.8-2.5,4.9c0,1.7,0.9,3.2,0.9,4.9c0.1,2.7-1.4,5-3.7,6.4c-0.6,0.4-0.1,1.3,0.5,0.9c1.9-1.1,3.6-3,4.1-5.2
			c1-4.2-3-8.6,2-11.5l0.1-0.1c-0.3,2,0.3,3.9,1.8,5.3c1.2,1.2,2.9,1.7,4.2,2.9c1.9,1.8,2.3,4.5,1.7,6.9c-0.2,0.7,0.9,1,1,0.3
			c0.6-2.5,0.3-5.3-1.3-7.3c-2.5-3-7.6-3.7-6.2-8.8V177c1.2,1.5,2.8,2.5,4.9,2.5c1.7,0,3.2-0.9,4.9-0.9c2.7-0.1,5,1.4,6.4,3.7
			C98.7,182.9,99.6,182.4,99.2,181.8z"/>
		<path fill="#EEE" d="M81.1,176.9c0,0.1-0.1,0.2-0.1,0.4c-0.1-0.3-0.4-0.5-0.7-0.3c-0.1,0.1-0.2,0.1-0.3,0.2c0.1-0.3,0-0.6-0.3-0.7
			c-0.1,0-0.2-0.1-0.4-0.1c0.3-0.1,0.5-0.4,0.3-0.7c-0.1-0.1-0.1-0.2-0.2-0.3c0.3,0.1,0.6,0,0.7-0.3c0-0.1,0.1-0.2,0.1-0.4
			c0.1,0.3,0.4,0.5,0.7,0.3c0.1-0.1,0.2-0.1,0.3-0.2c-0.1,0.3,0,0.6,0.3,0.7c0.1,0,0.2,0.1,0.4,0.1c-0.3,0.1-0.5,0.4-0.3,0.7
			c0.1,0.1,0.1,0.2,0.2,0.3C81.6,176.4,81.2,176.5,81.1,176.9z"/>
	</g>
	<g class="bao">
		<circle fill="#FFF" cx="176.5" cy="181.1" r="28.1"/>
		<path fill="#CCC" d="M195.1,187c-1.1-1.9-3-3.6-5.2-4.1c-4.2-1-8.6,3-11.5-2l-0.1-0.1c2,0.3,3.9-0.3,5.3-1.8
			c1.2-1.2,1.7-2.9,2.9-4.2c1.8-1.9,4.5-2.3,6.9-1.7c0.7,0.2,1-0.9,0.3-1c-2.5-0.6-5.3-0.3-7.3,1.3c-3,2.5-3.7,7.6-8.8,6.2h-0.1
			c1.5-1.2,2.5-2.8,2.5-4.9c0-1.7-0.9-3.2-0.9-4.9c-0.1-2.7,1.4-5,3.7-6.4c0.6-0.4,0-1.3-0.5-0.9c-1.9,1.1-3.6,3-4.1,5.2
			c-1,4.2,3,8.6-2,11.5l-0.1,0.1c0.3-2-0.3-3.9-1.8-5.3c-1.2-1.2-2.9-1.7-4.2-2.9c-1.9-1.8-2.3-4.5-1.7-6.9c0.2-0.7-0.9-1-1-0.3
			c-0.6,2.5-0.3,5.3,1.3,7.3c2.5,3,7.6,3.7,6.2,8.8v0.1c-1.2-1.5-2.8-2.5-4.9-2.5c-1.7,0-3.2,0.9-4.9,0.9c-2.7,0.1-5-1.4-6.4-3.7
			c-0.4-0.6-1.3-0.1-0.9,0.5c1.1,1.9,3,3.6,5.2,4.1c4.2,1,8.6-3,11.5,2c0,0,0,0.1,0.1,0.1c-2-0.3-3.9,0.3-5.3,1.8
			c-1.2,1.2-1.7,2.9-2.9,4.2c-1.8,1.9-4.5,2.3-6.9,1.7c-0.7-0.2-1,0.9-0.3,1c2.5,0.6,5.3,0.3,7.3-1.3c3-2.5,3.7-7.6,8.8-6.2h0.1
			c-1.5,1.2-2.5,2.8-2.5,4.9c0,1.7,0.9,3.2,0.9,4.9c0.1,2.7-1.4,5-3.7,6.4c-0.6,0.4-0.1,1.3,0.5,0.9c1.9-1.1,3.6-3,4.1-5.2
			c1-4.2-3-8.6,2-11.5l0.1-0.1c-0.3,2,0.3,3.9,1.8,5.3c1.2,1.2,2.9,1.7,4.2,2.9c1.9,1.8,2.3,4.5,1.7,6.9c-0.2,0.7,0.9,1,1,0.3
			c0.6-2.5,0.3-5.3-1.3-7.3c-2.5-3-7.6-3.7-6.2-8.8v-0.1c1.2,1.5,2.8,2.5,4.9,2.5c1.7,0,3.2-0.9,4.9-0.9c2.7-0.1,5,1.4,6.4,3.7
			C194.6,188.1,195.5,187.6,195.1,187z"/>
		<path fill="#EEE" d="M177,182.1c0,0.1-0.1,0.2-0.1,0.4c-0.1-0.3-0.4-0.5-0.7-0.3c-0.1,0.1-0.2,0.1-0.3,0.2c0.1-0.3,0-0.6-0.3-0.7
			c-0.1,0-0.2-0.1-0.4-0.1c0.3-0.1,0.5-0.4,0.3-0.7c-0.1-0.1-0.1-0.2-0.2-0.3c0.3,0.1,0.6,0,0.7-0.3c0-0.1,0.1-0.2,0.1-0.4
			c0.1,0.3,0.4,0.5,0.7,0.3c0.1-0.1,0.2-0.1,0.3-0.2c-0.1,0.3,0,0.6,0.3,0.7c0.1,0,0.2,0.1,0.4,0.1c-0.3,0.1-0.5,0.4-0.3,0.7
			c0.1,0.1,0.1,0.2,0.2,0.3C177.5,181.7,177.1,181.7,177,182.1z"/>
	</g>
</svg>
