<svg enable-background="new 0 0 85 175" viewBox="0 0 85 175" width="85" xmlns="http://www.w3.org/2000/svg"><path d="m2.9 33.9 3 34.9h73.1l3-34.9z" fill="#e6e6e6"/><path d="M6,69.3l8.3,96.8v0.1c0,4.9,12.7,8.8,28.3,8.8s28.3-3.9,28.3-8.8v-0.1L79,69.3H6z" fill="#ebe2c4"/><ellipse cx="42.5" cy="68.8" fill="#e2d6bc" rx="36.6" ry="9.7"/><path d="m29.7 155.1c0 3.1-2.5 5.6-5.7 5.6s-5.7-2.5-5.7-5.6 2.5-5.6 5.7-5.6 5.7 2.5 5.7 5.6zm10.5 2.3c-2.9-1.1-6.2.4-7.3 3.3s.4 6.1 3.3 7.2 6.2-.4 7.3-3.3c1.2-2.9-.3-6.2-3.3-7.2zm17.3-5.3c-3.1 0-5.7 2.5-5.7 5.6s2.5 5.6 5.7 5.6c3.1 0 5.7-2.5 5.7-5.6s-2.5-5.6-5.7-5.6zm-31.7-19.4c-3.1 0-5.7 2.5-5.7 5.6s2.5 5.6 5.7 5.6 5.7-2.5 5.7-5.6-2.6-5.6-5.7-5.6zm15.4 8.3c-3.1 0-5.7 2.5-5.7 5.6s2.5 5.6 5.7 5.6c3.1 0 5.7-2.5 5.7-5.6s-2.6-5.6-5.7-5.6zm-3.3-19.1c-3.1 0-5.7 2.5-5.7 5.6s2.5 5.6 5.7 5.6 5.7-2.5 5.7-5.6-2.6-5.6-5.7-5.6zm18.1-.8c-3.1 0-5.7 2.5-5.7 5.6s2.5 5.6 5.7 5.6c3.1 0 5.7-2.5 5.7-5.6s-2.6-5.6-5.7-5.6zm1.7 14.1c-3.1 0-5.7 2.5-5.7 5.6s2.5 5.6 5.7 5.6c3.1 0 5.7-2.5 5.7-5.6s-2.6-5.6-5.7-5.6z" fill="#42210b"/><path d="m57 45.8-5.3 17.7-1.9 6.3c1.8.4 4.1.6 6.5.6 2 0 3.8-.2 5.4-.4l1.8-6 5.5-18.2z" fill="#fff"/><path d="m83 34.1c-1.2-6.9-20.9-10.8-40.5-10.8s-38.8 4-40.5 10.8c-.3 1.1-1.2 3.5-1.8 5.3-.4 1.2.4 2.5 1.7 2.5.6 0 1.2.1 1.7.3 1.1.6 1.4 2.8 2.6 3.3s3.1-.8 4.2-.5c1.5.4 2.3 2.5 3.2 2.7 1.5.4 3.4-1.1 5.1-.8 1.5.3 2.8 2.3 4.5 2.5 1.6.2 3.4-1.4 5-1.3s3 2.1 4.7 2.2c1.6.1 3.3-1.6 4.9-1.6s3.2 1.9 4.8 1.9 3.2-1.8 4.8-1.9c1.6 0 3.3 1.7 4.9 1.6s3.1-2 4.7-2.2 3.4 1.5 5 1.3 3-2.2 4.5-2.5c1.7-.3 3.6 1.1 5.1.8.9-.2 1.7-2.3 3.2-2.7 1.1-.3 3 1 4.2.4 1.1-.5 1.5-2.6 2.6-3.3.5-.3 1.1-.3 1.8-.3 1.2 0 2.1-1.2 1.7-2.4-.2.1-1.9-3.9-2.1-5.3z" fill="#ce6632"/><ellipse cx="42.5" cy="34.1" fill="#e37b3a" rx="40.5" ry="10.8"/><path d="m70.6 0-9.4 31.8-1.3 4.2c1.6.4 3.7.7 5.8.7 2.2 0 4.6-.3 6.2-.8l1-3.3 8.7-29.4z" fill="#fff"/></svg>