<?xml version="1.0" encoding="utf-8"?>
<svg version="1.1" class="speakers__ic__dumplings" xmlns="http://www.w3.org/2000/svg" xmlns:xlink="http://www.w3.org/1999/xlink" x="0px" y="0px" width="120" viewBox="0 0 220 270" style="enable-background:new 0 0 220 270;" xml:space="preserve">

  <defs>
		<filter id="dropshadow">
			<feGaussianBlur in="SourceAlpha" stdDeviation="8"/> 
			<feOffset dx="2" dy="2"/>
			<feComponentTransfer>
				<feFuncA type="linear" slope="0.5"/>
			</feComponentTransfer>
			<feMerge> 
				<feMergeNode/>
				<feMergeNode in="SourceGraphic"/> 
			</feMerge>
		</filter>
	</defs>

	<ellipse transform="matrix(0.3548 -0.9349 0.9349 0.3548 -55.2544 189.9414)" filter="url(#dropshadow)" fill="#EBE2C4" cx="110" cy="135" rx="128.7" ry="95.1"/>
	<path fill="#0071BC" d="M89.5,246.6c-6.6,0-13.1-1.1-19.4-3.3c-20.2-7.3-35-25.4-41.6-51c-6.5-25.2-4.3-54.9,6.2-83.4
		C56.6,49.6,108,13.5,149.3,28.3c20.2,7.3,35,25.4,41.6,51c6.5,25.2,4.3,54.9-6.2,83.4C166.1,213,126.3,246.6,89.5,246.6z
		M129.8,30.7c-34.4,0-71.9,32.2-89.5,80.1c-10.1,27.5-12.3,55.9-6.1,80c6.1,23.7,19.6,40.5,37.9,47.1
		c38.3,13.8,86.4-20.8,107.1-77.1c10.1-27.5,12.3-55.9,6.1-80c-6.1-23.7-19.6-40.5-37.9-47.1C141.7,31.6,135.7,30.7,129.8,30.7z"/>

	<g class="dumpling">
		<path fill="#FFF" d="M115.5,45.2c1.6,0,3,1.3,3.8,2.7s1.2,3,1.9,4.5s2,2.8,3.6,3c3.2,0.3,5.7-4,8.8-3.2c4.2,1,2.3,8.7,6.1,10.5
			c3.6,1.7,7.8-3.7,11.3-1.8s1.4,8.3,4.9,10.2c3.1,1.6,6.6-2.3,10-1.7c2.9,0.5,4.3,3.8,4.3,6.7c0.3,8-5.3,15.5-12.5,18.9
			c-7.3,3.5-15.9,3.3-23.6,1c-9.7-2.9-18.5-9.4-23.1-18.3s-4.7-20.2,0.8-28.7C111.8,48.9,113.9,45.2,115.5,45.2z"/>
		<path fill="#E6E6E6" d="M118.1,65c0-1.2,1.9-1.2,1.9,0c0.1,2.7,0.2,5.4,0.2,8c0,1.2-1.9,1.2-1.9,0C118.2,70.3,118.2,67.6,118.1,65
			L118.1,65z M126,69.3c-0.3,2.4-0.7,4.8-1,7.3c-0.2,1.2,1.7,1.7,1.8,0.5c0.3-2.4,0.7-4.8,1-7.3C128,68.7,126.2,68.1,126,69.3
			L126,69.3z M136.7,73.6c-0.8,1.5-1.6,3-2.3,4.5c-0.6,1.1,1.1,2,1.6,0.9c0.8-1.5,1.6-3,2.3-4.5C138.9,73.5,137.3,72.5,136.7,73.6
			L136.7,73.6z M142.6,76.3c-0.8,1.5-1.5,3-2.3,4.5c-0.6,1.1,1.1,2,1.6,0.9c0.8-1.5,1.5-3,2.3-4.5C144.8,76.2,143.1,75.2,142.6,76.3
			L142.6,76.3z M154.4,78.7c-3.2,1.7-6.4,3.4-9.6,5.1c-1.1,0.6-0.1,2.2,1,1.6c3.2-1.7,6.4-3.4,9.6-5.1
			C156.4,79.8,155.4,78.2,154.4,78.7L154.4,78.7z"/>
	</g>
	<g class="dumpling">
		<path fill="#FFF" d="M57.9,179.4c1.5,0,2.8,1.2,3.6,2.6c0.7,1.3,1.1,2.9,1.8,4.2c0.7,1.4,1.9,2.6,3.4,2.8c3,0.3,5.4-3.7,8.3-3
			c3.9,1,2.1,8.2,5.8,9.9c3.4,1.6,7.3-3.5,10.6-1.7c3.3,1.7,1.3,7.9,4.6,9.6c2.9,1.5,6.2-2.2,9.4-1.6c2.7,0.4,4,3.6,4.1,6.4
			c0.2,7.5-5,14.6-11.8,17.8c-6.9,3.3-15,3.1-22.3,0.9c-9.1-2.8-17.4-8.8-21.8-17.2s-4.4-19.1,0.7-27
			C54.4,182.9,56.4,179.4,57.9,179.4z"/>
		<path fill="#E6E6E6" d="M60.3,198c0-1.1,1.7-1.1,1.8,0c0.1,2.5,0.1,5.1,0.2,7.6c0,1.1-1.7,1.1-1.8,0C60.5,203.1,60.4,200.6,60.3,198
			L60.3,198z M67.8,202.2c-0.3,2.3-0.6,4.6-1,6.9c-0.2,1.1,1.6,1.6,1.7,0.5c0.3-2.3,0.6-4.6,1-6.9C69.7,201.5,68,201,67.8,202.2
			L67.8,202.2z M77.9,206.2c-0.7,1.4-1.5,2.8-2.2,4.2c-0.5,1,1,1.9,1.5,0.9c0.7-1.4,1.5-2.8,2.2-4.2C80,206.1,78.5,205.2,77.9,206.2
			L77.9,206.2z M83.5,208.7c-0.7,1.4-1.5,2.8-2.2,4.2c-0.5,1,1,1.9,1.5,0.9c0.7-1.4,1.5-2.8,2.2-4.2C85.5,208.6,84,207.7,83.5,208.7
			L83.5,208.7z M94.5,211c-3,1.6-6,3.2-9.1,4.8c-1,0.5-0.1,2.1,0.9,1.5c3-1.6,6-3.2,9.1-4.8C96.5,212,95.6,210.5,94.5,211L94.5,211z"/>
	</g>
	<g class="dumpling">
		<path fill="#FFF" d="M75.5,133.9c1.6,0,3,1.3,3.8,2.7s1.2,3,1.9,4.5s2,2.8,3.6,3c3.2,0.3,5.7-4,8.8-3.2c4.2,1,2.3,8.7,6.1,10.5
			c3.6,1.7,7.8-3.7,11.3-1.8s1.4,8.3,4.9,10.2c3.1,1.6,6.6-2.3,10-1.7c2.9,0.5,4.3,3.8,4.3,6.7c0.3,8-5.3,15.5-12.5,18.9
			c-7.3,3.5-15.9,3.3-23.6,1c-9.7-2.9-18.5-9.4-23.1-18.3c-4.6-8.9-4.7-20.2,0.8-28.7C71.8,137.7,73.9,133.9,75.5,133.9z"/>
		<path fill="#E6E6E6" d="M78.1,153.7c0-1.2,1.9-1.2,1.9,0c0.1,2.7,0.2,5.4,0.2,8c0,1.2-1.9,1.2-1.9,0C78.2,159.1,78.2,156.4,78.1,153.7
			L78.1,153.7z M86,158.1c-0.3,2.4-0.7,4.8-1,7.3c-0.2,1.2,1.7,1.7,1.8,0.5c0.3-2.4,0.7-4.8,1-7.3C88,157.4,86.2,156.9,86,158.1
			L86,158.1z M96.7,162.4c-0.8,1.5-1.6,3-2.3,4.5c-0.6,1.1,1.1,2,1.6,0.9c0.8-1.5,1.6-3,2.3-4.5C98.9,162.2,97.3,161.3,96.7,162.4
			L96.7,162.4z M102.6,165.1c-0.8,1.5-1.5,3-2.3,4.5c-0.6,1.1,1.1,2,1.6,0.9c0.8-1.5,1.5-3,2.3-4.5
			C104.8,164.9,103.2,164,102.6,165.1L102.6,165.1z M114.4,167.5c-3.2,1.7-6.4,3.4-9.6,5.1c-1.1,0.6-0.1,2.2,1,1.6
			c3.2-1.7,6.4-3.4,9.6-5.1C116.4,168.5,115.4,166.9,114.4,167.5L114.4,167.5z"/>
	</g>
	<g class="dumpling">
		<path fill="#FFF" d="M96.5,88.7c1.6,0,3,1.3,3.8,2.7c0.8,1.4,1.2,3,1.9,4.5s2,2.8,3.6,3c3.2,0.3,5.7-4,8.8-3.2
			c4.2,1,2.3,8.7,6.1,10.5c3.6,1.7,7.8-3.7,11.3-1.8c3.5,1.9,1.4,8.3,4.9,10.2c3.1,1.6,6.6-2.3,10-1.7c2.9,0.5,4.3,3.8,4.3,6.7
			c0.3,8-5.3,15.5-12.5,18.9s-15.9,3.3-23.6,1c-9.7-2.9-18.5-9.4-23.1-18.3s-4.7-20.2,0.8-28.7C92.8,92.5,94.9,88.7,96.5,88.7z"/>
		<path fill="#E6E6E6" d="M99,108.5c0-1.2,1.9-1.2,1.9,0c0.1,2.7,0.2,5.4,0.2,8c0,1.2-1.9,1.2-1.9,0C99.2,113.9,99.1,111.2,99,108.5
			L99,108.5z M107,112.9c-0.3,2.4-0.7,4.8-1,7.3c-0.2,1.2,1.7,1.7,1.8,0.5c0.3-2.4,0.7-4.8,1-7.3C109,112.2,107.2,111.7,107,112.9
			L107,112.9z M117.7,117.1c-0.8,1.5-1.6,3-2.3,4.5c-0.6,1.1,1.1,2,1.6,0.9c0.8-1.5,1.6-3,2.3-4.5C119.9,117,118.3,116.1,117.7,117.1
			L117.7,117.1z M123.6,119.8c-0.8,1.5-1.5,3-2.3,4.5c-0.6,1.1,1.1,2,1.6,0.9c0.8-1.5,1.5-3,2.3-4.5
			C125.7,119.7,124.1,118.8,123.6,119.8L123.6,119.8z M135.3,122.3c-3.2,1.7-6.4,3.4-9.6,5.1c-1.1,0.6-0.1,2.2,1,1.6
			c3.2-1.7,6.4-3.4,9.6-5.1C137.3,123.3,136.4,121.7,135.3,122.3L135.3,122.3z"/>
	</g>
</svg>
