<?xml version="1.0" encoding="utf-8"?>
<svg version="1.1" xmlns="http://www.w3.org/2000/svg" xmlns:xlink="http://www.w3.org/1999/xlink" x="0px" y="0px" width="32" viewBox="0 0 40 40" style="enable-background:new 0 0 40 40;" xml:space="preserve">
<path fill="#902E1B" d="M20,3.8C11,3.8,3.8,11,3.8,20c0,9,7.3,16.2,16.2,16.2c9,0,16.2-7.3,16.2-16.2C36.2,11,29,3.8,20,3.8z
	 M26.3,33.9l-1.4-3.4l-1,0.4l1.4,3.4c-1.7,0.6-3.5,1-5.4,1c-1.9,0-3.8-0.4-5.5-1l1.4-3.2l14.8-6.1l3.2,1.4
	C32.4,29.6,29.7,32.3,26.3,33.9z M9.5,24.9l-0.4-1l-3.4,1.4c-0.6-1.7-1-3.5-1-5.4c0-1.9,0.4-3.7,1-5.4l3.2,1.3L15,30.6l-1.5,3.2
	c-3.3-1.5-5.9-4.2-7.4-7.5L9.5,24.9z M13.7,6.1l1.4,3.4l1-0.4l-1.4-3.4c1.7-0.6,3.5-1,5.4-1c1.9,0,3.6,0.4,5.3,1L24,8.8L9.3,14.9
	l-3.2-1.3C7.7,10.3,10.3,7.7,13.7,6.1z M30.5,15.2l0.4,1l3.4-1.4c0.6,1.6,1,3.4,1,5.3c0,1.9-0.4,3.6-1,5.3L31.1,24L25,9.2l1.3-3.1
	c3.4,1.5,6.1,4.3,7.7,7.7L30.5,15.2z M30,24l-14.1,6L9.9,15.7l14.1-5.9L30,24z"/>
<path fill="#E37B3A" d="M15.3,31.5l-6.8,0.1l0.1-6.8L3.7,20l4.8-4.7V8.5l6.8,0.1L20,3.7l4.7,4.8l6.8-0.1l-0.1,6.8l4.8,4.7l-4.8,4.7
	l0.1,6.8l-6.7-0.1l-4.7,5L15.3,31.5z M20,34.7l3.6-3.7l-14-5.8l-0.1,5.2l6.1-0.1L20,34.7z M30.4,30.4l-0.1-6.1l4.4-4.3L31,16.3
	l-5.7,14.1L30.4,30.4z M24.2,30.1l5.9-14.3L15.8,9.8l-6,14.3L24.2,30.1z M8.9,23.6l5.7-14L9.6,9.6l0.1,6.1L5.3,20L8.9,23.6z
	 M30.4,14.7l0.1-5.2l-6.1,0.1L20,5.3L16.4,9L30.4,14.7z"/>
</svg>
