<?xml version="1.0" encoding="utf-8"?>
<svg version="1.1" class="speakers__ic__zongzi" xmlns="http://www.w3.org/2000/svg" xmlns:xlink="http://www.w3.org/1999/xlink" x="0px" y="0px" width="140" viewBox="0 0 260 260" style="enable-background:new 0 0 260 260;" xml:space="preserve">

  <defs>
		<filter id="dropshadow">
			<feGaussianBlur in="SourceAlpha" stdDeviation="8"/> 
			<feOffset dx="2" dy="2"/>
			<feComponentTransfer>
				<feFuncA type="linear" slope="0.5"/>
			</feComponentTransfer>
			<feMerge> 
				<feMergeNode/>
				<feMergeNode in="SourceGraphic"/> 
			</feMerge>
		</filter>
	</defs>

	<g class="steamer">
		<path fill="#F1D0B2" d="M105.8,13.8l140.5,140.5c-1.9,9.4-5,18.5-9.2,27.3L78.5,23C87.2,18.8,96.4,15.7,105.8,13.8z M14,104.5
			L155.5,246c9.3-2,18.4-5.2,27-9.5l-159-159C19.2,86.2,16.1,95.3,14,104.5z M46.1,213.9c21,21,47.9,32.5,75.3,34.5L11.6,138.6
			C13.6,166.1,25.1,192.9,46.1,213.9z M46.1,46.1c-3,3-5.7,6-8.3,9.2l167,167c3.2-2.6,6.3-5.3,9.2-8.3c3.2-3.2,6.2-6.6,9-10
			L56.1,37.1C52.6,39.9,49.3,42.8,46.1,46.1z M213.9,46.1c-20.6-20.6-46.8-32-73.7-34.3l108.1,108.1C246,92.9,234.5,66.6,213.9,46.1z"/>
		<path fill="#D9A575" d="M14,104.5L155.5,246c-11.2,2.4-22.7,3.3-34.1,2.4L11.6,138.6C10.8,127.2,11.6,115.7,14,104.5z M23.5,77.5
			l159,159c7.8-3.8,15.3-8.6,22.2-14.3l-167-167C32.1,62.2,27.3,69.7,23.5,77.5z M56.1,37.1l166.8,166.8c5.6-7,10.3-14.6,14.1-22.4
			L78.5,23C70.6,26.8,63.1,31.5,56.1,37.1z M248.3,119.8L140.2,11.7c-11.5-1-23.1-0.3-34.4,2.1l140.5,140.5
			C248.6,142.9,249.3,131.3,248.3,119.8z"/>
		<path fill="#D9A575" filter="url(#dropshadow)" d="M45.1,45.1C-1.7,92-1.7,168,45.1,214.9s122.8,46.9,169.7,0s46.9-122.8,0-169.7S92-1.7,45.1,45.1z M208.6,208.6
			c-43.4,43.4-113.9,43.4-157.3,0S7.9,94.8,51.4,51.4s113.9-43.4,157.3,0S252.1,165.2,208.6,208.6z"/>
	</g>
	<g class="zongzi">
		<path fill="#1B8E57" d="M76.7,58.8c2.2-4.4,4.5-8.7,6.7-13.1c0.9-1.7,2-3.6,3.9-4.1c2.3-0.6,4.5,1.4,6.1,3.2
			c13.7,15.2,26,31.8,36.4,49.5c0.7,1.1,1.4,2.4,1.3,3.7c-0.1,2.6-2.8,4.3-5.1,5.4c-19.8,9-41.6,13.5-63.3,13c-1.7,0-3.7-0.3-4.5-1.8
			c-0.5-1-0.3-2.1-0.1-3.2C61.9,91.9,67.5,76.2,76.7,58.8L76.7,58.8z"/>
		<path fill="#27B76F" d="M119,77.5c-0.9,11.5-5,22.8-11.7,32.2c5.2-10.6,9-21.9,11.2-33.5L119,77.5z M65.7,83.2c2.9,1,6,1.3,9,1.7
			c9.2,1.2,18.1,3.8,26.5,7.7c-0.5-2.6-3.2-3.9-5.7-4.8C86,84.5,76,82.6,66,82.4L65.7,83.2z"/>
		<path fill="#0A5B33" d="M111.5,67.2c-4.3,17.4-12.4,33.3-23.8,47.2c-0.8,1-2.2-0.4-1.4-1.4c8.7-10.5,15.4-22.4,19.9-35.2
			c-0.1,0-0.3-0.1-0.4-0.2c-9-7.2-19.6-11.7-31.1-13.3c-1.3-0.2-0.7-2.1,0.5-1.9c11.7,1.6,22.4,6.2,31.6,13.5c1-3,1.9-6.1,2.7-9.2
			C109.9,65.4,111.8,65.9,111.5,67.2z M72.2,92.8c1.5,0.2,3,0.5,4.5,0.7c1.3,0.2,1.8-1.7,0.5-1.9c-1.5-0.2-3-0.5-4.5-0.7
			C71.4,90.6,70.9,92.6,72.2,92.8L72.2,92.8z M87.2,95.2c0.8,0.3,1.6,0.5,2.4,0.8c0.5,0.2,1.1-0.2,1.2-0.7c0.2-0.5-0.2-1.1-0.7-1.2
			c-0.8-0.3-1.6-0.5-2.4-0.8c-0.5-0.2-1.1,0.2-1.2,0.7C86.3,94.5,86.6,95,87.2,95.2L87.2,95.2z M71.3,103c3.4,0.6,6.8,1.2,10.2,1.8
			c1.3,0.2,1.8-1.7,0.5-1.9c-3.4-0.6-6.8-1.2-10.2-1.8C70.6,100.9,70.1,102.8,71.3,103L71.3,103z M77.8,74.2c2.6,0.6,5.1,1.2,7.7,1.7
			c1.3,0.3,1.8-1.6,0.5-1.9c-2.6-0.6-5.1-1.2-7.7-1.7C77.1,71.9,76.6,73.9,77.8,74.2L77.8,74.2z M93.6,78.6c1.8,0.7,3.5,1.4,5.3,2
			c1.2,0.5,1.7-1.5,0.5-1.9c-1.8-0.7-3.5-1.4-5.3-2C93,76.2,92.5,78.1,93.6,78.6L93.6,78.6z M86.1,52.6c2.3,1.3,4.5,2.5,6.8,3.8
			c1.1,0.6,2.1-1.1,1-1.7c-2.3-1.3-4.5-2.5-6.8-3.8C86,50.3,85,52,86.1,52.6L86.1,52.6z M87.5,61.7c2.2,0.8,4.3,1.6,6.5,2.4
			c1.2,0.5,1.7-1.5,0.5-1.9c-2.2-0.8-4.3-1.6-6.5-2.4C86.9,59.3,86.3,61.2,87.5,61.7L87.5,61.7z M99.9,67.6c1.4,0.7,2.7,1.3,4.1,2
			c1.1,0.6,2.2-1.2,1-1.7c-1.4-0.7-2.7-1.3-4.1-2C99.7,65.3,98.7,67.1,99.9,67.6L99.9,67.6z M111.1,80.8c-0.4,1.9-0.8,3.8-1.2,5.7
			c-0.3,1.3,1.7,1.8,1.9,0.5c0.4-1.9,0.8-3.8,1.2-5.7C113.3,80,111.4,79.5,111.1,80.8L111.1,80.8z M105.6,95.5
			c-1,1.9-1.9,3.8-2.9,5.6c-0.6,1.1,1.1,2.2,1.7,1c1-1.9,1.9-3.8,2.9-5.6C107.9,95.4,106.1,94.4,105.6,95.5L105.6,95.5z M121.4,91.9
			c-0.6,1.7-1.1,3.4-1.7,5.1c-0.4,1.2,1.5,1.7,1.9,0.5c0.6-1.7,1.1-3.4,1.7-5.1C123.7,91.2,121.8,90.6,121.4,91.9L121.4,91.9z
			M100.7,106.6c-0.5,0.7-1,1.4-1.4,2.2c-0.3,0.4-0.1,1.1,0.4,1.4s1.1,0.1,1.4-0.4c0.5-0.7,1-1.4,1.4-2.2c0.3-0.4,0.1-1.1-0.4-1.4
			C101.6,105.9,101,106.1,100.7,106.6L100.7,106.6z M83.3,80.7c1.6,0.4,3.3,0.7,4.9,1.1c1.3,0.3,1.8-1.6,0.5-1.9
			c-1.6-0.4-3.3-0.7-4.9-1.1C82.6,78.5,82.1,80.5,83.3,80.7L83.3,80.7z M63.5,108.7c2.3,0.2,4.6,0.3,6.9,0.5c1.3,0.1,1.3-1.9,0-2
			c-2.3-0.2-4.6-0.3-6.9-0.5C62.2,106.6,62.2,108.6,63.5,108.7L63.5,108.7z"/>
	</g>
	<g class="zongzi">
		<path fill="#1B8E57" d="M159.9,72.5c2.2-4.4,4.5-8.7,6.7-13.1c0.9-1.7,2-3.6,3.9-4.1c2.3-0.6,4.5,1.4,6.1,3.2
			c13.7,15.2,26,31.8,36.4,49.5c0.7,1.1,1.4,2.4,1.3,3.7c-0.1,2.6-2.8,4.3-5.1,5.4c-19.8,9-41.6,13.5-63.3,13c-1.7,0-3.7-0.3-4.5-1.8
			c-0.5-1-0.3-2.1-0.1-3.2C145.1,105.6,150.7,89.9,159.9,72.5L159.9,72.5z"/>
		<path fill="#27B76F" d="M202.2,91.1c-0.9,11.5-5,22.8-11.7,32.2c5.2-10.6,9-21.9,11.2-33.5L202.2,91.1z M148.9,96.8c2.9,1,6,1.3,9,1.7
			c9.2,1.2,18.1,3.8,26.5,7.7c-0.5-2.6-3.2-3.9-5.7-4.8c-9.5-3.3-19.5-5.1-29.5-5.4L148.9,96.8z"/>
		<path fill="#0A5B33" d="M194.8,80.8c-4.3,17.4-12.4,33.3-23.8,47.2c-0.8,1-2.2-0.4-1.4-1.4c8.7-10.5,15.4-22.4,19.9-35.2
			c-0.1,0-0.3-0.1-0.4-0.2c-9-7.2-19.6-11.7-31.1-13.3c-1.3-0.2-0.7-2.1,0.5-1.9c11.7,1.6,22.4,6.2,31.6,13.5c1-3,1.9-6.1,2.7-9.2
			C193.2,79,195.1,79.6,194.8,80.8z M155.4,106.4c1.5,0.2,3,0.5,4.5,0.7c1.3,0.2,1.8-1.7,0.5-1.9c-1.5-0.2-3-0.5-4.5-0.7
			C154.7,104.3,154.1,106.2,155.4,106.4L155.4,106.4z M170.4,108.9c0.8,0.3,1.6,0.5,2.4,0.8c0.5,0.2,1.1-0.2,1.2-0.7
			c0.2-0.5-0.2-1.1-0.7-1.2c-0.8-0.3-1.6-0.5-2.4-0.8c-0.5-0.2-1.1,0.2-1.2,0.7C169.5,108.2,169.9,108.7,170.4,108.9L170.4,108.9z
			M154.6,116.7c3.4,0.6,6.8,1.2,10.2,1.8c1.3,0.2,1.8-1.7,0.5-1.9c-3.4-0.6-6.8-1.2-10.2-1.8C153.8,114.6,153.3,116.5,154.6,116.7
			L154.6,116.7z M161.1,87.8c2.6,0.6,5.1,1.2,7.7,1.7c1.3,0.3,1.8-1.6,0.5-1.9c-2.6-0.6-5.1-1.2-7.7-1.7
			C160.3,85.6,159.8,87.5,161.1,87.8L161.1,87.8z M176.9,92.3c1.8,0.7,3.5,1.4,5.3,2c1.2,0.5,1.7-1.5,0.5-1.9c-1.8-0.7-3.5-1.4-5.3-2
			C176.2,89.9,175.7,91.8,176.9,92.3L176.9,92.3z M169.4,66.3c2.3,1.3,4.5,2.5,6.8,3.8c1.1,0.6,2.1-1.1,1-1.7
			c-2.3-1.3-4.5-2.5-6.8-3.8C169.2,63.9,168.2,65.7,169.4,66.3L169.4,66.3z M170.8,75.4c2.2,0.8,4.3,1.6,6.5,2.4
			c1.2,0.5,1.7-1.5,0.5-1.9c-2.2-0.8-4.3-1.6-6.5-2.4C170.1,73,169.6,74.9,170.8,75.4L170.8,75.4z M183.1,81.3c1.4,0.7,2.7,1.3,4.1,2
			c1.1,0.6,2.2-1.2,1-1.7c-1.4-0.7-2.7-1.3-4.1-2C183,79,182,80.7,183.1,81.3L183.1,81.3z M194.3,94.4c-0.4,1.9-0.8,3.8-1.2,5.7
			c-0.3,1.3,1.7,1.8,1.9,0.5c0.4-1.9,0.8-3.8,1.2-5.7C196.5,93.7,194.6,93.2,194.3,94.4L194.3,94.4z M188.8,109.2
			c-1,1.9-1.9,3.8-2.9,5.6c-0.6,1.1,1.1,2.2,1.7,1c1-1.9,1.9-3.8,2.9-5.6C191.1,109,189.4,108,188.8,109.2L188.8,109.2z M204.6,105.5
			c-0.6,1.7-1.1,3.4-1.7,5.1c-0.4,1.2,1.5,1.7,1.9,0.5c0.6-1.7,1.1-3.4,1.7-5.1C207,104.8,205,104.3,204.6,105.5L204.6,105.5z
			M183.9,120.2c-0.5,0.7-1,1.4-1.4,2.2c-0.3,0.4-0.1,1.1,0.4,1.4s1.1,0.1,1.4-0.4c0.5-0.7,1-1.4,1.4-2.2c0.3-0.4,0.1-1.1-0.4-1.4
			C184.8,119.6,184.2,119.8,183.9,120.2L183.9,120.2z M166.6,94.4c1.6,0.4,3.3,0.7,4.9,1.1c1.3,0.3,1.8-1.6,0.5-1.9
			c-1.6-0.4-3.3-0.7-4.9-1.1C165.8,92.2,165.3,94.1,166.6,94.4L166.6,94.4z M146.8,122.3c2.3,0.2,4.6,0.3,6.9,0.5
			c1.3,0.1,1.3-1.9,0-2c-2.3-0.2-4.6-0.3-6.9-0.5C145.5,120.2,145.5,122.2,146.8,122.3L146.8,122.3z"/>
	</g>
	<g class="zongzi">
		<path fill="#1B8E57" d="M70.9,143.6c2.2-4.4,4.5-8.7,6.7-13.1c0.9-1.7,2-3.6,3.9-4.1c2.3-0.6,4.5,1.4,6.1,3.2
			c13.7,15.2,26,31.8,36.4,49.5c0.7,1.1,1.4,2.4,1.3,3.7c-0.1,2.6-2.8,4.3-5.1,5.4c-19.8,9-41.6,13.5-63.3,13c-1.7,0-3.7-0.3-4.5-1.8
			c-0.5-1-0.3-2.1-0.1-3.2C56.1,176.7,61.7,161.1,70.9,143.6L70.9,143.6z"/>
		<path fill="#27B76F" d="M113.2,162.3c-0.9,11.5-5,22.8-11.7,32.2c5.2-10.6,9-21.9,11.2-33.5L113.2,162.3z M59.9,168c2.9,1,6,1.3,9,1.7
			c9.2,1.2,18.1,3.8,26.5,7.7c-0.5-2.6-3.2-3.9-5.7-4.8c-9.5-3.3-19.5-5.1-29.5-5.4L59.9,168z"/>
		<path fill="#0A5B33" d="M105.8,152c-4.3,17.4-12.4,33.3-23.8,47.2c-0.8,1-2.2-0.4-1.4-1.4c8.7-10.5,15.4-22.4,19.9-35.2
			c-0.1,0-0.3-0.1-0.4-0.2c-9-7.2-19.6-11.7-31.1-13.3c-1.3-0.2-0.7-2.1,0.5-1.9c11.7,1.6,22.4,6.2,31.6,13.5c1-3,1.9-6.1,2.7-9.2
			C104.1,150.2,106.1,150.7,105.8,152z M66.4,177.6c1.5,0.2,3,0.5,4.5,0.7c1.3,0.2,1.8-1.7,0.5-1.9c-1.5-0.2-3-0.5-4.5-0.7
			C65.7,175.5,65.1,177.4,66.4,177.6L66.4,177.6z M81.4,180c0.8,0.3,1.6,0.5,2.4,0.8c0.5,0.2,1.1-0.2,1.2-0.7
			c0.2-0.5-0.2-1.1-0.7-1.2c-0.8-0.3-1.6-0.5-2.4-0.8c-0.5-0.2-1.1,0.2-1.2,0.7C80.5,179.4,80.9,179.9,81.4,180L81.4,180z
			M65.6,187.9c3.4,0.6,6.8,1.2,10.2,1.8c1.3,0.2,1.8-1.7,0.5-1.9c-3.4-0.6-6.8-1.2-10.2-1.8C64.8,185.7,64.3,187.6,65.6,187.9
			L65.6,187.9z M72.1,159c2.6,0.6,5.1,1.2,7.7,1.7c1.3,0.3,1.8-1.6,0.5-1.9c-2.6-0.6-5.1-1.2-7.7-1.7C71.3,156.8,70.8,158.7,72.1,159
			L72.1,159z M87.9,163.4c1.8,0.7,3.5,1.4,5.3,2c1.2,0.5,1.7-1.5,0.5-1.9c-1.8-0.7-3.5-1.4-5.3-2C87.2,161,86.7,163,87.9,163.4
			L87.9,163.4z M80.4,137.4c2.3,1.3,4.5,2.5,6.8,3.8c1.1,0.6,2.1-1.1,1-1.7c-2.3-1.3-4.5-2.5-6.8-3.8
			C80.2,135.1,79.2,136.8,80.4,137.4L80.4,137.4z M81.8,146.5c2.2,0.8,4.3,1.6,6.5,2.4c1.2,0.5,1.7-1.5,0.5-1.9
			c-2.2-0.8-4.3-1.6-6.5-2.4C81.1,144.1,80.6,146.1,81.8,146.5L81.8,146.5z M94.1,152.4c1.4,0.7,2.7,1.3,4.1,2c1.1,0.6,2.2-1.2,1-1.7
			c-1.4-0.7-2.7-1.3-4.1-2C94,150.2,92.9,151.9,94.1,152.4L94.1,152.4z M105.3,165.6c-0.4,1.9-0.8,3.8-1.2,5.7
			c-0.3,1.3,1.7,1.8,1.9,0.5c0.4-1.9,0.8-3.8,1.2-5.7C107.5,164.9,105.6,164.3,105.3,165.6L105.3,165.6z M99.8,180.3
			c-1,1.9-1.9,3.8-2.9,5.6c-0.6,1.1,1.1,2.2,1.7,1c1-1.9,1.9-3.8,2.9-5.6C102.1,180.2,100.4,179.2,99.8,180.3L99.8,180.3z
			M115.6,176.7c-0.6,1.7-1.1,3.4-1.7,5.1c-0.4,1.2,1.5,1.7,1.9,0.5c0.6-1.7,1.1-3.4,1.7-5.1C118,176,116,175.5,115.6,176.7
			L115.6,176.7z M94.9,191.4c-0.5,0.7-1,1.4-1.4,2.2c-0.3,0.4-0.1,1.1,0.4,1.4c0.5,0.3,1.1,0.1,1.4-0.4c0.5-0.7,1-1.4,1.4-2.2
			c0.3-0.4,0.1-1.1-0.4-1.4C95.8,190.7,95.2,190.9,94.9,191.4L94.9,191.4z M77.6,165.6c1.6,0.4,3.3,0.7,4.9,1.1
			c1.3,0.3,1.8-1.6,0.5-1.9c-1.6-0.4-3.3-0.7-4.9-1.1C76.8,163.3,76.3,165.3,77.6,165.6L77.6,165.6z M57.8,193.5
			c2.3,0.2,4.6,0.3,6.9,0.5c1.3,0.1,1.3-1.9,0-2c-2.3-0.2-4.6-0.3-6.9-0.5C56.5,191.4,56.5,193.4,57.8,193.5L57.8,193.5z"/>
	</g>
	<g class="zongzi">
		<path fill="#1B8E57" d="M152.6,160.2c2.2-4.4,4.5-8.7,6.7-13.1c0.9-1.7,2-3.6,3.9-4.1c2.3-0.6,4.5,1.4,6.1,3.2
			c13.7,15.2,26,31.8,36.4,49.5c0.7,1.1,1.4,2.4,1.3,3.7c-0.1,2.6-2.8,4.3-5.1,5.4c-19.8,9-41.6,13.5-63.3,13c-1.7,0-3.7-0.3-4.5-1.8
			c-0.5-1-0.3-2.1-0.1-3.2C137.8,193.3,143.4,177.6,152.6,160.2L152.6,160.2z"/>
		<path fill="#27B76F" d="M194.9,178.9c-0.9,11.5-5,22.8-11.7,32.2c5.2-10.6,9-21.9,11.2-33.5L194.9,178.9z M141.6,184.6
			c2.9,1,6,1.3,9,1.7c9.2,1.2,18.1,3.8,26.5,7.7c-0.5-2.6-3.2-3.9-5.7-4.8c-9.5-3.3-19.5-5.2-29.5-5.4L141.6,184.6z"/>
		<path fill="#0A5B33" d="M187.4,168.6c-4.3,17.4-12.4,33.3-23.8,47.2c-0.8,1-2.2-0.4-1.4-1.4c8.7-10.5,15.4-22.4,19.9-35.2
			c-0.1,0-0.3-0.1-0.4-0.2c-9-7.2-19.6-11.7-31.1-13.3c-1.3-0.2-0.7-2.1,0.5-1.9c11.7,1.6,22.4,6.2,31.6,13.5c1-3,1.9-6.1,2.7-9.2
			C185.8,166.8,187.7,167.3,187.4,168.6z M148.1,194.2c1.5,0.2,3,0.5,4.5,0.7c1.3,0.2,1.8-1.7,0.5-1.9c-1.5-0.2-3-0.5-4.5-0.7
			C147.3,192,146.8,194,148.1,194.2L148.1,194.2z M163.1,196.6c0.8,0.3,1.6,0.5,2.4,0.8c0.5,0.2,1.1-0.2,1.2-0.7
			c0.2-0.5-0.2-1.1-0.7-1.2c-0.8-0.3-1.6-0.5-2.4-0.8c-0.5-0.2-1.1,0.2-1.2,0.7C162.2,195.9,162.5,196.4,163.1,196.6L163.1,196.6z
			M147.2,204.4c3.4,0.6,6.8,1.2,10.2,1.8c1.3,0.2,1.8-1.7,0.5-1.9c-3.4-0.6-6.8-1.2-10.2-1.8C146.5,202.3,146,204.2,147.2,204.4
			L147.2,204.4z M153.7,175.6c2.6,0.6,5.1,1.2,7.7,1.7c1.3,0.3,1.8-1.6,0.5-1.9c-2.6-0.6-5.1-1.2-7.7-1.7
			C153,173.3,152.5,175.3,153.7,175.6L153.7,175.6z M169.5,180c1.8,0.7,3.5,1.4,5.3,2c1.2,0.5,1.7-1.5,0.5-1.9
			c-1.8-0.7-3.5-1.4-5.3-2C168.9,177.6,168.4,179.5,169.5,180L169.5,180z M162,154c2.3,1.3,4.5,2.5,6.8,3.8c1.1,0.6,2.1-1.1,1-1.7
			c-2.3-1.3-4.5-2.5-6.8-3.8C161.9,151.7,160.9,153.4,162,154L162,154z M163.4,163.1c2.2,0.8,4.3,1.6,6.5,2.4
			c1.2,0.5,1.7-1.5,0.5-1.9c-2.2-0.8-4.3-1.6-6.5-2.4C162.8,160.7,162.2,162.6,163.4,163.1L163.4,163.1z M175.8,169
			c1.4,0.7,2.7,1.3,4.1,2c1.1,0.6,2.2-1.2,1-1.7c-1.4-0.7-2.7-1.3-4.1-2C175.6,166.7,174.6,168.5,175.8,169L175.8,169z M187,182.2
			c-0.4,1.9-0.8,3.8-1.2,5.7c-0.3,1.3,1.7,1.8,1.9,0.5c0.4-1.9,0.8-3.8,1.2-5.7C189.2,181.4,187.3,180.9,187,182.2L187,182.2z
			M181.5,196.9c-1,1.9-1.9,3.8-2.9,5.6c-0.6,1.1,1.1,2.2,1.7,1c1-1.9,1.9-3.8,2.9-5.6C183.8,196.8,182,195.8,181.5,196.9
			L181.5,196.9z M197.3,193.3c-0.6,1.7-1.1,3.4-1.7,5.1c-0.4,1.2,1.5,1.7,1.9,0.5c0.6-1.7,1.1-3.4,1.7-5.1
			C199.6,192.6,197.7,192,197.3,193.3L197.3,193.3z M176.6,208c-0.5,0.7-1,1.4-1.4,2.2c-0.3,0.4-0.1,1.1,0.4,1.4
			c0.5,0.3,1.1,0.1,1.4-0.4c0.5-0.7,1-1.4,1.4-2.2c0.3-0.4,0.1-1.1-0.4-1.4C177.5,207.3,176.9,207.5,176.6,208L176.6,208z
			M159.2,182.1c1.6,0.4,3.3,0.7,4.9,1.1c1.3,0.3,1.8-1.6,0.5-1.9c-1.6-0.4-3.3-0.7-4.9-1.1C158.5,179.9,158,181.9,159.2,182.1
			L159.2,182.1z M139.4,210.1c2.3,0.2,4.6,0.3,6.9,0.5c1.3,0.1,1.3-1.9,0-2c-2.3-0.2-4.6-0.3-6.9-0.5
			C138.1,208,138.1,210,139.4,210.1L139.4,210.1z"/>
	</g>
</svg>
