<svg enable-background="new 0 0 500 180" viewBox="0 0 500 180" width="500" xmlns="http://www.w3.org/2000/svg"><path d="m89.7 90h-2.1v-2c.4-4.8 1.7-9.5 3.9-13.7 3 4.7 7 8.7 11.8 11.8-4.2 2.1-8.8 3.5-13.6 3.9zm-2.2-.1c-.2-5.5-1.6-10.6-3.9-15.2-3.1 4.5-6.9 8.4-11.5 11.4 4.2 2.1 8.8 3.5 13.6 3.9h.2c-4.9.4-9.6 1.7-13.8 3.9 4.6 3.1 8.5 7 11.4 11.5 2.4-4.7 3.8-9.8 4-15.5 0 .1 0 .1 0 0zm3.9 15.5c2.9-4.6 6.8-8.5 11.4-11.5-4.6-2.3-9.8-3.7-15.2-3.9v2c.4 4.7 1.7 9.3 3.8 13.4zm63.6-15.4c0 37.2-30.3 67.5-67.5 67.5s-67.5-30.3-67.5-67.5 30.3-67.5 67.5-67.5 67.5 30.3 67.5 67.5zm-28.5 36.2c.2-4.5 1.1-8.9 2.8-12.9 1 .3 2 .7 3 1.2l-.1-4.8-11 4.5c1.4 3.7 2.3 7.7 2.4 12-3.8-.2-7.7-.9-11.3-2.2l-4.4 10.7 4.6.1c-.6-1-1.1-2.1-1.4-3.3 3.9-1.6 8.2-2.4 12.6-2.5-.1 2-.3 4-.7 5.9h4c-.4-1.9-.6-3.9-.7-5.9 2.1 0 4.1.3 6 .7v-4.2c-1.8.4-3.8.6-5.8.7zm-35 23.4 1.9-2c-.2-.3-.4-.6-.6-.9 1.8-2.9 4-5.6 6.6-8 1.2-1.2 2.5-2.2 3.9-3.1l-2.7-1.1c-1 .8-2 1.5-2.9 2.4-2.4 2.2-4.5 4.7-6.3 7.3-2.3-4.6-3.6-9.8-3.9-15.2-.2 5.6-1.7 10.8-4.1 15.5-2.6-4-6-7.6-9.9-10.5l-2.8 1.2c4.6 3.1 8.4 7.1 11.3 11.8-.1.2-.3.4-.4.6l5.9 6.1 3.6-3.7c.1-.2.2-.4.3-.6 0 .1.1.1.1.2zm-40-20.7c4.4.2 8.7 1.2 12.6 2.8-.3 1.1-.8 2.1-1.4 3.1l4.9-.1-4.5-10.8c-3.7 1.4-7.6 2.1-11.6 2.3.2-3.9.9-7.7 2.1-11.2l-10.9-4.5v4.2c1-.6 2.1-1.1 3.2-1.4 1.6 4 2.6 8.3 2.8 12.9-2-.1-4.1-.4-6.1-.8v4.2c2-.4 4.1-.6 6.1-.7-.1 2-.3 4.1-.7 6h4.2c-.4-2-.6-4-.7-6zm-21.7-33c.2-.1.5-.3.7-.5 4.5 2.7 8.3 6.3 11.4 10.6l1.1-2.7c-2.7-3.6-6.1-6.8-9.9-9.2 4.4-2.3 9.4-3.7 14.6-4h.8v-.1c-5.4-.3-10.5-1.7-15.2-4 2.7-1.8 5.2-3.9 7.4-6.3 1-1 1.9-2.1 2.8-3.3l-1.1-2.7c-1 1.5-2.2 3-3.4 4.4-2.4 2.6-5.1 4.8-8.1 6.6-.3-.2-.6-.4-.9-.6l-2 1.8c.1.1.2.1.2.2-.3.1-.5.2-.8.4l-3.6 3.5zm19-41.9c-.2 4.3-1.1 8.5-2.6 12.4-1.2-.4-2.4-.9-3.5-1.5l.1 4.6 10.8-4.5c-1.2-3.6-1.9-7.3-2.1-11.1 3.8.2 7.6 1 11 2.2l4.5-10.8h-4c.5 1 1 2.1 1.3 3.2-4 1.6-8.3 2.6-12.8 2.8.1-2.1.3-4.1.7-6.1h-4.4c.4 2 .7 4 .8 6.1-2 0-4.1-.3-6-.7v4.1c2-.4 4.1-.7 6.2-.7zm34.8-23.7-1.9 1.9c.2.3.4.5.5.8-2.7 4.5-6.3 8.3-10.6 11.3l2.7 1.1c3.6-2.8 6.7-6.1 9.3-9.9 2.3 4.6 3.7 9.9 3.9 15.3l.1-.1c.2-5.5 1.6-10.6 3.9-15.3 1.8 2.8 3.9 5.3 6.4 7.6.9.8 1.8 1.6 2.7 2.3l2.8-1.2c-1.3-.9-2.5-1.9-3.7-3-2.7-2.4-4.9-5.2-6.7-8.2.1-.2.3-.5.4-.7l-2-2.1v.1c0-.1-.1-.1-.1-.2l-3.8-3.9-3.8 3.9c0 .3-.1.3-.1.3 0 .1 0 .1 0 0zm40.1 20.9c-4.3-.2-8.6-1.1-12.6-2.7.3-1.1.7-2.2 1.3-3.3l-4.5.1 4.5 10.8c3.6-1.3 7.5-2 11.5-2.1-.2 3.8-.9 7.6-2.1 11.1l10.6 4.4.1-4.4c-1 .6-2.1 1-3.2 1.3-1.6-4-2.4-8.2-2.6-12.5 2 .1 4 .4 5.9.8v-4.2c-1.9.4-3.9.6-5.9.7.1-2.1.4-4.1.8-6.1h-4.3c.1 2 .4 4 .5 6.1zm6.8 23.3 1.1-2.8-15.5-6.4 9 21.9 2.8-6.7c.7-2.1 1.5-4.2 2.6-6-.1-.1-.1 0 0 0zm-24.7 59.6 6.7-16.3-6.8 2.8c-.1 0-.1.1-.2.1l-2.8 1.2c.1.1.2.2.4.3-2.5 1.2-5.1 2.2-7.9 2.9l-5.5 2.3 6 2.5c2.7.7 5.2 1.6 7.6 2.9-.1.1-.2.1-.3.2zm-36.4-.8 14.2-5.9-20.1-8.3zm-26-25 16 6.6-3.9-9.4s-.1.1-.1.1c-1.1-2.2-2-4.4-2.7-6.8l-2.7-6.5-2.7 6.5c-.7 2.4-1.5 4.7-2.6 6.9 0-.1-.1-.1-.1-.2zm25.8-62.4-6.3 15.2 21.5-8.9-6.1-2.5c-2.2-.7-4.3-1.5-6.3-2.5 0 0 .1-.1.1-.1zm33.8 1.3c-2.1 1-4.3 1.9-6.7 2.5l-5.9 2.4 21.5 8.9-6.3-15.2-2.8 1.2c.1.1.1.2.2.2zm5.3 38.8c2.7-1.8 5.2-3.9 7.4-6.3.9-1 1.8-2 2.6-3.1l-1.1-2.7c-1 1.5-2.1 2.9-3.3 4.2-2.4 2.6-5.1 4.8-8.1 6.6-5.3-3.2-9.7-7.6-12.9-12.9 1.8-2.9 4-5.6 6.6-8 1.4-1.3 2.9-2.5 4.5-3.5l-2.9-1.2c-1.2.9-2.3 1.8-3.4 2.8-2.4 2.2-4.5 4.7-6.3 7.3-2.3-4.7-3.7-10-3.9-15.5h.7l-.7-.3-.8.3c.3 0 .6 0 .9-.1-.2 5.7-1.7 11-4.1 15.8-2.6-4-5.9-7.5-9.7-10.4l-2.8 1.2c4.5 3.1 8.4 7.1 11.3 11.8-3.2 5.1-7.5 9.4-12.6 12.5-3-1.8-5.7-4-8.1-6.6-1.3-1.4-2.5-3-3.6-4.6l-1.1 2.8c.9 1.2 1.8 2.4 2.8 3.5 2.2 2.4 4.7 4.5 7.4 6.3-4.4 2.2-9.2 3.6-14.3 3.9 5.2.3 10 1.7 14.4 4-3.8 2.6-7.2 5.8-10 9.5l1.2 2.8c3-4.3 6.9-8 11.4-10.7 5.1 3.1 9.4 7.5 12.5 12.6-2.9 4.6-6.6 8.6-11.1 11.6l2.8 1.2c3.8-2.8 7.1-6.3 9.7-10.3 2.3 4.6 3.6 9.8 3.9 15.2l.1-.1c.2-5.5 1.6-10.6 3.9-15.2 1.8 2.8 3.9 5.3 6.4 7.6.8.8 1.7 1.5 2.6 2.2l2.7-1.1c-1.3-.9-2.5-1.9-3.6-3-2.7-2.4-4.9-5.2-6.7-8.2 3.1-5.2 7.4-9.5 12.6-12.7 4.6 2.8 8.6 6.6 11.7 11.1l1.1-2.8c-2.8-3.8-6.3-7.1-10.3-9.7 4.4-2.3 9.4-3.7 14.6-4h1c0 .3 0 .6-.1 1l.3-.8-.3-.7v.4c-5.4 0-10.6-1.4-15.3-3.7zm4 29.5 1.4-.6.6-1.6c-.6.8-1.3 1.5-2 2.2zm-25.4 10.6c-.2 0-.4 0-.6 0l.3.1zm-24.6-10 1.8.7c-.4-.3-.8-.7-1.2-1-.4-.5-.9-.9-1.3-1.3zm-10.8-27.3-.3.6.2.5c0-.4.1-.8.1-1.1zm12.6-25.7-2.4 1-1 2.4c1-1.2 2.2-2.3 3.4-3.4zm49.8 2.9-.8-1.9-1.9-.8c1 .8 1.9 1.7 2.7 2.7zm-70.1 5.5 6.2 14.9 8.7-21.1zm4.8 17.4v.6l.1-.3zm37.5 39.9h.8l-.3-.1zm45.1-21.1-1.3-3.2c-.5-1.1-1-2.2-1.4-3.4l-3.3-7.9-8.5 20.5zm14-11.8 6-5.9-4-3.9c-.1 0-.1-.1-.2-.1h.1l-1.9-1.9c-.3.2-.5.3-.8.5-2.9-1.8-5.7-4-8.1-6.6-1.1-1.3-2.2-2.7-3.1-4.1l-1.1 2.7c.8 1 1.6 2 2.5 3 2.2 2.4 4.7 4.5 7.4 6.3-4.4 2.2-9.2 3.6-14.3 3.9 5.2.3 10 1.7 14.4 4-3.9 2.6-7.3 5.8-10.1 9.5l1.1 2.8c3-4.3 6.9-8 11.4-10.8.2.2.5.4.7.6zm7-14c-.1-1-.3-2.1-.5-3.1-1.4 1.4-2.9 2.8-4.6 4l1.9 1.8c1.1-.8 2.2-1.7 3.2-2.7zm-6.8-21.8c-2.1-4-4.5-7.7-7.3-11.2-1.1.4-2.1.7-3.2 1l-.1 5.3c1.5.4 2.9.9 4.3 1.5-.8 2.6-2.4 4.9-4.4 6.7v4.4c2.7-3.4 5.9-6.2 9.6-8.5.3.3.7.5 1.1.8zm-16.6-20.5c-3.4-2.8-7-5.2-10.9-7.3.2.2.3.5.4.7-2.3 3.8-5.3 7.1-8.7 9.9h4.4c1.8-2.1 4.2-3.8 6.9-4.6.6 1.5 1.1 3 1.5 4.5l5.4-.1c.3-1 .6-2 1-3.1zm-30.1-13.8c-1.1-.2-2.2-.4-3.3-.5-.9 1-1.8 2-2.6 3.1l1.9 2c1.2-1.7 2.6-3.2 4-4.6zm-19.1-.5c-1.1.1-2.2.3-3.2.5 1.4 1.4 2.8 2.9 4 4.6l1.9-1.9c-.9-1.2-1.8-2.2-2.7-3.2zm-22.7 7.9c.2-.4.4-.7.6-1.1-4 2.1-7.8 4.6-11.3 7.4.4 1 .7 2.1 1 3.1l5.5.1c.4-1.5.9-3 1.5-4.5 2.1.6 4 1.7 5.6 3.1l1.2 1.2.3.3 4.1.1c-.8-.7-1.7-1.4-2.5-2.2-.4-.5-.8-.9-1.3-1.3-1.7-1.8-3.3-3.9-4.7-6.2zm-20 15.7c-2.8 3.4-5.2 7-7.2 10.9.3-.2.6-.4 1-.6 3.8 2.3 7 5.3 9.8 8.7l-.1-4.7c-2-1.8-3.5-4-4.2-6.7 1.3-.5 2.7-1 4.1-1.4v-5.1c-1.2-.3-2.3-.7-3.4-1.1zm-13.6 29.8c-.2 1-.3 2.1-.5 3.2 1 1 2.1 1.9 3.2 2.7l1.9-1.8c-1.6-1.3-3.2-2.6-4.6-4.1zm-.5 19.1c.1 1.1.3 2.3.5 3.4 1.4-1.5 3-2.8 4.6-4l-2-2c-1.1.8-2.1 1.7-3.1 2.6zm7 22.5c2 3.9 4.5 7.5 7.2 10.9 1-.4 2.1-.7 3.2-1l.1-5.3c-1.4-.4-2.8-.8-4.1-1.4.7-2.7 2.2-5.1 4.2-7v-4.3c-2.7 3.4-6 6.3-9.8 8.6-.3-.1-.5-.3-.8-.5zm16.6 20.3c3.4 2.8 7.1 5.2 11.1 7.3-.2-.4-.5-.7-.7-1.2 2.2-3.7 5.1-7 8.5-9.7h-4.3c-1.8 2-4.2 3.6-6.9 4.3-.6-1.4-1-2.8-1.4-4.2l-5.3.1c-.2 1.2-.6 2.3-1 3.4zm29.9 13.6c1 .2 2.1.3 3.1.5 1-1 1.9-2.1 2.7-3.2l-1.9-1.9c-1.2 1.7-2.5 3.2-3.9 4.6zm9.2 1h.2l-.2-.2zm10.1-.5c1.1-.1 2.2-.3 3.3-.5-1.5-1.5-2.8-3-4.1-4.7l-1.9 1.9c.9 1.2 1.8 2.3 2.7 3.3zm22.8-7.8c-.2.3-.3.5-.5.7 3.8-2 7.4-4.4 10.7-7.1-.4-1-.7-2.1-1-3.1l-5.2-.1c-.4 1.4-.8 2.8-1.3 4.1-2.7-.8-5-2.3-6.8-4.3l-4.6-.1c3.5 2.8 6.4 6.1 8.7 9.9zm19.5-15.6c2.8-3.4 5.2-7.1 7.3-11-.3.2-.5.3-.8.5-2.4-1.4-4.5-3.1-6.5-5-.4-.5-.8-.9-1.3-1.3-.7-.7-1.3-1.5-2-2.3v4c.1.1.2.1.2.2.4.4.8.8 1.2 1.2 1.5 1.6 2.6 3.6 3.2 5.8-1.5.6-3 1.1-4.5 1.6l.1 5.3c1.1.3 2.1.6 3.1 1zm13.8-30.1c.2-1 .3-2.1.5-3.2-1-.9-2-1.8-3.1-2.6l-1.9 1.8c1.7 1.3 3.1 2.6 4.5 4zm46.8-40.4h4.9c1.4 0 2.5.5 3.5 1.5.4.3.7.8.9 1.2.3.7.5 1.5.5 2.3v17.4h-9.9v-14.8c0-1.4-.5-2.5-1.5-3.5-.9-.8-1.9-1.3-3.1-1.4-.1 0-5.3 0-5.3 0v19.8h-9.9v-44.5h19.8c2.7 0 5.1 1 7 2.9 1.9 2 2.9 4.3 2.9 7v2.7c0 2.2-.8 4.4-2.3 6.4s-4 3-7.5 3zm-.1-12.1c0-1.4-.5-2.5-1.5-3.5-1-.9-2.2-1.4-3.5-1.4h-5v14.9h5c1.4 0 2.5-.5 3.5-1.5s1.5-2.2 1.5-3.5zm39.3 0v24.7c0 1.4-.4 2.5-1.4 3.5s-2.1 1.5-3.5 1.5-2.5-.5-3.5-1.5c-.9-1-1.4-2.2-1.4-3.5v-24.7h-9.9v24.7c0 2.7 1 5.1 2.9 7 2 1.9 4.3 2.9 7 2.9h5c3 0 4.6-1.7 5-5v5h9.9v-34.6zm49.6 9.9v14.9c0 2.6-1 4.9-2.9 6.9-2 1.9-4.3 2.9-7 2.9h-19.8v-44.5h9.9v14.8c.2-1.6.7-2.9 1.5-3.7s1.9-1.2 3.4-1.2h5c2.7 0 5.1.9 7 2.9 2 2 2.9 4.3 2.9 7zm-9.7 14.8v-14.8c0-1.4-.5-2.5-1.5-3.5s-2.2-1.5-3.5-1.5c-1.4 0-2.5.5-3.5 1.5s-1.5 2.1-1.5 3.5v19.8h5c1.4 0 2.5-.5 3.5-1.5.9-1 1.4-2.2 1.4-3.5zm39.4-24.7v24.7c0 1.4-.4 2.5-1.4 3.5s-2.1 1.5-3.5 1.5-2.5-.5-3.5-1.5c-.9-1-1.4-2.2-1.4-3.5v-24.7h-9.9v24.8c0 2.7 1 5.1 2.9 7 2 1.9 4.3 2.9 7 2.9h5c3 0 4.6-1.7 5-5v9.9c0 1.4-.5 2.5-1.5 3.5-1 .9-2.2 1.4-3.5 1.4h-5c-3 0-4.7-1.6-4.9-4.9h-5c.8 6.6 4.1 9.9 9.9 9.9h9.9c2.6 0 4.9-1 6.9-2.9 1.9-2 2.9-4.3 2.9-7v-39.6zm39.4 29.8h-5c-1.4 0-2.5-.5-3.5-1.5-.9-1-1.4-2.2-1.4-3.5v-24.7c0-1.4.5-2.5 1.5-3.5 1-.9 2.1-1.4 3.5-1.4h5c2.9 0 4.5 1.6 4.9 4.9h5c-.4-6.6-3.7-9.9-9.9-9.9h-9.9c-2.8 0-5.1.9-7 2.9-1.9 1.9-2.9 4.2-2.9 6.9v24.7c0 2.7 1 5.1 2.9 7 2 1.9 4.3 2.9 7 2.9h9.9c6.2 0 9.5-3.3 9.9-9.9h-5c-.3 3.3-2 4.9-5 5.1zm49.5-19.9v14.9c0 2.6-1 4.9-2.9 6.9-2 1.9-4.3 2.9-7 2.9h-9.9c-2.7 0-5.1-1-7-2.9-1.9-2-2.9-4.3-2.9-7v-14.8c0-2.7 1-5.1 2.9-7 2-1.9 4.3-2.9 7-2.9h9.9c2.7 0 5.1.9 7 2.9s2.9 4.3 2.9 7zm-9.7 14.8v-14.8c0-1.4-.5-2.5-1.5-3.5s-2.2-1.5-3.5-1.5c-1.4 0-2.5.5-3.5 1.5s-1.5 2.1-1.5 3.5v14.8c0 1.4.4 2.5 1.4 3.5s2.1 1.5 3.5 1.5 2.5-.5 3.5-1.5c.9-1 1.4-2.2 1.4-3.5zm46.2-21.7c-2-1.9-4.3-2.9-7-2.9h-5c-1.4 0-2.6.4-3.4 1.2s-1.3 2-1.5 3.7v-5h-9.9v34.6h9.9v-24.7c0-1.4.5-2.5 1.5-3.5s2.1-1.5 3.5-1.5 2.5.5 3.5 1.5 1.5 2.1 1.5 3.5v24.7h9.9v-24.7c0-2.7-.9-5-3-6.9zm29-6.5c.9-.9 2-1.3 3.2-1.3h5.4v-5h-10.4c-2.5 0-4.7.9-6.6 2.8-1.9 1.8-2.8 4-2.8 6.6v.4h-5v5h5v29.7h9.9v-29.7h5v-5h-5v-.4c0-1.3.5-2.3 1.3-3.1zm-229.5 65.4h-7.5v-3.8h7.5zm-64.1-3.8v3.8h7.5v30.2h7.6v-30.2h7.5v-3.8zm49.1 15v18.9h-7.5v-3.8c-.3 2.5-1.6 3.8-3.8 3.8h-3.8c-2 0-3.8-.7-5.3-2.2s-2.2-3.2-2.2-5.3c0-2 .7-3.8 2.2-5.3s3.2-2.2 5.3-2.2h7.6v-3.7c0-1.1-.4-2-1.1-2.7-.8-.7-1.7-1.1-2.7-1.1h-3.8c-2.3 0-3.5 1.3-3.8 3.8h-3.8c.5-5.1 3.1-7.6 7.5-7.6h7.6c2 0 3.8.7 5.3 2.2s2.3 3.3 2.3 5.2zm-7.6 7.8h-3.8c-1.1 0-2 .4-2.7 1.1s-1.1 1.6-1.1 2.6c0 1 .4 1.9 1.1 2.6.8.7 1.6 1.1 2.7 1.1s2-.4 2.7-1.1 1.1-1.6 1.1-2.6zm15.1-15.2v26.4h7.5v-26.4zm52.9 0h-7.8v18.9c0 1-.4 1.9-1.1 2.6s-1.6 1.1-2.6 1.1h-3.8v-22.6h-7.5v18.9c0 1-.4 1.9-1.1 2.6-.8.7-1.6 1.1-2.7 1.1h-3.8v-22.6h-7.5v26.4h9.8c2.2 0 3.9-.4 5.4-1.2v1.2h9.8c3.5 0 6.6-1.3 9.1-3.8 2.5-2.6 3.8-5.6 3.8-9.1zm30.3 7.4v18.9h-7.5v-3.8c-.3 2.5-1.6 3.8-3.8 3.8h-3.8c-2 0-3.8-.7-5.3-2.2s-2.2-3.2-2.2-5.3c0-2 .7-3.8 2.2-5.3s3.2-2.2 5.3-2.2h7.6v-3.7c0-1.1-.4-2-1.1-2.7-.8-.7-1.7-1.1-2.7-1.1h-3.8c-2.3 0-3.5 1.3-3.8 3.8h-3.8c.5-5.1 3.1-7.6 7.5-7.6h7.6c2 0 3.8.7 5.3 2.2 1.4 1.5 2.2 3.3 2.3 5.2zm-7.7 11.5v-3.7h-3.8c-1.1 0-2 .4-2.7 1.1s-1.1 1.6-1.1 2.6c0 1 .4 1.9 1.1 2.6.8.7 1.6 1.1 2.7 1.1s2-.4 2.7-1.1 1.1-1.6 1.1-2.6zm35.5-16.6c-1.5-1.5-3.2-2.2-5.3-2.2h-3.8c-1.1 0-2 .3-2.6.9-.7.6-1 1.5-1.2 2.8v-3.8h-7.5v26.4h7.6v-18.9c0-1.1.4-2 1.1-2.7.8-.7 1.7-1.1 2.7-1.1 1.1 0 1.9.4 2.7 1.1.7.8 1.1 1.7 1.1 2.7v18.9h7.5v-18.9c0-2-.8-3.8-2.3-5.2zm34 10.6.5-.4c.5-.3.9-.7 1.3-1.1 4-3.6 6-6.6 6-9v-1.9c0-2-.7-3.8-2.2-5.3s-3.2-2.2-5.3-2.2h-7.6c-4.4 0-6.9 2.5-7.5 7.5h3.8c.2-2.5 1.5-3.8 3.8-3.8h3.8c1.1 0 1.9.4 2.7 1.1.7.7 1.1 1.6 1.1 2.6v1.9c0 2.4-2 5.4-6 9-.4.3-.8.7-1.3 1.1l-.5.4c-4.9 4.2-7.3 7.6-7.3 10.2v3.8h22.7v-3.8h-15.1v-.3c0-2.4 2.4-5.7 7.1-9.8zm36-17.9c-1.5-1.5-3.2-2.2-5.3-2.2h-7.6c-2 0-3.8.7-5.3 2.2s-2.2 3.2-2.2 5.3v18.9c0 2 .7 3.8 2.2 5.3s3.2 2.2 5.3 2.2h7.6c2 0 3.8-.7 5.3-2.2s2.2-3.3 2.2-5.3v-18.9c0-2-.7-3.8-2.2-5.3zm-12.9 18.2v-12.9c0-1 .3-1.9 1.1-2.6s1.7-1.1 2.7-1.1c1.9 0 3.2 1 3.7 3.1zm7.6-6.8v12.9c0 1-.4 1.9-1.1 2.6-.8.7-1.6 1.1-2.7 1.1s-1.9-.3-2.5-.8c-.6-.6-1-1.3-1.2-2.4zm30.1-13.6v34h-7.5v-26.4h-3.8v-3.8l7.6-3.8zm35.5 2.3c-1.5-1.5-3.2-2.2-5.3-2.2h-7.6c-2 0-3.8.7-5.3 2.2s-2.2 3.2-2.2 5.3v7.6c0 1.2.3 2.3.8 3.3.4.7.9 1.4 1.5 2 1.5 1.5 3.2 2.2 5.3 2.2h3.8c2.3 0 3.5-1.3 3.8-3.8v3.8c0 2-.7 3.8-2.2 5.3-1.4 1.5-3.2 2.2-5.3 2.2h-3.8v3.8h5.6c3.6 0 6.7-1.3 9.3-3.9s3.9-5.7 3.9-9.3v-13.3c0-2-.8-3.8-2.3-5.2zm-9 16.5c-.6 0-1.2-.1-1.7-.4-.4-.2-.7-.4-1-.7-.7-.7-1.1-1.6-1.1-2.6v-7.6c0-1 .4-1.9 1.1-2.6.8-.7 1.7-1.1 2.7-1.1 1.1 0 1.9.4 2.7 1.1.7.7 1.1 1.6 1.1 2.6v7.6c0 1-.4 1.9-1.1 2.6-.3.3-.7.5-1 .7-.6.3-1.1.5-1.7.4z" fill="#ebe2c4"/></svg>