<?xml version="1.0" encoding="utf-8"?>
<!-- Generator: Adobe Illustrator 22.1.0, SVG Export Plug-In . SVG Version: 6.00 Build 0)  -->
<svg version="1.1" xmlns="http://www.w3.org/2000/svg" xmlns:xlink="http://www.w3.org/1999/xlink" x="0px" y="0px"
	 viewBox="0 0 180 90" style="enable-background:new 0 0 180 90;" xml:space="preserve">
<style type="text/css">
	.st0{fill:#333F48;}
	.st1{fill:#002D74;}
	.st2{opacity:0.5;fill:url(#SVGID_1_);}
	.st3{opacity:0.5;fill:url(#SVGID_2_);}
	.st4{fill:#DC2314;}
	.st5{fill:#5F696E;}
	.st6{fill:#323333;}
	.st7{fill:url(#logo_1_);}
	.st8{fill:url(#SVGID_3_);}
	.st9{fill:url(#SVGID_4_);}
	.st10{fill:#00B7AD;}
	.st11{fill:#66BE77;}
	.st12{fill:url(#SVGID_5_);}
	.st13{fill:#D7233B;}
</style>
<g id="Platinum">
</g>
<g id="Silver">
	<g id="_x35_fpro">
		<path id="logotype" class="st6" d="M127,61.3c-0.1-0.2-0.2-0.4-0.4-0.6c-2.7,0.2-5.8,0.4-8.1,0.5c-0.1,0-0.1,0-0.1-0.1l-0.1-0.7
			c0,0,0-0.1,0-0.1c0,0,0.1,0,0.1,0c1.2,0,4-0.1,4-0.1v-0.7h-3.5c-0.1,0-0.1-0.1-0.1-0.1v-3.2c0-0.1,0.1-0.1,0.1-0.1h3.5v-0.6h-4.4
			c-0.1,0-0.1-0.1-0.1-0.1v-0.5c0-0.1,0.1-0.1,0.1-0.1h4.4v-0.5c0-0.1,0.1-0.1,0.1-0.1h0.8c0.1,0,0.1,0.1,0.1,0.1v0.5h4.7
			c0.1,0,0.1,0.1,0.1,0.1v0.5c0,0.1-0.1,0.1-0.1,0.1h-4.7v0.6h3.7c0.1,0,0.1,0.1,0.1,0.1v3.2c0,0.1-0.1,0.1-0.1,0.1h-0.4
			c0.4,0.4,0.7,0.8,1,1.2c0,0.1,0,0.1,0,0.2l-0.6,0.5C127.2,61.3,127.2,61.3,127,61.3C127.1,61.3,127,61.3,127,61.3L127,61.3z
			 M123.5,60.1L123.5,60.1c0.8,0,1.8-0.1,2.5-0.1c0,0-0.3-0.3-0.3-0.3l0.3-0.2h-2.5V60.1z M123.5,58.8h2.8v-0.6h-2.8V58.8z
			 M119.8,58.8h2.7v-0.6h-2.7V58.8z M123.5,57.4h2.8v-0.6h-2.8V57.4z M119.8,57.4h2.7v-0.6h-2.7V57.4z M123.4,64.6l-0.1-0.7
			c0,0,0-0.1,0-0.1c0,0,0.1,0,0.1,0h1.5c0.3,0,0.5-0.1,0.5-0.4v-0.9h-4.8c0.5,0.3,1,0.6,1.4,0.9c0,0,0,0,0,0.1s0,0.1,0,0.1l-0.5,0.6
			c0,0-0.1,0-0.1,0c0,0-0.1,0-0.1,0c-0.4-0.4-0.9-0.8-1.4-1.1c0,0-0.1-0.1-0.1-0.1s0-0.1,0-0.1l0.4-0.4h-2.4c-0.1,0-0.1-0.1-0.1-0.1
			v-0.6c0-0.1,0.1-0.1,0.1-0.1h7.4v-0.4c0-0.1,0.1-0.1,0.1-0.1h0.8c0.1,0,0.1,0.1,0.1,0.1v0.4h2c0.1,0,0.1,0.1,0.1,0.1v0.6
			c0,0.1-0.1,0.1-0.1,0.1h-2v1.3c0,0.3-0.1,0.6-0.4,0.7c-0.2,0.2-0.5,0.2-0.8,0.2h-1.7C123.4,64.7,123.4,64.7,123.4,64.6z
			 M144.7,64.7c-0.1,0-0.1-0.1-0.1-0.1v-2.2c-0.7,0.4-1.4,0.8-2.1,1.1c-0.8,0.4-1.7,0.6-2.6,0.8c-0.1,0-0.1,0-0.1-0.1l-0.2-0.5
			c0,0,0-0.1,0-0.1c0,0,0-0.1,0.1-0.1c1.7-0.4,3.1-1,4.2-1.7h-3.9c-0.1,0-0.1-0.1-0.1-0.1v-0.6c0-0.1,0.1-0.1,0.1-0.1h4.7v-0.8h-3.9
			c-0.1,0-0.1-0.1-0.1-0.1v-0.5c0-0.1,0.1-0.1,0.1-0.1h3.9v-0.8h-4.2c-0.1,0-0.1-0.1-0.1-0.1V58c0-0.1,0.1-0.1,0.1-0.1h2.3l-0.5-1.1
			h-2.2c-0.1,0-0.1-0.1-0.1-0.1v-0.6c0-0.1,0.1-0.1,0.1-0.1h1.5l-0.6-1.3c0,0,0-0.1,0-0.1c0,0,0-0.1,0.1-0.1l0.7-0.2
			c0.1,0,0.1,0,0.1,0.1l0.7,1.6h0.9v-1.7c0-0.1,0.1-0.1,0.1-0.1h0.7c0.1,0,0.1,0.1,0.1,0.1V56h1.3v-1.7c0-0.1,0.1-0.1,0.1-0.1h0.7
			c0.1,0,0.1,0.1,0.1,0.1V56h0.9l0.7-1.6c0-0.1,0.1-0.1,0.1-0.1l0.7,0.2c0,0,0.1,0,0.1,0.1c0,0,0,0.1,0,0.1l-0.6,1.3h1.5
			c0.1,0,0.1,0.1,0.1,0.1v0.6c0,0.1-0.1,0.1-0.1,0.1H148l-0.5,1.1h2.3c0.1,0,0.1,0.1,0.1,0.1v0.6c0,0.1-0.1,0.1-0.1,0.1h-4.2v0.8
			h3.9c0.1,0,0.1,0.1,0.1,0.1v0.5c0,0.1-0.1,0.1-0.1,0.1h-3.9V61h4.7c0.1,0,0.1,0.1,0.1,0.1v0.6c0,0.1-0.1,0.1-0.1,0.1h-3.9
			c1,0.7,2.5,1.3,4.2,1.7c0,0,0.1,0,0.1,0.1s0,0.1,0,0.1l-0.2,0.5c0,0.1-0.1,0.1-0.1,0.1c-0.9-0.2-1.8-0.4-2.6-0.8
			c-0.7-0.3-1.4-0.7-2.1-1.1v2.2c0,0.1-0.1,0.1-0.1,0.1L144.7,64.7z M143.7,57.9h2.7l0.5-1.1h-3.8L143.7,57.9z M98.6,64.1
			C98.6,64.1,98.6,64.1,98.6,64.1c0-0.1,0.1-0.1,0.1-0.1c0.9-0.1,1.8-0.2,2.6-0.4c0,0-1.1-0.3-1.5-0.4c-0.3-0.1-0.6-0.1-0.6-0.3
			c0-0.1,0-0.2,0.1-0.3c0.1-0.2,0.2-0.5,0.4-0.7h-1.3c-0.1,0-0.1-0.1-0.1-0.1v-0.5c0-0.1,0.1-0.1,0.1-0.1h1.7
			c0.1-0.2,0.2-0.4,0.3-0.6h-1.2c-0.1,0-0.1-0.1-0.1-0.1v-1.8c0-0.1,0.1-0.1,0.1-0.1h2.6v-0.6h-2.5c-0.1,0-0.1-0.1-0.1-0.1v-1.1
			h-0.7v0.2c0,0.1-0.1,0.1-0.1,0.1h-0.8v1.3c0.3,0.4,0.7,0.8,1.1,1.2c0,0,0.1,0.1,0,0.2l-0.4,0.5c0,0-0.1,0.1-0.1,0.1
			c0,0-0.1,0-0.1,0c-0.1-0.1-0.4-0.4-0.5-0.5c0,0,0,0-0.1,0c0,0,0,0,0,0v5c0,0.1-0.1,0.1-0.1,0.1h-0.7c-0.1,0-0.1-0.1-0.1-0.1v-4.7
			c0,0,0,0,0-0.1s0,0-0.1,0c-0.3,0.7-0.7,1.4-1.2,2.1c0,0,0,0-0.1,0c0,0-0.1,0-0.1,0l-0.5-0.4c0,0-0.1-0.1,0-0.2
			c1.3-1.9,1.9-3.6,1.9-4.5h-1.5C95,57,95,57,95,56.9v-0.5c0-0.1,0.1-0.1,0.1-0.1h1.5v-2c0-0.1,0.1-0.1,0.1-0.1h0.7
			c0.1,0,0.1,0.1,0.1,0.1v2h1v-0.2c0-0.1,0.1-0.1,0.1-0.1h0.5v-1.1c0-0.1,0.1-0.1,0.1-0.1h2.5v-0.5c0-0.1,0.1-0.1,0.1-0.1h0.7
			c0.1,0,0.1,0.1,0.1,0.1v0.5h2.5c0.1,0,0.1,0.1,0.1,0.1V56h0.5c0.1,0,0.1,0.1,0.1,0.1v0.5c0,0.1-0.1,0.1-0.1,0.1h-0.5v1.1
			c0,0.1-0.1,0.1-0.1,0.1h-2.5v0.6h2.6c0.1,0,0.1,0.1,0.1,0.1v1.8c0,0.1-0.1,0.1-0.1,0.1h-3.9c-0.1,0.2-0.2,0.4-0.3,0.6h4.8
			c0.1,0,0.1,0.1,0.1,0.1v0.5c0,0.1-0.1,0.1-0.1,0.1h-1.4v0c-0.3,0.5-1.2,1.4-1.2,1.4c0.8,0.2,1.5,0.4,2,0.6c0,0,0.1,0,0.1,0.1
			c0,0,0,0.1,0,0.1l-0.4,0.5c0,0-0.1,0.1-0.1,0c-0.4-0.2-1.2-0.4-2.4-0.8c-1,0.5-2.2,0.8-3.7,0.8c-0.1,0-0.1,0-0.1-0.1L98.6,64.1z
			 M100.7,61.9c-0.1,0.2-0.3,0.5-0.4,0.6l2,0.5c0.4-0.3,0.8-0.7,1.1-1.1H100.7z M102.7,59.9h1.8v-0.7h-1.8V59.9z M99.9,59.9h1.8
			v-0.7h-1.8V59.9z M102.7,57.2h1.7v-0.6h-1.7V57.2z M100.1,57.2h1.7v-0.6h-1.7V57.2z M102.7,56h1.7v-0.6h-1.7V56z M100.1,56h1.7
			v-0.6h-1.7V56z M75.1,64.4v-0.7c0-0.1,0.1-0.1,0.1-0.1h1.4l0.7-4.1h-1.7c-0.1,0-0.1-0.1-0.1-0.1v-0.6c0-0.1,0.1-0.1,0.1-0.1h1.8
			l0.5-2.9h-2.1c-0.1,0-0.1-0.1-0.1-0.1v-0.7c0-0.1,0.1-0.1,0.1-0.1h6.9c0.1,0,0.1,0.1,0.1,0.1v0.7c0,0.1-0.1,0.1-0.1,0.1H79
			l-0.5,2.9h3.8c0.1,0,0.1,0.1,0.1,0.1v4.8h1c0.1,0,0.1,0.1,0.1,0.1v0.7c0,0.1-0.1,0.1-0.1,0.1h-8.2C75.1,64.5,75.1,64.4,75.1,64.4z
			 M77.6,63.6h3.7v-4.1h-3L77.6,63.6z M73.4,64.7c-0.1,0-0.1-0.1-0.1-0.1v-5.4c0,0,0,0,0,0c0,0,0,0-0.1,0c-0.3,0.5-0.6,1-1,1.4
			c0,0-0.1,0.1-0.2,0l-0.5-0.4c0,0-0.1-0.1,0-0.2c0.7-0.9,1.2-1.8,1.7-2.9c0.5-1,0.8-2,1.1-3c0-0.1,0.1-0.1,0.1-0.1l0.8,0.1
			c0,0,0.1,0,0.1,0.1c0,0,0,0.1,0,0.1c-0.3,0.9-0.6,1.7-1,2.5l0,0v7.6c0,0.1-0.1,0.1-0.1,0.1L73.4,64.7z M72.6,47.2
			c-2.3,0-4.2-0.7-5.5-1.9c-1-0.9-1.6-2.2-1.9-3.5l-0.1-0.6h3.2l0.1,0.3c0.4,1.2,1.2,2,2.4,2.4c0.5,0.2,1.1,0.2,1.7,0.2
			c0.6,0,1.1-0.1,1.7-0.3c0.5-0.2,0.9-0.5,1.2-0.8c0.7-0.7,1.1-1.7,1.1-2.7c0-1.1-0.3-2-1.1-2.8c-0.7-0.7-1.6-1.1-2.8-1.1
			c-0.7,0-1.4,0.1-2.1,0.4c-0.5,0.2-1,0.5-1.3,0.9l-0.3,0.3l-2.6-1.6l1.4-9.9h11v3.1h-8.2L69.8,34l0.3-0.1c0.7-0.3,1.5-0.4,2.3-0.4
			c1,0,2.1,0.1,3.1,0.5c0.8,0.3,1.6,0.8,2.2,1.4c1.3,1.3,2,2.9,2,4.9c0,1.8-0.7,3.6-2,4.9C76.2,46.5,74.5,47.2,72.6,47.2z M83.3,47
			V26.7h14.9l-1.6,3.1H86.5v5.7H97l-1.6,3.1h-8.9V47H83.3z M102,47V26.7h9.1c2.1,0,3.8,0.6,5,1.7c1.2,1.1,1.8,2.7,1.8,4.6
			s-0.6,3.5-1.8,4.6s-2.9,1.7-5,1.7h-7.7V47H102z M103.4,38.1h7.5c1.8,0,3.2-0.5,4.1-1.4c1-0.9,1.4-2.2,1.4-3.7
			c0-1.6-0.5-2.8-1.4-3.7c-1-0.9-2.3-1.3-4.1-1.3h-7.5V38.1z M135.4,47l-5.2-8.2h-8.2V47h-1.4V26.7h9.7c2,0,3.7,0.6,4.9,1.7
			c1.2,1.1,1.8,2.6,1.8,4.5c0,2.5-1,4.1-3,5c-0.6,0.3-1.1,0.4-1.7,0.6l-0.7,0.2l5.5,8.4H135.4z M122.1,37.5h7.9
			c2.5,0,4.2-0.8,5.1-2.4c0.4-0.7,0.6-1.5,0.6-2.3c0-1.5-0.5-2.7-1.6-3.6c-1-0.9-2.4-1.3-4-1.3h-8V37.5z M149.7,47.2
			c-3,0-5.5-1-7.5-3c-1.9-2-2.9-4.4-2.9-7.4c0-2.9,1-5.4,2.9-7.4c1.9-2,4.4-3,7.5-3c3,0,5.5,1,7.5,3c1.9,2,2.9,4.4,2.9,7.4
			c0,2.9-1,5.4-2.9,7.4C155.2,46.2,152.7,47.2,149.7,47.2z M149.7,27.8c-2.7,0-4.9,0.9-6.5,2.6c-1.6,1.7-2.4,3.8-2.4,6.4
			s0.8,4.8,2.4,6.4c1.7,1.7,3.9,2.6,6.5,2.6s4.9-0.9,6.5-2.6c1.6-1.7,2.4-3.8,2.4-6.4s-0.8-4.8-2.4-6.4
			C154.5,28.6,152.4,27.8,149.7,27.8z"/>
		
			<linearGradient id="logo_1_" gradientUnits="userSpaceOnUse" x1="5.5838" y1="-29.2812" x2="5.4914" y2="-29.1455" gradientTransform="matrix(192.3658 0 0 -226.8206 -1027.66 -6586.0928)">
			<stop  offset="0" style="stop-color:#3A2B84"/>
			<stop  offset="1" style="stop-color:#814590"/>
		</linearGradient>
		<path id="logo" class="st7" d="M28.1,25.1h23.3c0.1,0,0.1,0,0.2,0.1c0,0.1,0,0.1-0.1,0.2L20.3,46.9c-0.1,0-0.1,0-0.2,0
			S20,46.8,20,46.7l7.8-21.4C27.8,25.2,28,25.1,28.1,25.1L28.1,25.1z M20.4,49.2h13.3c0,0,0.1,0,0.1,0.1c0,0,0,0.1,0,0.1L30,64.7
			c0,0.1,0,0.1,0.1,0.2c0.1,0,0.1,0,0.2,0l23.4-23.4c0,0,0.1-0.1,0-0.2c0-0.1-0.1-0.1-0.1-0.1H31.7c-0.1,0-0.2,0-0.3,0.1l-11.1,7.6
			c-0.1,0-0.1,0.1-0.1,0.2C20.2,49.1,20.3,49.2,20.4,49.2L20.4,49.2z"/>
	</g>
</g>
<g id="Partner">
</g>
</svg>
