<?xml version="1.0" encoding="utf-8"?>
<!-- Generator: Adobe Illustrator 22.1.0, SVG Export Plug-In . SVG Version: 6.00 Build 0)  -->
<svg version="1.1" xmlns="http://www.w3.org/2000/svg" xmlns:xlink="http://www.w3.org/1999/xlink" x="0px" y="0px"
	 viewBox="0 0 180 80" style="enable-background:new 0 0 180 80;" xml:space="preserve">
<style type="text/css">
	.st0{fill:#333F48;}
	.st1{fill:#002D74;}
	.st2{opacity:0.5;fill:url(#SVGID_1_);}
	.st3{opacity:0.5;fill:url(#SVGID_2_);}
	.st4{fill:#323333;}
	.st5{fill:url(#logo_1_);}
	.st6{fill:#D7233B;}
</style>
<g id="Platinum">
</g>
<g id="Silver">
</g>
<g id="Partner">
	<g>
		<g id="text">
			<path class="st6" d="M15,52.1v-2.4c1.2,0.5,2.6,0.8,3.9,0.8c1.2,0.1,2.3-0.4,3.2-1.2c0.8-0.9,1.2-2.1,1.2-3.3
				c0-3.1-2.1-4.6-6.4-4.6c-0.5,0-1,0-1.5,0.1V31.4h10.4v2.4h-8v5.4c2.6,0,4.7,0.6,6.2,1.8c1.5,1.2,2.3,3.1,2.2,5
				c0.1,1.8-0.7,3.6-2,4.7c-1.6,1.2-3.6,1.8-5.6,1.7C17.3,52.5,16.2,52.4,15,52.1z"/>
			<path class="st6" d="M41.2,46.4h-2.9l-1.8-2.4l-1.8,2.4H32l3.2-4.6l-3.1-4.5h2.9l1.7,2.4l1.7-2.4h2.9l-3.2,4.5L41.2,46.4z"/>
			<path class="st6" d="M49.9,41.7c0.5,0.5,1,1.1,1.2,1.8c0.2,0.7,0.4,1.5,0.3,2.3v6.4V53c-0.1,0.6,0,1.3,0.3,1.8
				c0.4,0.3,1,0.5,1.5,0.4h0.9v2.9h-1.1c-1.4,0.1-2.7-0.4-3.6-1.4c-0.8-0.9-1.1-2.4-1.1-4.4v-6.3c0-0.6-0.1-1.3-0.3-1.9
				c-0.3-0.4-0.7-0.7-1.2-0.8l-0.1,0h-0.1l-0.2,0v-3c0.1-0.1,0.3-0.2,0.4-0.2c1-0.2,1.5-1,1.5-2.5v-6.8c0-3.6,1.5-5.4,4.6-5.4h0.7
				c0.2,0,0.4,0,0.6,0.2v2.9h-0.9c-0.8,0-1.3,0.2-1.5,0.5c-0.3,0.8-0.4,1.6-0.3,2.4v6.5c0,0.5,0,0.9-0.1,1.4c0,0.4-0.1,0.7-0.3,1.1
				c-0.1,0.3-0.3,0.6-0.5,0.9C50.4,41.3,50.2,41.5,49.9,41.7z"/>
			<path class="st6" d="M125.8,40.1h3.1v3.1h-3.1V40.1z"/>
			<path class="st6" d="M139.9,50.5c-1.2,0.1-2.4-0.4-3.3-1.2c-0.8-0.9-1.2-2.1-1.2-3.3v-8.9h-1.9v-2h1.9v-2.7l2.7-0.3v3h3.9v2h-4
				v8.4c0,2,0.9,3,2.6,3c0.4,0,0.9-0.1,1.3-0.2v1.9C141.4,50.4,140.7,50.5,139.9,50.5z"/>
			<path class="st6" d="M147.8,50.2l-4.3-15.1h2.7l3.3,11.7l3.6-11.7h2.7l3.1,11.7l3.8-11.7h2.3l-4.9,15.1h-2.8l-3.2-11.7l-3.6,11.7
				H147.8z"/>
			<path class="st6" d="M116.9,41.6c-0.5-0.5-0.9-1.1-1.3-1.8c-0.2-0.8-0.3-1.5-0.3-2.3v-6.4v-0.8c0.1-0.6,0-1.3-0.3-1.8
				c-0.2-0.3-0.8-0.4-1.5-0.4h-0.9v-2.9h1.1c1.4-0.1,2.7,0.4,3.6,1.4c0.8,0.9,1.1,2.4,1.1,4.4v6.4c0,0.6,0.1,1.3,0.3,1.9
				c0.3,0.4,0.7,0.7,1.2,0.8l0.1,0h0.1l0.2,0v3c-0.1,0.1-0.3,0.2-0.4,0.2c-1,0.2-1.5,1-1.5,2.5v6.8c0,3.6-1.5,5.4-4.6,5.4h-0.7
				c-0.2,0-0.4,0-0.6-0.2v-2.9h0.9c0.8,0,1.3-0.2,1.5-0.5c0.3-0.8,0.4-1.6,0.3-2.4v-6.5c0-0.8,0.1-1.7,0.3-2.4
				C115.9,42.6,116.3,42.1,116.9,41.6z"/>
		</g>
		<g id="ruby">
			<polygon class="st6" points="84.1,42.9 84.1,61.6 96.6,41.1 			"/>
			<polygon class="st6" points="84.4,41.6 96.7,39.8 88.8,29.3 			"/>
			<polygon class="st6" points="100.3,25.5 98.5,39.4 109,36.8 			"/>
			<polygon class="st6" points="97.4,38.6 99.1,24.9 89.6,28.3 			"/>
			<polygon class="st6" points="68.7,40.8 58.9,38.4 80.2,59.6 			"/>
			<polygon class="st6" points="82.8,42.9 70.4,41.1 82.8,61.6 			"/>
			<polygon class="st6" points="98.2,40.8 86.8,59.6 108,38.4 			"/>
			<path class="st6" d="M69.3,24l9.2,3.3h10l9.2-3.3C88.3,21.9,78.7,21.9,69.3,24L69.3,24z"/>
			<polygon class="st6" points="83.5,40.4 87.7,28.6 79.3,28.6 			"/>
			<polygon class="st6" points="82.5,41.6 78.2,29.3 70.3,39.8 			"/>
			<polygon class="st6" points="68.4,39.4 66.7,25.5 58,36.8 			"/>
			<polygon class="st6" points="69.6,38.6 77.3,28.3 67.9,24.9 			"/>
		</g>
	</g>
</g>
</svg>
