<?xml version="1.0" encoding="utf-8"?>
<!-- Generator: Adobe Illustrator 22.1.0, SVG Export Plug-In . SVG Version: 6.00 Build 0)  -->
<svg version="1.1" xmlns="http://www.w3.org/2000/svg" xmlns:xlink="http://www.w3.org/1999/xlink" x="0px" y="0px"
	 viewBox="0 0 180 90" style="enable-background:new 0 0 180 90;" xml:space="preserve">
<style type="text/css">
	.st0{fill:#333F48;}
	.st1{fill:#002D74;}
	.st2{opacity:0.5;fill:url(#SVGID_1_);}
	.st3{opacity:0.5;fill:url(#SVGID_2_);}
	.st4{fill:#DC2314;}
	.st5{fill:#5F696E;}
	.st6{fill:#323333;}
	.st7{fill:url(#logo_1_);}
	.st8{fill:url(#SVGID_3_);}
	.st9{fill:url(#SVGID_4_);}
	.st10{fill:#00B7AD;}
	.st11{fill:#66BE77;}
	.st12{fill:url(#SVGID_5_);}
	.st13{fill:#D7233B;}
</style>
<g id="Platinum">
</g>
<g id="Silver">
	<g id="AIHAO">
		
			<linearGradient id="SVGID_1_" gradientUnits="userSpaceOnUse" x1="37.8802" y1="-226" x2="37.8802" y2="-180" gradientTransform="matrix(1 0 0 -1 0 -158)">
			<stop  offset="0" style="stop-color:#263196"/>
			<stop  offset="1" style="stop-color:#3EC6F5"/>
		</linearGradient>
		<polygon style="fill:url(#SVGID_1_);" points="31.2,22 44.5,22 64.4,56.5 57.8,68 44.5,68 37.9,56.5 31.2,68 18,68 11.4,56.5 		
			"/>
		
			<linearGradient id="SVGID_2_" gradientUnits="userSpaceOnUse" x1="31.2439" y1="-226" x2="31.2439" y2="-180" gradientTransform="matrix(1 0 0 -1 0 -158)">
			<stop  offset="0" style="stop-color:#3FB0FC"/>
			<stop  offset="1" style="stop-color:#9EDDFF"/>
		</linearGradient>
		<polygon style="fill:url(#SVGID_2_);" points="31.2,22 51.1,56.5 44.5,68 37.9,56.5 37.9,56.5 31.2,45 18,68 11.4,56.5 		"/>
		<path d="M85.6,47.7h-9.8l-2.1,4.7h-1.9l8-17.6h1.8l8,17.6h-2L85.6,47.7z M84.9,46.2l-4.2-9.4l-4.2,9.4H84.9z M95.9,34.8h1.9v17.6
			h-1.9V34.8z M121.4,34.8v17.6h-1.8v-8.1h-11v8.1h-1.9V34.8h1.9v7.9h11v-7.9H121.4z M141.5,47.7h-9.8l-2.1,4.7h-1.9l8-17.6h1.8
			l8,17.6h-1.9L141.5,47.7z M140.8,46.2l-4.2-9.4l-4.2,9.4H140.8z M150.2,43.6c0-5.1,3.9-9,9.3-9c5.3,0,9.2,3.8,9.2,9s-3.9,9-9.2,9
			C154.1,52.5,150.2,48.7,150.2,43.6z M166.8,43.6c0.1-3.9-3-7.2-7-7.3c-0.1,0-0.3,0-0.4,0c-4.2,0-7.4,3.1-7.4,7.3s3.2,7.3,7.4,7.3
			c3.9,0.1,7.2-3,7.4-6.9C166.8,43.9,166.8,43.7,166.8,43.6z"/>
	</g>
</g>
<g id="Partner">
</g>
</svg>
