<?xml version="1.0" encoding="utf-8"?>
<svg version="1.1" xmlns="http://www.w3.org/2000/svg" xmlns:xlink="http://www.w3.org/1999/xlink" x="0px" y="0px" viewBox="0 0 180 90" style="enable-background:new 0 0 180 90;" xml:space="preserve">
<style type="text/css">
	.st0{fill:url(#SVGID_1_);}
	.st1{fill:url(#SVGID_2_);}
</style>
<g>
	<linearGradient id="SVGID_1_" gradientUnits="userSpaceOnUse" x1="39.0133" y1="12.5" x2="39.0133" y2="57.5" gradientTransform="matrix(1 0 0 -1 0 80)">
		<stop  offset="0" style="stop-color:#263196"/>
		<stop  offset="1" style="stop-color:#3EC6F5"/>
	</linearGradient>
	<polygon class="st0" points="32.5,22.5 45.5,22.5 65,56.2 58.5,67.5 45.5,67.5 39,56.2 32.5,67.5 19.5,67.5 13.1,56.2 	"/>
		<linearGradient id="SVGID_2_" gradientUnits="userSpaceOnUse" x1="32.5212" y1="12.5" x2="32.5212" y2="57.5" gradientTransform="matrix(1 0 0 -1 0 80)">
		<stop  offset="0" style="stop-color:#3FB0FC"/>
		<stop  offset="1" style="stop-color:#9EDDFF"/>
	</linearGradient>
	<polygon class="st1" points="32.5,22.5 52,56.2 45.5,67.5 39,56.2 39,56.2 32.5,45 19.5,67.5 13.1,56.2 	"/>
	<path d="M85.7,47.6h-9.6L74,52.3h-1.9L80,35h1.8l7.9,17.2h-1.9L85.7,47.6z M85,46.2l-4.1-9.2l-4.1,9.2H85z"/>
	<path d="M95.7,35h1.8v17.2h-1.8V35z"/>
	<path d="M120.7,35v17.2H119v-7.9h-10.8v7.9h-1.8V35h1.8v7.7H119V35H120.7z"/>
	<path d="M140.4,47.6h-9.6l-2.1,4.6h-1.9l7.9-17.2h1.8l7.9,17.2h-1.9L140.4,47.6z M139.7,46.2l-4.1-9.2l-4.1,9.2H139.7z"/>
	<path d="M148.9,43.6c0-5,3.8-8.8,9.1-8.8s9,3.7,9,8.8s-3.9,8.8-9,8.8S148.9,48.6,148.9,43.6z M165.1,43.6c0.1-3.9-3-7-6.8-7.1
		c-0.1,0-0.3,0-0.4,0c-4.2,0-7.3,3-7.3,7.1s3.1,7.1,7.3,7.1c3.9,0.1,7.1-2.9,7.2-6.7C165.1,43.9,165.1,43.8,165.1,43.6z"/>
</g>
</svg>
