<?xml version="1.0" encoding="utf-8"?>
<!-- Generator: Adobe Illustrator 22.1.0, SVG Export Plug-In . SVG Version: 6.00 Build 0)  -->
<svg version="1.1" xmlns="http://www.w3.org/2000/svg" xmlns:xlink="http://www.w3.org/1999/xlink" x="0px" y="0px"
	 viewBox="0 0 240 120" style="enable-background:new 0 0 240 120;" xml:space="preserve">
<style type="text/css">
	.st0{fill:#333F48;}
	.st1{fill:#002D74;}
	.st2{opacity:0.5;fill:url(#SVGID_1_);}
	.st3{opacity:0.5;fill:url(#SVGID_2_);}
	.st4{fill:#323333;}
	.st5{fill:url(#logo_1_);}
	.st6{fill:#D7233B;}
</style>
<g id="Platinum">
	<g id="crypto">
		<g>
			<path class="st1" d="M119.8,12.8L94.3,27.5v29.4l25.5,14.7l25.5-14.7V27.5L119.8,12.8z M109.7,25.6h20l2.4,10.2h-24.8L109.7,25.6
				z M117.8,56.2l-4.3,4h-3.7l-9.2-15.9l6.7-5l5.9,3.8v6.8l4.5,4.3V56.2z M114.8,49.4l0.7-6.4l-2.2-5.7h13l-2.1,5.7l0.6,6.4l-5,0
				H114.8z M129.8,60.1h-3.6l-4.3-4v-2l4.5-4.3V43l5.9-3.8l6.7,5L129.8,60.1z"/>
			<linearGradient id="SVGID_1_" gradientUnits="userSpaceOnUse" x1="132.5258" y1="65.3073" x2="132.5258" y2="19.0412">
				<stop  offset="0" style="stop-color:#231F20"/>
				<stop  offset="1" style="stop-color:#231F20;stop-opacity:0"/>
			</linearGradient>
			<path class="st2" d="M119.8,12.8v12.7h10l2.4,10.2h-12.4v1.5h6.5l-2.1,5.7l0.6,6.4l-5,0v22.2l25.5-14.7V27.5L119.8,12.8z
				 M129.8,60.1h-3.6l-4.3-4v-2l4.5-4.3V43l5.9-3.8l6.7,5L129.8,60.1z"/>
			<linearGradient id="SVGID_2_" gradientUnits="userSpaceOnUse" x1="107.0604" y1="65.3073" x2="107.0604" y2="19.0412">
				<stop  offset="0" style="stop-color:#231F20;stop-opacity:0"/>
				<stop  offset="1" style="stop-color:#231F20"/>
			</linearGradient>
			<path class="st3" d="M114.8,49.4l0.7-6.4l-2.2-5.7h6.5v-1.5h-12.4l2.3-10.2h10.1V12.8L94.3,27.5v29.4l25.5,14.7V49.4H114.8z
				 M117.8,56.2l-4.3,4h-3.7l-9.2-15.9l6.7-5l5.9,3.8v6.8l4.5,4.3V56.2z"/>
		</g>
		<path class="st1" d="M61.2,103.7c-3.7,0-6.4-2.9-6.4-6.4s2.7-6.5,6.4-6.5c2.3,0,3.8,0.9,4.9,2.1l-1.8,1.9
			c-0.9-0.9-1.8-1.5-3.2-1.5c-2.1,0-3.6,1.8-3.6,4c0,2.2,1.5,4,3.7,4c1.3,0,2.3-0.6,3.2-1.5l1.7,1.7C65,102.7,63.6,103.7,61.2,103.7
			z M71.6,103.7h-2.8V90.8h2.8v3c0.8-1.8,2.2-3.1,4.4-3v3h-0.2c-2.5,0-4.2,1.6-4.2,4.9V103.7z M87.9,90.8l-3.5,9.5l-3.7-9.5h-3
			l5.4,12.9l-1.4,3.5h2.9l6.3-16.4H87.9z M99.8,103.7c-2,0-3.3-1-4.2-2.2v5.7h-2.8V90.8h2.8v2.3c0.9-1.3,2.2-2.3,4.2-2.3
			c2.9,0,5.8,2.3,5.8,6.4C105.6,101.4,102.7,103.7,99.8,103.7z M99.1,93.3c-1.9,0-3.6,1.6-3.6,4s1.7,4,3.6,4c1.9,0,3.5-1.5,3.5-4
			C102.7,94.8,101.1,93.3,99.1,93.3z M114.4,93.5v-2.4h-2.6v-3.4h-2.8v3.4h-1.6v2.4h1.6v6.5c0,2.7,1.5,3.6,3.5,3.6h1.9v-2.5h-1.1
			c-1,0-1.5-0.4-1.5-1.5v-6.1H114.4z M123.3,103.7c-3.8,0-6.5-2.9-6.5-6.4c0-3.6,2.8-6.5,6.6-6.5c3.8,0,6.6,2.9,6.6,6.4
			C130,100.8,127.2,103.7,123.3,103.7z M123.3,93.3c-2.3,0-3.7,1.8-3.7,4c0,2.2,1.6,4,3.8,4c2.3,0,3.7-1.8,3.7-4
			C127.1,95.1,125.6,93.3,123.3,93.3z M157,103.7c-3.8,0-6.5-2.9-6.5-6.4c0-3.6,2.8-6.5,6.6-6.5c3.8,0,6.6,2.9,6.6,6.4
			C163.6,100.8,160.8,103.7,157,103.7z M157,93.3c-2.3,0-3.7,1.8-3.7,4c0,2.2,1.6,4,3.8,4c2.3,0,3.7-1.8,3.7-4
			C160.8,95.1,159.2,93.3,157,93.3z M180.5,90.8c2.7,0,4.3,1.7,4.3,4.7v8.2H182v-7.3c0-2-0.9-3-2.5-3c-1.5,0-2.6,1.1-2.6,3.1v7.3
			H174v-7.3c0-1.9-0.9-3-2.5-3c-1.6,0-2.6,1.2-2.6,3.1v7.2H166V90.8h2.8v2.1c0.8-1.1,1.9-2.1,3.8-2.1c1.8,0,3,0.9,3.7,2.2
			C177.3,91.7,178.6,90.8,180.5,90.8z M135.1,101l-1.2-0.7c-0.1,0-0.1,0-0.2,0l-1.2,0.7c0,0-0.1,0.1-0.1,0.1v1.4
			c0,0.1,0,0.1,0.1,0.1l1.2,0.7c0,0,0.1,0,0.2,0l1.2-0.7c0.1,0,0.1-0.1,0.1-0.1v-1.4C135.1,101,135.1,101,135.1,101z M143.8,103.7
			c-3.7-0.1-6.3-3-6.3-6.5c0.1-3.5,2.8-6.4,6.5-6.4c2.3,0,3.8,0.9,4.9,2.2l-1.8,1.9c-0.8-0.9-1.7-1.6-3.2-1.6
			c-2.1,0-3.6,1.7-3.6,3.9c0,2.2,1.4,4,3.6,4.1c1.3,0,2.3-0.6,3.2-1.5l1.7,1.7C147.6,102.8,146.2,103.7,143.8,103.7z"/>
	</g>
</g>
<g id="Silver">
</g>
<g id="Partner">
</g>
</svg>
