<?xml version="1.0" encoding="utf-8"?>
<!-- Generator: Adobe Illustrator 22.1.0, SVG Export Plug-In . SVG Version: 6.00 Build 0)  -->
<svg version="1.1" xmlns="http://www.w3.org/2000/svg" xmlns:xlink="http://www.w3.org/1999/xlink" x="0px" y="0px"
	 viewBox="0 0 180 90" style="enable-background:new 0 0 180 90;" xml:space="preserve">
<style type="text/css">
	.st0{fill:#333F48;}
	.st1{fill:#002D74;}
	.st2{opacity:0.5;fill:url(#SVGID_1_);}
	.st3{opacity:0.5;fill:url(#SVGID_2_);}
	.st4{fill:#DC2314;}
	.st5{fill:#5F696E;}
	.st6{fill:#202326;}
	.st7{fill:#F6961E;}
	.st8{fill:#323333;}
	.st9{fill:url(#logo_1_);}
	.st10{fill:url(#SVGID_3_);}
	.st11{fill:url(#SVGID_4_);}
	.st12{fill:#00B7AD;}
	.st13{fill:#66BE77;}
	.st14{fill:url(#SVGID_5_);}
	.st15{fill:#002C6C;}
	.st16{fill:#EC2281;}
	.st17{fill:#20B8A0;}
	.st18{fill:#FAA928;}
	.st19{fill:#D7233B;}
	.st20{fill:#1186C2;}
	.st21{fill:#564E4A;}
	.st22{fill:#EF4645;}
	.st23{fill:#FEFEFE;}
	.st24{fill:#0E0D0D;}
	.st25{fill:#110323;}
	.st26{fill:url(#SVGID_6_);}
	.st27{fill:url(#SVGID_7_);}
	.st28{fill:url(#SVGID_8_);}
	.st29{fill:url(#SVGID_9_);}
	.st30{fill:url(#SVGID_10_);}
	.st31{fill:url(#SVGID_11_);}
	.st32{clip-path:url(#SVGID_13_);}
	.st33{fill:url(#SVGID_14_);}
	.st34{fill:url(#SVGID_15_);}
	.st35{fill:url(#SVGID_16_);}
	.st36{fill:#231815;}
</style>
<g id="Platinum">
</g>
<g id="Silver">
</g>
<g id="Partner">
	<g id="icook">
		<path class="st21" d="M25,38.2c0,0,19.6-3.2,36.8-1.3l1.3-1.3c0,0-8.7-2.3-16.5-3.2c-0.5-0.1,4.4-4,3.2-5.2
			c-1.3-1.1-10.8,0-10.8,0s4.1,4.2,3.2,4.5c-0.9,0.3-11.3,2.1-17.7,4.5C17.8,38.6,25,38.2,25,38.2 M23.9,45.6c0,0,0.8-2.3,3.8-2.5
			c4.1-0.4,13.2-1.5,18.9-1.6c5.7-0.1,14.9,0.1,16.9,2.5c2,2.4,2.2,5.5,1.7,8.8c-0.4,3.3-8.8,6.9-15.7,7.5
			c-6.9,0.6-17.5-0.9-22.8-3.3c-3.2-1.4-3.7-4-3.7-6.5C23.1,48.5,23.9,45.6,23.9,45.6 M20.4,48c-0.6,3-0.9,5.3,1,8.6
			c1.8,3.2,7.6,4.6,12.9,5.8c5.3,1.3,14.1,0.9,17.8,0.4c3.6-0.5,15.4-4.4,16.3-9.8c0.9-5.4-0.6-9.4-2.9-11.7
			c-2.3-2.3-12.7-2.5-15.8-2.8c-3.1-0.3-17.6,1.3-20.3,1.6C24.8,40.6,21.6,41.6,20.4,48 M58.4,45.1c-0.2,4.8,2,5.8,2,5.8
			c3.1,1.3,2.6-0.1,2.6-0.1s1-1.5-0.4-4.1C61.2,44.1,58.4,45.1,58.4,45.1 M43.3,47.3c0,0,0.4,1.5,0.1,3.2c-0.3,1.7,1.7,2,3.8,1.7
			c2.1-0.3,1.9-2.5,1.7-3.1C48.6,48.5,46.6,45,43.3,47.3 M33.2,51.1c-0.1,0.4-0.2,4.7,5.7,6.4c5.2,1.6,15.3,1.1,17.7-2.6
			c1.5-2.3,0.7-5-1.3-5.2c-1.1-0.1-1.3-1.1-1.3,0c0.1,1.1-1.5,4.2-5.2,4.6c-3.7,0.4-8.6-0.5-10-2c-1.4-1.6-0.9-3.3-2.5-3.9
			C33.3,47.5,33.3,50.7,33.2,51.1 M27.5,46.5c-1.3,2.1-1.6,3.3-1.9,4.5c-0.3,1.3,0.2,2,1.9,2.6c1.7,0.6,1.8,0.2,2.5-0.6
			c0.7-0.9,1.3-5.2,1.3-5.2s0-1.7-1.3-1.9C28.8,45.7,27.5,46.5,27.5,46.5"/>
		<path class="st22" d="M80.9,61.5c-3.4,0-6.1-2.7-6.1-6.1V34.6c0-3.4,2.7-6.1,6.1-6.1h73c3.4,0,6.1,2.7,6.1,6.1v20.7
			c0,3.4-2.7,6.1-6.1,6.1L80.9,61.5L80.9,61.5z"/>
		<path class="st23" d="M132.6,53.7L132.6,53.7c-0.1,0-0.7-0.2-0.7-1.3c0-0.9,0.2-1.2,0.3-1.2h0c0.2,0,0.4,0,0.6,0
			c0.5,0,1.4-0.1,2.6-0.4l0.1,0l0.2-6.7c0,0-1.7,0.3-2.9,0.5l-0.2,0l0,0c-0.1,0-0.2,0-0.2-0.1c-0.1-0.2-0.3-0.6-0.2-1.6
			c0-0.1,0-0.1,0.1-0.1c0.4-0.1,1.4-0.3,3.3-0.3h0.2c0,0,0-3.5-0.2-4.8l0-0.1c0,0-1.2,0-1.4,0l-0.4,0.1c-0.2,0.1-0.4,0.1-0.7,0.1
			c-0.1,0-0.3,0-0.4-0.1c-0.2-0.1-0.4-0.2-0.4-0.5c-0.1-0.6-0.1-1.1,0-1.5c0,0,0,0,0,0c0.1,0,0.5,0,1.1,0c0.4,0,6.2,0,6.9-0.1
			c0,0,0,0,0,0l0,2c0,0,0,0,0,0c0,0,0,0,0,0l-2.4-0.1c-0.2,0.7-0.3,1.9-0.4,4.7l0,0.1c0,0,2.1,0,2.3,0.1c0,0,0,0,0,0
			c0,0.2,0.1,1-0.1,1.4c0,0-0.1,0.1-0.3,0.1c-0.2,0-1.3-0.1-1.6-0.1c-0.5,0-0.4,0.1-0.4,0.3c0,0.9-0.1,5.1-0.1,6l0,0.2l0.2-0.1
			c0.2-0.1,1.9-0.6,2.2-0.7c0.1,0,0.1-0.1,0.2-0.1l0.5,1.6l0,0c-0.1,0.1-0.4,0.3-0.9,0.5l-0.3,0.1C136.1,52.4,133.9,53.1,132.6,53.7
			 M149.8,36.5c-0.7,0-1.6,0.2-1.7,0.2l0,0l0,0l-0.1,0l0,0.1l-0.1,3.1l2.2,0h1.5l0-1.8c0-1.4-0.8-1.6-1-1.6
			C150.4,36.6,150.1,36.5,149.8,36.5z M142.8,39.4L142.8,39.4c0,0.2,0.3,0.6,1,0.7c0.2,0,0.5,0,1,0c0.5,0,0.9,0,1.2,0
			c0.1,0,0.2,0,0.3,0l0.1,0l0-0.1c0.1-0.3,0.1-2.7,0-3l0-0.2l-1.1,0.1c-0.3,0-0.6-0.1-0.9-0.1c-0.5,0-0.8,0.1-1,0.2
			c-0.5,0.3-0.5,0.6-0.5,0.9c0,0.1,0,0.1,0,0.2c0,0.1,0,0.5,0,1C142.9,39.1,142.9,39.3,142.8,39.4L142.8,39.4L142.8,39.4z
			 M148.5,41.3c-0.1,0-0.2,0-0.3,0l-0.1,0l0,2.6l0.2,0c0.2,0,1.4,0.1,2.1,0.1c0.2,0,0.6,0,0.7,0l0.1,0l0-0.1
			c0.1-0.2,0.3-1.4,0.1-2.1c-0.1-0.3-0.4-0.5-0.7-0.5c-0.2,0-0.6,0.1-1,0.1c-0.2,0-0.4,0-0.5,0C149,41.3,148.8,41.3,148.5,41.3
			L148.5,41.3z M144.7,41.2c-0.5,0-1,0-1.5,0l-0.1,0l0,0.1c-0.1,0.4-0.3,1.8,0.1,2.4c0.1,0.2,0.3,0.2,0.5,0.2c0,0,0,0,0.1,0
			c0.8-0.1,2-0.2,2.5-0.2c0.2,0,0.2,0,0.2,0l0.1,0l0.1-0.1c0.1-0.3,0-2,0-2.4l0-0.2l-0.2,0c-0.1,0-0.2,0-0.3,0L144.7,41.2
			L144.7,41.2z M138.2,53.9c1,0.1,2.2,0.1,3,0.1c3.1,0,5-0.3,5.2-0.4l0.1,0l-0.1-2.3l0.1-1.2l-0.1,0c-0.1,0-0.2-0.1-0.3,0
			c-0.1,0-0.3,0-0.4,0c-0.2,0-0.5,0-0.7,0c-1.4,0-3.3,0.4-3.7,0.8l0,0l-0.5-1.9c0.1,0-0.1-0.5,1.4-0.7c1-0.1,2.5-0.1,3.6-0.1
			c0.3,0,0.5,0,0.6,0l0.1,0l0-0.1c0.1-0.8,0.1-1.6,0.1-2.4l0-0.2l-0.2,0c-1,0.2-2.1,0.2-3.1,0.2l-2.1-0.1c0-0.6,0.2-3.1,0.3-3.8
			l-0.1-1.9c-0.1-2-0.1-4.2,0-4.6h0c0.2,0,0.5,0,1-0.1c1.3-0.1,3.7-0.2,6.6-0.2c0.8,0,1.8,0.1,2.7,0.2c0.5,0,1,0.1,1.4,0.1
			c0,0,0.2,0.2,0.2,1.7c0,1.5-0.3,7.9-0.3,7.9l0,0.7l-4.9-0.2l-0.1,3l1.7,0c2.5,0,3.8-0.5,4.4-0.8l-0.2,2.7c-0.5,0-2-0.1-3.4-0.2
			c-1.1-0.1-2.1-0.1-2.3-0.1l-0.2,0.2l-0.1,3.3l0.2,0c0.2,0,0.8,0.1,2.1,0.1c0.3,0,0.7,0,1.1,0c1.8-0.1,3.9-0.5,4.6-0.7l-0.7,2.9
			l-1.3,0c-0.2,0-3.5-0.4-6.8-0.4c-1.1,0-2.9,0-3.5,0.1c-2.5,0.3-4.1,0.6-4.6,0.6L138.2,53.9L138.2,53.9z M92.2,44
			c-0.5,0-0.5-0.2-0.6-0.3c-0.2-0.6-0.6-1.3-0.8-1.7c0.2,0,0.4,0,0.7,0c0.5,0,1.2,0.1,1.6,0.6c0.1,0.1,0.2,0.3,0.2,0.5
			c0,0.4-0.3,0.8-0.7,0.9C92.5,44,92.3,44,92.2,44 M99,46.3c-0.4-0.7-1.4-2.3-2.3-3c0.1,0,0.1-0.1,0.1-0.2c0.1-0.2,0.5-0.5,1-0.5
			c0,0,0.1,0,0.1,0c1.2,0.2,2.6,2.4,2.6,2.4s-0.6,0.6-0.8,0.7C99.5,46,99.2,46.2,99,46.3z M91.3,36.6l0,0.2c0.2,1.9,1.4,2.5,1.5,2.5
			l0,0l2.3,0.1l0.1-0.1c0.8-1,0.9-2.4,0.9-2.7l0-0.2C96.1,36.4,91.3,36.6,91.3,36.6z M86.8,36.9l0,0.1c-0.1,0.3-0.3,1.6,0.2,2.2
			c0.2,0.2,0.4,0.3,0.7,0.4l0.4,0l4,0l-0.5-0.3c-0.5-0.3-1.4-1.8-1.9-2.6l-0.1-0.1C89.5,36.7,86.8,36.9,86.8,36.9z M91.1,49.3
			c-0.2,0-0.3,0.1-0.4,0.2c-0.1,0.2,0.1,0.4,0.1,0.4c0.7,0.9,1.3,1.4,1.7,1.6c0.2,0.1,2-1.3,1.9-1.8c0-0.2-0.2-0.4-0.7-0.4
			c-0.5,0-0.9,0-1.3,0c-0.5,0-0.9,0-1.2,0L91.1,49.3L91.1,49.3z M82.9,56.8c-1.1-0.9-2-1.8-2.1-2c0.1,0,0.3,0,0.6,0
			c1.5,0,5.2-0.1,9.4-2.2l0.3-0.1l-0.2-0.2c-0.9-0.6-1.7-1.4-2.4-2.3l-0.1-0.2L88.2,50c-0.3,0.3-1.7,1.7-4.5,2.9
			c-0.3,0.1-0.7,0.2-1,0.2c-0.4,0-0.8-0.1-1.1-0.3c-0.4-0.2-0.6-0.5-0.6-0.8c0.6-0.2,3.6-1.5,6.1-3.4c0,0,0.9-0.6,1-1.9l0-0.1
			l-0.3-0.1c-0.5-0.1-0.8-0.5-0.9-1c-0.1-1.1-0.3-3-0.4-4.3l0-0.1l-0.1,0c-0.2,0-1.5-0.2-2.4-0.2c-0.5,0-0.9,0-1,0.1l-0.1,0.1l0,0.1
			c0.1,0.9,0.2,2.6-0.1,3c-0.1,0.2-0.4,0.3-0.9,0.3c-0.8,0-1.3-0.3-1.5-0.8l0,0c0.2-0.2,0.7-0.6,0.7-1.8l-0.1-2
			c0.4-0.1,1.7-0.3,3-0.3c0.6,0,1.1,0,1.6,0l0.2,0l0-2l-0.2,0.1c-0.1,0-0.2,0-0.3,0c-0.2,0-0.3,0-0.5-0.1c-0.4-0.1-0.3-0.5-0.3-0.7
			l0-0.2l-0.4,0c-0.4,0-0.9,0.1-1.3,0.3c0,0-0.1,0-0.1,0c-0.1,0-0.4-0.1-0.8-0.4c-0.7-0.5-0.8-0.9-0.9-1c0,0,0-0.1,0-0.1
			c0.8-0.1,7.7-0.5,12.6-1c2.8-0.3,4.7-0.7,5.5-0.8c0.2,0,0.4-0.1,0.4-0.1c0.3,0,0.4,0.3,0.5,0.7c0.1,0.2,0.1,0.4,0.2,0.6
			c0,0.1,0,0.2,0,0.2c0,0.1-0.1,0.1-0.2,0.1l-1.3,0l0,0.2c0,0.4,0,1-0.1,1.3c-0.4,1-1,1.8-1.1,1.9L97.2,39l0.5,0.4l0.1,0
			c0.1,0,0.5,0,1.1,0c0.7,0,1.9,0,2.8,0.1c0.4,0,0.7,0.4,0.7,0.7c0,0,0,0,0,0c-0.1,1.1,0,2.9,0,3.5l-1.9,0c0,0,0.1-2.4-0.1-2.6
			c-0.1-0.1-0.3-0.2-0.7-0.2c0,0-10.2,0.2-11.3,0.2l-0.2,0l0,0.2c0,0.2,0.6,2.5,0.7,2.6c0.1,0.7,0.8,1.2,1.5,1.2h0
			c0.1,0,0.2,0,0.3,0c0.3,0,0.5,0,0.8,0c0.3,0,0.7,0,1,0c1.2,0,1.8-0.1,2.1-0.2c0.6-0.3,1-1.1,1.2-1.5c0.3,0.2,0.9,0.8,0.9,1.6
			c0,0.8-0.5,1.3-1.5,1.5c-0.4,0.1-1,0.1-2,0.1c-1,0-1.9,0-2.9-0.1l-0.2,0l0,0.1c-0.2,0.4-0.4,1.2-0.3,1.4c0,0.1,0.1,0.1,0.2,0.1
			c0.4,0,0.8,0,1.2-0.1c0.7-0.1,1.4-0.1,2.2-0.1c1.1,0,2.6,0.2,3.2,0.4c0.8,0.4,0.7,1.4,0.1,2c-0.6,0.6-2.5,1.8-2.7,2
			c-0.1,0.1,0.2,0.2,0.3,0.3c1.4,0.6,4.3,1.1,7.8,1.2c0.1,0,0.4,0,0.5,0c-0.2,0.7-0.7,1.9-1,2.4c-0.7-0.1-5-0.8-9-2.9l-0.1,0l-0.1,0
			C92.2,53.6,87.3,56.3,82.9,56.8L82.9,56.8z M84.5,46.2c-0.4,0-0.9-0.1-1.1-0.8c0.5-0.8,1.4-2.1,1.5-2.7c0.3,0,0.6,0.2,0.8,0.5
			c0.2,0.4,0.5,1,0.2,2.1c0,0-0.3,0.6-0.8,0.8C85,46.1,84.8,46.2,84.5,46.2L84.5,46.2z M106.9,37.6c0.2-0.3,0.7-0.8,1.1-1.1
			c0.3,0.5,1.6,2.3,2,3c-0.6,0.6-0.8,0.9-1.1,1.2C108.9,40.6,107.6,38.6,106.9,37.6 M121.2,40.3c-0.7-0.5-2-1.2-2.7-1.5l0.1-0.1
			c0.9-1,1.2-1.4,1.3-1.5c0.8,0.6,1.7,1.1,2.7,1.6l0,0.1c-0.3,0.9-0.7,1.6-0.9,1.9L121.2,40.3L121.2,40.3z M114.3,39.6
			c0.1-0.5,0.6-2.1,0.9-2.9c0.3,0.1,1.4,0.3,1.9,1.2c-0.5,0.7-1.3,1.7-1.7,2.1L114.3,39.6L114.3,39.6z M124.7,56.8
			c-0.3,0-0.8,0-1.2-0.2c0.3-2.4,0.4-8.3,0.4-8.3s-5.7,1.8-6.4,2c-0.4-0.4-0.7-1-0.7-1.2l-0.1-0.3l-0.2,0.2
			c-0.2,0.2-0.4,0.4-0.7,0.5l-2.5-2.7l0.1,4.9c0,1.5,0.1,4.4,0.1,4.6l0,0c-0.1,0-0.3,0.1-0.9,0.1l-0.2,0c-0.8,0-1.1-0.1-1.2-0.2
			c0.1-0.6,0.3-3.2,0.4-5c0-1,0.1-2,0.1-3l0-0.5l-0.3,0.4c-0.7,0.9-1.9,2.4-2.7,3.3c-0.7,0.8-1.9,0.5-2.1-0.4
			c-0.1-0.9-0.5-2.2-0.5-2.2c0.9,0.4,2.1,0.2,2.6-0.4l0,0c2.6-2.6,2.6-4.4,2.5-4.7l0-0.2l-0.2,0c-0.4,0-0.8,0-1.1,0
			c-1.7,0-2.4,0.1-2.7,0.2c0-0.3,0-1,0.1-2l4.3,0.1l0-0.1c0.2-0.4-0.2-6.3-0.3-7.2c0.7-0.5,2-0.1,2.3,0c-0.4,1-0.5,5.7-0.6,7.1
			l0,0.2l0.2,0c0.2,0,0.4,0,0.7,0c1,0,2.5,0,3-0.1h0l0,0l0,1.4l1.8-1.6l2.8,1.9c-0.2,0.4-1,1.3-1.3,1.5c-0.5-0.2-0.8-0.5-1.5-1.1
			c-0.4-0.4-0.6-0.5-0.8-0.6c-0.4-0.1-0.8,0.1-0.9,0.3c-0.1,0-0.3,0-0.7,0c-1,0-2.7,0-2.9,0l-0.2,0l0,1.2l0.1,0.1
			c0.8,0.6,2.1,1.7,3.8,3l-0.3,0.4l0.4,0c1.3-0.1,6.3-1.9,6.6-2l0.1,0l0-0.1c0,0,0.1-1,0-5.5c0-4.3-0.3-6.1-0.4-6.3
			c0,0,0.2-0.3,1-0.3c0.6,0,1.2,0.1,1.7,0.4l0,0.1l-0.1,0.1c-0.3,0.8-0.3,9-0.3,10.6l0,0.2l0.2-0.1c0.8-0.3,2-0.7,2.5-0.8l0,2.1
			c-1.3,0.5-2.5,0.8-2.6,0.8l-0.1,0l-0.1,2.6c0,3.7,0.1,6.3,0.1,6.3C125.8,56.6,125.4,56.8,124.7,56.8"/>
	</g>
</g>
<g id="Speakers">
</g>
</svg>
