<?xml version="1.0" encoding="utf-8"?>
<!-- Generator: Adobe Illustrator 22.1.0, SVG Export Plug-In . SVG Version: 6.00 Build 0)  -->
<svg version="1.1" xmlns="http://www.w3.org/2000/svg" xmlns:xlink="http://www.w3.org/1999/xlink" x="0px" y="0px"
	 viewBox="0 0 180 90" style="enable-background:new 0 0 180 90;" xml:space="preserve">
<style type="text/css">
	.st0{fill:#333F48;}
	.st1{fill:#002D74;}
	.st2{opacity:0.5;fill:url(#SVGID_1_);}
	.st3{opacity:0.5;fill:url(#SVGID_2_);}
	.st4{fill:#DC2314;}
	.st5{fill:#5F696E;}
	.st6{fill:#202326;}
	.st7{fill:#F6961E;}
	.st8{fill:#323333;}
	.st9{fill:url(#logo_1_);}
	.st10{fill:url(#SVGID_3_);}
	.st11{fill:url(#SVGID_4_);}
	.st12{fill:#00B7AD;}
	.st13{fill:#66BE77;}
	.st14{fill:url(#SVGID_5_);}
	.st15{fill:#002C6C;}
	.st16{fill:#EC2281;}
	.st17{fill:#20B8A0;}
	.st18{fill:#FAA928;}
	.st19{fill:#D7233B;}
	.st20{fill:#0E0D0D;}
	.st21{fill:#110323;}
	.st22{fill:url(#SVGID_6_);}
	.st23{fill:url(#SVGID_7_);}
	.st24{fill:url(#SVGID_8_);}
	.st25{fill:url(#SVGID_9_);}
	.st26{fill:url(#SVGID_10_);}
	.st27{fill:url(#SVGID_11_);}
	.st28{clip-path:url(#SVGID_13_);}
	.st29{fill:url(#SVGID_14_);}
	.st30{fill:url(#SVGID_15_);}
	.st31{fill:url(#SVGID_16_);}
	.st32{fill:#231815;}
	.st33{fill:#1186C2;}
</style>
<g id="Platinum">
</g>
<g id="Silver">
</g>
<g id="Partner">
</g>
<g id="Speakers">
	<path class="st33" d="M28.2,39.9l-3.2,20.5H15l3.2-20.5H28.2z M18.5,37.8h9.9l1.6-8.6h-9.9L18.5,37.8z M31,38.6l5.9-0.3l-3.5,21.9
		h10.6l3.5-21.9l5.8,0.3l1.5-9.4H32.5L31,38.6z M52.4,60.4h9.9L64,49.8c0.2-1.3,0.7-2.4,2.3-2.4c1.4,0,1.4,1.3,1.2,2.4l-1.7,10.6
		h9.7l2-12.6c0.7-4.5-0.5-8.4-5.6-8.4c-2.9,0-5,1.8-7.2,4h-0.2l1.4-5.7l1.4-8.6h-9.9L52.4,60.4z M88.1,50.3c0.3-1.7,1.6-3,3.2-3
		c1.7,0,2.6,1.3,2.3,3c-0.3,1.6-1.7,2.8-3.2,2.8C88.9,53.1,87.8,51.9,88.1,50.3 M103.2,50.4c1.1-7.2-3.9-10.9-10.7-10.9
		c-6.7,0-13,3.8-14.1,10.9c-1.1,6.8,4.4,10.4,10.8,10.4C95.6,60.9,102.2,57.2,103.2,50.4 M115.9,39.9h-9.4l-3.2,20.5h9.6l1.6-10.1
		c0.2-1.2,0.4-2.7,1.9-2.7c1.5,0,1.2,1.5,1,2.7l-1.6,10.1h9.6l1.6-10.1c0.2-1.2,0.4-2.7,1.9-2.7c1.5,0,1.2,1.5,1,2.7l-1.6,10.1h9.6
		l2-12.7c0.7-4.4-0.9-8.2-5.8-8.2c-3.2,0-5.3,1.5-6.9,4.4h-0.2c-0.4-2.8-2.2-4.4-5.2-4.4c-2.6,0-5.4,1.6-6.6,4.1H115L115.9,39.9z
		 M150.9,47.6c0.2-1.4,1.2-2.7,2.7-2.7c1.4,0,2.2,1.3,2,2.7H150.9z M164.7,51.8c1.7-7.7-3.3-12.4-10.6-12.4c-6.5,0-12.4,4.2-13.5,11
		c-1.1,7.1,4.3,10.4,10.7,10.4c4.7,0,10.6-2.3,12.7-7.2h-9.7c-0.3,1-1.2,1.7-2.3,1.7c-2.1,0-2.1-1.9-1.8-3.5H164.7z"/>
</g>
</svg>
