<svg xmlns="http://www.w3.org/2000/svg" xmlns:xlink="http://www.w3.org/1999/xlink" viewBox="0 0 180 90"><defs><style>.cls-1{fill:url(#未命名漸層_13);}.cls-2{fill:url(#未命名漸層_12);}.cls-3{fill:url(#未命名漸層_11);}.cls-4{fill:url(#未命名漸層_10);}.cls-5{fill:#fff;}</style><linearGradient id="未命名漸層_13" x1="4.06" y1="253.29" x2="51.01" y2="281.63" gradientTransform="matrix(1, 0, 0, -1, 69, 331.5)" gradientUnits="userSpaceOnUse"><stop offset="0" stop-color="#fcee39"/><stop offset="1" stop-color="#f37b3d"/></linearGradient><linearGradient id="未命名漸層_12" x1="13.99" y1="321.34" x2="56.84" y2="283.82" gradientTransform="matrix(1, 0, 0, -1, 69, 331.5)" gradientUnits="userSpaceOnUse"><stop offset="0" stop-color="#ef5a6b"/><stop offset="0.57" stop-color="#f26f4e"/><stop offset="1" stop-color="#f37b3d"/></linearGradient><linearGradient id="未命名漸層_11" x1="16.71" y1="287.33" x2="-8.69" y2="303.19" gradientTransform="matrix(1, 0, 0, -1, 69, 331.5)" gradientUnits="userSpaceOnUse"><stop offset="0" stop-color="#7c59a4"/><stop offset="0.39" stop-color="#af4c92"/><stop offset="0.77" stop-color="#dc4183"/><stop offset="0.96" stop-color="#ed3d7d"/></linearGradient><linearGradient id="未命名漸層_10" x1="16.25" y1="323.22" x2="-8.54" y2="302.74" gradientTransform="matrix(1, 0, 0, -1, 69, 331.5)" gradientUnits="userSpaceOnUse"><stop offset="0" stop-color="#ef5a6b"/><stop offset="0.36" stop-color="#ee4e72"/><stop offset="1" stop-color="#ed3d7d"/></linearGradient></defs><title>JetBrains</title><g id="Speakers"><path id="_路徑_" data-name="&lt;路徑&gt;" class="cls-1" d="M125,49a2.77,2.77,0,0,0,.9-1.92,2.8,2.8,0,0,0-2.64-2.93,2.92,2.92,0,0,0-2,.66h0L71.14,72.34a5.88,5.88,0,0,0-2.81,2.46,6,6,0,0,0,2.16,8.32A6.16,6.16,0,0,0,76.89,83h0c.12-.12.3-.18.42-.3L124,49.88a7.61,7.61,0,0,0,1-.84Z"/><path id="_路徑_2" data-name="&lt;路徑&gt;" class="cls-2" d="M125.16,45h0L87,7.54a4.62,4.62,0,0,0-8,3.11h0a4.59,4.59,0,0,0,1.26,3.17h0a6.34,6.34,0,0,0,.72.6L121.27,49h0a3.08,3.08,0,0,0,1.8.78A2.8,2.8,0,0,0,126,47.12,3,3,0,0,0,125.16,45Z"/><path id="_路徑_3" data-name="&lt;路徑&gt;" class="cls-3" d="M88.21,41.68c-.06,0-23.6-18.57-24.08-18.86h0l-1.08-.54a6.7,6.7,0,0,0-5.87,12h0a5.28,5.28,0,0,0,1.2.54C58.63,34.91,85.58,46,85.58,46h0a2.57,2.57,0,0,0,2.64-4.37Z"/><path id="_路徑_4" data-name="&lt;路徑&gt;" class="cls-4" d="M83.54,6.07a4.88,4.88,0,0,0-2.75.9L56.95,23c-.06.06-.12.06-.12.12h-.06a6.67,6.67,0,0,0,1.62,11.68A6.57,6.57,0,0,0,64.61,34h0a5.6,5.6,0,0,0,1.08-1L86.41,14.33h0a4.63,4.63,0,0,0,1.8-3.65h0A4.67,4.67,0,0,0,83.54,6.07Z"/><g id="_群組_" data-name="&lt;群組&gt;"><rect id="_路徑_5" data-name="&lt;路徑&gt;" x="74.88" y="28.53" width="30.54" height="30.54"/><rect id="_路徑_6" data-name="&lt;路徑&gt;" class="cls-5" x="77.28" y="53.08" width="11.38" height="1.8"/><g id="_群組_2" data-name="&lt;群組&gt;"><path id="_路徑_7" data-name="&lt;路徑&gt;" class="cls-5" d="M77.25,36.46l.9-.84a1,1,0,0,0,.78.48c.36,0,.54-.24.74-.72V32.12h1.2v3.27a2,2,0,0,1-.5,1.38,1.92,1.92,0,0,1-1.38.48A1.81,1.81,0,0,1,77.25,36.46Z"/><path id="_路徑_8" data-name="&lt;路徑&gt;" class="cls-5" d="M81.41,32.12h3.66v1.2h-2.4v.6h2.4v1.2h-2.4v.6h3v1.2H81.47Z"/><path id="_路徑_9" data-name="&lt;路徑&gt;" class="cls-5" d="M86.86,33.32h-1.2v-1.2h4.19v1.2h-1.8v3.59h-1.2Z"/><path id="_複合路徑_" data-name="&lt;複合路徑&gt;" class="cls-5" d="M77.28,38.71h2.48a2.14,2.14,0,0,1,1.33.4,1.14,1.14,0,0,1,.29.81h0a1.13,1.13,0,0,1-.75,1.1,1.12,1.12,0,0,1,.92,1.15h0c0,.81-.69,1.33-1.79,1.33H77.28Zm3,1.23c0-.3-.24-.42-.6-.63H78.47v1.2h1.11c.42-.15.66-.27.66-.57Zm-.48,1.17H78.47v1.2h1.29c.42,0,.66-.21.66-.51h0C80.42,41.5,80.19,41.38,79.77,41.1Z"/><path id="_複合路徑_2" data-name="&lt;複合路徑&gt;" class="cls-5" d="M82.07,38.71h2.31a1.32,1.32,0,0,1,1.62.21,1.49,1.49,0,0,1,.42,1.14h0a1.65,1.65,0,0,1-1,1.56l1.2,1.88H85l-1-1.8h-.75v1.8h-1.2Zm2.1,1.8c.48,0,.72-.24.72-.6h0c0-.42-.3-.6-.72-.6h-.9v1.2Z"/><path id="_複合路徑_3" data-name="&lt;複合路徑&gt;" class="cls-5" d="M88.06,38.71h1.25l2,4.79H89.95l-.36-1.2H87.67l-.36,1.2H86Zm1.17,2.4-.54-1.38-.54,1.38Z"/><path id="_路徑_10" data-name="&lt;路徑&gt;" class="cls-5" d="M91.65,38.71h1.2V43.5h-1.2Z"/><path id="_路徑_11" data-name="&lt;路徑&gt;" class="cls-5" d="M93.45,38.71h1l2,2.64V38.71h1.8V43.5H96.93l-2.29-2.6v2.6h-1.2Z"/><path id="_路徑_12" data-name="&lt;路徑&gt;" class="cls-5" d="M98.15,42.63l.78-.9a2.36,2.36,0,0,0,1.62.6c.36,0,.6-.12.6-.36h0c0-.24-.18-.3-.84-.48-1.08-.24-1.86-.54-1.86-1.56h0a1.7,1.7,0,0,1,1.92-1.62,3.19,3.19,0,0,1,2,.66l-.72,1a2.73,2.73,0,0,0-1.38-.48c-.36,0-.48.12-.48.3h0c0,.24.18.3.84.48,1.14.24,1.86.6,1.86,1.56h0c0,1-.78,1.62-2,1.62A3.17,3.17,0,0,1,98.15,42.63Z"/></g></g></g></svg>