<?xml version="1.0" encoding="utf-8"?>
<!-- Generator: Adobe Illustrator 22.1.0, SVG Export Plug-In . SVG Version: 6.00 Build 0)  -->
<svg version="1.1" xmlns="http://www.w3.org/2000/svg" xmlns:xlink="http://www.w3.org/1999/xlink" x="0px" y="0px"
	 viewBox="0 0 240 120" style="enable-background:new 0 0 240 120;" xml:space="preserve">
<style type="text/css">
	.st0{fill:#333F48;}
	.st1{fill:#002D74;}
	.st2{opacity:0.5;fill:url(#SVGID_1_);}
	.st3{opacity:0.5;fill:url(#SVGID_2_);}
	.st4{fill:#DC2314;}
	.st5{fill:#5F696E;}
	.st6{fill:#323333;}
	.st7{fill:url(#logo_1_);}
	.st8{fill:#D7233B;}
</style>
<g id="Platinum">
	<g id="osp">
		<path class="st4" d="M79.7,36.1L79.7,36.1c-10.1,0-18.1,7.7-18.1,17.2c0,9.7,7.9,17.4,18.1,17.4C89.9,70.7,98,63,98,53.3
			C98,43.8,89.9,36.1,79.7,36.1z M79.7,64.6L79.7,64.6L79.7,64.6L79.7,64.6c-6,0-10.7-5.1-10.7-11.2c0-6,4.7-11,10.7-11
			c6.1,0,10.9,5,10.9,11C90.7,59.5,85.9,64.6,79.7,64.6z"/>
		<path class="st5" d="M176,74.3V32.5h2.3v41.8H176 M127.6,45.5l4-5c-2.7-1.9-8.4-4.4-15-4.4c-6,0-13.2,2.4-13.2,10.3
			c0,8.3,8.2,9.1,15.2,9.5c4.8,0.4,8.1,1.1,8.1,4.2c0,3-3.2,4.6-7.3,4.6c-6.5,0-11-3.3-13.7-5.5l-4,4.9c3.7,3.1,9.3,6.4,17.6,6.4
			c7.8,0,14.4-3.1,14.4-11.2c0-9-9.1-9.7-14.9-10.1c-4.2-0.3-8.4-0.5-8.4-3.4c0-2.8,2.8-4,6-4C121.7,42,125.7,44,127.6,45.5
			 M169,46.4c0,2.8-1.2,5.3-3,7.2c-2,1.9-4.9,3.1-9.2,3.1H146l0,14h-7l0-34.6h17.7c4.5,0,7.5,1.3,9.7,3.6
			C168.1,41.6,169,43.9,169,46.4z M161.9,46.5c0-1.1-0.4-2.1-1.2-2.9c-1.1-1.1-2.5-1.3-3.8-1.3h-11v8.5h11c1.2,0,2.6-0.2,3.7-1.2
			C161.4,48.7,161.9,47.6,161.9,46.5z M68.2,79.9c-1.7,0-3.1,1.3-3.1,3c0,1.7,1.4,3,3.1,3c1.7,0,3.1-1.3,3.1-3
			C71.4,81.2,70,79.9,68.2,79.9z M68.2,85.3c-1.4,0-2.5-1.1-2.5-2.5c0-1.3,1.1-2.4,2.5-2.4c1.4,0,2.5,1.1,2.5,2.4
			C70.8,84.2,69.7,85.3,68.2,85.3z M72,81.7h0.8v-1.2h0.5v1.2h1.3v0.4h-1.3v2.6c0,0.5,0.3,0.6,0.6,0.6c0.2,0,0.6-0.1,0.7-0.2
			l0.1,0.4c-0.2,0.1-0.6,0.2-0.9,0.2c-0.5,0-1.1-0.3-1.1-1.1v-2.6H72V81.7 M75.2,81.7H76v-1.2h0.5v1.2h1.3v0.4h-1.3v2.6
			c0,0.5,0.3,0.6,0.6,0.6c0.2,0,0.6-0.1,0.7-0.2l0.1,0.4c-0.2,0.1-0.6,0.2-0.9,0.2c-0.5,0-1.1-0.3-1.1-1.1v-2.6h-0.8V81.7
			 M80.7,81.6c-1.2,0-2.1,0.9-2.1,2.1c0,1.2,0.9,2.1,2.1,2.1c1.2,0,2.2-0.9,2.2-2.1C82.9,82.5,81.9,81.6,80.7,81.6z M80.7,85.3
			c-0.9,0-1.6-0.8-1.6-1.7c0-0.9,0.7-1.7,1.6-1.7c0.9,0,1.6,0.8,1.6,1.7C82.3,84.6,81.6,85.3,80.7,85.3z M90.1,81.1
			c-0.3-0.3-1.1-0.7-2.1-0.7c-0.8,0-1.6,0.3-1.6,1.1s1,0.9,2,0.9c1,0.1,2.6,0.2,2.6,1.6c0,1.3-1.2,1.8-2.6,1.8
			c-1.4,0-2.3-0.6-2.9-1.2l0.4-0.4c0.5,0.5,1.3,1.1,2.5,1.1c1.1,0,2-0.4,2-1.3c0-1-1-1.1-2-1.1c-1.2-0.1-2.6-0.2-2.6-1.4
			c0-1.2,1.2-1.6,2.2-1.6c1.1,0,2,0.5,2.5,0.8L90.1,81.1 M93.8,81.6c-1.2,0-2.1,0.9-2.1,2.1c0,1.2,0.9,2.1,2.1,2.1
			c1.2,0,2.2-0.9,2.2-2.1C96,82.5,95.1,81.6,93.8,81.6z M93.8,85.3c-0.9,0-1.6-0.8-1.6-1.7c0-0.9,0.7-1.7,1.6-1.7
			c0.9,0,1.6,0.8,1.6,1.7C95.4,84.6,94.8,85.3,93.8,85.3z M97.4,81.7v-0.9c0-1,0.6-1.3,1.2-1.3c0.3,0,0.7,0.1,0.9,0.3l-0.1,0.4
			C99.3,80.1,99,80,98.7,80c-0.4,0-0.8,0.2-0.8,0.8v0.9h1.3v0.4H98v3.6h-0.5v-3.6h-0.8v-0.4H97.4 M99.4,81.7h0.8v-1.2h0.5v1.2h1.3
			v0.4h-1.3v2.6c0,0.5,0.3,0.6,0.6,0.6c0.2,0,0.6-0.1,0.7-0.2l0.1,0.4c-0.2,0.1-0.6,0.2-0.9,0.2c-0.5,0-1.1-0.3-1.1-1.1v-2.6h-0.8
			V81.7 M108.6,81.7l-1.3,4h-0.6l-1-3.2h0l-1,3.2h-0.6l-1.3-4h0.6l1,3.3h0l1.1-3.3h0.6l1.1,3.3h0l1-3.3H108.6 M113.1,84.9v-2.2
			c0-0.9-0.9-1.2-1.8-1.2c-0.8,0-1.5,0.3-1.8,0.5l0.2,0.4c0.3-0.2,0.9-0.5,1.6-0.5c0.6,0,1.3,0.2,1.3,0.9v0.7
			c-0.3-0.4-1-0.5-1.5-0.5c-1.2,0-1.8,0.6-1.8,1.3c0,0.8,0.6,1.4,1.6,1.4c0.9,0,1.5-0.4,1.8-0.7c0,0.2,0,0.5,0.1,0.6h0.5
			C113.1,85.4,113.1,85.1,113.1,84.9z M112.5,84.6c-0.1,0.1-0.8,0.7-1.7,0.7c-0.7,0-1.2-0.4-1.2-0.9c0-0.5,0.4-0.9,1.4-0.9
			c0.6,0,1.2,0.2,1.5,0.5V84.6z M114.5,85.7v-3c0-0.3,0-0.6-0.1-0.9h0.5c0.1,0.2,0.1,0.4,0.1,0.7c0.3-0.4,0.7-0.8,1.3-0.8
			c0.3,0,0.5,0.1,0.6,0.2l-0.2,0.5c-0.1-0.1-0.4-0.2-0.6-0.2c-0.5,0-0.8,0.4-1.1,0.8v2.8H114.5 M121.3,83.7c0-0.1,0-0.1,0-0.2
			c0-1.4-1.1-1.9-2-1.9c-1.2,0-2.1,0.9-2.1,2.2c0,1.1,0.8,2.1,2.1,2.1c0.8,0,1.5-0.3,1.9-0.8h0l-0.4-0.3c-0.3,0.4-0.9,0.6-1.5,0.6
			c-1,0-1.6-0.7-1.6-1.6v0H121.3z M119.2,82c0.7,0,1.4,0.4,1.4,1.3h-2.9C117.9,82.5,118.5,82,119.2,82z M129,80.6
			c-0.4-0.4-0.9-0.6-1.6-0.6h-3v5.7h0.6v-2.4h2.4c0.7,0,1.1-0.2,1.5-0.5c0.3-0.3,0.5-0.7,0.5-1.1C129.4,81.2,129.3,80.8,129,80.6z
			 M128.5,82.4c-0.3,0.3-0.7,0.4-1.1,0.4H125v-2.2h2.4c0.5,0,0.8,0.1,1.1,0.4c0.2,0.2,0.3,0.5,0.3,0.7
			C128.8,81.9,128.7,82.2,128.5,82.4z M133.7,84.9v-2.2c0-0.9-0.9-1.2-1.8-1.2c-0.8,0-1.5,0.3-1.8,0.5l0.2,0.4
			c0.3-0.2,0.9-0.5,1.6-0.5c0.6,0,1.3,0.2,1.3,0.9v0.7c-0.3-0.4-1-0.5-1.5-0.5c-1.2,0-1.8,0.6-1.8,1.3c0,0.8,0.6,1.4,1.6,1.4
			c0.9,0,1.5-0.4,1.8-0.7c0,0.2,0,0.5,0.1,0.6h0.5C133.8,85.4,133.7,85.1,133.7,84.9z M133.2,84.6c-0.1,0.1-0.8,0.7-1.7,0.7
			c-0.7,0-1.2-0.4-1.2-0.9c0-0.5,0.4-0.9,1.4-0.9c0.6,0,1.2,0.2,1.5,0.5V84.6z M135.2,85.7v-3c0-0.3,0-0.6-0.1-0.9h0.5
			c0.1,0.2,0.1,0.4,0.1,0.7c0.3-0.4,0.7-0.8,1.3-0.8c0.3,0,0.5,0.1,0.6,0.2l-0.2,0.5c-0.1-0.1-0.4-0.2-0.6-0.2
			c-0.5,0-0.8,0.4-1.1,0.8v2.8H135.2 M137.8,81.7h0.8v-1.2h0.5v1.2h1.3v0.4h-1.3v2.6c0,0.5,0.3,0.6,0.6,0.6c0.2,0,0.6-0.1,0.7-0.2
			l0.1,0.4c-0.2,0.1-0.6,0.2-0.9,0.2c-0.5,0-1.1-0.3-1.1-1.1v-2.6h-0.8V81.7 M141.5,85.7v-3c0-0.3,0-0.6-0.1-0.9h0.5
			c0.1,0.2,0.1,0.4,0.1,0.6c0.3-0.4,0.8-0.7,1.6-0.7c0.9,0,1.5,0.6,1.5,1.4v2.7h-0.5v-2.7c0-0.5-0.4-0.9-1.1-0.9
			c-0.6,0-1.1,0.4-1.5,0.7v2.9H141.5 M150.4,83.7c0-0.1,0-0.1,0-0.2c0-1.4-1.1-1.9-2-1.9c-1.2,0-2.1,0.9-2.1,2.2
			c0,1.1,0.8,2.1,2.1,2.1c0.8,0,1.5-0.3,1.9-0.8l-0.4-0.3c-0.3,0.4-0.9,0.6-1.5,0.6c-1,0-1.6-0.7-1.6-1.6v0H150.4z M148.3,82
			c0.7,0,1.4,0.4,1.4,1.3h-2.9C147,82.5,147.6,82,148.3,82z M151.5,85.7v-3c0-0.3,0-0.6-0.1-0.9h0.5c0.1,0.2,0.1,0.4,0.1,0.7
			c0.3-0.4,0.7-0.8,1.3-0.8c0.3,0,0.5,0.1,0.6,0.2l-0.2,0.5c-0.1-0.1-0.4-0.2-0.6-0.2c-0.5,0-0.8,0.4-1.1,0.8v2.8H151.5 M155.4,80h5
			v0.5h-2.2v5.2h-0.6v-5.2h-2.2V80 M164,84.9v-2.2c0-0.9-0.9-1.2-1.8-1.2c-0.8,0-1.5,0.3-1.8,0.5l0.2,0.4c0.3-0.2,0.9-0.5,1.6-0.5
			c0.6,0,1.3,0.2,1.3,0.9v0.7c-0.3-0.4-1-0.5-1.5-0.5c-1.2,0-1.8,0.6-1.8,1.3c0,0.8,0.6,1.4,1.6,1.4c0.9,0,1.5-0.4,1.8-0.7
			c0,0.2,0,0.5,0.1,0.6h0.5C164,85.4,164,85.1,164,84.9z M163.4,84.6c-0.1,0.1-0.8,0.7-1.7,0.7c-0.7,0-1.2-0.4-1.2-0.9
			c0-0.5,0.4-0.9,1.4-0.9c0.6,0,1.2,0.2,1.5,0.5V84.6z M165.4,85.7v-4h0.5v4H165.4z M165.7,79.7c0.2,0,0.4,0.2,0.4,0.3
			s-0.2,0.3-0.4,0.3c-0.2,0-0.4-0.2-0.4-0.3C165.3,79.9,165.5,79.7,165.7,79.7 M169.5,81.6c-0.7,0-1.2,0.4-1.5,0.7
			c0-0.2,0-0.4-0.1-0.6h-0.5c0.1,0.3,0.1,0.7,0.1,1v4.8h0.5v-2.4c0.3,0.4,0.8,0.7,1.4,0.7c1.1,0,2.1-0.8,2.1-2.1
			C171.5,82.4,170.6,81.6,169.5,81.6z M169.3,85.3c-0.6,0-1.1-0.4-1.4-0.7v-1.9c0.3-0.3,0.8-0.7,1.5-0.7c0.8,0,1.5,0.7,1.5,1.6
			C170.9,84.7,170.2,85.3,169.3,85.3z M176.4,83.7c0-0.1,0-0.1,0-0.2c0-1.4-1.1-1.9-2-1.9c-1.2,0-2.1,0.9-2.1,2.2
			c0,1.1,0.8,2.1,2.1,2.1c0.8,0,1.5-0.3,1.9-0.8l-0.4-0.3c-0.3,0.4-0.9,0.6-1.5,0.6c-1,0-1.6-0.7-1.6-1.6v0H176.4z M174.4,82
			c0.7,0,1.4,0.4,1.4,1.3h-2.9C173.1,82.5,173.6,82,174.4,82z M177.6,85.7v-4h0.5v4H177.6z M177.9,79.7c0.2,0,0.4,0.2,0.4,0.3
			s-0.2,0.3-0.4,0.3c-0.2,0-0.4-0.2-0.4-0.3C177.5,79.9,177.6,79.7,177.9,79.7"/>
	</g>
</g>
<g id="Silver">
</g>
<g id="Partner">
</g>
</svg>
