<?xml version="1.0" encoding="utf-8"?>
<!-- Generator: Adobe Illustrator 22.1.0, SVG Export Plug-In . SVG Version: 6.00 Build 0)  -->
<svg version="1.1" xmlns="http://www.w3.org/2000/svg" xmlns:xlink="http://www.w3.org/1999/xlink" x="0px" y="0px"
	 viewBox="0 0 240 120" style="enable-background:new 0 0 240 120;" xml:space="preserve">
<style type="text/css">
	.st0{fill:#333F48;}
	.st1{fill:#002D74;}
	.st2{opacity:0.5;fill:url(#SVGID_1_);}
	.st3{opacity:0.5;fill:url(#SVGID_2_);}
	.st4{fill:#DC2314;}
	.st5{fill:#5F696E;}
	.st6{fill:#323333;}
	.st7{fill:url(#logo_1_);}
	.st8{fill:url(#SVGID_3_);}
	.st9{fill:url(#SVGID_4_);}
	.st10{fill:#00B7AD;}
	.st11{fill:#66BE77;}
	.st12{fill:url(#SVGID_5_);}
	.st13{fill:#D7233B;}
</style>
<g id="Platinum">
	<path id="SHOPLINE" class="st0" d="M20,71.1l3.5-5.1c2.1,2.3,5.4,4.2,9.6,4.2c3.6,0,5.3-1.6,5.3-3.4c0-5.4-17.4-1.6-17.4-13.3
		c0-5.1,4.4-9.4,11.5-9.4c4.8,0,8.8,1.5,11.8,4.3l-3.6,4.9c-2.4-2.3-5.7-3.4-8.8-3.4c-2.7,0-4.3,1.2-4.3,3.1
		C27.6,57.8,45,54.5,45,66c0,5.7-4,9.9-12.1,9.9C27,76,22.9,74,20,71.1z M69.6,75.4v-13H55.3v13h-6.4V44.5h6.4v12.1h14.3V44.5h6.5
		v30.9H69.6z M115.2,75.4V44.5h14.2c6.6,0,10.2,4.5,10.2,10c0,5.4-3.6,9.9-10.2,9.9h-7.7v11H115.2z M132.9,54.5c0-2.6-2-4.2-4.5-4.2
		h-6.8v8.3h6.8C131,58.6,132.9,57,132.9,54.5z M143.2,75.4V44.5h2.6V73h14.7v2.4H143.2z M163.5,75.4V44.5h2.6v30.9H163.5z M193,75.4
		L174,48.9v26.6h-2.6V44.5h2.6l19,26.2V44.5h2.6v30.9H193z M200.8,75.4V44.5H220v2.4h-16.6v11.4h16.3v2.4h-16.3V73H220v2.4H200.8z
		 M95.9,44.6c-8.2,0-14.9,6.8-14.9,15.3c0,8.4,6.7,15.3,14.9,15.3c8.2,0,14.9-6.8,14.9-15.3C110.9,51.4,104.2,44.6,95.9,44.6z
		 M92.8,72.8c-0.5-2-1.9-7.9-1.9-7.9l6.9,8.4C97.8,73.2,94.7,73.6,92.8,72.8z M98.4,73c-2.6-3.1-8.1-9.7-8.1-9.7l12.8,7.4
		C103.2,70.8,102,72.2,98.4,73z M103.6,70.5c-4.8-2.9-13.2-7.9-13.2-7.9l-2.2-8c0,0-0.1-0.7,0-1.1c0.1-0.2,0.8-0.4,0.8-0.4l8.1-2.3
		c0,0,7.1,3.7,12,6.3C110.2,62.4,106.6,68.5,103.6,70.5z M94.4,55c-1,0-1.7,0.8-1.7,1.8c0,1,0.8,1.8,1.7,1.8c1,0,1.7-0.8,1.7-1.8
		C96.1,55.8,95.3,55,94.4,55z"/>
</g>
<g id="Silver">
</g>
<g id="Partner">
</g>
</svg>
