<?xml version="1.0" encoding="utf-8"?>
<!-- Generator: Adobe Illustrator 22.1.0, SVG Export Plug-In . SVG Version: 6.00 Build 0)  -->
<svg version="1.1" xmlns="http://www.w3.org/2000/svg" xmlns:xlink="http://www.w3.org/1999/xlink" x="0px" y="0px"
	 viewBox="0 0 180 90" style="enable-background:new 0 0 180 90;" xml:space="preserve">
<style type="text/css">
	.st0{fill:#333F48;}
	.st1{fill:#002D74;}
	.st2{opacity:0.5;fill:url(#SVGID_1_);}
	.st3{opacity:0.5;fill:url(#SVGID_2_);}
	.st4{fill:#DC2314;}
	.st5{fill:#5F696E;}
	.st6{fill:#323333;}
	.st7{fill:url(#logo_1_);}
	.st8{fill:url(#SVGID_3_);}
	.st9{fill:url(#SVGID_4_);}
	.st10{fill:#00B7AD;}
	.st11{fill:#66BE77;}
	.st12{fill:url(#SVGID_5_);}
	.st13{fill:#D7233B;}
</style>
<g id="Platinum">
</g>
<g id="Silver">
	<g id="Silicon_Jungles">
		<g>
			<polygon id="_Path_" class="st10" points="22.3,48.4 22.3,45.2 18.1,43.7 18.1,33 32.6,27.8 47.8,33.1 47.8,37.1 50.6,36.2 
				50.6,31 32.5,24.5 15,31 15,45.8 			"/>
			<polygon id="_Path_2" class="st11" points="50.6,42.2 43.3,44.8 43.3,48 47.8,46.4 47.8,56.9 32.5,62.2 18.1,57 18.1,54.2 
				15,53.1 15,59.2 32.6,65.5 50.6,59.2 			"/>
			
				<linearGradient id="SVGID_1_" gradientUnits="userSpaceOnUse" x1="32.9652" y1="-189.869" x2="32.1514" y2="-216.1953" gradientTransform="matrix(1 0 0 -1 0 -158)">
				<stop  offset="0" style="stop-color:#00B6AC"/>
				<stop  offset="0.59" style="stop-color:#3FBC8C"/>
				<stop  offset="1" style="stop-color:#67BF78"/>
			</linearGradient>
			<path style="fill:url(#SVGID_1_);" d="M39.5,37.6l-1.7,1.5l1.3,1.2v2.2l-5.2,2.6v-2.4l3.6-1.8v-4.2l1.4-1.3l-1.9-1.7l-1.8,1.7
				l1.4,1.3v3.7l-2.8,1.4v-1.4h-0.9v-4.8l2-1.8l-2.6-2.3l-2.6,2.3l1.9,1.7l0,0v4.9h-0.7l-1.4-0.7v-0.4l1.3-1.2l-1.7-1.5l-1.7,1.5
				l1.3,1.2v1l1.4,0.6v2l-3.5-1.7v-3.7l1.4-1.3l-1.9-1.6l-1.8,1.6l1.4,1.3v4.2l4.4,2.1v2.5l-1.6-0.9L28,43.9l-2.3,0.5l0.8,2.2
				l1.8-0.4l1.9,1.1v4.9c0,0.9-0.2,1.8-0.6,2.6c-0.4,0.6-1.7,2-2.2,2.2l-0.6,0.2l3.7,1.3l0.2-0.1c0.4-0.2,0.9-0.4,1.2-0.7
				c1.7,1.4,2.7,0.8,2.7,0.8c-0.7-0.1-1.5-1-1.9-1.5c0.2-0.2,0.3-0.5,0.5-0.8c0.6-1.2,1-2.6,0.9-3.9v-6.2l6-3v-2.8l1.3-1.2
				L39.5,37.6z M36.5,35.4l0.6-0.5l0.6,0.5l-0.6,0.5L36.5,35.4z M28.8,38.1l0.4-0.4l0.5,0.4l-0.5,0.4L28.8,38.1z M25.6,36.3l0.6-0.5
				l0.6,0.5l-0.6,0.5L25.6,36.3z M27,45.7l-0.2-0.6l0.6-0.1l0.2,0.6L27,45.7z M32.5,35l-1.3-1.2l1.3-1.2l1.3,1.2L32.5,35z
				 M39.5,39.5L39,39.1l0.5-0.4l0.5,0.4L39.5,39.5z"/>
		</g>
		<path class="st10" d="M71.4,32.9c-0.4-0.4-1-0.6-1.5-0.6h-5.6c-0.2,0-0.3,0-0.3,0c0,0-0.1-0.1-0.1-0.1l0,0c0-0.1,0-0.1,0-0.2v-3.7
			c0-0.1,0-0.1,0-0.2l0,0c0.1-0.1,0.1-0.1,0.1-0.1c0,0,0.1,0,0.4,0h4.5c0.2,0,0.3,0,0.3,0c0,0,0.1,0.1,0.1,0.1l0,0
			c0,0.1,0,0.1,0,0.2v1.1h3.2v-1.6c0-0.6-0.3-1.3-0.8-1.7l-0.6-0.5c-0.4-0.4-1-0.6-1.5-0.6h-6.2c-0.6,0-1.1,0.2-1.5,0.6l-0.6,0.5
			c-0.5,0.4-0.8,1-0.8,1.7v4.8c0,0.6,0.3,1.1,0.7,1.4l0.6,0.5c0.4,0.4,1,0.6,1.5,0.6H69c0.2,0,0.3,0,0.3,0c0,0,0.1,0.1,0.1,0.1l0,0
			c0,0.1,0,0.1,0,0.2v3.9c0,0.1,0,0.1,0,0.2l0,0c-0.1,0.1-0.1,0.1-0.1,0.1c0,0-0.1,0-0.4,0h-4.9c-0.2,0-0.3,0-0.3,0
			c0,0-0.1-0.1-0.1-0.1l0,0c0-0.1,0-0.1,0-0.2v-1.1h-3.2v1.6c0,0.6,0.3,1.3,0.8,1.7l0.6,0.5c0.4,0.4,1,0.6,1.5,0.6h6.7
			c0.6,0,1.1-0.2,1.5-0.6l0.6-0.5c0.5-0.4,0.8-1,0.8-1.7V35c0-0.6-0.3-1.3-0.8-1.7L71.4,32.9z M76,25h3.2v17.6H76V25z M86.3,25h-3.2
			v17.6h11.3v-2.9h-8.1V25z M95.8,25H99v17.6h-3.2V25z M114.8,25.7c-0.4-0.4-1-0.6-1.5-0.6h-7.5c-0.6,0-1.1,0.2-1.5,0.6l-0.6,0.5
			c-0.5,0.4-0.8,1-0.8,1.7v12.1c0,0.6,0.3,1.3,0.8,1.7l0.6,0.5c0.4,0.4,1,0.6,1.5,0.6h7.5c0.6,0,1.1-0.2,1.5-0.6l0.6-0.5
			c0.5-0.4,0.8-1,0.8-1.7v-1.6h-3.2v1.1c0,0.1,0,0.1,0,0.2l0,0c-0.1,0.1-0.1,0.1-0.1,0.1c0,0-0.1,0-0.4,0h-5.8c-0.2,0-0.3,0-0.3,0
			c0,0-0.1-0.1-0.1-0.1l0,0c0-0.1,0-0.1,0-0.2V28.3c0-0.1,0-0.1,0-0.2l0,0c0.1-0.1,0.1-0.1,0.1-0.1c0,0,0.1,0,0.4,0h5.8
			c0.2,0,0.3,0,0.3,0c0,0,0.1,0.1,0.1,0.1l0,0c0,0.1,0,0.1,0,0.2v1.1h3.2v-1.6c0-0.6-0.3-1.3-0.8-1.7L114.8,25.7z M131.7,25.7
			c-0.4-0.4-1-0.6-1.5-0.6h-8.5c-0.6,0-1.1,0.2-1.5,0.6l-0.6,0.5c-0.5,0.4-0.8,1-0.8,1.7v12.1c0,0.6,0.3,1.3,0.8,1.7l0.6,0.5
			c0.4,0.4,1,0.6,1.5,0.6h8.5c0.6,0,1.1-0.2,1.5-0.6l0.6-0.5c0.5-0.4,0.8-1,0.8-1.7V27.8c0-0.6-0.3-1.3-0.8-1.7L131.7,25.7z
			 M129.8,28.3v11.1c0,0.1,0,0.1,0,0.2l0,0c-0.1,0.1-0.1,0.1-0.1,0.1c0,0-0.1,0-0.4,0h-6.8c-0.2,0-0.3,0-0.3,0h0
			c0,0-0.1-0.1-0.1-0.1l0,0c0-0.1,0-0.1,0-0.2V28.3c0-0.1,0-0.1,0-0.2l0,0c0.1-0.1,0.1-0.1,0.1-0.1c0,0,0.1,0,0.4,0h6.8
			c0.2,0,0.3,0,0.3,0c0,0,0.1,0.1,0.1,0.1l0,0C129.8,28.1,129.8,28.2,129.8,28.3L129.8,28.3z M147.3,25v11.6L139.8,25h-2.9v17.6h3.2
			V31.2l7.4,11.4h2.9V25H147.3z"/>
		<path class="st11" d="M67.1,62.2c0,0.1,0,0.1,0,0.2l0,0c-0.1,0.1-0.1,0.1-0.1,0.1s-0.1,0-0.4,0h-2.5c-0.2,0-0.3,0-0.3,0
			c0,0-0.1-0.1-0.1-0.1l0,0c0-0.1,0-0.1,0-0.2v-1.8h-3.2v2.3c0,0.6,0.3,1.3,0.8,1.7l0.6,0.5c0.4,0.4,1,0.6,1.5,0.6h4.2
			c0.6,0,1.1-0.2,1.5-0.6l0.6-0.5c0.5-0.4,0.8-1,0.8-1.7V47.9h-3.2L67.1,62.2z M84.6,62.2c0,0.1,0,0.1,0,0.2l0,0
			c-0.1,0.1-0.1,0.1-0.1,0.1s-0.1,0-0.4,0h-6.2c-0.2,0-0.3,0-0.3,0c0,0-0.1-0.1-0.1-0.1l0,0c0-0.1,0-0.1,0-0.2V47.9h-3.2v14.8
			c0,0.6,0.3,1.3,0.8,1.7l0.6,0.5c0.4,0.4,1,0.6,1.5,0.6h7.9c0.6,0,1.1-0.2,1.5-0.6l0.6-0.5c0.5-0.4,0.8-1,0.8-1.7V47.9h-3.2
			L84.6,62.2z M102,59.5l-7.4-11.6h-2.9v17.6h3.2V54l7.4,11.4h2.9V47.9H102V59.5z M120.9,48.5c-0.4-0.4-1-0.6-1.5-0.6H112
			c-0.6,0-1.1,0.2-1.5,0.6l-0.6,0.5c-0.5,0.4-0.8,1-0.8,1.7v12.1c0,0.6,0.3,1.3,0.8,1.7l0.6,0.5c0.4,0.4,1,0.6,1.5,0.6h7.4
			c0.6,0,1.1-0.2,1.5-0.6l0.6-0.5c0.5-0.4,0.8-1,0.8-1.7v-6.9h-6.8v2.9h3.5v3.5c0,0.1,0,0.1,0,0.2l0,0c-0.1,0.1-0.1,0.1-0.1,0.1
			c-0.1,0-0.2,0-0.4,0h-5.7c-0.2,0-0.3,0-0.3,0c0,0-0.1-0.1-0.1-0.1l0,0c0-0.1,0-0.1,0-0.2V51.1c0-0.1,0-0.1,0-0.2l0,0
			c0.1-0.1,0.1-0.1,0.1-0.1c0,0,0.1,0,0.4,0h5.7c0.2,0,0.3,0,0.3,0c0,0,0.1,0.1,0.1,0.1l0,0c0,0.1,0,0.1,0,0.2v1.1h3.2v-1.6
			c0-0.6-0.3-1.3-0.8-1.7L120.9,48.5z M128.8,47.9h-3.2v17.6h11.3v-2.9h-8.1V47.9z M138.2,65.5h11.7v-2.9h-8.5V58h7.2v-2.9h-7.2
			v-4.3h8.5v-2.9h-11.7V65.5z M164.2,56.2l-0.6-0.5c-0.4-0.4-1-0.6-1.5-0.6h-5.6c-0.2,0-0.3,0-0.3,0c0,0-0.1-0.1-0.1-0.1l0,0
			c0-0.1,0-0.1,0-0.2v-3.7c0-0.1,0-0.1,0-0.2l0,0c0.1-0.1,0.1-0.1,0.1-0.1s0.1,0,0.4,0h4.5c0.2,0,0.3,0,0.3,0c0,0,0.1,0.1,0.1,0.1
			l0,0c0,0.1,0,0.1,0,0.2v1.1h3.2v-1.6c0-0.6-0.3-1.3-0.8-1.7l-0.6-0.5c-0.4-0.4-1-0.6-1.5-0.6h-6.2c-0.6,0-1.1,0.2-1.5,0.6
			l-0.6,0.5c-0.5,0.4-0.8,1-0.8,1.7v4.8c0,0.6,0.3,1.1,0.7,1.4l0.6,0.5c0.4,0.4,1,0.6,1.5,0.6h5.6c0.2,0,0.3,0,0.3,0
			c0,0,0.1,0.1,0.1,0.1l0,0c0,0.1,0,0.1,0,0.2v3.9c0,0.1,0,0.1,0,0.2l0,0c-0.1,0.1-0.1,0.1-0.1,0.1s-0.1,0-0.4,0h-4.9
			c-0.2,0-0.3,0-0.3,0c0,0-0.1-0.1-0.1-0.1l0,0c0-0.1,0-0.1,0-0.2v-1.1h-3.2v1.6c0,0.6,0.3,1.3,0.8,1.7l0.6,0.5
			c0.4,0.4,1,0.6,1.5,0.6h6.7c0.6,0,1.1-0.2,1.5-0.6l0.6-0.5c0.5-0.4,0.8-1,0.8-1.7v-4.9C165,57.2,164.7,56.6,164.2,56.2z"/>
	</g>
</g>
<g id="Partner">
</g>
</svg>
