<?xml version="1.0" encoding="utf-8"?>
<!-- Generator: Adobe Illustrator 22.1.0, SVG Export Plug-In . SVG Version: 6.00 Build 0)  -->
<svg version="1.1" xmlns="http://www.w3.org/2000/svg" xmlns:xlink="http://www.w3.org/1999/xlink" x="0px" y="0px"
	 viewBox="0 0 180 90" style="enable-background:new 0 0 180 90;" xml:space="preserve">
<style type="text/css">
	.st0{fill:#0E0D0D;}
	.st1{fill:#110323;}
	.st2{fill:url(#SVGID_1_);}
	.st3{fill:url(#SVGID_2_);}
	.st4{fill:url(#SVGID_3_);}
	.st5{fill:url(#SVGID_4_);}
	.st6{fill:url(#SVGID_5_);}
	.st7{fill:url(#SVGID_6_);}
	.st8{clip-path:url(#SVGID_8_);}
	.st9{fill:url(#SVGID_9_);}
	.st10{fill:url(#SVGID_10_);}
	.st11{fill:url(#SVGID_11_);}
	.st12{fill:#231815;}
</style>
<g id="Platinum">
</g>
<g id="Silver">
</g>
<g id="Partner">
</g>
<g id="Speakers">
	<g>
		<g>
			<g>
				
					<linearGradient id="SVGID_1_" gradientUnits="userSpaceOnUse" x1="2629.6621" y1="-1679.7278" x2="2595.3672" y2="-1699.528" gradientTransform="matrix(-0.9397 -0.342 0.342 -0.9397 3140.1655 -663.7382)">
					<stop  offset="0" style="stop-color:#080058"/>
					<stop  offset="1" style="stop-color:#008BCD"/>
				</linearGradient>
				<path class="st2" d="M97,20c4.3,1.7,8,4.4,10.7,7.7c5.4,6.7,7.4,15.9,4.3,24.6c1.6-2.1,2.9-4.4,3.8-7c5.1-13.9-2.1-29.3-16-34.4
					l-3.2,8.9C96.7,19.9,96.9,20,97,20z"/>
				
					<linearGradient id="SVGID_2_" gradientUnits="userSpaceOnUse" x1="2608.8787" y1="-1713.1094" x2="2638.3533" y2="-1713.1094" gradientTransform="matrix(-0.9397 -0.342 0.342 -0.9397 3140.1655 -663.7382)">
					<stop  offset="0" style="stop-color:#080058"/>
					<stop  offset="1" style="stop-color:#0075C1"/>
				</linearGradient>
				<path class="st3" d="M84.7,52.5c-2.6-1-4.9-2.5-6.7-4.4l-6.9,6.5l0,0c1.4,0.9,2.9,1.6,4.5,2.2c12.6,4.6,26.4-1.8,31.2-14.2
					C103.4,51.3,93.6,55.7,84.7,52.5z"/>
				
					<linearGradient id="SVGID_3_" gradientUnits="userSpaceOnUse" x1="2601.5352" y1="-1701.2798" x2="2641.2314" y2="-1708.2793" gradientTransform="matrix(-0.9397 -0.342 0.342 -0.9397 3140.1655 -663.7382)">
					<stop  offset="0" style="stop-color:#080058"/>
					<stop  offset="1" style="stop-color:#008BCD"/>
				</linearGradient>
				<path class="st4" d="M75.6,56.8c-1.6-0.6-3.1-1.3-4.5-2.2c2.8,3,6.3,5.4,10.4,6.8c11.3,4.1,23.7,0.1,30.6-9
					c3-8.7,1.1-18-4.3-24.6c-2.7-3.4-6.4-6.1-10.7-7.7c8.6,3.4,13,12.9,10.1,21.7c0,0.1-0.1,0.3-0.1,0.4c-0.1,0.1-0.1,0.3-0.2,0.4
					C102.1,55,88.2,61.3,75.6,56.8z"/>
			</g>
			<g>
				
					<linearGradient id="SVGID_4_" gradientUnits="userSpaceOnUse" x1="2103.1746" y1="-1121.2568" x2="2068.8796" y2="-1141.057" gradientTransform="matrix(0.9397 0.342 -0.342 0.9397 -2274.043 387.0381)">
					<stop  offset="0" style="stop-color:#080058"/>
					<stop  offset="1" style="stop-color:#008BCD"/>
				</linearGradient>
				<path class="st5" d="M83.4,48c-4.3-1.7-8-4.4-10.7-7.7c-5.4-6.7-7.4-15.9-4.3-24.6c-1.6,2.1-2.9,4.4-3.8,7
					c-5.1,13.9,2.1,29.3,16,34.4l3.2-8.9C83.6,48.1,83.5,48.1,83.4,48z"/>
				
					<linearGradient id="SVGID_5_" gradientUnits="userSpaceOnUse" x1="2082.3911" y1="-1154.6384" x2="2111.8657" y2="-1154.6384" gradientTransform="matrix(0.9397 0.342 -0.342 0.9397 -2274.043 387.0381)">
					<stop  offset="0" style="stop-color:#080058"/>
					<stop  offset="1" style="stop-color:#0075C1"/>
				</linearGradient>
				<path class="st6" d="M95.7,15.5c2.6,1,4.9,2.5,6.7,4.4l6.9-6.5l0,0c-1.4-0.9-2.9-1.6-4.5-2.2c-12.6-4.6-26.4,1.8-31.2,14.2
					C77,16.8,86.8,12.3,95.7,15.5z"/>
				
					<linearGradient id="SVGID_6_" gradientUnits="userSpaceOnUse" x1="2075.0476" y1="-1142.8088" x2="2114.7439" y2="-1149.8083" gradientTransform="matrix(0.9397 0.342 -0.342 0.9397 -2274.043 387.0381)">
					<stop  offset="0" style="stop-color:#080058"/>
					<stop  offset="1" style="stop-color:#008BCD"/>
				</linearGradient>
				<path class="st7" d="M104.8,11.3c1.6,0.6,3.1,1.3,4.5,2.2c-2.8-3-6.3-5.4-10.4-6.8c-11.3-4.1-23.7-0.1-30.6,9
					c-3,8.7-1.1,18,4.3,24.6c2.7,3.4,6.4,6.1,10.7,7.7c-8.6-3.4-13-12.9-10.1-21.7c0-0.1,0.1-0.3,0.1-0.4c0.1-0.1,0.1-0.3,0.2-0.4
					C78.3,13.1,92.2,6.7,104.8,11.3z"/>
			</g>
			<g>
				<defs>
					<path id="SVGID_7_" d="M96.6,21.1c3.6,1.4,6.4,4,8.2,7.1l4.7-12.9c-2.6-2.4-5.7-4.3-9.2-5.6l-1.1-0.4l-4.1,11.1l1.1,0.4
						C96.3,21,96.5,21.1,96.6,21.1z"/>
				</defs>
				<clipPath id="SVGID_8_">
					<use xlink:href="#SVGID_7_"  style="overflow:visible;"/>
				</clipPath>
				<g class="st8">
					
						<linearGradient id="SVGID_9_" gradientUnits="userSpaceOnUse" x1="2629.6621" y1="-1679.7278" x2="2595.3672" y2="-1699.528" gradientTransform="matrix(-0.9397 -0.342 0.342 -0.9397 3140.1655 -663.7382)">
						<stop  offset="0" style="stop-color:#080058"/>
						<stop  offset="1" style="stop-color:#008BCD"/>
					</linearGradient>
					<path class="st9" d="M97,20c4.3,1.7,8,4.4,10.7,7.7c5.4,6.7,7.4,15.9,4.3,24.6c1.6-2.1,2.9-4.4,3.8-7
						c5.1-13.9-2.1-29.3-16-34.4l-3.2,8.9C96.7,19.9,96.9,20,97,20z"/>
					
						<linearGradient id="SVGID_10_" gradientUnits="userSpaceOnUse" x1="2608.8787" y1="-1713.1094" x2="2638.3533" y2="-1713.1094" gradientTransform="matrix(-0.9397 -0.342 0.342 -0.9397 3140.1655 -663.7382)">
						<stop  offset="0" style="stop-color:#080058"/>
						<stop  offset="1" style="stop-color:#0075C1"/>
					</linearGradient>
					<path class="st10" d="M84.7,52.5c-2.6-1-4.9-2.5-6.7-4.4l-6.9,6.5l0,0c1.4,0.9,2.9,1.6,4.5,2.2c12.6,4.6,26.4-1.8,31.2-14.2
						C103.4,51.3,93.6,55.7,84.7,52.5z"/>
					
						<linearGradient id="SVGID_11_" gradientUnits="userSpaceOnUse" x1="2601.5352" y1="-1701.2798" x2="2641.2314" y2="-1708.2793" gradientTransform="matrix(-0.9397 -0.342 0.342 -0.9397 3140.1655 -663.7382)">
						<stop  offset="0" style="stop-color:#080058"/>
						<stop  offset="1" style="stop-color:#008BCD"/>
					</linearGradient>
					<path class="st11" d="M75.6,56.8c-1.6-0.6-3.1-1.3-4.5-2.2c2.8,3,6.3,5.4,10.4,6.8c11.3,4.1,23.7,0.1,30.6-9
						c3-8.7,1.1-18-4.3-24.6c-2.7-3.4-6.4-6.1-10.7-7.7c8.6,3.4,13,12.9,10.1,21.7c0,0.1-0.1,0.3-0.1,0.4c-0.1,0.1-0.1,0.3-0.2,0.4
						C102.1,55,88.2,61.3,75.6,56.8z"/>
				</g>
			</g>
		</g>
		<g>
			<path class="st12" d="M107.5,76.7c0-0.2,0-0.5,0-0.7c-0.1-0.6-0.3-1.3-0.6-1.8c-0.9-1.8-2.6-2.9-4.5-2.9c-2.8,0-5.1,2.4-5.1,5.4
				s2.3,5.4,5.2,5.4c1.7,0,3.2-0.8,4.2-2.2l-1.7-1.2c-0.6,0.8-1.5,1.3-2.5,1.3c-1.5,0-2.7-1.1-3-2.5h7.9
				C107.4,77.2,107.5,77,107.5,76.7z M99.5,76c0.3-1.5,1.5-2.6,2.9-2.6c1.1,0,2.1,0.7,2.6,1.7c0.1,0.3,0.2,0.6,0.3,0.9H99.5z"/>
			<path class="st12" d="M119.3,76.7c0-0.2,0-0.5,0-0.7c-0.1-0.6-0.3-1.3-0.6-1.8c-0.9-1.8-2.6-2.9-4.5-2.9c-2.8,0-5.1,2.4-5.1,5.4
				s2.3,5.4,5.2,5.4c1.7,0,3.2-0.8,4.2-2.2l-1.7-1.2c-0.6,0.8-1.5,1.3-2.5,1.3c-1.5,0-2.7-1.1-3-2.5h7.9
				C119.3,77.2,119.3,77,119.3,76.7z M111.3,76c0.3-1.5,1.5-2.6,2.9-2.6c1.1,0,2.1,0.7,2.6,1.7c0.1,0.3,0.2,0.6,0.3,0.9H111.3z"/>
			<path class="st12" d="M95.6,76.7c0-0.2,0-0.5,0-0.7c-0.1-0.6-0.3-1.3-0.6-1.8c-0.9-1.8-2.6-2.9-4.5-2.9c-2.8,0-5.1,2.4-5.1,5.4
				s2.3,5.4,5.2,5.4c1.7,0,3.2-0.8,4.2-2.2l-1.7-1.2c-0.6,0.8-1.5,1.3-2.5,1.3c-1.5,0-2.7-1.1-3-2.5h7.9
				C95.6,77.2,95.6,77,95.6,76.7z M87.7,76c0.3-1.5,1.5-2.6,2.9-2.6c1.1,0,2.1,0.7,2.6,1.7c0.1,0.3,0.2,0.6,0.3,0.9H87.7z"/>
			<path class="st12" d="M78.6,71.3c-1.1,0-2.2,0.4-3,1v-0.8h-2.3V85h2.3v-3.9c0.9,0.6,1.9,1,3,1c2.9,0,5.2-2.4,5.2-5.4
				C83.8,73.7,81.5,71.3,78.6,71.3z M78.6,80c-1.7,0-3.1-1.5-3.1-3.3c0-1.8,1.4-3.3,3.1-3.3c1.7,0,3.1,1.5,3.1,3.3
				C81.7,78.5,80.3,80,78.6,80z"/>
			<path class="st12" d="M66.3,73.3L66.3,73.3c-2.2-0.5-3-1.1-3-2c0-0.9,1.2-1.7,2.5-1.7v0c1.2,0,2.3,0.4,3.1,1l1.2-2.1
				c-1.2-0.9-2.8-1.3-4.4-1.3c-1.3,0-2.5,0.4-3.4,1.1c-1,0.8-1.6,1.9-1.6,3c0,3.1,3.4,4,4.8,4.3c2.2,0.6,3,1.1,3,2.1
				c0,1-1.2,1.9-2.5,1.9v0c-1.5,0-2.9-0.5-4-1.3l-0.8,1l-0.7,0.9c1.5,1.2,3.4,1.9,5.5,1.9c2.7,0,5-1.9,5-4.3
				C71.2,74.5,67.8,73.7,66.3,73.3z"/>
		</g>
	</g>
</g>
</svg>
