<?xml version="1.0" standalone="no"?>
<!DOCTYPE svg PUBLIC "-//W3C//DTD SVG 20010904//EN"
 "http://www.w3.org/TR/2001/REC-SVG-20010904/DTD/svg10.dtd">
<svg version="1.0" xmlns="http://www.w3.org/2000/svg"
 width="300.000000pt" height="300.000000pt" viewBox="0 0 300.000000 300.000000"
 preserveAspectRatio="xMidYMid meet">
<metadata>
Created by potrace 1.11, written by Peter Selinger 2001-2013
</metadata>
<g transform="translate(0.000000,300.000000) scale(0.100000,-0.100000)"
fill="#000000" stroke="none">
<path d="M1426 2648 c-74 -16 -243 -114 -389 -226 -128 -98 -198 -161 -352
-316 -154 -155 -249 -272 -313 -386 -34 -60 -37 -71 -37 -145 1 -44 4 -123 8
-175 5 -52 10 -119 12 -149 8 -105 17 -226 20 -261 4 -44 18 -251 18 -267 0
-7 58 -57 128 -112 l128 -99 68 -6 c37 -3 111 -8 163 -11 52 -3 124 -8 160
-10 36 -2 108 -7 160 -10 52 -3 122 -8 155 -10 33 -2 110 -7 170 -10 61 -3
133 -8 160 -10 28 -2 100 -7 160 -10 61 -4 135 -8 165 -10 30 -2 105 -7 165
-10 61 -3 128 -8 150 -10 22 -2 96 -7 165 -11 69 -3 129 -9 134 -11 4 -3 5
103 2 238 -14 530 -20 750 -32 1249 -3 146 -7 304 -8 352 l-2 87 -65 62 c-35
33 -98 94 -139 135 -83 81 -71 77 -237 89 -51 3 -103 8 -115 10 -13 2 -68 6
-123 10 -55 4 -113 8 -130 10 -16 2 -69 6 -116 10 -48 3 -111 10 -140 14 -30
4 -71 3 -93 -1z"/>
</g>
</svg>
